<svg width="80" height="80" viewBox="0 0 80 80" fill="none" xmlns="http://www.w3.org/2000/svg">
<path d="M40 6.66675C21.59 6.66675 6.66667 21.5901 6.66667 40.0001C6.66667 58.4101 21.59 73.3334 40 73.3334C58.41 73.3334 73.3333 58.4101 73.3333 40.0001C73.3333 21.5901 58.41 6.66675 40 6.66675Z" fill="url(#paint0_linear_371_993)"/>
<path d="M44.5109 48.8349H53.1376L54.4926 40.0716H44.5109V35.2816C44.5109 31.6416 45.7009 28.4133 49.1059 28.4133H54.5776V20.7666C53.6159 20.6366 51.5826 20.3533 47.7409 20.3533C39.7176 20.3533 35.0143 24.5899 35.0143 34.2433V40.0733H26.7659V48.8366H35.0126V72.9233C36.6459 73.1666 38.3009 73.3333 39.9993 73.3333C41.5343 73.3333 43.0326 73.1933 44.5109 72.9933V48.8349Z" fill="white"/>
<defs>
<linearGradient id="paint0_linear_371_993" x1="16.655" y1="16.6551" x2="67.6917" y2="67.6917" gradientUnits="userSpaceOnUse">
<stop stop-color="#2AA4F4"/>
<stop offset="1" stop-color="#007AD9"/>
</linearGradient>
</defs>
</svg>
