<svg width="410" height="367" viewBox="0 0 410 367" fill="none" xmlns="http://www.w3.org/2000/svg">
<g clip-path="url(#clip0_0_2672)">
<g clip-path="url(#clip1_0_2672)">
<rect y="0.599609" width="670" height="244.328" rx="7.2043" fill="white"/>
<rect x="14.4086" y="16.0046" width="12.0072" height="12.0072" rx="3.00179" fill="#0188FF"/>
<path fill-rule="evenodd" clip-rule="evenodd" d="M22.6635 19.6068C22.4564 19.6068 22.2688 19.6908 22.133 19.8267L21.3825 20.5771L19.6617 22.2979L18.6914 21.3276C18.5556 21.1917 18.368 21.1077 18.1608 21.1077C17.7466 21.1077 17.4104 21.4439 17.4104 21.8581C17.4104 22.0652 17.4945 22.2529 17.6303 22.3887L19.1312 23.8896C19.267 24.0254 19.4546 24.1095 19.6617 24.1095C19.8689 24.1095 20.0565 24.0254 20.1923 23.8896L22.4437 21.6382L23.1941 20.8878C23.3299 20.752 23.414 20.5644 23.414 20.3572C23.414 19.9426 23.0778 19.6068 22.6635 19.6068Z" fill="white"/>
<path d="M35.6697 25.0082V18.2401H36.7204V25.0082H35.6697ZM38.301 25.0082V19.9145H39.3188V20.6978H39.3938C39.619 20.1397 40.1161 19.8161 40.7822 19.8161C41.4763 19.8161 41.9688 20.1772 42.194 20.726H42.2737C42.5317 20.1772 43.1179 19.8161 43.8262 19.8161C44.8534 19.8161 45.4537 20.4352 45.4537 21.4952V25.0082H44.4406V21.7391C44.4406 21.0355 44.1217 20.6884 43.4556 20.6884C42.8084 20.6884 42.3816 21.1715 42.3816 21.786V25.0082H41.3685V21.6359C41.3685 21.0543 40.9885 20.6884 40.3882 20.6884C39.7738 20.6884 39.3188 21.2138 39.3188 21.8798V25.0082H38.301ZM46.8749 26.7061V19.9145H47.8927V20.7166H47.9677C48.2632 20.1584 48.8213 19.8254 49.5343 19.8254C50.8194 19.8254 51.6449 20.8526 51.6449 22.4567V22.4661C51.6449 24.0795 50.8288 25.0926 49.5343 25.0926C48.8354 25.0926 48.2397 24.7502 47.9677 24.2015H47.8927V26.7061H46.8749ZM49.2482 24.2249C50.0971 24.2249 50.6084 23.5589 50.6084 22.4661V22.4567C50.6084 21.3592 50.0971 20.6978 49.2482 20.6978C48.3992 20.6978 47.8739 21.3685 47.8739 22.4567V22.4661C47.8739 23.5542 48.3992 24.2249 49.2482 24.2249ZM52.8691 25.0082V19.9145H53.8869V20.6838H53.9619C54.1448 20.1444 54.6186 19.8254 55.2987 19.8254C55.4628 19.8254 55.641 19.8489 55.7442 19.8723V20.8104C55.5613 20.7729 55.3878 20.7494 55.1955 20.7494C54.4169 20.7494 53.8869 21.2278 53.8869 21.9642V25.0082H52.8691ZM58.7226 25.1067C57.2311 25.1067 56.3305 24.0889 56.3305 22.4755V22.4708C56.3305 20.8807 57.2498 19.8161 58.671 19.8161C60.0921 19.8161 60.9645 20.8432 60.9645 22.3723V22.7287H57.353C57.3718 23.7043 57.9065 24.2718 58.746 24.2718C59.398 24.2718 59.7873 23.9482 59.9092 23.6855L59.928 23.648L60.9082 23.6433L60.8989 23.6855C60.73 24.3563 60.0265 25.1067 58.7226 25.1067ZM58.6757 20.6509C57.9815 20.6509 57.4562 21.1246 57.3671 22.0017H59.9561C59.8764 21.0918 59.3651 20.6509 58.6757 20.6509ZM64.0273 25.1067C62.7984 25.1067 62.0199 24.5298 61.9214 23.6762V23.6715H62.9392L62.9438 23.6762C63.0705 24.0608 63.441 24.3187 64.0461 24.3187C64.6746 24.3187 65.1108 24.0326 65.1108 23.6152V23.6058C65.1108 23.2869 64.8716 23.0711 64.2806 22.9351L63.4692 22.7475C62.5076 22.527 62.0621 22.0908 62.0621 21.3451V21.3404C62.0621 20.4539 62.8876 19.8161 64.0414 19.8161C65.2046 19.8161 65.9503 20.3976 66.0394 21.2278V21.2325H65.0685V21.2231C64.9701 20.8667 64.6089 20.5993 64.0367 20.5993C63.4785 20.5993 63.0752 20.8761 63.0752 21.2841V21.2935C63.0752 21.6124 63.3097 21.8094 63.8819 21.9454L64.6886 22.1284C65.6689 22.3582 66.1379 22.7756 66.1379 23.512V23.5214C66.1379 24.4641 65.2374 25.1067 64.0273 25.1067ZM69.1116 25.1067C67.8827 25.1067 67.1041 24.5298 67.0056 23.6762V23.6715H68.0234L68.0281 23.6762C68.1548 24.0608 68.5253 24.3187 69.1303 24.3187C69.7588 24.3187 70.195 24.0326 70.195 23.6152V23.6058C70.195 23.2869 69.9558 23.0711 69.3649 22.9351L68.5534 22.7475C67.5919 22.527 67.1463 22.0908 67.1463 21.3451V21.3404C67.1463 20.4539 67.9718 19.8161 69.1257 19.8161C70.2889 19.8161 71.0346 20.3976 71.1237 21.2278V21.2325H70.1528V21.2231C70.0543 20.8667 69.6932 20.5993 69.121 20.5993C68.5628 20.5993 68.1595 20.8761 68.1595 21.2841V21.2935C68.1595 21.6124 68.394 21.8094 68.9662 21.9454L69.7729 22.1284C70.7532 22.3582 71.2222 22.7756 71.2222 23.512V23.5214C71.2222 24.4641 70.3217 25.1067 69.1116 25.1067ZM72.967 19.0046C72.6152 19.0046 72.3291 18.7185 72.3291 18.3714C72.3291 18.0197 72.6152 17.7336 72.967 17.7336C73.3141 17.7336 73.6049 18.0197 73.6049 18.3714C73.6049 18.7185 73.3141 19.0046 72.967 19.0046ZM72.4558 25.0082V19.9145H73.4689V25.0082H72.4558ZM77.1085 25.1067C75.6123 25.1067 74.6977 24.1077 74.6977 22.4661V22.4567C74.6977 20.8198 75.617 19.8161 77.1085 19.8161C78.5954 19.8161 79.5147 20.8151 79.5147 22.4567V22.4661C79.5147 24.1077 78.6001 25.1067 77.1085 25.1067ZM77.1085 24.2578C77.9809 24.2578 78.4781 23.5917 78.4781 22.4661V22.4567C78.4781 21.3263 77.9809 20.665 77.1085 20.665C76.2315 20.665 75.739 21.3263 75.739 22.4567V22.4661C75.739 23.5964 76.2315 24.2578 77.1085 24.2578ZM80.7295 25.0082V19.9145H81.7473V20.6884H81.8223C82.0709 20.1444 82.5587 19.8161 83.2997 19.8161C84.4395 19.8161 85.068 20.4961 85.068 21.7109V25.0082H84.0549V21.9501C84.0549 21.1059 83.7031 20.6884 82.9574 20.6884C82.2116 20.6884 81.7473 21.1997 81.7473 22.0205V25.0082H80.7295ZM88.3418 25.1067C87.113 25.1067 86.3344 24.5298 86.2359 23.6762V23.6715H87.2537L87.2584 23.6762C87.385 24.0608 87.7555 24.3187 88.3606 24.3187C88.9891 24.3187 89.4253 24.0326 89.4253 23.6152V23.6058C89.4253 23.2869 89.1861 23.0711 88.5951 22.9351L87.7837 22.7475C86.8222 22.527 86.3766 22.0908 86.3766 21.3451V21.3404C86.3766 20.4539 87.2021 19.8161 88.3559 19.8161C89.5191 19.8161 90.2648 20.3976 90.354 21.2278V21.2325H89.3831V21.2231C89.2846 20.8667 88.9234 20.5993 88.3512 20.5993C87.7931 20.5993 87.3897 20.8761 87.3897 21.2841V21.2935C87.3897 21.6124 87.6242 21.8094 88.1964 21.9454L89.0031 22.1284C89.9834 22.3582 90.4525 22.7756 90.4525 23.512V23.5214C90.4525 24.4641 89.5519 25.1067 88.3418 25.1067Z" fill="#5D778D"/>
<path fill-rule="evenodd" clip-rule="evenodd" d="M99.0251 17.6056C96.5936 17.6056 94.6225 19.5767 94.6225 22.0082C94.6225 24.4397 96.5936 26.4108 99.0251 26.4108C101.457 26.4108 103.428 24.4397 103.428 22.0082C103.428 19.5767 101.457 17.6056 99.0251 17.6056ZM98.5875 20.5158C98.7505 20.42 98.9421 20.385 99.1284 20.417C99.3147 20.4489 99.4837 20.5458 99.6055 20.6904C99.7272 20.835 99.7938 21.0181 99.7936 21.2071L99.7936 21.2077C99.7936 21.3955 99.6474 21.5912 99.3714 21.7752C99.2456 21.8591 99.1169 21.9237 99.0181 21.9676C98.9693 21.9893 98.9292 22.0054 98.9022 22.0157C98.8902 22.0202 98.8782 22.0246 98.8661 22.0289C98.6567 22.0989 98.5435 22.3254 98.6134 22.535C98.6833 22.7447 98.9099 22.858 99.1196 22.7881L99.1872 22.7637C99.2258 22.749 99.2795 22.7275 99.3432 22.6991C99.4696 22.643 99.6411 22.5575 99.8154 22.4413C100.14 22.2251 100.594 21.8206 100.594 21.2081C100.595 20.8301 100.461 20.4641 100.218 20.1749C99.9744 19.8857 99.6364 19.6919 99.2637 19.628C98.8911 19.5641 98.5079 19.6341 98.1819 19.8257C97.8559 20.0173 97.6083 20.318 97.4828 20.6747C97.4095 20.8832 97.5191 21.1117 97.7276 21.185C97.9361 21.2584 98.1646 21.1488 98.238 20.9403C98.3007 20.762 98.4245 20.6116 98.5875 20.5158ZM99.0251 23.6092C98.804 23.6092 98.6249 23.7883 98.6249 24.0094C98.6249 24.2304 98.804 24.4096 99.0251 24.4096H99.0291C99.2501 24.4096 99.4293 24.2304 99.4293 24.0094C99.4293 23.7883 99.2501 23.6092 99.0291 23.6092H99.0251Z" fill="#5D778D"/>
<rect x="14.4086" y="41.8111" width="12.0072" height="4.80287" rx="1.80108" fill="#6464C6"/>
<path d="M37.7137 48.3665C35.596 48.3665 34.1309 47.3138 34.1309 45.7871V45.7748C34.1309 44.6236 34.9866 43.7741 36.1808 43.5402V43.5032C35.1528 43.2508 34.4572 42.506 34.4572 41.5579V41.5456C34.4572 40.1728 35.793 39.1755 37.7137 39.1755C39.6282 39.1755 40.9702 40.1728 40.9702 41.5456V41.5579C40.9702 42.506 40.2684 43.2508 39.2465 43.5032V43.5402C40.4346 43.7741 41.2903 44.6236 41.2903 45.7748V45.7871C41.2903 47.3138 39.8314 48.3665 37.7137 48.3665ZM37.7137 42.943C38.5509 42.943 39.1296 42.4444 39.1296 41.7303V41.718C39.1296 41.01 38.5447 40.5176 37.7137 40.5176C36.8826 40.5176 36.2916 41.01 36.2916 41.718V41.7303C36.2916 42.4444 36.8765 42.943 37.7137 42.943ZM37.7137 47.0122C38.6802 47.0122 39.3635 46.4458 39.3635 45.664V45.6517C39.3635 44.8637 38.6925 44.2912 37.7137 44.2912C36.7349 44.2912 36.0577 44.8637 36.0577 45.6517V45.664C36.0577 46.4458 36.741 47.0122 37.7137 47.0122ZM42.3723 48.2126V46.9383L45.5119 44.0019C46.6569 42.9307 46.897 42.4936 46.897 41.878V41.8657C46.8908 41.1393 46.3368 40.6222 45.5488 40.6222C44.6377 40.6222 44.0221 41.2193 43.9975 42.0196L43.9913 42.075H42.2677V42.0258C42.2677 40.3513 43.6589 39.1755 45.5365 39.1755C47.4141 39.1755 48.7069 40.2467 48.7069 41.7611V41.7734C48.7069 42.8507 48.1959 43.5525 46.6631 44.9622L44.8039 46.6613V46.7351H48.83V48.2126H42.3723ZM55.7402 39.1755C57.8825 39.1755 59.4462 40.6776 59.4462 43.6879V43.7002C59.4462 46.612 58.0364 48.3665 55.7218 48.3665C54.0042 48.3665 52.7115 47.3692 52.4468 45.9964L52.4345 45.941H54.2689L54.2874 45.9903C54.509 46.5258 55.0015 46.889 55.7279 46.889C57.0268 46.889 57.5932 45.6517 57.6609 44.0819C57.6671 43.9649 57.6732 43.8418 57.6671 43.7433H57.6363C57.2854 44.5682 56.4112 45.1715 55.2108 45.1715C53.4933 45.1715 52.3175 43.9588 52.3175 42.2905V42.2782C52.3175 40.4622 53.7642 39.1755 55.7402 39.1755ZM55.7464 43.7987C56.676 43.7987 57.39 43.1523 57.39 42.2474V42.2412C57.39 41.3425 56.676 40.653 55.7649 40.653C54.8599 40.653 54.1274 41.3363 54.1274 42.2166V42.2289C54.1274 43.1523 54.823 43.7987 55.7464 43.7987ZM63.9817 48.3665C61.864 48.3665 60.3989 47.3138 60.3989 45.7871V45.7748C60.3989 44.6236 61.2546 43.7741 62.4488 43.5402V43.5032C61.4208 43.2508 60.7251 42.506 60.7251 41.5579V41.5456C60.7251 40.1728 62.061 39.1755 63.9817 39.1755C65.8962 39.1755 67.2382 40.1728 67.2382 41.5456V41.5579C67.2382 42.506 66.5364 43.2508 65.5145 43.5032V43.5402C66.7026 43.7741 67.5583 44.6236 67.5583 45.7748V45.7871C67.5583 47.3138 66.0993 48.3665 63.9817 48.3665ZM63.9817 42.943C64.8189 42.943 65.3976 42.4444 65.3976 41.7303V41.718C65.3976 41.01 64.8127 40.5176 63.9817 40.5176C63.1506 40.5176 62.5596 41.01 62.5596 41.718V41.7303C62.5596 42.4444 63.1444 42.943 63.9817 42.943ZM63.9817 47.0122C64.9482 47.0122 65.6315 46.4458 65.6315 45.664V45.6517C65.6315 44.8637 64.9605 44.2912 63.9817 44.2912C63.0029 44.2912 62.3257 44.8637 62.3257 45.6517V45.664C62.3257 46.4458 63.009 47.0122 63.9817 47.0122ZM69.102 48.2126L72.9249 40.8438V40.8069H68.4064V39.3294H74.7594V40.8254L71.0535 48.2126H69.102Z" fill="#131D27"/>
<rect x="145.527" y="16.0046" width="12.0072" height="12.0072" rx="3.00179" fill="#0188FF"/>
<path fill-rule="evenodd" clip-rule="evenodd" d="M153.782 19.6068C153.575 19.6068 153.387 19.6908 153.251 19.8267L152.501 20.5771L150.78 22.2979L149.81 21.3276C149.674 21.1917 149.486 21.1077 149.279 21.1077C148.865 21.1077 148.529 21.4439 148.529 21.8581C148.529 22.0652 148.613 22.2529 148.749 22.3887L150.249 23.8896C150.385 24.0254 150.573 24.1095 150.78 24.1095C150.987 24.1095 151.175 24.0254 151.311 23.8896L153.562 21.6382L154.312 20.8878C154.448 20.752 154.532 20.5643 154.532 20.3572C154.532 19.9426 154.196 19.6068 153.782 19.6068Z" fill="white"/>
<path d="M169.565 25.1724C167.684 25.1724 166.511 23.8122 166.511 21.6312V21.6218C166.511 19.4361 167.679 18.0759 169.56 18.0759C171.052 18.0759 172.196 19.0187 172.374 20.3648L172.369 20.3883H171.328V20.3742C171.131 19.544 170.451 19.0046 169.56 19.0046C168.345 19.0046 167.585 20.013 167.585 21.6218V21.6312C167.585 23.2353 168.345 24.2437 169.565 24.2437C170.461 24.2437 171.131 23.7653 171.324 23.0008L171.333 22.982H172.374V23.0101C172.177 24.3094 171.075 25.1724 169.565 25.1724ZM173.687 25.0082V17.9165H174.705V25.0082H173.687ZM176.75 19.0046C176.398 19.0046 176.112 18.7185 176.112 18.3714C176.112 18.0197 176.398 17.7336 176.75 17.7336C177.097 17.7336 177.388 18.0197 177.388 18.3714C177.388 18.7185 177.097 19.0046 176.75 19.0046ZM176.239 25.0082V19.9145H177.252V25.0082H176.239ZM180.878 25.1067C179.391 25.1067 178.481 24.0936 178.481 22.4473V22.4379C178.481 20.8245 179.386 19.8161 180.873 19.8161C182.153 19.8161 182.918 20.5384 183.059 21.528V21.5515L182.083 21.5562L182.078 21.5421C181.966 21.0402 181.553 20.665 180.878 20.665C180.029 20.665 179.518 21.3404 179.518 22.4379V22.4473C179.518 23.573 180.038 24.2578 180.878 24.2578C181.516 24.2578 181.91 23.967 182.074 23.4182L182.083 23.3947H183.059L183.049 23.437C182.866 24.4266 182.139 25.1067 180.878 25.1067ZM184.259 25.0082V17.9165H185.277V22.0627H185.352L187.374 19.9145H188.565L186.44 22.0627L188.706 25.0082H187.468L185.713 22.7193L185.277 23.1555V25.0082H184.259ZM191.29 25.1067C190.061 25.1067 189.283 24.5298 189.184 23.6762V23.6715H190.202L190.207 23.6762C190.333 24.0608 190.704 24.3187 191.309 24.3187C191.937 24.3187 192.374 24.0326 192.374 23.6152V23.6058C192.374 23.2869 192.134 23.0711 191.543 22.9351L190.732 22.7475C189.771 22.527 189.325 22.0908 189.325 21.3451V21.3404C189.325 20.4539 190.15 19.8161 191.304 19.8161C192.467 19.8161 193.213 20.3976 193.302 21.2278V21.2325H192.331V21.2231C192.233 20.8667 191.872 20.5993 191.3 20.5993C190.741 20.5993 190.338 20.8761 190.338 21.2841V21.2935C190.338 21.6124 190.573 21.8094 191.145 21.9454L191.951 22.1284C192.932 22.3582 193.401 22.7756 193.401 23.512V23.5214C193.401 24.4641 192.5 25.1067 191.29 25.1067Z" fill="#5D778D"/>
<path fill-rule="evenodd" clip-rule="evenodd" d="M201.143 17.6056C198.712 17.6056 196.741 19.5767 196.741 22.0082C196.741 24.4397 198.712 26.4108 201.143 26.4108C203.575 26.4108 205.546 24.4397 205.546 22.0082C205.546 19.5767 203.575 17.6056 201.143 17.6056ZM200.706 20.5158C200.869 20.42 201.06 20.385 201.247 20.417C201.433 20.4489 201.602 20.5458 201.724 20.6904C201.846 20.835 201.912 21.0181 201.912 21.2071L201.912 21.2077C201.912 21.3955 201.766 21.5912 201.49 21.7752C201.364 21.8591 201.235 21.9237 201.136 21.9676C201.088 21.9893 201.047 22.0054 201.021 22.0157C201.009 22.0202 200.996 22.0246 200.984 22.0289C200.775 22.0989 200.662 22.3254 200.732 22.535C200.802 22.7447 201.028 22.858 201.238 22.7881L201.305 22.7637C201.344 22.749 201.398 22.7275 201.462 22.6991C201.588 22.643 201.759 22.5575 201.934 22.4413C202.258 22.2251 202.712 21.8206 202.712 21.2081C202.713 20.8301 202.58 20.4641 202.336 20.1749C202.093 19.8857 201.755 19.6919 201.382 19.628C201.009 19.5641 200.626 19.6341 200.3 19.8257C199.974 20.0173 199.727 20.318 199.601 20.6747C199.528 20.8832 199.637 21.1117 199.846 21.185C200.054 21.2584 200.283 21.1488 200.356 20.9403C200.419 20.762 200.543 20.6116 200.706 20.5158ZM201.143 23.6092C200.922 23.6092 200.743 23.7883 200.743 24.0094C200.743 24.2304 200.922 24.4096 201.143 24.4096H201.147C201.368 24.4096 201.548 24.2304 201.548 24.0094C201.548 23.7883 201.368 23.6092 201.147 23.6092H201.143Z" fill="#5D778D"/>
<rect x="145.527" y="41.8111" width="12.0072" height="4.80287" rx="1.80108" fill="#37A2FF"/>
<path d="M168.672 48.3665C166.659 48.3665 165.341 47.3077 165.218 45.7748L165.212 45.6948H166.985L166.997 45.7625C167.077 46.3966 167.705 46.8706 168.666 46.8706C169.62 46.8706 170.236 46.3596 170.236 45.6332V45.6209C170.236 44.7714 169.601 44.3035 168.53 44.3035H167.515V42.98H168.506C169.435 42.98 170.039 42.4875 170.039 41.7672V41.7549C170.039 41.0347 169.528 40.6038 168.653 40.6038C167.785 40.6038 167.194 41.0531 167.121 41.7426L167.114 41.798H165.409L165.415 41.7242C165.538 40.1851 166.788 39.1756 168.653 39.1756C170.568 39.1756 171.799 40.1113 171.799 41.5087V41.521C171.799 42.6291 170.987 43.3493 169.946 43.5648V43.6017C171.264 43.7249 172.125 44.4882 172.125 45.6948V45.7071C172.125 47.2953 170.746 48.3665 168.672 48.3665ZM176.79 48.3665C174.648 48.3665 173.084 46.8583 173.084 43.848V43.8357C173.084 40.9239 174.494 39.1756 176.809 39.1756C178.526 39.1756 179.819 40.1667 180.084 41.5395L180.096 41.601H178.261L178.243 41.5456C178.021 41.0101 177.529 40.6468 176.803 40.6468C175.504 40.6468 174.937 41.8842 174.87 43.454C174.863 43.5771 174.857 43.7002 174.857 43.7926H174.894C175.245 42.9677 176.119 42.3644 177.32 42.3644C179.037 42.3644 180.213 43.5833 180.213 45.2454V45.2577C180.213 47.0737 178.766 48.3665 176.79 48.3665ZM175.14 45.3008C175.14 46.1934 175.854 46.8891 176.766 46.8891C177.671 46.8891 178.403 46.1996 178.403 45.3254V45.3131C178.403 44.3897 177.707 43.7372 176.784 43.7372C175.854 43.7372 175.14 44.3836 175.14 45.2885V45.3008ZM187.271 48.3665C185.153 48.3665 183.688 47.3138 183.688 45.7871V45.7748C183.688 44.6236 184.544 43.7741 185.738 43.5402V43.5032C184.71 43.2508 184.014 42.506 184.014 41.5579V41.5456C184.014 40.1728 185.35 39.1756 187.271 39.1756C189.185 39.1756 190.527 40.1728 190.527 41.5456V41.5579C190.527 42.506 189.826 43.2508 188.804 43.5032V43.5402C189.992 43.7741 190.848 44.6236 190.848 45.7748V45.7871C190.848 47.3138 189.389 48.3665 187.271 48.3665ZM187.271 42.943C188.108 42.943 188.687 42.4444 188.687 41.7303V41.718C188.687 41.0101 188.102 40.5176 187.271 40.5176C186.44 40.5176 185.849 41.0101 185.849 41.718V41.7303C185.849 42.4444 186.434 42.943 187.271 42.943ZM187.271 47.0122C188.237 47.0122 188.921 46.4458 188.921 45.664V45.6517C188.921 44.8637 188.25 44.2912 187.271 44.2912C186.292 44.2912 185.615 44.8637 185.615 45.6517V45.664C185.615 46.4458 186.298 47.0122 187.271 47.0122ZM191.93 48.2126V46.9383L195.069 44.0019C196.214 42.9307 196.454 42.4937 196.454 41.8781V41.8657C196.448 41.1393 195.894 40.6222 195.106 40.6222C194.195 40.6222 193.579 41.2194 193.555 42.0196L193.549 42.075H191.825V42.0258C191.825 40.3514 193.216 39.1756 195.094 39.1756C196.971 39.1756 198.264 40.2467 198.264 41.7611V41.7734C198.264 42.8507 197.753 43.5525 196.22 44.9622L194.361 46.6613V46.7352H198.387V48.2126H191.93ZM202.947 48.3665C200.694 48.3665 199.328 46.5997 199.328 43.7741V43.7618C199.328 40.9362 200.694 39.1756 202.947 39.1756C205.2 39.1756 206.567 40.9362 206.567 43.7618V43.7741C206.567 46.5997 205.2 48.3665 202.947 48.3665ZM202.947 46.8767C204.055 46.8767 204.69 45.7256 204.69 43.7741V43.7618C204.69 41.8103 204.055 40.6653 202.947 40.6653C201.839 40.6653 201.205 41.8103 201.205 43.7618V43.7741C201.205 45.7256 201.839 46.8767 202.947 46.8767Z" fill="#131D27"/>
<rect x="276.645" y="16.0046" width="12.0072" height="12.0072" rx="3.00179" fill="#0188FF"/>
<path fill-rule="evenodd" clip-rule="evenodd" d="M284.9 19.6068C284.693 19.6068 284.505 19.6908 284.369 19.8267L283.619 20.5771L281.898 22.2979L280.928 21.3276C280.792 21.1917 280.604 21.1077 280.397 21.1077C279.983 21.1077 279.647 21.4439 279.647 21.8581C279.647 22.0652 279.731 22.2529 279.867 22.3887L281.368 23.8896C281.504 24.0254 281.691 24.1095 281.898 24.1095C282.105 24.1095 282.293 24.0254 282.429 23.8896L284.68 21.6382L285.431 20.8878C285.566 20.752 285.65 20.5644 285.65 20.3572C285.65 19.9426 285.314 19.6068 284.9 19.6068Z" fill="white"/>
<path d="M300.683 25.1724C298.802 25.1724 297.63 23.8122 297.63 21.6312V21.6218C297.63 19.4361 298.797 18.0759 300.678 18.0759C302.17 18.0759 303.314 19.0187 303.492 20.3648L303.488 20.3883H302.446V20.3742C302.249 19.544 301.569 19.0046 300.678 19.0046C299.463 19.0046 298.704 20.013 298.704 21.6218V21.6312C298.704 23.2353 299.463 24.2437 300.683 24.2437C301.579 24.2437 302.249 23.7653 302.442 23.0008L302.451 22.982H303.492V23.0101C303.295 24.3094 302.193 25.1724 300.683 25.1724ZM306.916 25.1067C305.42 25.1067 304.506 24.1077 304.506 22.4661V22.4567C304.506 20.8198 305.425 19.8161 306.916 19.8161C308.403 19.8161 309.322 20.8151 309.322 22.4567V22.4661C309.322 24.1077 308.408 25.1067 306.916 25.1067ZM306.916 24.2578C307.789 24.2578 308.286 23.5917 308.286 22.4661V22.4567C308.286 21.3263 307.789 20.665 306.916 20.665C306.039 20.665 305.547 21.3263 305.547 22.4567V22.4661C305.547 23.5964 306.039 24.2578 306.916 24.2578ZM312.39 25.1067C311.161 25.1067 310.382 24.5298 310.284 23.6762V23.6715H311.302L311.306 23.6762C311.433 24.0608 311.804 24.3187 312.409 24.3187C313.037 24.3187 313.473 24.0326 313.473 23.6152V23.6058C313.473 23.2869 313.234 23.0711 312.643 22.9351L311.832 22.7475C310.87 22.527 310.425 22.0908 310.425 21.3451V21.3404C310.425 20.4539 311.25 19.8161 312.404 19.8161C313.567 19.8161 314.313 20.3976 314.402 21.2278V21.2325H313.431V21.2231C313.333 20.8667 312.972 20.5993 312.399 20.5993C311.841 20.5993 311.438 20.8761 311.438 21.2841V21.2935C311.438 21.6124 311.672 21.8094 312.245 21.9454L313.051 22.1284C314.032 22.3582 314.501 22.7756 314.501 23.512V23.5214C314.501 24.4641 313.6 25.1067 312.39 25.1067ZM317.601 25.041C316.48 25.041 316.02 24.6471 316.02 23.6668V20.7166H315.223V19.9145H316.02V18.6294H317.057V19.9145H318.15V20.7166H317.057V23.4229C317.057 23.9717 317.263 24.1968 317.765 24.1968C317.92 24.1968 318.009 24.1921 318.15 24.178V24.9895C317.985 25.0176 317.798 25.041 317.601 25.041Z" fill="#5D778D"/>
<path fill-rule="evenodd" clip-rule="evenodd" d="M326.262 17.6056C323.83 17.6056 321.859 19.5767 321.859 22.0082C321.859 24.4397 323.83 26.4108 326.262 26.4108C328.693 26.4108 330.664 24.4397 330.664 22.0082C330.664 19.5767 328.693 17.6056 326.262 17.6056ZM325.824 20.5158C325.987 20.42 326.179 20.385 326.365 20.417C326.551 20.4489 326.72 20.5458 326.842 20.6904C326.964 20.835 327.03 21.0181 327.03 21.2071L327.03 21.2077C327.03 21.3955 326.884 21.5912 326.608 21.7752C326.482 21.8591 326.353 21.9237 326.255 21.9676C326.206 21.9893 326.166 22.0054 326.139 22.0157C326.127 22.0202 326.115 22.0246 326.103 22.0289C325.893 22.0989 325.78 22.3254 325.85 22.535C325.92 22.7447 326.146 22.858 326.356 22.7881L326.424 22.7637C326.462 22.749 326.516 22.7275 326.58 22.6991C326.706 22.643 326.878 22.5575 327.052 22.4413C327.376 22.2251 327.83 21.8206 327.831 21.2081C327.831 20.8301 327.698 20.4641 327.454 20.1749C327.211 19.8857 326.873 19.6919 326.5 19.628C326.128 19.5641 325.744 19.6341 325.418 19.8257C325.092 20.0173 324.845 20.318 324.719 20.6747C324.646 20.8832 324.756 21.1117 324.964 21.185C325.173 21.2584 325.401 21.1488 325.474 20.9403C325.537 20.762 325.661 20.6116 325.824 20.5158ZM326.262 23.6092C326.041 23.6092 325.861 23.7883 325.861 24.0094C325.861 24.2304 326.041 24.4096 326.262 24.4096H326.266C326.487 24.4096 326.666 24.2304 326.666 24.0094C326.666 23.7883 326.487 23.6092 326.266 23.6092H326.262Z" fill="#5D778D"/>
<rect x="276.645" y="41.8111" width="12.0072" height="4.80287" rx="1.80108" fill="#5D778D"/>
<path d="M296.374 44.8883V44.2727H297.439C297.426 44.1127 297.42 43.9403 297.42 43.7679L297.414 43.7556C297.414 43.5709 297.426 43.3986 297.439 43.2262H296.374V42.6106H297.531C297.98 40.5114 299.716 39.4464 302.092 39.4464C302.548 39.4464 303.01 39.4957 303.318 39.5757V41.0531C303.022 40.9977 302.542 40.9608 302.16 40.9608C300.775 40.9608 299.784 41.5025 299.402 42.6106H302.751V43.2262H299.261C299.236 43.3986 299.23 43.5771 299.23 43.7618V43.7741C299.23 43.9526 299.236 44.1188 299.255 44.2727H302.751V44.8883H299.39C299.759 46.021 300.757 46.5628 302.16 46.5628C302.542 46.5628 303.022 46.532 303.318 46.4766V47.954C303.01 48.0341 302.548 48.0833 302.092 48.0833C299.704 48.0833 297.968 47.006 297.525 44.8883H296.374ZM306.807 48.2126V41.0347H306.77L304.504 42.5737V40.9239L306.8 39.3294H308.647V48.2126H306.807ZM310.031 50.0655L310.48 46.6613H312.179L311.274 50.0655H310.031ZM313.397 48.2126V46.9383L316.536 44.0019C317.681 42.9307 317.921 42.4936 317.921 41.878V41.8657C317.915 41.1393 317.361 40.6222 316.573 40.6222C315.662 40.6222 315.046 41.2193 315.022 42.0196L315.016 42.075H313.292V42.0258C313.292 40.3513 314.683 39.1755 316.561 39.1755C318.438 39.1755 319.731 40.2467 319.731 41.7611V41.7734C319.731 42.8507 319.22 43.5525 317.687 44.9622L315.828 46.6613V46.7351H319.854V48.2126H313.397ZM325.018 48.2126V46.5812H320.598V45.0299L324.162 39.3294H326.785V45.0976H327.954V46.5812H326.785V48.2126H325.018ZM322.217 45.1469H325.055V40.6715H325.012L322.217 45.0976V45.1469Z" fill="#131D27"/>
<rect x="407.763" y="16.0046" width="12.0072" height="12.0072" rx="3.00179" fill="#0188FF"/>
<rect x="407.763" y="41.8111" width="12.0072" height="4.80287" rx="1.80108" fill="#A6D5FF"/>
<rect x="14.4086" y="66.6211" width="641.183" height="163.898" rx="6.00358" fill="white"/>
<line x1="42.7087" y1="71.1237" x2="655.291" y2="71.1237" stroke="#E2EAF1" stroke-width="0.600358" stroke-linecap="round"/>
<line x1="42.7087" y1="95.1382" x2="655.291" y2="95.1382" stroke="#E2EAF1" stroke-width="0.600358" stroke-linecap="round"/>
<line x1="42.7087" y1="119.153" x2="655.291" y2="119.153" stroke="#E2EAF1" stroke-width="0.600358" stroke-linecap="round"/>
<line x1="42.7087" y1="143.167" x2="655.291" y2="143.167" stroke="#E2EAF1" stroke-width="0.600358" stroke-linecap="round"/>
<line x1="42.7087" y1="167.181" x2="655.291" y2="167.181" stroke="#E2EAF1" stroke-width="0.600358" stroke-linecap="round"/>
<line x1="42.7087" y1="191.195" x2="655.291" y2="191.195" stroke="#E2EAF1" stroke-width="0.600358" stroke-linecap="round"/>
<line x1="42.7087" y1="215.21" x2="655.291" y2="215.21" stroke="#E2EAF1" stroke-width="0.600358" stroke-linecap="round"/>
<path d="M111.812 228.313V224.049H111.752L110.475 224.961V224.187L111.812 223.237H112.6V228.313H111.812ZM114.028 226.617V225.917H116.382V226.617H114.028ZM117.687 228.313L119.924 223.958V223.902H117.265V223.237H120.722V223.919L118.513 228.313H117.687Z" fill="#A5B7C7"/>
<path d="M264.12 228.408C262.994 228.408 262.199 227.803 262.199 226.941V226.934C262.199 226.294 262.66 225.784 263.325 225.639V225.622C262.755 225.46 262.382 225.034 262.382 224.496V224.489C262.382 223.712 263.111 223.142 264.12 223.142C265.133 223.142 265.858 223.712 265.858 224.489V224.496C265.858 225.034 265.488 225.46 264.919 225.622V225.639C265.583 225.784 266.044 226.294 266.044 226.934V226.941C266.044 227.803 265.249 228.408 264.12 228.408ZM264.12 225.358C264.69 225.358 265.077 225.027 265.077 224.563V224.556C265.077 224.092 264.686 223.768 264.12 223.768C263.554 223.768 263.163 224.092 263.163 224.556V224.563C263.163 225.027 263.554 225.358 264.12 225.358ZM264.12 227.775C264.771 227.775 265.232 227.405 265.232 226.892V226.885C265.232 226.364 264.774 225.988 264.12 225.988C263.469 225.988 263.012 226.364 263.012 226.885V226.892C263.012 227.405 263.473 227.775 264.12 227.775ZM267.036 226.617V225.917H269.39V226.617H267.036ZM271.722 228.313V224.049H271.662L270.385 224.961V224.187L271.722 223.237H272.51V228.313H271.722ZM275.707 228.436C274.708 228.436 274.019 227.813 273.949 226.99L273.945 226.945H274.684L274.687 226.973C274.754 227.419 275.159 227.775 275.715 227.775C276.341 227.775 276.777 227.328 276.777 226.691V226.684C276.777 226.058 276.334 225.615 275.722 225.615C275.412 225.615 275.148 225.706 274.948 225.889C274.856 225.97 274.775 226.069 274.715 226.185H274.037L274.29 223.237H277.241V223.905H274.909L274.754 225.523H274.814C275.029 225.182 275.426 224.985 275.894 224.985C276.847 224.985 277.53 225.696 277.53 226.67V226.677C277.53 227.718 276.777 228.436 275.707 228.436Z" fill="#A5B7C7"/>
<path d="M18.2523 79.8262C16.5883 79.8262 15.4398 78.7891 15.3227 77.418L15.3168 77.3418H16.5473L16.5531 77.3887C16.6645 78.1328 17.3383 78.7246 18.2641 78.7246C19.307 78.7246 20.0336 77.9805 20.0336 76.9199V76.9082C20.0336 75.8653 19.2953 75.127 18.2758 75.127C17.7602 75.127 17.3207 75.2793 16.9867 75.584C16.8344 75.7188 16.6996 75.8828 16.6 76.0762H15.4691L15.891 71.166H20.807V72.2793H16.9223L16.6645 74.9746H16.7641C17.1215 74.4063 17.7836 74.0781 18.5629 74.0781C20.1508 74.0781 21.2875 75.2617 21.2875 76.8848V76.8965C21.2875 78.6309 20.0336 79.8262 18.2523 79.8262ZM25.9223 79.8262C23.9711 79.8262 22.7992 78.1211 22.7992 75.3965V75.3848C22.7992 72.6602 23.9711 70.961 25.9223 70.961C27.8676 70.961 29.0453 72.6602 29.0453 75.3848V75.3965C29.0453 78.1211 27.8676 79.8262 25.9223 79.8262ZM25.9223 78.7364C27.0531 78.7364 27.7211 77.4649 27.7211 75.3965V75.3848C27.7211 73.3164 27.0531 72.0567 25.9223 72.0567C24.7856 72.0567 24.1234 73.3164 24.1234 75.3848V75.3965C24.1234 77.4649 24.7856 78.7364 25.9223 78.7364ZM33.7152 79.8262C31.7641 79.8262 30.5922 78.1211 30.5922 75.3965V75.3848C30.5922 72.6602 31.7641 70.961 33.7152 70.961C35.6606 70.961 36.8383 72.6602 36.8383 75.3848V75.3965C36.8383 78.1211 35.6606 79.8262 33.7152 79.8262ZM33.7152 78.7364C34.8461 78.7364 35.5141 77.4649 35.5141 75.3965V75.3848C35.5141 73.3164 34.8461 72.0567 33.7152 72.0567C32.5785 72.0567 31.9164 73.3164 31.9164 75.3848V75.3965C31.9164 77.4649 32.5785 78.7364 33.7152 78.7364Z" fill="#A5B7C7"/>
<path d="M19.2016 119.621V117.939H15.0766V116.826C16.1898 114.916 17.432 112.918 18.5981 111.166H20.4672V116.826H21.6332V117.939H20.4672V119.621H19.2016ZM16.3363 116.85H19.2191V112.273H19.143C18.2348 113.639 17.2035 115.285 16.3363 116.768V116.85ZM26.2152 119.826C24.2641 119.826 23.0922 118.121 23.0922 115.397V115.385C23.0922 112.66 24.2641 110.961 26.2152 110.961C28.1606 110.961 29.3383 112.66 29.3383 115.385V115.397C29.3383 118.121 28.1606 119.826 26.2152 119.826ZM26.2152 118.736C27.3461 118.736 28.0141 117.465 28.0141 115.397V115.385C28.0141 113.316 27.3461 112.057 26.2152 112.057C25.0785 112.057 24.4164 113.316 24.4164 115.385V115.397C24.4164 117.465 25.0785 118.736 26.2152 118.736ZM34.0082 119.826C32.057 119.826 30.8852 118.121 30.8852 115.397V115.385C30.8852 112.66 32.057 110.961 34.0082 110.961C35.9535 110.961 37.1313 112.66 37.1313 115.385V115.397C37.1313 118.121 35.9535 119.826 34.0082 119.826ZM34.0082 118.736C35.1391 118.736 35.807 117.465 35.807 115.397V115.385C35.807 113.316 35.1391 112.057 34.0082 112.057C32.8715 112.057 32.2094 113.316 32.2094 115.385V115.397C32.2094 117.465 32.8715 118.736 34.0082 118.736Z" fill="#A5B7C7"/>
<path d="M18.2992 159.779C16.4945 159.779 15.3168 158.789 15.2055 157.389L15.1996 157.318H16.4535L16.4594 157.377C16.5414 158.145 17.2504 158.684 18.2992 158.684C19.3305 158.684 20.0277 158.104 20.0277 157.272V157.26C20.0277 156.305 19.3363 155.772 18.2113 155.772H17.1801V154.752H18.1703C19.1371 154.752 19.7934 154.184 19.7934 153.398V153.387C19.7934 152.566 19.2426 152.086 18.2875 152.086C17.35 152.086 16.6938 152.584 16.6117 153.381L16.6059 153.439H15.3754L15.3813 153.375C15.5102 151.951 16.6352 151.008 18.2875 151.008C19.9691 151.008 21.0707 151.91 21.0707 153.217V153.229C21.0707 154.277 20.3207 154.98 19.2895 155.197V155.227C20.5316 155.338 21.3637 156.088 21.3637 157.272V157.283C21.3637 158.736 20.0922 159.779 18.2992 159.779ZM25.9926 159.826C24.0414 159.826 22.8695 158.121 22.8695 155.397V155.385C22.8695 152.66 24.0414 150.961 25.9926 150.961C27.9379 150.961 29.1156 152.66 29.1156 155.385V155.397C29.1156 158.121 27.9379 159.826 25.9926 159.826ZM25.9926 158.736C27.1234 158.736 27.7914 157.465 27.7914 155.397V155.385C27.7914 153.316 27.1234 152.057 25.9926 152.057C24.8559 152.057 24.1938 153.316 24.1938 155.385V155.397C24.1938 157.465 24.8559 158.736 25.9926 158.736ZM33.7856 159.826C31.8344 159.826 30.6625 158.121 30.6625 155.397V155.385C30.6625 152.66 31.8344 150.961 33.7856 150.961C35.7309 150.961 36.9086 152.66 36.9086 155.385V155.397C36.9086 158.121 35.7309 159.826 33.7856 159.826ZM33.7856 158.736C34.9164 158.736 35.5844 157.465 35.5844 155.397V155.385C35.5844 153.316 34.9164 152.057 33.7856 152.057C32.6488 152.057 31.9867 153.316 31.9867 155.385V155.397C31.9867 157.465 32.6488 158.736 33.7856 158.736Z" fill="#A5B7C7"/>
<path d="M15.3227 199.621V198.73L18.1293 195.783C19.2484 194.617 19.5707 194.184 19.5707 193.498V193.48C19.5707 192.654 19.0023 192.045 18.0766 192.045C17.1273 192.045 16.4945 192.666 16.4945 193.592L16.4887 193.609H15.2582L15.2465 193.598C15.2523 192.051 16.4477 190.961 18.1469 190.961C19.7231 190.961 20.8832 191.963 20.8832 193.357V193.375C20.8832 194.336 20.4379 195.074 18.9027 196.598L17.1098 198.385V198.502H21.018V199.621H15.3227ZM25.7231 199.826C23.7719 199.826 22.6 198.121 22.6 195.397V195.385C22.6 192.66 23.7719 190.961 25.7231 190.961C27.6684 190.961 28.8461 192.66 28.8461 195.385V195.397C28.8461 198.121 27.6684 199.826 25.7231 199.826ZM25.7231 198.736C26.8539 198.736 27.5219 197.465 27.5219 195.397V195.385C27.5219 193.316 26.8539 192.057 25.7231 192.057C24.5863 192.057 23.9242 193.316 23.9242 195.385V195.397C23.9242 197.465 24.5863 198.736 25.7231 198.736ZM33.516 199.826C31.5648 199.826 30.393 198.121 30.393 195.397V195.385C30.393 192.66 31.5648 190.961 33.516 190.961C35.4613 190.961 36.6391 192.66 36.6391 195.385V195.397C36.6391 198.121 35.4613 199.826 33.516 199.826ZM33.516 198.736C34.6469 198.736 35.3148 197.465 35.3148 195.397V195.385C35.3148 193.316 34.6469 192.057 33.516 192.057C32.3793 192.057 31.7172 193.316 31.7172 195.385V195.397C31.7172 197.465 32.3793 198.736 33.516 198.736Z" fill="#A5B7C7"/>
<path d="M17.391 239.621V232.52H17.2914L15.1645 234.037V232.748L17.391 231.166H18.7035V239.621H17.391ZM24.0824 239.826C22.1313 239.826 20.9594 238.121 20.9594 235.397V235.385C20.9594 232.66 22.1313 230.961 24.0824 230.961C26.0277 230.961 27.2055 232.66 27.2055 235.385V235.397C27.2055 238.121 26.0277 239.826 24.0824 239.826ZM24.0824 238.736C25.2133 238.736 25.8813 237.465 25.8813 235.397V235.385C25.8813 233.316 25.2133 232.057 24.0824 232.057C22.9457 232.057 22.2836 233.316 22.2836 235.385V235.397C22.2836 237.465 22.9457 238.736 24.0824 238.736ZM31.8754 239.826C29.9242 239.826 28.7523 238.121 28.7523 235.397V235.385C28.7523 232.66 29.9242 230.961 31.8754 230.961C33.8207 230.961 34.9984 232.66 34.9984 235.385V235.397C34.9984 238.121 33.8207 239.826 31.8754 239.826ZM31.8754 238.736C33.0063 238.736 33.6742 237.465 33.6742 235.397V235.385C33.6742 233.316 33.0063 232.057 31.8754 232.057C30.7387 232.057 30.0766 233.316 30.0766 235.385V235.397C30.0766 237.465 30.7387 238.736 31.8754 238.736Z" fill="#A5B7C7"/>
<g clip-path="url(#clip2_0_2672)">
<path d="M41.4086 136.822L71.1954 115.445L90.4186 103.881C90.9936 103.536 91.7131 103.538 92.2857 103.888L111.212 115.445L151.228 117.264L171.086 114.839L190.944 140.002L211.103 121.509L230.961 113.626L251.119 108.776L270.358 99.3768C270.757 99.1821 271.213 99.1413 271.64 99.2623L330.852 116.052L350.709 120.599L369.966 91.192L409.982 93.6174L429.41 86.8974C429.876 86.7359 430.389 86.7733 430.828 87.0007L450.6 97.2554L470.157 109.382L510.475 100.287L530.333 103.319L550.191 91.192L569.056 73.9107C569.645 73.3718 570.517 73.2842 571.201 73.6955L590.207 85.1287L610.065 96.649L629.76 98.4531C629.868 98.463 629.977 98.4631 630.086 98.4533L650.081 96.649L659.409 95.1169" stroke="#6464C6" stroke-width="0.840502"/>
<path d="M41.5004 147.502L71.067 133.392C71.1528 133.352 71.2416 133.317 71.3327 133.291L90.5475 127.617C90.878 127.52 91.2296 127.519 91.5605 127.615L111.212 133.331L151.229 135.09L165.972 142.126L187.936 147.403L211.103 139.194L231.864 142.126L270.978 133.331L305.543 139.138C305.765 139.175 305.993 139.17 306.213 139.124L330.852 133.917L350.71 138.315H397.045L413.894 130.106L439.39 141.813C439.825 142.013 440.323 142.031 440.772 141.864L462.034 133.917L484.901 142.126L514.086 133.917L537.855 130.106L561.925 133.331H584.19L607.057 130.106L626.313 126.002L649.408 129.99C649.842 130.065 650.289 129.978 650.663 129.746L656.701 126.002L659.409 127.468" stroke="#37A2FF" stroke-width="0.840502"/>
<path d="M659.409 145.002L638.525 149.342C638.035 149.444 637.519 149.658 637.146 149.991C635.189 151.741 629.211 157.564 629.053 157.517L610.007 151.759C609.668 151.657 603.211 151.658 602.871 151.759L589.339 157.602L549.341 159.402L534.606 166.602L512.652 172.002L489.496 163.602L468.746 166.602L429.651 157.602L395.112 163.543C394.884 163.582 394.65 163.577 394.423 163.528L369.806 158.202L349.958 162.702H303.645L286.804 154.302L261.337 166.275C260.892 166.484 260.381 166.503 259.922 166.327L238.687 158.202L215.832 166.602L186.661 158.202L162.903 154.302L138.845 157.602H116.721C116.635 157.602 116.548 157.596 116.463 157.583L93.7356 154.302L74.4889 150.102L51.4225 154.18C50.9779 154.258 50.5199 154.168 50.1389 153.926L44.1152 151.102L41.4086 152.602" stroke="#9F9FE6" stroke-width="0.840502"/>
<path d="M42.432 190.448H66.517C66.6694 190.448 66.8212 190.429 66.9688 190.391L91.1561 184.122C91.4862 184.037 91.8338 184.047 92.1585 184.151L111.773 190.448L139.99 187.293L170.609 183.991L200.927 187.293L221.339 183.991H236.648H267.266H298.92C299.03 183.991 299.14 183.981 299.248 183.961L315.295 180.99H336.307L361.823 177.988L401.747 180.389L421.132 173.734C421.596 173.575 422.105 173.612 422.541 173.836L442.271 183.991L471.088 180.389L503.507 180.389L523.319 183.391L543.131 171.384L562.897 175.53C563.126 175.578 563.361 175.581 563.59 175.539L586.357 171.384L610.071 172.901L629.721 174.687C629.829 174.697 629.937 174.697 630.045 174.687L649.995 172.901L659.3 171.384" stroke="#5D778D" stroke-width="0.840502"/>
<path d="M42.432 208.459H66.517C66.6694 208.459 66.8212 208.44 66.9688 208.402L91.1561 202.133C91.4862 202.047 91.8338 202.057 92.1585 202.162L111.773 208.459L139.99 205.304L170.609 202.002L200.927 205.304L221.339 202.002H236.648H267.266H298.92C299.03 202.002 299.14 201.992 299.248 201.972L315.295 199H336.307L361.823 195.998L401.747 198.4L421.132 191.745C421.596 191.586 422.105 191.623 422.541 191.847L442.271 202.002L471.088 198.4L503.507 198.4L523.319 201.401L543.131 189.394L562.897 193.54C563.126 193.588 563.361 193.591 563.59 193.55L586.357 189.394L610.071 190.911L629.721 192.698C629.829 192.708 629.937 192.708 630.045 192.698L649.995 190.911L659.3 189.394" stroke="#A6D5FF" stroke-width="0.840502"/>
</g>
</g>
<g clip-path="url(#clip3_0_2672)">
<rect y="259.336" width="213.728" height="230.129" rx="7.2043" fill="white"/>
<path d="M14.7369 283.745L17.1806 276.977H18.3156L20.7593 283.745H19.6524L19.0426 281.916H16.4536L15.8391 283.745H14.7369ZM17.7059 278.163L16.735 281.071H18.7612L17.7856 278.163H17.7059ZM23.6907 285.541C22.3962 285.541 21.5988 284.974 21.4769 284.125L21.4863 284.115H22.5134L22.5181 284.125C22.6026 284.476 23.0153 284.725 23.7048 284.725C24.5443 284.725 25.0415 284.331 25.0415 283.637V282.633H24.9665C24.6569 283.187 24.0941 283.496 23.3952 283.496C22.0866 283.496 21.2799 282.488 21.2799 281.053V281.043C21.2799 279.589 22.0913 278.562 23.414 278.562C24.1269 278.562 24.6804 278.914 24.9758 279.486H25.0368V278.651H26.0499V283.642C26.0499 284.8 25.1353 285.541 23.6907 285.541ZM23.6766 282.657C24.5396 282.657 25.0603 282 25.0603 281.048V281.038C25.0603 280.091 24.535 279.425 23.6766 279.425C22.8089 279.425 22.3211 280.091 22.3211 281.038V281.048C22.3211 281.995 22.8089 282.657 23.6766 282.657ZM29.6521 283.843C28.1606 283.843 27.26 282.825 27.26 281.212V281.207C27.26 279.617 28.1793 278.553 29.6005 278.553C31.0216 278.553 31.894 279.58 31.894 281.109V281.465H28.2825C28.3013 282.441 28.836 283.008 29.6755 283.008C30.3275 283.008 30.7168 282.685 30.8387 282.422L30.8575 282.385L31.8378 282.38L31.8284 282.422C31.6595 283.093 30.956 283.843 29.6521 283.843ZM29.6052 279.387C28.911 279.387 28.3857 279.861 28.2966 280.738H30.8856C30.8059 279.828 30.2946 279.387 29.6052 279.387ZM38.6997 283.909C36.7813 283.909 35.5712 282.539 35.5712 280.363V280.354C35.5712 278.206 36.7954 276.813 38.6903 276.813C40.2287 276.813 41.3215 277.685 41.5654 278.994L41.5748 279.04H40.5242L40.5101 278.994C40.2662 278.191 39.619 277.741 38.6903 277.741C37.438 277.741 36.6453 278.754 36.6453 280.349V280.358C36.6453 281.977 37.4427 282.98 38.7137 282.98C39.8206 282.98 40.5758 282.281 40.5852 281.24V281.09H38.8451V280.241H41.6217V281.081C41.6217 282.797 40.4726 283.909 38.6997 283.909ZM42.9538 283.745V278.651H43.9716V279.42H44.0466C44.2295 278.881 44.7032 278.562 45.3833 278.562C45.5475 278.562 45.7257 278.585 45.8289 278.609V279.547C45.646 279.509 45.4725 279.486 45.2802 279.486C44.5016 279.486 43.9716 279.964 43.9716 280.701V283.745H42.9538ZM48.826 283.843C47.3298 283.843 46.4152 282.844 46.4152 281.203V281.193C46.4152 279.556 47.3345 278.553 48.826 278.553C50.3128 278.553 51.2321 279.552 51.2321 281.193V281.203C51.2321 282.844 50.3175 283.843 48.826 283.843ZM48.826 282.994C49.6984 282.994 50.1956 282.328 50.1956 281.203V281.193C50.1956 280.063 49.6984 279.402 48.826 279.402C47.9489 279.402 47.4565 280.063 47.4565 281.193V281.203C47.4565 282.333 47.9489 282.994 48.826 282.994ZM54.1448 283.843C52.9957 283.843 52.4 283.154 52.4 281.948V278.651H53.4178V281.709C53.4178 282.553 53.7274 282.971 54.4731 282.971C55.2893 282.971 55.7255 282.46 55.7255 281.639V278.651H56.7386V283.745H55.7255V282.976H55.6457C55.4018 283.524 54.8859 283.843 54.1448 283.843ZM58.2066 285.443V278.651H59.2244V279.453H59.2995C59.595 278.895 60.1531 278.562 60.866 278.562C62.1512 278.562 62.9767 279.589 62.9767 281.193V281.203C62.9767 282.816 62.1605 283.829 60.866 283.829C60.1672 283.829 59.5715 283.487 59.2995 282.938H59.2244V285.443H58.2066ZM60.5799 282.962C61.4289 282.962 61.9401 282.295 61.9401 281.203V281.193C61.9401 280.096 61.4289 279.434 60.5799 279.434C59.731 279.434 59.2057 280.105 59.2057 281.193V281.203C59.2057 282.291 59.731 282.962 60.5799 282.962ZM66.0535 283.843C64.8246 283.843 64.046 283.266 63.9475 282.413V282.408H64.9653L64.97 282.413C65.0967 282.797 65.4672 283.055 66.0723 283.055C66.7008 283.055 67.137 282.769 67.137 282.352V282.342C67.137 282.023 66.8977 281.808 66.3068 281.672L65.4953 281.484C64.5338 281.264 64.0883 280.827 64.0883 280.082V280.077C64.0883 279.19 64.9138 278.553 66.0676 278.553C67.2308 278.553 67.9765 279.134 68.0656 279.964V279.969H67.0947V279.96C66.9962 279.603 66.6351 279.336 66.0629 279.336C65.5047 279.336 65.1014 279.613 65.1014 280.021V280.03C65.1014 280.349 65.3359 280.546 65.9081 280.682L66.7148 280.865C67.6951 281.095 68.1641 281.512 68.1641 282.249V282.258C68.1641 283.201 67.2636 283.843 66.0535 283.843Z" fill="#5D778D"/>
<path fill-rule="evenodd" clip-rule="evenodd" d="M76.6129 276.342C74.1814 276.342 72.2103 278.313 72.2103 280.745C72.2103 283.176 74.1814 285.147 76.6129 285.147C79.0444 285.147 81.0155 283.176 81.0155 280.745C81.0155 278.313 79.0444 276.342 76.6129 276.342ZM76.1753 279.252C76.3383 279.157 76.5299 279.122 76.7162 279.154C76.9025 279.185 77.0715 279.282 77.1933 279.427C77.315 279.572 77.3816 279.755 77.3814 279.944L77.3814 279.944C77.3814 280.132 77.2352 280.328 76.9592 280.512C76.8334 280.596 76.7047 280.66 76.6059 280.704C76.5571 280.726 76.517 280.742 76.49 280.752C76.478 280.757 76.466 280.761 76.4539 280.765C76.2445 280.836 76.1313 281.062 76.2012 281.272C76.2711 281.481 76.4977 281.595 76.7074 281.525L76.7749 281.5C76.8136 281.486 76.8673 281.464 76.931 281.436C77.0574 281.38 77.2289 281.294 77.4032 281.178C77.7275 280.962 78.1816 280.557 78.1818 279.945C78.1823 279.567 78.0491 279.201 77.8056 278.911C77.5622 278.622 77.2242 278.428 76.8515 278.365C76.4789 278.301 76.0957 278.371 75.7697 278.562C75.4437 278.754 75.1961 279.055 75.0706 279.411C74.9973 279.62 75.1069 279.848 75.3154 279.922C75.5239 279.995 75.7524 279.885 75.8258 279.677C75.8885 279.499 76.0123 279.348 76.1753 279.252ZM76.6129 282.346C76.3918 282.346 76.2127 282.525 76.2127 282.746C76.2127 282.967 76.3918 283.146 76.6129 283.146H76.6169C76.8379 283.146 77.0171 282.967 77.0171 282.746C77.0171 282.525 76.8379 282.346 76.6169 282.346H76.6129Z" fill="#5D778D"/>
<rect x="14.4086" y="306.956" width="184.91" height="168.1" rx="6.00358" fill="white"/>
<g clip-path="url(#clip4_0_2672)">
<path d="M45.6271 306.956L45.6271 460.048" stroke="#E2EAF1" stroke-width="0.600358"/>
</g>
<g clip-path="url(#clip5_0_2672)">
<path d="M66.2109 306.956L66.2109 460.048" stroke="#E2EAF1" stroke-width="0.600358"/>
</g>
<g clip-path="url(#clip6_0_2672)">
<path d="M86.7946 306.956L86.7946 460.048" stroke="#E2EAF1" stroke-width="0.600358"/>
</g>
<g clip-path="url(#clip7_0_2672)">
<path d="M107.378 306.956L107.378 460.048" stroke="#E2EAF1" stroke-width="0.600358"/>
</g>
<g clip-path="url(#clip8_0_2672)">
<path d="M127.962 306.956L127.962 460.048" stroke="#E2EAF1" stroke-width="0.600358"/>
</g>
<g clip-path="url(#clip9_0_2672)">
<path d="M148.546 306.956L148.546 460.048" stroke="#E2EAF1" stroke-width="0.600358"/>
</g>
<g clip-path="url(#clip10_0_2672)">
<path d="M169.129 306.956L169.129 460.048" stroke="#E2EAF1" stroke-width="0.600358"/>
</g>
<g clip-path="url(#clip11_0_2672)">
<path d="M189.713 306.956L189.713 460.048" stroke="#E2EAF1" stroke-width="0.600358"/>
</g>
<path d="M16.8323 315.079C15.8122 315.079 14.8554 314.362 14.8554 312.494V312.487C14.8554 310.77 15.6046 309.757 16.8605 309.757C17.7575 309.757 18.4258 310.285 18.5947 311.052L18.6017 311.094H17.8208L17.8067 311.059C17.666 310.672 17.3353 310.425 16.8569 310.425C16.0021 310.425 15.6468 311.259 15.6081 312.272C15.6046 312.311 15.6046 312.35 15.6046 312.388H15.6715C15.8579 311.98 16.3152 311.618 17.0082 311.618C17.9756 311.618 18.6686 312.336 18.6686 313.306V313.313C18.6686 314.334 17.8982 315.079 16.8323 315.079ZM15.7594 313.313C15.7594 313.933 16.2273 314.418 16.8253 314.418C17.4198 314.418 17.8911 313.943 17.8911 313.335V313.328C17.8911 312.705 17.4479 312.255 16.8323 312.255C16.2237 312.255 15.7594 312.698 15.7594 313.31V313.313ZM21.43 315.079C20.4309 315.079 19.7415 314.457 19.6711 313.634L19.6676 313.588H20.4063L20.4098 313.616C20.4767 314.063 20.8812 314.418 21.437 314.418C22.0632 314.418 22.4994 313.971 22.4994 313.335V313.328C22.4994 312.701 22.0561 312.258 21.4441 312.258C21.1345 312.258 20.8707 312.35 20.6702 312.533C20.5787 312.613 20.4978 312.712 20.438 312.828H19.7591L20.0123 309.88H22.9637V310.549H20.6315L20.4767 312.167H20.5365C20.7511 311.825 21.1486 311.629 21.6164 311.629C22.5697 311.629 23.2522 312.339 23.2522 313.313V313.321C23.2522 314.362 22.4994 315.079 21.43 315.079ZM24.114 313.261V312.561H25.6688V310.999H26.3653V312.561H27.9237V313.261H26.3653V314.823H25.6688V313.261H24.114Z" fill="#A5B7C7"/>
<path d="M16.7161 339.094C15.7171 339.094 15.0276 338.471 14.9573 337.648L14.9538 337.602H15.6925L15.696 337.63C15.7628 338.077 16.1674 338.432 16.7232 338.432C17.3493 338.432 17.7855 337.986 17.7855 337.349V337.342C17.7855 336.716 17.3423 336.273 16.7302 336.273C16.4206 336.273 16.1568 336.364 15.9563 336.547C15.8648 336.628 15.7839 336.726 15.7241 336.842H15.0452L15.2985 333.895H18.2499V334.563H15.9176L15.7628 336.181H15.8226C16.0372 335.84 16.4347 335.643 16.9026 335.643C17.8559 335.643 18.5383 336.353 18.5383 337.328V337.335C18.5383 338.376 17.7855 339.094 16.7161 339.094ZM21.2892 339.094C20.2901 339.094 19.6007 338.471 19.5303 337.648L19.5268 337.602H20.2655L20.269 337.63C20.3359 338.077 20.7404 338.432 21.2962 338.432C21.9224 338.432 22.3586 337.986 22.3586 337.349V337.342C22.3586 336.716 21.9153 336.273 21.3032 336.273C20.9937 336.273 20.7299 336.364 20.5294 336.547C20.4379 336.628 20.357 336.726 20.2972 336.842H19.6183L19.8715 333.895H22.8229V334.563H20.4907L20.3359 336.181H20.3957C20.6103 335.84 21.0078 335.643 21.4756 335.643C22.4289 335.643 23.1114 336.353 23.1114 337.328V337.335C23.1114 338.376 22.3586 339.094 21.2892 339.094ZM24.0928 337.275V336.575H26.4462V337.275H24.0928ZM29.4116 339.094C28.3915 339.094 27.4346 338.376 27.4346 336.508V336.501C27.4346 334.785 28.1839 333.771 29.4397 333.771C30.3368 333.771 31.0051 334.299 31.174 335.066L31.181 335.108H30.4001L30.386 335.073C30.2453 334.686 29.9146 334.44 29.4362 334.44C28.5814 334.44 28.2261 335.274 28.1874 336.287C28.1839 336.325 28.1839 336.364 28.1839 336.403H28.2508C28.4372 335.995 28.8945 335.632 29.5875 335.632C30.5549 335.632 31.2479 336.35 31.2479 337.321V337.328C31.2479 338.348 30.4775 339.094 29.4116 339.094ZM28.3387 337.328C28.3387 337.947 28.8066 338.432 29.4046 338.432C29.9991 338.432 30.4704 337.958 30.4704 337.349V337.342C30.4704 336.719 30.0272 336.269 29.4116 336.269C28.803 336.269 28.3387 336.712 28.3387 337.324V337.328ZM34.0093 339.094C33.0102 339.094 32.3208 338.471 32.2504 337.648L32.2469 337.602H32.9856L32.9891 337.63C33.056 338.077 33.4605 338.432 34.0163 338.432C34.6425 338.432 35.0787 337.986 35.0787 337.349V337.342C35.0787 336.716 34.6354 336.273 34.0233 336.273C33.7138 336.273 33.45 336.364 33.2494 336.547C33.158 336.628 33.0771 336.726 33.0173 336.842H32.3384L32.5916 333.895H35.543V334.563H33.2107L33.056 336.181H33.1158C33.3304 335.84 33.7279 335.643 34.1957 335.643C35.149 335.643 35.8315 336.353 35.8315 337.328V337.335C35.8315 338.376 35.0787 339.094 34.0093 339.094Z" fill="#A5B7C7"/>
<path d="M17.286 362.985V361.975H14.8095V361.307C15.4779 360.16 16.2237 358.961 16.9237 357.909H18.0458V361.307H18.7459V361.975H18.0458V362.985H17.286ZM15.5658 361.321H17.2966V358.574H17.2508C16.7056 359.393 16.0865 360.382 15.5658 361.272V361.321ZM21.5812 363.108C20.561 363.108 19.6042 362.39 19.6042 360.523V360.516C19.6042 358.799 20.3535 357.786 21.6093 357.786C22.5063 357.786 23.1747 358.313 23.3435 359.08L23.3506 359.122H22.5696L22.5556 359.087C22.4149 358.7 22.0842 358.454 21.6058 358.454C20.751 358.454 20.3957 359.288 20.357 360.301C20.3535 360.34 20.3535 360.378 20.3535 360.417H20.4203C20.6067 360.009 21.064 359.647 21.757 359.647C22.7244 359.647 23.4174 360.364 23.4174 361.335V361.342C23.4174 362.362 22.647 363.108 21.5812 363.108ZM20.5082 361.342C20.5082 361.961 20.9761 362.447 21.5741 362.447C22.1686 362.447 22.64 361.972 22.64 361.363V361.356C22.64 360.734 22.1968 360.283 21.5812 360.283C20.9726 360.283 20.5082 360.727 20.5082 361.339V361.342ZM24.4094 361.289V360.589H26.7628V361.289H24.4094ZM29.6121 363.108C28.6131 363.108 27.9236 362.485 27.8533 361.662L27.8497 361.617H28.5885L28.592 361.645C28.6588 362.091 29.0634 362.447 29.6192 362.447C30.2453 362.447 30.6815 362 30.6815 361.363V361.356C30.6815 360.73 30.2383 360.287 29.6262 360.287C29.3166 360.287 29.0528 360.378 28.8523 360.561C28.7608 360.642 28.6799 360.741 28.6201 360.857H27.9412L28.1945 357.909H31.1458V358.577H28.8136L28.6588 360.195H28.7186C28.9332 359.854 29.3307 359.657 29.7986 359.657C30.7519 359.657 31.4343 360.368 31.4343 361.342V361.349C31.4343 362.39 30.6815 363.108 29.6121 363.108ZM34.1852 363.108C33.1861 363.108 32.4967 362.485 32.4263 361.662L32.4228 361.617H33.1615L33.165 361.645C33.2319 362.091 33.6364 362.447 34.1922 362.447C34.8183 362.447 35.2545 362 35.2545 361.363V361.356C35.2545 360.73 34.8113 360.287 34.1992 360.287C33.8897 360.287 33.6258 360.378 33.4253 360.561C33.3339 360.642 33.253 360.741 33.1932 360.857H32.5142L32.7675 357.909H35.7189V358.577H33.3866L33.2319 360.195H33.2917C33.5062 359.854 33.9037 359.657 34.3716 359.657C35.3249 359.657 36.0073 360.368 36.0073 361.342V361.349C36.0073 362.39 35.2545 363.108 34.1852 363.108Z" fill="#A5B7C7"/>
<g clip-path="url(#clip12_0_2672)">
<path d="M45.6272 307.857H48.0286C49.3549 307.857 50.43 308.932 50.43 310.258V313.26C50.43 314.586 49.3549 315.661 48.0286 315.661H45.6272V307.857Z" fill="url(#paint0_linear_0_2672)"/>
<path d="M53.3802 314.759V314.224L55.0652 312.455C55.7371 311.755 55.9306 311.495 55.9306 311.083V311.073C55.9306 310.577 55.5893 310.211 55.0335 310.211C54.4637 310.211 54.0838 310.584 54.0838 311.139L54.0802 311.15H53.3415L53.3345 311.143C53.338 310.214 54.0556 309.56 55.0758 309.56C56.022 309.56 56.7185 310.161 56.7185 310.999V311.009C56.7185 311.586 56.4512 312.029 55.5295 312.944L54.4531 314.017V314.087H56.7994V314.759H53.3802ZM60.0709 314.759V313.75H57.5945V313.081C58.2628 311.934 59.0086 310.735 59.7086 309.683H60.8308V313.081H61.5308V313.75H60.8308V314.759H60.0709ZM58.3508 313.095H60.0815V310.348H60.0358C59.4905 311.168 58.8714 312.156 58.3508 313.046V313.095ZM64.2781 314.854C63.1947 314.854 62.4876 314.26 62.4208 313.419L62.4173 313.377H63.17L63.1736 313.412C63.2228 313.873 63.6485 314.196 64.2781 314.196C64.8972 314.196 65.3159 313.848 65.3159 313.349V313.341C65.3159 312.768 64.9008 312.448 64.2254 312.448H63.6062V311.836H64.2007C64.7812 311.836 65.1751 311.495 65.1751 311.023V311.016C65.1751 310.524 64.8445 310.235 64.2711 310.235C63.7083 310.235 63.3143 310.534 63.265 311.013L63.2615 311.048H62.5228L62.5263 311.009C62.6037 310.154 63.2791 309.588 64.2711 309.588C65.2807 309.588 65.942 310.13 65.942 310.914V310.921C65.942 311.551 65.4917 311.973 64.8726 312.103V312.121C65.6184 312.188 66.1179 312.638 66.1179 313.349V313.356C66.1179 314.228 65.3546 314.854 64.2781 314.854Z" fill="#778EA1"/>
<path d="M45.6272 331.871H78.0466C79.3728 331.871 80.448 332.946 80.448 334.273V337.274C80.448 338.601 79.3728 339.676 78.0466 339.676H45.6272V331.871Z" fill="url(#paint1_linear_0_2672)"/>
<path d="M83.3982 338.773V338.239L85.0832 336.469C85.755 335.769 85.9485 335.509 85.9485 335.097V335.087C85.9485 334.591 85.6073 334.225 85.0515 334.225C84.4816 334.225 84.1017 334.598 84.1017 335.154L84.0982 335.164H83.3595L83.3524 335.157C83.3559 334.229 84.0736 333.574 85.0937 333.574C86.04 333.574 86.7365 334.176 86.7365 335.013V335.024C86.7365 335.601 86.4691 336.044 85.5475 336.958L84.4711 338.031V338.102H86.8174V338.773H83.3982ZM90.0889 338.773V337.764H87.6124V337.096C88.2808 335.949 89.0265 334.749 89.7265 333.697H90.8487V337.096H91.5487V337.764H90.8487V338.773H90.0889ZM88.3687 337.11H90.0994V334.362H90.0537C89.5084 335.182 88.8893 336.17 88.3687 337.06V337.11ZM94.2961 338.868C93.2126 338.868 92.5056 338.274 92.4387 337.433L92.4352 337.391H93.188L93.1915 337.426C93.2408 337.887 93.6664 338.211 94.2961 338.211C94.9152 338.211 95.3338 337.862 95.3338 337.363V337.356C95.3338 336.782 94.9187 336.462 94.2433 336.462H93.6242V335.85H94.2187C94.7991 335.85 95.1931 335.509 95.1931 335.038V335.031C95.1931 334.538 94.8624 334.25 94.289 334.25C93.7262 334.25 93.3322 334.549 93.283 335.027L93.2795 335.062H92.5407L92.5442 335.024C92.6216 334.169 93.297 333.602 94.289 333.602C95.2986 333.602 95.96 334.144 95.96 334.929V334.936C95.96 335.565 95.5097 335.987 94.8906 336.118V336.135C95.6363 336.202 96.1358 336.652 96.1358 337.363V337.37C96.1358 338.242 95.3725 338.868 94.2961 338.868Z" fill="#778EA1"/>
<path d="M45.6272 355.886H102.061C103.387 355.886 104.462 356.961 104.462 358.287V361.289C104.462 362.615 103.387 363.69 102.061 363.69H45.6272V355.886Z" fill="url(#paint2_linear_0_2672)"/>
<path d="M107.412 362.788V362.253L109.097 360.484C109.769 359.784 109.963 359.523 109.963 359.112V359.101C109.963 358.605 109.622 358.239 109.066 358.239C108.496 358.239 108.116 358.612 108.116 359.168L108.113 359.179H107.374L107.367 359.172C107.37 358.243 108.088 357.589 109.108 357.589C110.054 357.589 110.751 358.19 110.751 359.027V359.038C110.751 359.615 110.483 360.058 109.562 360.973L108.485 362.046V362.116H110.832V362.788H107.412ZM114.103 362.788V361.778H111.627V361.11C112.295 359.963 113.041 358.764 113.741 357.712H114.863V361.11H115.563V361.778H114.863V362.788H114.103ZM112.383 361.124H114.114V358.377H114.068C113.523 359.196 112.904 360.185 112.383 361.075V361.124ZM118.31 362.883C117.227 362.883 116.52 362.288 116.453 361.448L116.45 361.405H117.202L117.206 361.441C117.255 361.901 117.681 362.225 118.31 362.225C118.93 362.225 119.348 361.877 119.348 361.377V361.37C119.348 360.797 118.933 360.477 118.258 360.477H117.639V359.865H118.233C118.813 359.865 119.207 359.523 119.207 359.052V359.045C119.207 358.552 118.877 358.264 118.303 358.264C117.741 358.264 117.347 358.563 117.297 359.041L117.294 359.077H116.555L116.559 359.038C116.636 358.183 117.311 357.617 118.303 357.617C119.313 357.617 119.974 358.158 119.974 358.943V358.95C119.974 359.58 119.524 360.002 118.905 360.132V360.15C119.651 360.216 120.15 360.667 120.15 361.377V361.384C120.15 362.257 119.387 362.883 118.31 362.883Z" fill="#778EA1"/>
</g>
</g>
<rect x="228.136" y="259.336" width="213.728" height="230.129" rx="7.2043" fill="white"/>
<path d="M242.873 283.745L245.317 276.977H246.452L248.896 283.745H247.789L247.179 281.916H244.59L243.975 283.745H242.873ZM245.842 278.163L244.871 281.071H246.897L245.922 278.163H245.842ZM251.4 283.843C250.251 283.843 249.655 283.154 249.655 281.948V278.651H250.673V281.709C250.673 282.553 250.983 282.971 251.728 282.971C252.545 282.971 252.981 282.46 252.981 281.639V278.651H253.994V283.745H252.981V282.976H252.901C252.657 283.524 252.141 283.843 251.4 283.843ZM257.319 283.829C256.039 283.829 255.209 282.802 255.209 281.203V281.193C255.209 279.58 256.025 278.562 257.319 278.562C258.018 278.562 258.614 278.909 258.886 279.458H258.966V276.653H259.979V283.745H258.966V282.943H258.886C258.59 283.501 258.032 283.829 257.319 283.829ZM257.61 282.962C258.459 282.962 258.98 282.291 258.98 281.203V281.193C258.98 280.105 258.454 279.434 257.61 279.434C256.756 279.434 256.245 280.1 256.245 281.193V281.203C256.245 282.295 256.756 282.962 257.61 282.962ZM262.024 277.741C261.672 277.741 261.386 277.455 261.386 277.108C261.386 276.756 261.672 276.47 262.024 276.47C262.371 276.47 262.662 276.756 262.662 277.108C262.662 277.455 262.371 277.741 262.024 277.741ZM261.512 283.745V278.651H262.526V283.745H261.512ZM266.146 283.843C264.655 283.843 263.754 282.825 263.754 281.212V281.207C263.754 279.617 264.674 278.553 266.095 278.553C267.516 278.553 268.388 279.58 268.388 281.109V281.465H264.777C264.796 282.441 265.33 283.008 266.17 283.008C266.822 283.008 267.211 282.685 267.333 282.422L267.352 282.385L268.332 282.38L268.323 282.422C268.154 283.093 267.45 283.843 266.146 283.843ZM266.1 279.387C265.405 279.387 264.88 279.861 264.791 280.738H267.38C267.3 279.828 266.789 279.387 266.1 279.387ZM269.599 283.745V278.651H270.616V279.425H270.691C270.94 278.881 271.428 278.553 272.169 278.553C273.309 278.553 273.937 279.233 273.937 280.448V283.745H272.924V280.687C272.924 279.842 272.572 279.425 271.826 279.425C271.081 279.425 270.616 279.936 270.616 280.757V283.745H269.599ZM277.502 283.843C276.015 283.843 275.105 282.83 275.105 281.184V281.174C275.105 279.561 276.01 278.553 277.497 278.553C278.777 278.553 279.542 279.275 279.683 280.265V280.288L278.707 280.293L278.702 280.279C278.59 279.777 278.177 279.402 277.502 279.402C276.653 279.402 276.141 280.077 276.141 281.174V281.184C276.141 282.31 276.662 282.994 277.502 282.994C278.14 282.994 278.534 282.704 278.698 282.155L278.707 282.131H279.683L279.673 282.174C279.49 283.163 278.763 283.843 277.502 283.843ZM282.975 283.843C281.484 283.843 280.583 282.825 280.583 281.212V281.207C280.583 279.617 281.502 278.553 282.924 278.553C284.345 278.553 285.217 279.58 285.217 281.109V281.465H281.606C281.624 282.441 282.159 283.008 282.999 283.008C283.651 283.008 284.04 282.685 284.162 282.422L284.181 282.385L285.161 282.38L285.152 282.422C284.983 283.093 284.279 283.843 282.975 283.843ZM282.928 279.387C282.234 279.387 281.709 279.861 281.62 280.738H284.209C284.129 279.828 283.618 279.387 282.928 279.387ZM292.023 283.909C290.105 283.909 288.894 282.539 288.894 280.363V280.354C288.894 278.206 290.119 276.813 292.013 276.813C293.552 276.813 294.645 277.685 294.889 278.994L294.898 279.04H293.847L293.833 278.994C293.589 278.191 292.942 277.741 292.013 277.741C290.761 277.741 289.968 278.754 289.968 280.349V280.358C289.968 281.977 290.766 282.98 292.037 282.98C293.144 282.98 293.899 282.281 293.908 281.24V281.09H292.168V280.241H294.945V281.081C294.945 282.797 293.796 283.909 292.023 283.909ZM298.416 283.843C296.924 283.843 296.024 282.825 296.024 281.212V281.207C296.024 279.617 296.943 278.553 298.364 278.553C299.785 278.553 300.658 279.58 300.658 281.109V281.465H297.046C297.065 282.441 297.6 283.008 298.439 283.008C299.091 283.008 299.48 282.685 299.602 282.422L299.621 282.385L300.601 282.38L300.592 282.422C300.423 283.093 299.72 283.843 298.416 283.843ZM298.369 279.387C297.675 279.387 297.149 279.861 297.06 280.738H299.649C299.57 279.828 299.058 279.387 298.369 279.387ZM301.868 283.745V278.651H302.886V279.425H302.961C303.209 278.881 303.697 278.553 304.438 278.553C305.578 278.553 306.206 279.233 306.206 280.448V283.745H305.193V280.687C305.193 279.842 304.841 279.425 304.096 279.425C303.35 279.425 302.886 279.936 302.886 280.757V283.745H301.868ZM309.485 283.829C308.204 283.829 307.374 282.802 307.374 281.203V281.193C307.374 279.58 308.19 278.562 309.485 278.562C310.184 278.562 310.779 278.909 311.051 279.458H311.131V276.653H312.144V283.745H311.131V282.943H311.051C310.756 283.501 310.198 283.829 309.485 283.829ZM309.776 282.962C310.625 282.962 311.145 282.291 311.145 281.203V281.193C311.145 280.105 310.62 279.434 309.776 279.434C308.922 279.434 308.411 280.1 308.411 281.193V281.203C308.411 282.295 308.922 282.962 309.776 282.962ZM315.798 283.843C314.306 283.843 313.406 282.825 313.406 281.212V281.207C313.406 279.617 314.325 278.553 315.746 278.553C317.168 278.553 318.04 279.58 318.04 281.109V281.465H314.428C314.447 282.441 314.982 283.008 315.821 283.008C316.473 283.008 316.863 282.685 316.985 282.422L317.003 282.385L317.984 282.38L317.974 282.422C317.805 283.093 317.102 283.843 315.798 283.843ZM315.751 279.387C315.057 279.387 314.532 279.861 314.442 280.738H317.032C316.952 279.828 316.441 279.387 315.751 279.387ZM319.25 283.745V278.651H320.268V279.42H320.343C320.526 278.881 321 278.562 321.68 278.562C321.844 278.562 322.022 278.585 322.125 278.609V279.547C321.942 279.509 321.769 279.486 321.576 279.486C320.798 279.486 320.268 279.964 320.268 280.701V283.745H319.25ZM324.846 283.843C323.617 283.843 322.838 283.266 322.74 282.413V282.408H323.757L323.762 282.413C323.889 282.797 324.259 283.055 324.864 283.055C325.493 283.055 325.929 282.769 325.929 282.352V282.342C325.929 282.023 325.69 281.808 325.099 281.672L324.287 281.484C323.326 281.264 322.88 280.827 322.88 280.082V280.077C322.88 279.19 323.706 278.553 324.86 278.553C326.023 278.553 326.769 279.134 326.858 279.964V279.969H325.887V279.96C325.788 279.603 325.427 279.336 324.855 279.336C324.297 279.336 323.893 279.613 323.893 280.021V280.03C323.893 280.349 324.128 280.546 324.7 280.682L325.507 280.865C326.487 281.095 326.956 281.512 326.956 282.249V282.258C326.956 283.201 326.056 283.843 324.846 283.843Z" fill="#5D778D"/>
<path fill-rule="evenodd" clip-rule="evenodd" d="M334.749 276.342C332.318 276.342 330.347 278.313 330.347 280.745C330.347 283.176 332.318 285.147 334.749 285.147C337.181 285.147 339.152 283.176 339.152 280.745C339.152 278.313 337.181 276.342 334.749 276.342ZM334.312 279.252C334.475 279.157 334.666 279.122 334.852 279.154C335.039 279.185 335.208 279.282 335.33 279.427C335.451 279.572 335.518 279.755 335.518 279.944L335.518 279.944C335.518 280.132 335.372 280.328 335.096 280.512C334.97 280.596 334.841 280.66 334.742 280.704C334.693 280.726 334.653 280.742 334.626 280.752C334.614 280.757 334.602 280.761 334.59 280.765C334.381 280.836 334.268 281.062 334.337 281.272C334.407 281.481 334.634 281.595 334.844 281.525L334.911 281.5C334.95 281.486 335.004 281.464 335.067 281.436C335.194 281.38 335.365 281.294 335.54 281.178C335.864 280.962 336.318 280.557 336.318 279.945C336.319 279.567 336.185 279.201 335.942 278.911C335.698 278.622 335.36 278.428 334.988 278.365C334.615 278.301 334.232 278.371 333.906 278.562C333.58 278.754 333.332 279.055 333.207 279.411C333.134 279.62 333.243 279.848 333.452 279.922C333.66 279.995 333.889 279.885 333.962 279.677C334.025 279.499 334.149 279.348 334.312 279.252ZM334.749 282.346C334.528 282.346 334.349 282.525 334.349 282.746C334.349 282.967 334.528 283.146 334.749 283.146H334.753C334.974 283.146 335.153 282.967 335.153 282.746C335.153 282.525 334.974 282.346 334.753 282.346H334.749Z" fill="#5D778D"/>
<rect x="242.545" y="300.549" width="12.0072" height="3.60215" rx="1.20072" fill="url(#paint3_linear_0_2672)"/>
<path d="M260.044 305.351V300.275H260.952L262.57 304.323H262.626L264.245 300.275H265.152V305.351H264.435V301.625H264.382L262.89 305.351H262.306L260.818 301.625H260.762V305.351H260.044ZM267.942 305.424C266.823 305.424 266.148 304.661 266.148 303.451V303.448C266.148 302.255 266.837 301.456 267.903 301.456C268.969 301.456 269.623 302.227 269.623 303.374V303.641H266.915C266.929 304.373 267.33 304.798 267.959 304.798C268.448 304.798 268.74 304.556 268.832 304.359L268.846 304.33L269.581 304.327L269.574 304.359C269.447 304.862 268.92 305.424 267.942 305.424ZM267.907 302.083C267.386 302.083 266.992 302.438 266.925 303.096H268.867C268.807 302.413 268.424 302.083 267.907 302.083ZM270.531 305.351V301.53H271.294V302.111H271.35C271.537 301.703 271.903 301.456 272.459 301.456C273.313 301.456 273.785 301.967 273.785 302.878V305.351H273.025V303.057C273.025 302.424 272.761 302.111 272.202 302.111C271.642 302.111 271.294 302.494 271.294 303.11V305.351H270.531Z" fill="#778EA1"/>
<rect x="286.362" y="300.549" width="12.0072" height="3.60215" rx="1.20072" fill="url(#paint4_linear_0_2672)"/>
<path d="M304.863 305.351L303.494 300.275H304.314L305.246 304.221H305.295L306.354 300.275H307.086L308.152 304.221H308.201L309.13 300.275H309.949L308.577 305.351H307.835L306.745 301.555H306.695L305.608 305.351H304.863ZM312.053 305.424C310.931 305.424 310.245 304.675 310.245 303.444V303.437C310.245 302.209 310.934 301.456 312.053 301.456C313.168 301.456 313.857 302.206 313.857 303.437V303.444C313.857 304.675 313.171 305.424 312.053 305.424ZM312.053 304.788C312.707 304.788 313.08 304.288 313.08 303.444V303.437C313.08 302.589 312.707 302.093 312.053 302.093C311.395 302.093 311.026 302.589 311.026 303.437V303.444C311.026 304.292 311.395 304.788 312.053 304.788ZM314.768 305.351V301.53H315.532V302.118H315.588C315.757 301.699 316.13 301.456 316.629 301.456C317.15 301.456 317.519 301.727 317.688 302.139H317.748C317.941 301.727 318.381 301.456 318.912 301.456C319.683 301.456 320.133 301.921 320.133 302.716V305.351H319.373V302.899C319.373 302.371 319.134 302.111 318.634 302.111C318.149 302.111 317.829 302.473 317.829 302.934V305.351H317.069V302.821C317.069 302.385 316.784 302.111 316.334 302.111C315.873 302.111 315.532 302.505 315.532 303.004V305.351H314.768ZM322.803 305.424C321.684 305.424 321.009 304.661 321.009 303.451V303.448C321.009 302.255 321.698 301.456 322.764 301.456C323.83 301.456 324.484 302.227 324.484 303.374V303.641H321.776C321.79 304.373 322.191 304.798 322.821 304.798C323.31 304.798 323.601 304.556 323.693 304.359L323.707 304.33L324.442 304.327L324.435 304.359C324.309 304.862 323.781 305.424 322.803 305.424ZM322.768 302.083C322.247 302.083 321.853 302.438 321.786 303.096H323.728C323.668 302.413 323.285 302.083 322.768 302.083ZM325.392 305.351V301.53H326.155V302.111H326.212C326.398 301.703 326.764 301.456 327.32 301.456C328.175 301.456 328.646 301.967 328.646 302.878V305.351H327.886V303.057C327.886 302.424 327.622 302.111 327.063 302.111C326.504 302.111 326.155 302.494 326.155 303.11V305.351H325.392Z" fill="#778EA1"/>
<rect x="341.179" y="300.549" width="12.0072" height="3.60215" rx="1.20072" fill="url(#paint5_linear_0_2672)"/>
<path d="M360.999 305.474C359.725 305.474 358.941 304.717 358.941 303.602V300.275H359.729V303.543C359.729 304.278 360.19 304.777 360.999 304.777C361.808 304.777 362.265 304.278 362.265 303.543V300.275H363.053V303.602C363.053 304.717 362.276 305.474 360.999 305.474ZM364.235 305.351V301.53H364.998V302.111H365.055C365.241 301.703 365.607 301.456 366.163 301.456C367.018 301.456 367.489 301.967 367.489 302.878V305.351H366.729V303.057C366.729 302.424 366.465 302.111 365.906 302.111C365.347 302.111 364.998 302.494 364.998 303.11V305.351H364.235ZM368.59 305.351V300.032H369.353V303.141H369.41L370.926 301.53H371.819L370.226 303.141L371.925 305.351H370.996L369.681 303.634L369.353 303.961V305.351H368.59ZM372.621 305.351V301.53H373.385V302.111H373.441C373.627 301.703 373.993 301.456 374.549 301.456C375.404 301.456 375.875 301.967 375.875 302.878V305.351H375.115V303.057C375.115 302.424 374.852 302.111 374.292 302.111C373.733 302.111 373.385 302.494 373.385 303.11V305.351H372.621ZM378.559 305.424C377.437 305.424 376.751 304.675 376.751 303.444V303.437C376.751 302.209 377.441 301.456 378.559 301.456C379.674 301.456 380.364 302.206 380.364 303.437V303.444C380.364 304.675 379.678 305.424 378.559 305.424ZM378.559 304.788C379.214 304.788 379.587 304.288 379.587 303.444V303.437C379.587 302.589 379.214 302.093 378.559 302.093C377.902 302.093 377.532 302.589 377.532 303.437V303.444C377.532 304.292 377.902 304.788 378.559 304.788ZM381.862 305.351L380.807 301.53H381.574L382.26 304.478H382.316L383.104 301.53H383.829L384.617 304.478H384.677L385.359 301.53H386.115L385.064 305.351H384.279L383.488 302.501H383.428L382.64 305.351H381.862ZM386.896 305.351V301.53H387.66V302.111H387.716C387.902 301.703 388.268 301.456 388.824 301.456C389.679 301.456 390.15 301.967 390.15 302.878V305.351H389.39V303.057C389.39 302.424 389.127 302.111 388.567 302.111C388.008 302.111 387.66 302.494 387.66 303.11V305.351H386.896Z" fill="#778EA1"/>
<rect width="184.91" height="148.495" transform="translate(242.545 326.562)" fill="white"/>
<circle cx="308.283" cy="396.504" r="44.1263" fill="url(#paint6_linear_0_2672)" stroke="white" stroke-width="1.20072"/>
<circle cx="374.023" cy="390.2" r="31.819" fill="url(#paint7_linear_0_2672)" stroke="white" stroke-width="1.20072"/>
<rect y="1.00195" width="768" height="366" fill="url(#paint8_linear_0_2672)"/>
</g>
<defs>
<linearGradient id="paint0_linear_0_2672" x1="45.6272" y1="310.258" x2="50.43" y2="310.258" gradientUnits="userSpaceOnUse">
<stop stop-color="#9F9FE5"/>
<stop offset="1" stop-color="#4F4FBE"/>
</linearGradient>
<linearGradient id="paint1_linear_0_2672" x1="45.6272" y1="334.273" x2="80.448" y2="334.273" gradientUnits="userSpaceOnUse">
<stop stop-color="#9F9FE5"/>
<stop offset="1" stop-color="#4F4FBE"/>
</linearGradient>
<linearGradient id="paint2_linear_0_2672" x1="45.6272" y1="358.287" x2="104.462" y2="358.287" gradientUnits="userSpaceOnUse">
<stop stop-color="#9F9FE5"/>
<stop offset="1" stop-color="#4F4FBE"/>
</linearGradient>
<linearGradient id="paint3_linear_0_2672" x1="254.552" y1="302.23" x2="242.545" y2="302.23" gradientUnits="userSpaceOnUse">
<stop stop-color="#0188FF"/>
<stop offset="1" stop-color="#7ABFFC"/>
</linearGradient>
<linearGradient id="paint4_linear_0_2672" x1="286.362" y1="301.658" x2="298.369" y2="301.658" gradientUnits="userSpaceOnUse">
<stop stop-color="#9F9FE5"/>
<stop offset="1" stop-color="#4F4FBE"/>
</linearGradient>
<linearGradient id="paint5_linear_0_2672" x1="353.186" y1="302.35" x2="341.179" y2="302.35" gradientUnits="userSpaceOnUse">
<stop stop-color="#D0DAE2"/>
<stop offset="1" stop-color="#EFF4F8"/>
</linearGradient>
<linearGradient id="paint6_linear_0_2672" x1="353.01" y1="393.522" x2="263.557" y2="393.522" gradientUnits="userSpaceOnUse">
<stop stop-color="#0188FF"/>
<stop offset="1" stop-color="#7ABFFC"/>
</linearGradient>
<linearGradient id="paint7_linear_0_2672" x1="341.603" y1="377.731" x2="406.442" y2="377.731" gradientUnits="userSpaceOnUse">
<stop stop-color="#9F9FE5"/>
<stop offset="1" stop-color="#4F4FBE"/>
</linearGradient>
<linearGradient id="paint8_linear_0_2672" x1="384" y1="1.00195" x2="384" y2="367.002" gradientUnits="userSpaceOnUse">
<stop stop-color="#F9FAFB" stop-opacity="0"/>
<stop offset="0.77469" stop-color="#F4F6F8" stop-opacity="0.2"/>
<stop offset="1" stop-color="#F5F7F9"/>
</linearGradient>
<clipPath id="clip0_0_2672">
<rect width="410" height="366" fill="white" transform="translate(0 0.599609)"/>
</clipPath>
<clipPath id="clip1_0_2672">
<rect y="0.599609" width="670" height="244.328" rx="7.2043" fill="white"/>
</clipPath>
<clipPath id="clip2_0_2672">
<rect width="617" height="149" fill="white" transform="translate(42.4086 67.002)"/>
</clipPath>
<clipPath id="clip3_0_2672">
<rect y="259.336" width="213.728" height="230.129" rx="7.2043" fill="white"/>
</clipPath>
<clipPath id="clip4_0_2672">
<rect width="19.2115" height="153.091" fill="white" transform="translate(36.0213 306.956)"/>
</clipPath>
<clipPath id="clip5_0_2672">
<rect width="19.2115" height="153.091" fill="white" transform="translate(56.6051 306.956)"/>
</clipPath>
<clipPath id="clip6_0_2672">
<rect width="19.2115" height="153.091" fill="white" transform="translate(77.1888 306.956)"/>
</clipPath>
<clipPath id="clip7_0_2672">
<rect width="19.2115" height="153.091" fill="white" transform="translate(97.7725 306.956)"/>
</clipPath>
<clipPath id="clip8_0_2672">
<rect width="19.2115" height="153.091" fill="white" transform="translate(118.356 306.956)"/>
</clipPath>
<clipPath id="clip9_0_2672">
<rect width="19.2115" height="153.091" fill="white" transform="translate(138.94 306.956)"/>
</clipPath>
<clipPath id="clip10_0_2672">
<rect width="19.2115" height="153.091" fill="white" transform="translate(159.524 306.956)"/>
</clipPath>
<clipPath id="clip11_0_2672">
<rect width="19.2115" height="153.091" fill="white" transform="translate(180.107 306.956)"/>
</clipPath>
<clipPath id="clip12_0_2672">
<rect width="150.69" height="153.091" fill="white" transform="translate(45.6271 306.956)"/>
</clipPath>
</defs>
</svg>
