<svg width="25" height="25" viewBox="0 0 25 25" fill="none" xmlns="http://www.w3.org/2000/svg">
<path d="M12.1677 2.1665C6.64454 2.1665 2.16739 6.64366 2.16739 12.1668C2.16739 17.69 6.64454 22.1672 12.1677 22.1672C17.6909 22.1672 22.1681 17.69 22.1681 12.1668C22.1681 6.64366 17.6909 2.1665 12.1677 2.1665Z" fill="#0188FF"/>
<path d="M13.5209 14.8173H16.1089L16.5155 12.1882H13.5209V10.7511C13.5209 9.65908 13.8779 8.69054 14.8994 8.69054H16.541V6.39647C16.2524 6.35746 15.6424 6.27246 14.4899 6.27246C12.0828 6.27246 10.6718 7.5435 10.6718 10.4396V12.1887H8.19717V14.8177H10.6713V22.044C11.1613 22.117 11.6578 22.167 12.1673 22.167C12.6278 22.167 13.0773 22.125 13.5209 22.065V14.8173Z" fill="#E4E4F7"/>
</svg>
