<svg width="20" height="20" viewBox="0 0 20 20" fill="none" xmlns="http://www.w3.org/2000/svg">
<path d="M10 1.66667C5.39752 1.66667 1.66669 5.39751 1.66669 10C1.66669 14.6025 5.39752 18.3333 10 18.3333C14.6025 18.3333 18.3334 14.6025 18.3334 10C18.3334 5.39751 14.6025 1.66667 10 1.66667Z" fill="url(#paint0_linear_184_15295)"/>
<path d="M11.1277 12.2087H13.2844L13.6231 10.0179H11.1277V8.82042C11.1277 7.91042 11.4252 7.10333 12.2765 7.10333H13.6444V5.19167C13.404 5.15917 12.8956 5.08833 11.9352 5.08833C9.92938 5.08833 8.75355 6.1475 8.75355 8.56083V10.0183H6.69147V12.2092H8.75313V18.2308C9.16147 18.2917 9.57522 18.3333 9.9998 18.3333C10.3836 18.3333 10.7581 18.2983 11.1277 18.2483V12.2087Z" fill="white"/>
<defs>
<linearGradient id="paint0_linear_184_15295" x1="4.16377" y1="4.16375" x2="16.9229" y2="16.9229" gradientUnits="userSpaceOnUse">
<stop stop-color="#2AA4F4"/>
<stop offset="1" stop-color="#007AD9"/>
</linearGradient>
</defs>
</svg>
