<svg width="31" height="31" viewBox="0 0 31 31" fill="none" xmlns="http://www.w3.org/2000/svg">
<path fill-rule="evenodd" clip-rule="evenodd" d="M2.58317 3.87497H3.95305L5.11023 22.3901C5.11923 22.535 5.13009 22.7097 5.15205 22.8636C5.17769 23.0432 5.23036 23.2963 5.37864 23.5583C5.57201 23.9 5.86464 24.175 6.21777 24.3466C6.48856 24.4783 6.74438 24.5151 6.92529 24.5295C7.08024 24.5418 7.25534 24.5417 7.40047 24.5416L24.5415 24.5416C25.2549 24.5416 25.8332 23.9633 25.8332 23.25C25.8332 22.5366 25.2549 21.9583 24.5415 21.9583H7.67163L7.51017 19.375H23.4717C24.0862 19.375 24.6196 19.375 25.0623 19.3406C25.5321 19.3041 25.9985 19.2235 26.4563 19.0091C27.1443 18.6868 27.7225 18.1694 28.1188 17.5211C28.3824 17.0898 28.514 16.6351 28.6022 16.1722C28.6853 15.7361 28.7441 15.2061 28.812 14.5955L29.5763 7.71622C29.5952 7.54668 29.6174 7.34801 29.6219 7.17299C29.627 6.97336 29.6158 6.67776 29.4841 6.36076C29.3159 5.95581 29.0152 5.6199 28.6313 5.40796C28.3308 5.24205 28.0383 5.19829 27.8393 5.18135C27.6648 5.1665 27.465 5.16657 27.2944 5.16663L6.62215 5.16664L6.51444 3.44318C6.50544 3.29833 6.49459 3.12357 6.47263 2.9697C6.44698 2.79004 6.39431 2.53702 6.24603 2.27497C6.05266 1.93324 5.76003 1.65832 5.4069 1.48665C5.13612 1.355 4.8803 1.31822 4.69939 1.30383C4.54445 1.29151 4.36936 1.29158 4.22424 1.29163L2.58317 1.29164C1.8698 1.29164 1.2915 1.86994 1.2915 2.58331C1.2915 3.29668 1.8698 3.87497 2.58317 3.87497Z" fill="url(#paint0_linear_7_3849)"/>
<path d="M9.68734 25.8333C8.61729 25.8333 7.74984 26.7007 7.74984 27.7708C7.74984 28.8408 8.61729 29.7083 9.68734 29.7083C10.7574 29.7083 11.6248 28.8408 11.6248 27.7708C11.6248 26.7007 10.7574 25.8333 9.68734 25.8333Z" fill="url(#paint1_linear_7_3849)"/>
<path d="M21.3123 25.8333C20.2423 25.8333 19.3748 26.7007 19.3748 27.7708C19.3748 28.8408 20.2423 29.7083 21.3123 29.7083C22.3824 29.7083 23.2498 28.8408 23.2498 27.7708C23.2498 26.7007 22.3824 25.8333 21.3123 25.8333Z" fill="url(#paint2_linear_7_3849)"/>
<defs>
<linearGradient id="paint0_linear_7_3849" x1="6.02284" y1="15.5" x2="24.9198" y2="15.5" gradientUnits="userSpaceOnUse">
<stop stop-color="#9F9FE5"/>
<stop offset="0.362584" stop-color="#4F4FBE"/>
<stop offset="0.64589" stop-color="#0071D2"/>
<stop offset="1" stop-color="#37A2FF"/>
</linearGradient>
<linearGradient id="paint1_linear_7_3849" x1="6.02284" y1="15.5" x2="24.9198" y2="15.5" gradientUnits="userSpaceOnUse">
<stop stop-color="#9F9FE5"/>
<stop offset="0.362584" stop-color="#4F4FBE"/>
<stop offset="0.64589" stop-color="#0071D2"/>
<stop offset="1" stop-color="#37A2FF"/>
</linearGradient>
<linearGradient id="paint2_linear_7_3849" x1="6.02284" y1="15.5" x2="24.9198" y2="15.5" gradientUnits="userSpaceOnUse">
<stop stop-color="#9F9FE5"/>
<stop offset="0.362584" stop-color="#4F4FBE"/>
<stop offset="0.64589" stop-color="#0071D2"/>
<stop offset="1" stop-color="#37A2FF"/>
</linearGradient>
</defs>
</svg>
