<svg width="31" height="31" viewBox="0 0 31 31" fill="none" xmlns="http://www.w3.org/2000/svg">
<path fill-rule="evenodd" clip-rule="evenodd" d="M22.7516 20.7508C23.1029 19.9859 23.9548 19.6773 24.6543 20.0616C26.9708 21.3341 28.929 23.3601 30.3462 25.8567C30.5608 26.2349 30.8734 26.7399 30.9704 27.4244C31.0742 28.1572 30.8924 28.858 30.6213 29.3908C30.3503 29.9237 29.9018 30.4623 29.2777 30.7523C28.6843 31.028 28.0389 30.9991 27.5613 30.9991C26.7786 30.9991 26.144 30.3052 26.144 29.4492C26.144 28.5932 26.7786 27.8992 27.5613 27.8992C27.8663 27.8992 28.0267 27.8983 28.1411 27.8897L28.1441 27.884C28.1713 27.8307 27.9653 27.5401 27.9378 27.4917C26.7724 25.4385 25.1923 23.8262 23.3818 22.8316C22.6824 22.4473 22.4002 21.5157 22.7516 20.7508Z" fill="url(#paint0_linear_7_3827)"/>
<path fill-rule="evenodd" clip-rule="evenodd" d="M19.9142 1.58518C20.2625 0.818607 21.1132 0.506 21.8142 0.886956C24.3775 2.28003 26.144 5.17537 26.144 8.52476C26.144 11.8742 24.3775 14.7695 21.8142 16.1626C21.1132 16.5435 20.2625 16.2309 19.9142 15.4643C19.5658 14.6978 19.8517 13.7675 20.5527 13.3865C22.1895 12.497 23.3094 10.6525 23.3094 8.52476C23.3094 6.39704 22.1895 4.55253 20.5527 3.66297C19.8517 3.28202 19.5658 2.35176 19.9142 1.58518Z" fill="url(#paint1_linear_7_3827)"/>
<path fill-rule="evenodd" clip-rule="evenodd" d="M4.17561 8.52476C4.17561 3.81667 7.66566 0 11.9709 0C16.276 0 19.7661 3.81667 19.7661 8.52476C19.7661 13.2329 16.276 17.0495 11.9709 17.0495C7.66566 17.0495 4.17561 13.2329 4.17561 8.52476Z" fill="url(#paint2_linear_7_3827)"/>
<path fill-rule="evenodd" clip-rule="evenodd" d="M11.9709 18.5995C16.5009 18.5995 20.5506 21.3958 23.0219 25.4505C23.2396 25.8077 23.4717 26.1886 23.6341 26.5507C23.8294 26.9865 23.9698 27.4871 23.9369 28.085C23.9108 28.5618 23.7661 29.0042 23.5941 29.3554C23.4222 29.7067 23.1657 30.0835 22.8172 30.3717C22.3505 30.7577 21.8475 30.893 21.4029 30.9495C21.0114 30.9993 20.5477 30.9992 20.0806 30.9991C14.6762 30.998 9.26759 30.998 3.86106 30.9991C3.394 30.9992 2.93033 30.9993 2.53881 30.9495C2.0942 30.893 1.59121 30.7577 1.12447 30.3717C0.776047 30.0835 0.519546 29.7067 0.347565 29.3554C0.175584 29.0042 0.0309444 28.5618 0.00477081 28.085C-0.0280452 27.4871 0.112269 26.9865 0.307642 26.5507C0.469964 26.1886 0.702134 25.8077 0.919852 25.4505C3.39106 21.3958 7.44078 18.5995 11.9709 18.5995Z" fill="url(#paint3_linear_7_3827)"/>
<defs>
<linearGradient id="paint0_linear_7_3827" x1="5.177" y1="15.5" x2="25.854" y2="15.5" gradientUnits="userSpaceOnUse">
<stop stop-color="#9F9FE5"/>
<stop offset="0.362584" stop-color="#4F4FBE"/>
<stop offset="0.64589" stop-color="#0071D2"/>
<stop offset="1" stop-color="#37A2FF"/>
</linearGradient>
<linearGradient id="paint1_linear_7_3827" x1="5.177" y1="15.5" x2="25.854" y2="15.5" gradientUnits="userSpaceOnUse">
<stop stop-color="#9F9FE5"/>
<stop offset="0.362584" stop-color="#4F4FBE"/>
<stop offset="0.64589" stop-color="#0071D2"/>
<stop offset="1" stop-color="#37A2FF"/>
</linearGradient>
<linearGradient id="paint2_linear_7_3827" x1="5.177" y1="15.5" x2="25.854" y2="15.5" gradientUnits="userSpaceOnUse">
<stop stop-color="#9F9FE5"/>
<stop offset="0.362584" stop-color="#4F4FBE"/>
<stop offset="0.64589" stop-color="#0071D2"/>
<stop offset="1" stop-color="#37A2FF"/>
</linearGradient>
<linearGradient id="paint3_linear_7_3827" x1="5.177" y1="15.5" x2="25.854" y2="15.5" gradientUnits="userSpaceOnUse">
<stop stop-color="#9F9FE5"/>
<stop offset="0.362584" stop-color="#4F4FBE"/>
<stop offset="0.64589" stop-color="#0071D2"/>
<stop offset="1" stop-color="#37A2FF"/>
</linearGradient>
</defs>
</svg>
