<svg width="31" height="31" viewBox="0 0 31 31" fill="none" xmlns="http://www.w3.org/2000/svg">
<path fill-rule="evenodd" clip-rule="evenodd" d="M24.5497 1.24751e-06H6.45026C5.6332 -2.52686e-05 4.92828 -4.81424e-05 4.34771 0.0473865C3.73492 0.0974531 3.12544 0.207993 2.53895 0.506824C1.66399 0.952635 0.952635 1.66399 0.506824 2.53895C0.207993 3.12544 0.0974531 3.73492 0.0473865 4.34771C-4.81424e-05 4.92828 -2.52686e-05 5.63315 1.24751e-06 6.4502V24.5497C-2.52686e-05 25.3668 -4.81424e-05 26.0717 0.0473865 26.6523C0.0974531 27.2651 0.207993 27.8746 0.506824 28.4611C0.952635 29.336 1.66399 30.0474 2.53895 30.4932C3.12544 30.792 3.73492 30.9025 4.34771 30.9526C4.92829 31 5.63316 31 6.45022 31H24.5498C25.3668 31 26.0717 31 26.6523 30.9526C27.2651 30.9025 27.8746 30.792 28.4611 30.4932C29.336 30.0474 30.0474 29.336 30.4932 28.4611C30.792 27.8746 30.9025 27.2651 30.9526 26.6523C31 26.0717 31 25.3668 31 24.5498V6.45022C31 5.63316 31 4.92829 30.9526 4.34771C30.9025 3.73492 30.792 3.12544 30.4932 2.53895C30.0474 1.66399 29.336 0.952635 28.4611 0.506824C27.8746 0.207993 27.2651 0.0974531 26.6523 0.0473865C26.0717 -4.81424e-05 25.3668 -2.52686e-05 24.5497 1.24751e-06ZM11.7796 9.47993C11.625 9.68643 11.625 10.0563 11.625 10.7961V20.2036C11.625 20.9434 11.625 21.3133 11.7796 21.5198C11.9143 21.6997 12.1206 21.8123 12.3448 21.8283C12.6021 21.8467 12.9132 21.6467 13.5355 21.2467L20.8525 16.5429C21.3925 16.1958 21.6625 16.0222 21.7557 15.8015C21.8372 15.6087 21.8372 15.391 21.7557 15.1982C21.6625 14.9775 21.3925 14.8039 20.8525 14.4568L13.5355 9.75306C12.9132 9.35301 12.6021 9.15299 12.3448 9.17136C12.1206 9.18738 11.9143 9.29997 11.7796 9.47993Z" fill="url(#paint0_linear_322_12027)"/>
<defs>
<linearGradient id="paint0_linear_322_12027" x1="5.177" y1="15.5" x2="25.854" y2="15.5" gradientUnits="userSpaceOnUse">
<stop stop-color="#9F9FE5"/>
<stop offset="0.362584" stop-color="#4F4FBE"/>
<stop offset="0.64589" stop-color="#0071D2"/>
<stop offset="1" stop-color="#37A2FF"/>
</linearGradient>
</defs>
</svg>
