<svg width="29" height="29" viewBox="0 0 29 29" fill="none" xmlns="http://www.w3.org/2000/svg">
<path fill-rule="evenodd" clip-rule="evenodd" d="M16.0002 11.9167H23.3331C24.014 11.9167 24.6014 11.9166 25.0852 11.9562C25.5959 11.9979 26.1038 12.09 26.5925 12.339C27.3216 12.7105 27.9144 13.3033 28.2859 14.0325C28.535 14.5212 28.6271 15.0291 28.6688 15.5398C28.7083 16.0236 28.7083 16.611 28.7083 17.2919V20.889C28.7083 21.4555 28.7083 21.9444 28.6807 22.349C28.6517 22.7751 28.5877 23.2012 28.4133 23.6222C28.02 24.5717 27.2657 25.3261 26.3162 25.7193C25.8952 25.8937 25.4691 25.9577 25.043 25.9867C24.9755 25.9913 24.9055 25.9952 24.8333 25.9984V27.4167C24.8333 27.8976 24.5661 28.3386 24.14 28.5614C23.7138 28.7842 23.1991 28.7517 22.8043 28.4772L19.9931 26.5228C19.5601 26.2217 19.4725 26.1668 19.3897 26.1294C19.2943 26.0861 19.194 26.0547 19.091 26.0357C19.0016 26.0192 18.8983 26.0143 18.371 26.0143H16.0002C15.3193 26.0143 14.7319 26.0143 14.248 25.9748C13.7374 25.9331 13.2295 25.841 12.7407 25.592C12.0116 25.2204 11.4188 24.6276 11.0473 23.8985C10.7983 23.4098 10.7062 22.9019 10.6644 22.3912C10.6249 21.9074 10.6249 21.32 10.625 20.6391V17.2919C10.6249 16.611 10.6249 16.0236 10.6644 15.5398C10.7062 15.0291 10.7983 14.5212 11.0473 14.0325C11.4188 13.3033 12.0116 12.7105 12.7407 12.339C13.2295 12.09 13.7374 11.9979 14.248 11.9562C14.7319 11.9166 15.3193 11.9167 16.0002 11.9167Z" fill="url(#paint0_linear_501_1229)"/>
<path d="M17.395 0.291688H7.72999C6.69024 0.291672 5.8321 0.291658 5.13306 0.348772C4.40701 0.408092 3.73961 0.535404 3.11271 0.854822C2.14054 1.35017 1.35014 2.14057 0.854798 3.11274C0.53538 3.73963 0.408068 4.40704 0.348748 5.13308C0.291634 5.83212 0.291648 6.69026 0.291664 7.73001L0.291645 13.8811C0.291473 14.4515 0.291345 14.8742 0.346216 15.2488C0.677057 17.5075 2.45089 19.2813 4.70952 19.6121C4.80186 19.6257 4.85943 19.6603 4.88426 19.681L4.88425 21.719C4.8842 22.0711 4.88415 22.4165 4.90872 22.6943C4.93054 22.941 4.98771 23.452 5.35082 23.8756C5.75559 24.3477 6.3624 24.5969 6.98217 24.5454C7.53815 24.4992 7.93793 24.1758 8.12682 24.0156C8.18064 23.9699 8.23637 23.9201 8.29361 23.8671C8.17404 23.4011 8.11975 22.969 8.08973 22.6016C8.04133 22.0093 8.04149 21.325 8.04164 20.6938V17.2373C8.04149 16.6061 8.04133 15.9218 8.08973 15.3294C8.1445 14.659 8.28007 13.7733 8.74558 12.8597C9.36476 11.6445 10.3528 10.6565 11.568 10.0373C12.4816 9.57179 13.3673 9.43623 14.0377 9.38145C14.63 9.33306 15.3144 9.33322 15.9455 9.33337H23.3878C23.8601 9.33326 24.3623 9.33314 24.8333 9.35337V7.72998C24.8334 6.69024 24.8334 5.83212 24.7763 5.13308C24.7169 4.40704 24.5896 3.73963 24.2702 3.11274C23.7749 2.14057 22.9845 1.35017 22.0123 0.854822C21.3854 0.535404 20.718 0.408092 19.9919 0.348772C19.2929 0.291658 18.4348 0.291672 17.395 0.291688Z" fill="url(#paint1_linear_501_1229)"/>
<defs>
<linearGradient id="paint0_linear_501_1229" x1="5.03721" y1="14.5" x2="23.9911" y2="14.5" gradientUnits="userSpaceOnUse">
<stop stop-color="#9F9FE5"/>
<stop offset="0.362584" stop-color="#4F4FBE"/>
<stop offset="0.64589" stop-color="#0071D2"/>
<stop offset="1" stop-color="#37A2FF"/>
</linearGradient>
<linearGradient id="paint1_linear_501_1229" x1="5.03721" y1="14.5" x2="23.9911" y2="14.5" gradientUnits="userSpaceOnUse">
<stop stop-color="#9F9FE5"/>
<stop offset="0.362584" stop-color="#4F4FBE"/>
<stop offset="0.64589" stop-color="#0071D2"/>
<stop offset="1" stop-color="#37A2FF"/>
</linearGradient>
</defs>
</svg>
