<svg width="31" height="31" viewBox="0 0 31 31" fill="none" xmlns="http://www.w3.org/2000/svg">
<path fill-rule="evenodd" clip-rule="evenodd" d="M25.5893 0.018212C26.0364 0.0907654 26.4213 0.373819 26.6239 0.778943L27.8229 3.17702L30.221 4.37605C30.6261 4.57861 30.9092 4.96357 30.9817 5.41067C31.0543 5.85776 30.9075 6.31248 30.5872 6.63276L26.3599 10.86C26.0957 11.1243 25.7373 11.2727 25.3636 11.2727H21.72L16.4964 16.4964C15.9461 17.0467 15.0539 17.0467 14.5036 16.4964C13.9533 15.9461 13.9533 15.0539 14.5036 14.5036L19.7272 9.28006V5.63638C19.7272 5.26267 19.8756 4.90426 20.1399 4.64L24.3672 0.41273C24.6875 0.0924511 25.1422 -0.0543414 25.5893 0.018212Z" fill="url(#paint0_linear_7_3842)"/>
<path d="M2.81818 15.5C2.81818 8.49603 8.49603 2.81818 15.5 2.81818C16.2782 2.81818 16.9091 2.18731 16.9091 1.40909C16.9091 0.630871 16.2782 9.39953e-10 15.5 9.39953e-10C6.93959 9.39953e-10 0 6.93959 0 15.5C0 24.0604 6.93959 31 15.5 31C24.0604 31 31 24.0604 31 15.5C31 14.7218 30.3691 14.0909 29.5909 14.0909C28.8127 14.0909 28.1818 14.7218 28.1818 15.5C28.1818 22.504 22.504 28.1818 15.5 28.1818C8.49603 28.1818 2.81818 22.504 2.81818 15.5Z" fill="url(#paint1_linear_7_3842)"/>
<path d="M9.86364 15.5C9.86364 12.3871 12.3871 9.86364 15.5 9.86364C16.2782 9.86364 16.9091 9.23276 16.9091 8.45455C16.9091 7.67633 16.2782 7.04545 15.5 7.04545C10.8307 7.04545 7.04545 10.8307 7.04545 15.5C7.04545 20.1693 10.8307 23.9545 15.5 23.9545C20.1693 23.9545 23.9545 20.1693 23.9545 15.5C23.9545 14.7218 23.3237 14.0909 22.5455 14.0909C21.7672 14.0909 21.1364 14.7218 21.1364 15.5C21.1364 18.6129 18.6129 21.1364 15.5 21.1364C12.3871 21.1364 9.86364 18.6129 9.86364 15.5Z" fill="url(#paint2_linear_7_3842)"/>
<defs>
<linearGradient id="paint0_linear_7_3842" x1="5.177" y1="15.5" x2="25.854" y2="15.5" gradientUnits="userSpaceOnUse">
<stop stop-color="#9F9FE5"/>
<stop offset="0.362584" stop-color="#4F4FBE"/>
<stop offset="0.64589" stop-color="#0071D2"/>
<stop offset="1" stop-color="#37A2FF"/>
</linearGradient>
<linearGradient id="paint1_linear_7_3842" x1="5.177" y1="15.5" x2="25.854" y2="15.5" gradientUnits="userSpaceOnUse">
<stop stop-color="#9F9FE5"/>
<stop offset="0.362584" stop-color="#4F4FBE"/>
<stop offset="0.64589" stop-color="#0071D2"/>
<stop offset="1" stop-color="#37A2FF"/>
</linearGradient>
<linearGradient id="paint2_linear_7_3842" x1="5.177" y1="15.5" x2="25.854" y2="15.5" gradientUnits="userSpaceOnUse">
<stop stop-color="#9F9FE5"/>
<stop offset="0.362584" stop-color="#4F4FBE"/>
<stop offset="0.64589" stop-color="#0071D2"/>
<stop offset="1" stop-color="#37A2FF"/>
</linearGradient>
</defs>
</svg>
