<svg width="25" height="25" viewBox="0 0 25 25" fill="none" xmlns="http://www.w3.org/2000/svg">
<path fill-rule="evenodd" clip-rule="evenodd" d="M0.875 9.14167C0.875 6.24806 0.875 4.80126 1.43813 3.69605C1.93348 2.72388 2.72388 1.93348 3.69605 1.43813C4.80126 0.875 6.24806 0.875 9.14167 0.875H15.8583C18.7519 0.875 20.1987 0.875 21.304 1.43813C22.2761 1.93348 23.0665 2.72388 23.5619 3.69605C24.125 4.80126 24.125 6.24806 24.125 9.14167V13.6886C24.125 14.309 24.125 14.6192 23.9954 14.7916C23.8826 14.9418 23.7099 15.0354 23.5224 15.048C23.3072 15.0624 23.0473 14.8931 22.5275 14.5543L18.8525 12.1594L18.7287 12.0785C18.2176 11.7438 17.7048 11.408 17.1241 11.2792C16.6183 11.167 16.0929 11.1782 15.5923 11.3117C15.0175 11.4651 14.5195 11.8224 14.0231 12.1785L13.9028 12.2646L10.6664 14.5755C10.0475 15.0174 9.97075 15.0528 9.91823 15.0689C9.82957 15.0961 9.73608 15.104 9.64412 15.0919C9.58964 15.0847 9.50808 15.0625 8.82429 14.7298L8.14183 14.3976L8.03442 14.3452C7.58411 14.125 7.1312 13.9035 6.63863 13.8286C6.20866 13.7633 5.76991 13.7854 5.34871 13.8937C4.86618 14.0179 4.43788 14.2838 4.01202 14.5483L3.91044 14.6112L1.4108 16.1568C1.17681 16.3015 0.875 16.1334 0.875 15.8583V15.8583V9.14167ZM1.51466 19.1299C1.31465 19.2536 1.21465 19.3154 1.14296 19.4082C1.08388 19.4847 1.03568 19.5931 1.0185 19.6882C0.997652 19.8036 1.01626 19.9056 1.05347 20.1095C1.13677 20.566 1.25894 20.9523 1.43813 21.304C1.93348 22.2761 2.72388 23.0665 3.69605 23.5619C4.80126 24.125 6.24806 24.125 9.14167 24.125H15.8583C18.7519 24.125 20.1987 24.125 21.304 23.5619C22.2761 23.0665 23.0665 22.2761 23.5619 21.304C23.8441 20.7501 23.9848 20.1105 24.0551 19.2461C24.0715 19.0439 24.0797 18.9428 24.0546 18.8408C24.0332 18.7537 23.9891 18.6638 23.9333 18.5936C23.8681 18.5114 23.7776 18.4524 23.5968 18.3346L17.4421 14.3238C16.7153 13.8502 16.624 13.8144 16.5647 13.8012C16.4635 13.7788 16.3585 13.781 16.2583 13.8077C16.1996 13.8234 16.1099 13.863 15.404 14.3671L12.1675 16.6779L12.0626 16.753C11.6251 17.0667 11.1853 17.3821 10.6771 17.5382C10.2338 17.6745 9.76639 17.7136 9.30661 17.653C8.7795 17.5836 8.29342 17.3458 7.80979 17.1092L7.69385 17.0526L7.01139 16.7205C6.3764 16.4115 6.30145 16.3904 6.25027 16.3826C6.16427 16.3695 6.07652 16.374 5.99228 16.3956C5.94214 16.4085 5.8697 16.4371 5.26905 16.8085L1.51466 19.1299ZM11.2083 8.625C11.2083 10.0517 10.0517 11.2083 8.625 11.2083C7.19826 11.2083 6.04167 10.0517 6.04167 8.625C6.04167 7.19826 7.19826 6.04167 8.625 6.04167C10.0517 6.04167 11.2083 7.19826 11.2083 8.625Z" fill="url(#paint0_linear_501_879)"/>
<defs>
<linearGradient id="paint0_linear_501_879" x1="4.75775" y1="12.5" x2="20.2655" y2="12.5" gradientUnits="userSpaceOnUse">
<stop stop-color="#9F9FE5"/>
<stop offset="0.362584" stop-color="#4F4FBE"/>
<stop offset="0.64589" stop-color="#0071D2"/>
<stop offset="1" stop-color="#37A2FF"/>
</linearGradient>
</defs>
</svg>
