<svg width="29" height="21" viewBox="0 0 29 21" fill="none" xmlns="http://www.w3.org/2000/svg">
<path d="M11.9169 10.5C11.9169 9.07322 13.0735 7.91663 14.5002 7.91663C15.9269 7.91663 17.0835 9.07322 17.0835 10.5C17.0835 11.9267 15.9269 13.0833 14.5002 13.0833C13.0735 13.0833 11.9169 11.9267 11.9169 10.5Z" fill="url(#paint0_linear_192_3241)"/>
<path fill-rule="evenodd" clip-rule="evenodd" d="M14.5002 0.166626C10.8039 0.166626 7.79043 1.80022 5.55766 3.66372C3.32792 5.52469 1.79919 7.67675 1.03356 8.88905L1.00245 8.93812C0.850524 9.17726 0.653269 9.48775 0.55355 9.9228C0.473035 10.2741 0.473035 10.7258 0.55355 11.0771C0.653268 11.5122 0.850523 11.8227 1.00245 12.0618L1.03356 12.1109C1.79919 13.3232 3.32792 15.4752 5.55766 17.3362C7.79043 19.1997 10.8039 20.8333 14.5002 20.8333C18.1965 20.8333 21.21 19.1997 23.4427 17.3362C25.6725 15.4752 27.2012 13.3232 27.9668 12.1109L27.9979 12.0618C28.1499 11.8227 28.3471 11.5122 28.4468 11.0771C28.5274 10.7258 28.5274 10.2741 28.4468 9.9228C28.3471 9.48774 28.1499 9.17725 27.9979 8.9381L27.9668 8.88905C27.2012 7.67675 25.6725 5.52469 23.4427 3.66372C21.21 1.80022 18.1965 0.166626 14.5002 0.166626ZM14.5002 5.33329C11.6467 5.33329 9.33352 7.64649 9.33352 10.5C9.33352 13.3534 11.6467 15.6666 14.5002 15.6666C17.3537 15.6666 19.6669 13.3534 19.6669 10.5C19.6669 7.64649 17.3537 5.33329 14.5002 5.33329Z" fill="url(#paint1_linear_192_3241)"/>
<defs>
<linearGradient id="paint0_linear_192_3241" x1="5.17151" y1="10.5" x2="23.8569" y2="10.5" gradientUnits="userSpaceOnUse">
<stop stop-color="#9F9FE5"/>
<stop offset="0.362584" stop-color="#4F4FBE"/>
<stop offset="0.64589" stop-color="#0071D2"/>
<stop offset="1" stop-color="#37A2FF"/>
</linearGradient>
<linearGradient id="paint1_linear_192_3241" x1="5.17151" y1="10.5" x2="23.8569" y2="10.5" gradientUnits="userSpaceOnUse">
<stop stop-color="#9F9FE5"/>
<stop offset="0.362584" stop-color="#4F4FBE"/>
<stop offset="0.64589" stop-color="#0071D2"/>
<stop offset="1" stop-color="#37A2FF"/>
</linearGradient>
</defs>
</svg>
