<svg width="31" height="31" viewBox="0 0 31 31" fill="none" xmlns="http://www.w3.org/2000/svg">
<path d="M26.3604 21.2458C26.9106 20.6405 26.9106 19.6591 26.3604 19.0538C25.8102 18.4485 24.918 18.4485 24.3678 19.0538L20.1409 23.7038C19.8767 23.9944 19.7282 24.3887 19.7282 24.7998C19.7282 25.2108 19.8767 25.6051 20.1409 25.8958L24.3678 30.5457C24.9181 31.151 25.8102 31.151 26.3604 30.5457C26.9106 29.9404 26.9106 28.959 26.3604 28.3537L24.5387 26.3497H29.591C30.3692 26.3497 31 25.6558 31 24.7998C31 23.9437 30.3692 23.2498 29.591 23.2498H24.5387L26.3604 21.2458Z" fill="url(#paint0_linear_322_12948)"/>
<path fill-rule="evenodd" clip-rule="evenodd" d="M8.15499 19.3748C10.2389 19.3753 12.3229 19.3757 14.4068 19.3748C14.5746 19.3747 14.7751 19.3746 14.9516 19.3905C15.1562 19.4089 15.4493 19.4561 15.7564 19.6282C16.154 19.8511 16.4774 20.2068 16.68 20.6443C16.8364 20.9821 16.8793 21.3045 16.8961 21.5296C16.9105 21.7238 16.9104 21.9443 16.9103 22.1289C16.9097 24.1678 16.9097 26.2067 16.9103 28.2456C16.9104 28.4302 16.9105 28.6507 16.8961 28.845C16.8793 29.07 16.8364 29.3924 16.68 29.7302C16.4774 30.1677 16.154 30.5234 15.7564 30.7463C15.4493 30.9184 15.1562 30.9656 14.9516 30.984C14.7751 30.9999 14.5746 30.9998 14.4068 30.9997C10.3526 30.9981 6.29775 30.976 2.24365 30.9998C2.1431 31.0004 1.94097 31.0016 1.74911 30.9644C0.874116 30.7947 0.189046 30.041 0.0347601 29.0785C0.000929676 28.8674 0.00200615 28.645 0.00254178 28.5344C0.006973 27.6186 -0.0355492 26.685 0.10968 25.779C0.623967 22.5704 2.90753 20.0583 5.82419 19.4926C6.43344 19.3744 7.13112 19.3745 8.15499 19.3748Z" fill="url(#paint1_linear_322_12948)"/>
<path fill-rule="evenodd" clip-rule="evenodd" d="M4.93406 8.52492C4.93406 3.81674 8.40356 0 12.6834 0C16.9633 0 20.4328 3.81674 20.4328 8.52492C20.4328 13.2331 16.9633 17.0498 12.6834 17.0498C8.40356 17.0498 4.93406 13.2331 4.93406 8.52492Z" fill="url(#paint2_linear_322_12948)"/>
<defs>
<linearGradient id="paint0_linear_322_12948" x1="5.177" y1="15.5" x2="25.854" y2="15.5" gradientUnits="userSpaceOnUse">
<stop stop-color="#9F9FE5"/>
<stop offset="0.362584" stop-color="#4F4FBE"/>
<stop offset="0.64589" stop-color="#0071D2"/>
<stop offset="1" stop-color="#37A2FF"/>
</linearGradient>
<linearGradient id="paint1_linear_322_12948" x1="5.177" y1="15.5" x2="25.854" y2="15.5" gradientUnits="userSpaceOnUse">
<stop stop-color="#9F9FE5"/>
<stop offset="0.362584" stop-color="#4F4FBE"/>
<stop offset="0.64589" stop-color="#0071D2"/>
<stop offset="1" stop-color="#37A2FF"/>
</linearGradient>
<linearGradient id="paint2_linear_322_12948" x1="5.177" y1="15.5" x2="25.854" y2="15.5" gradientUnits="userSpaceOnUse">
<stop stop-color="#9F9FE5"/>
<stop offset="0.362584" stop-color="#4F4FBE"/>
<stop offset="0.64589" stop-color="#0071D2"/>
<stop offset="1" stop-color="#37A2FF"/>
</linearGradient>
</defs>
</svg>
