<svg width="33" height="32" viewBox="0 0 33 32" fill="none" xmlns="http://www.w3.org/2000/svg">
<path d="M19.1389 2.83216C19.2123 2.24483 18.8897 1.67941 18.3468 1.44371C17.8038 1.20802 17.1705 1.35849 16.7916 1.8132L4.88561 16.1003C4.67986 16.3471 4.47145 16.5971 4.31972 16.8168C4.17622 17.0246 3.91421 17.4331 3.90611 17.97C3.89684 18.5846 4.17072 19.1693 4.64883 19.5557C5.06645 19.8932 5.548 19.9534 5.79948 19.9762C6.06537 20.0002 6.39082 20.0002 6.71214 20.0001L14.9721 20.0001L13.8262 29.1681C13.7527 29.7554 14.0753 30.3208 14.6183 30.5565C15.1612 30.7922 15.7946 30.6417 16.1735 30.187L28.0794 15.8999C28.2852 15.6531 28.4936 15.4031 28.6453 15.1834C28.7888 14.9756 29.0508 14.5671 29.0589 14.0303C29.0682 13.4156 28.7943 12.8309 28.3162 12.4445C27.8986 12.1071 27.417 12.0468 27.1656 12.0241C26.8997 12 26.5742 12 26.2529 12.0001L17.9929 12.0001L19.1389 2.83216Z" fill="#A5B7C7"/>
</svg>
