<svg width="33" height="32" viewBox="0 0 33 32" fill="none" xmlns="http://www.w3.org/2000/svg">
<path fill-rule="evenodd" clip-rule="evenodd" d="M16.4826 1.33337C17.8687 1.33337 19.2119 1.52602 20.4858 1.88671C21.3015 1.53079 22.2023 1.33337 23.1493 1.33337C26.8312 1.33337 29.8159 4.31814 29.8159 8.00004C29.8159 8.52079 29.7508 9.02064 29.634 9.5009C30.6043 11.461 31.1493 13.6686 31.1493 16C31.1493 24.1002 24.5828 30.6667 16.4826 30.6667C8.38241 30.6667 1.81592 24.1002 1.81592 16C1.81592 15.4428 1.84699 14.8929 1.9075 14.3518C1.90896 14.3366 1.91067 14.3215 1.91264 14.3065C2.75225 7.00403 8.95519 1.33337 16.4826 1.33337ZM4.86135 12.9973C6.19444 7.823 10.8921 4.00004 16.4826 4.00004C16.9162 4.00004 17.3441 4.02298 17.7653 4.06768C16.9587 5.17008 16.4826 6.52946 16.4826 8.00004C16.4826 9.89552 17.345 11.5143 18.4262 12.9182C19.3256 14.086 20.4768 15.2269 21.5876 16.3278C21.796 16.5342 22.0029 16.7393 22.2064 16.9429C22.7271 17.4636 23.5714 17.4636 24.0921 16.9429C24.2956 16.7393 24.5025 16.5342 24.7109 16.3278C25.8217 15.2269 26.9729 14.086 27.8723 12.9182C27.9245 12.8504 27.9762 12.7821 28.0273 12.7133C28.3238 13.7571 28.4826 14.8594 28.4826 16C28.4826 22.6275 23.11 28 16.4826 28C16.2589 28 16.0367 27.9939 15.816 27.9818L15.8161 26.493L18.97 22.8133C19.7871 21.86 19.534 20.3983 18.4438 19.7753L14.7935 17.6894L12.4012 13.4971C12.0136 12.8179 11.2657 12.4269 10.4867 12.4962L4.86135 12.9973ZM23.1493 6.00004C22.2288 6.00004 21.4826 6.74623 21.4826 7.66671C21.4826 8.58718 22.2288 9.33337 23.1493 9.33337C24.0697 9.33337 24.8159 8.58718 24.8159 7.66671C24.8159 6.74623 24.0697 6.00004 23.1493 6.00004Z" fill="#A5B7C7"/>
</svg>
