<svg width="20" height="20" viewBox="0 0 20 20" fill="none" xmlns="http://www.w3.org/2000/svg">
<g clip-path="url(#clip0_184_15288)">
<circle cx="10" cy="10" r="10" fill="#EFF4F8"/>
<path d="M16.537 8.69434H16V8.66667H9.99999V11.3333H13.7677C13.218 12.8857 11.741 14 9.99999 14C7.79099 14 5.99998 12.209 5.99998 10C5.99998 7.791 7.79099 6 9.99999 6C11.0197 6 11.9473 6.38467 12.6537 7.013L14.5393 5.12733C13.3487 4.01766 11.756 3.33333 9.99999 3.33333C6.31832 3.33333 3.33331 6.31833 3.33331 10C3.33331 13.6817 6.31832 16.6667 9.99999 16.6667C13.6817 16.6667 16.6667 13.6817 16.6667 10C16.6667 9.553 16.6207 9.11667 16.537 8.69434Z" fill="#FBC02D"/>
<path d="M4.10199 6.897L6.29233 8.50334C6.88499 7.036 8.32033 6 10 6C11.0197 6 11.9473 6.38467 12.6537 7.013L14.5393 5.12733C13.3487 4.01766 11.756 3.33333 10 3.33333C7.43933 3.33333 5.21866 4.779 4.10199 6.897Z" fill="#E53935"/>
<path d="M10 16.6667C11.722 16.6667 13.2867 16.0077 14.4697 14.936L12.4063 13.19C11.737 13.697 10.905 14 10 14C8.26601 14 6.79367 12.8944 6.23901 11.3513L4.065 13.0264C5.16834 15.1854 7.40901 16.6667 10 16.6667Z" fill="#4CAF50"/>
<path d="M16.537 8.69434L16.5317 8.66667H16H10V11.3333H13.7677C13.5037 12.079 13.024 12.722 12.4053 13.1903C12.4057 13.19 12.406 13.19 12.4063 13.1897L14.4697 14.9357C14.3237 15.0683 16.6667 13.3333 16.6667 10C16.6667 9.55301 16.6207 9.11667 16.537 8.69434Z" fill="#1565C0"/>
</g>
<defs>
<clipPath id="clip0_184_15288">
<rect width="20" height="20" fill="white"/>
</clipPath>
</defs>
</svg>
