<svg width="140" height="140" viewBox="0 0 140 140" fill="none" xmlns="http://www.w3.org/2000/svg">
<g filter="url(#filter0_d_7_3811)">
<ellipse cx="69.9998" cy="45.9993" rx="29.9993" ry="29.9993" fill="white"/>
</g>
<path d="M90.2899 41.948H88.6234V41.8621H70.0031V50.1378H81.6956C79.9898 54.9553 75.4061 58.4135 70.0031 58.4135C63.1478 58.4135 57.5896 52.8553 57.5896 46C57.5896 39.1446 63.1478 33.5865 70.0031 33.5865C73.1676 33.5865 76.0465 34.7802 78.2385 36.7302L84.0904 30.8782C80.3953 27.4345 75.4527 25.3108 70.0031 25.3108C58.5775 25.3108 49.314 34.5744 49.314 46C49.314 57.4256 58.5775 66.6891 70.0031 66.6891C81.4287 66.6891 90.6923 57.4256 90.6923 46C90.6923 44.6128 90.5496 43.2587 90.2899 41.948Z" fill="#FBC02D"/>
<path d="M51.6992 36.3702L58.4966 41.3552C60.3359 36.8016 64.7903 33.5865 70.0029 33.5865C73.1673 33.5865 76.0462 34.7802 78.2383 36.7302L84.0902 30.8782C80.3951 27.4345 75.4525 25.3108 70.0029 25.3108C62.0562 25.3108 55.1647 29.7972 51.6992 36.3702Z" fill="#E53935"/>
<path d="M70.0035 66.6893C75.3475 66.6893 80.2033 64.6442 83.8746 61.3184L77.4713 55.8999C75.3941 57.4733 72.8121 58.4137 70.0035 58.4137C64.6222 58.4137 60.053 54.9824 58.3317 50.1938L51.585 55.392C55.009 62.0922 61.9627 66.6893 70.0035 66.6893Z" fill="#4CAF50"/>
<path d="M90.2902 41.9479L90.2736 41.8621H88.6237H70.0034V50.1377H81.6959C80.8766 52.4518 79.388 54.4473 77.4681 55.9007C77.4691 55.8997 77.4701 55.8997 77.4712 55.8986L83.8745 61.3171C83.4214 61.7288 90.6926 56.3445 90.6926 45.9999C90.6926 44.6127 90.5498 43.2586 90.2902 41.9479Z" fill="#1565C0"/>
<defs>
<filter id="filter0_d_7_3811" x="0.000488281" y="0" width="139.999" height="139.999" filterUnits="userSpaceOnUse" color-interpolation-filters="sRGB">
<feFlood flood-opacity="0" result="BackgroundImageFix"/>
<feColorMatrix in="SourceAlpha" type="matrix" values="0 0 0 0 0 0 0 0 0 0 0 0 0 0 0 0 0 0 127 0" result="hardAlpha"/>
<feOffset dy="24"/>
<feGaussianBlur stdDeviation="20"/>
<feComposite in2="hardAlpha" operator="out"/>
<feColorMatrix type="matrix" values="0 0 0 0 0.392157 0 0 0 0 0.392157 0 0 0 0 0.776471 0 0 0 0.1 0"/>
<feBlend mode="normal" in2="BackgroundImageFix" result="effect1_dropShadow_7_3811"/>
<feBlend mode="normal" in="SourceGraphic" in2="effect1_dropShadow_7_3811" result="shape"/>
</filter>
</defs>
</svg>
