<svg width="25" height="25" viewBox="0 0 25 25" fill="none" xmlns="http://www.w3.org/2000/svg">
<rect x="1.66817" y="1.6665" width="20.9996" height="20.9996" rx="4.49992" fill="#0188FF"/>
<rect x="1.66817" y="1.6665" width="20.9996" height="20.9996" rx="4.49992" fill="#0188FF"/>
<rect x="1.66817" y="1.6665" width="20.9996" height="20.9996" rx="4.49992" fill="#0188FF"/>
<path d="M17.4179 8.04144C17.4179 8.66275 16.9142 9.16642 16.2929 9.16642C15.6716 9.16642 15.1679 8.66275 15.1679 8.04144C15.1679 7.42013 15.6716 6.91646 16.2929 6.91646C16.9142 6.91646 17.4179 7.42013 17.4179 8.04144Z" fill="#E3E3F7"/>
<path fill-rule="evenodd" clip-rule="evenodd" d="M12.168 15.9163C14.239 15.9163 15.9179 14.2374 15.9179 12.1664C15.9179 10.0953 14.239 8.41643 12.168 8.41643C10.0969 8.41643 8.41804 10.0953 8.41804 12.1664C8.41804 14.2374 10.0969 15.9163 12.168 15.9163ZM12.168 14.4163C13.4106 14.4163 14.4179 13.409 14.4179 12.1664C14.4179 10.9237 13.4106 9.91641 12.168 9.91641C10.9254 9.91641 9.91802 10.9237 9.91802 12.1664C9.91802 13.409 10.9254 14.4163 12.168 14.4163Z" fill="#E3E3F7"/>
<path fill-rule="evenodd" clip-rule="evenodd" d="M4.66811 11.8664C4.66811 9.34618 4.66811 8.08609 5.15858 7.1235C5.59 6.27679 6.2784 5.58839 7.12511 5.15697C8.0877 4.6665 9.34779 4.6665 11.868 4.6665H12.468C14.9882 4.6665 16.2483 4.6665 17.2108 5.15697C18.0576 5.58839 18.746 6.27679 19.1774 7.1235C19.6678 8.08609 19.6678 9.34618 19.6678 11.8664V12.4664C19.6678 14.9865 19.6678 16.2466 19.1774 17.2092C18.746 18.0559 18.0576 18.7443 17.2108 19.1758C16.2483 19.6662 14.9882 19.6662 12.468 19.6662H11.868C9.34779 19.6662 8.0877 19.6662 7.12511 19.1758C6.2784 18.7443 5.59 18.0559 5.15858 17.2092C4.66811 16.2466 4.66811 14.9865 4.66811 12.4664V11.8664ZM11.868 6.16648H12.468C13.7528 6.16648 14.6262 6.16764 15.3014 6.2228C15.959 6.27653 16.2953 6.37392 16.5299 6.49345C17.0943 6.78106 17.5533 7.24 17.8409 7.80447C17.9604 8.03907 18.0578 8.37537 18.1115 9.03298C18.1667 9.7081 18.1679 10.5815 18.1679 11.8664V12.4664C18.1679 13.7512 18.1667 14.6246 18.1115 15.2997C18.0578 15.9574 17.9604 16.2937 17.8409 16.5283C17.5533 17.0927 17.0943 17.5517 16.5299 17.8393C16.2953 17.9588 15.959 18.0562 15.3014 18.1099C14.6262 18.1651 13.7528 18.1663 12.468 18.1663H11.868C10.5831 18.1663 9.70971 18.1651 9.03459 18.1099C8.37698 18.0562 8.04068 17.9588 7.80608 17.8393C7.24161 17.5517 6.78267 17.0927 6.49506 16.5283C6.37553 16.2937 6.27814 15.9574 6.22441 15.2997C6.16925 14.6246 6.16809 13.7512 6.16809 12.4664V11.8664C6.16809 10.5815 6.16925 9.7081 6.22441 9.03298C6.27814 8.37537 6.37553 8.03907 6.49506 7.80447C6.78267 7.24 7.24161 6.78106 7.80608 6.49345C8.04068 6.37392 8.37698 6.27653 9.03459 6.2228C9.70971 6.16764 10.5831 6.16648 11.868 6.16648Z" fill="#E3E3F7"/>
</svg>
