<svg width="25" height="25" viewBox="0 0 25 25" fill="none" xmlns="http://www.w3.org/2000/svg">
<rect x="1.6682" y="1.6665" width="21" height="21" rx="10.5" fill="#0188FF"/>
<path d="M9.63211 7.43562C9.63211 8.13653 9.02458 8.70473 8.27516 8.70473C7.52573 8.70473 6.9182 8.13653 6.9182 7.43562C6.9182 6.7347 7.52573 6.1665 8.27516 6.1665C9.02458 6.1665 9.63211 6.7347 9.63211 7.43562Z" fill="#E4E4F7"/>
<path d="M7.10376 9.63758H9.42335V16.6665H7.10376V9.63758Z" fill="#E4E4F7"/>
<path d="M13.1579 9.63758H10.8383V16.6665H13.1579C13.1579 16.6665 13.1579 14.4537 13.1579 13.0701C13.1579 12.2397 13.4414 11.4057 14.5728 11.4057C15.8515 11.4057 15.8438 12.4924 15.8378 13.3343C15.83 14.4348 15.8486 15.5579 15.8486 16.6665H18.1682V12.9568C18.1486 10.588 17.5313 9.49657 15.5007 9.49657C14.2947 9.49657 13.5472 10.044 13.1579 10.5394V9.63758Z" fill="#E4E4F7"/>
</svg>
