<svg width="20" height="20" viewBox="0 0 20 20" fill="none" xmlns="http://www.w3.org/2000/svg">
<rect width="20" height="20" rx="10" fill="#1275B1"/>
<path d="M7.58468 5.49435C7.58468 6.16189 7.00608 6.70303 6.29234 6.70303C5.5786 6.70303 5 6.16189 5 5.49435C5 4.82682 5.5786 4.28568 6.29234 4.28568C7.00608 4.28568 7.58468 4.82682 7.58468 5.49435Z" fill="white"/>
<path d="M5.17673 7.59146H7.38586V14.2857H5.17673V7.59146Z" fill="white"/>
<path d="M10.9426 7.59146H8.73343V14.2857H10.9426C10.9426 14.2857 10.9426 12.1782 10.9426 10.8606C10.9426 10.0697 11.2126 9.27534 12.2901 9.27534C13.5079 9.27534 13.5005 10.3103 13.4949 11.1122C13.4874 12.1603 13.5052 13.2299 13.5052 14.2857H15.7143V10.7526C15.6956 8.49666 15.1077 7.45716 13.1738 7.45716C12.0253 7.45716 11.3134 7.97857 10.9426 8.45031V7.59146Z" fill="white"/>
</svg>
