<svg width="116" height="30" viewBox="0 0 116 30" fill="none" xmlns="http://www.w3.org/2000/svg">
<g clip-path="url(#clip0_36_543)">
<path d="M45.9767 20.6433C45.9767 20.1622 45.7361 19.7855 45.255 19.5132C44.783 19.2318 44.0204 18.9821 42.9674 18.7643C39.4635 18.029 37.7115 16.5402 37.7115 14.2981C37.7115 12.9909 38.2516 11.9016 39.3318 11.0301C40.4212 10.1496 41.8418 9.70933 43.5938 9.70933C45.4638 9.70933 46.9571 10.1496 48.0736 11.0301C48.639 11.4725 49.0625 11.9812 49.3439 12.5564C49.8214 13.5325 48.8811 14.4615 47.7945 14.4615H47.3602C46.5134 14.4615 45.881 13.6714 45.2822 13.0726C44.9191 12.7004 44.3518 12.5143 43.5802 12.5143C42.9175 12.5143 42.4046 12.6641 42.0415 12.9637C41.6784 13.2632 41.4969 13.6445 41.4969 14.1074C41.4969 14.5432 41.7011 14.8972 42.1096 15.1695C42.5272 15.4328 43.2261 15.6643 44.2065 15.864C45.1869 16.0546 46.013 16.2725 46.6847 16.5175C48.7635 17.2801 49.8029 18.6009 49.8029 20.4799C49.8029 21.8234 49.2265 22.9127 48.0736 23.7479C46.9207 24.5739 45.432 24.987 43.6074 24.987C42.3729 24.987 41.2745 24.7691 40.3122 24.3334C39.3591 23.8886 38.6102 23.2849 38.0655 22.5224C37.9169 22.3119 37.7886 22.0969 37.6805 21.8776C37.2133 20.9294 38.1054 20.0306 39.1624 20.0306C40.1808 20.0306 40.9366 20.9865 41.7338 21.6203C41.741 21.626 41.7483 21.6317 41.7556 21.6373C42.2367 22.0095 42.8812 22.1956 43.6891 22.1956C44.4425 22.1956 45.0099 22.0549 45.3912 21.7735C45.7815 21.483 45.9767 21.1063 45.9767 20.6433Z" fill="url(#paint0_linear_36_543)"/>
<path d="M55.9101 11.5884C56.9541 10.3357 58.2658 9.70933 59.8453 9.70933C63.0406 9.70933 64.6609 11.5657 64.7063 15.2785V22.7471C64.7063 23.8337 63.8254 24.7146 62.7388 24.7146C61.6521 24.7146 60.7712 23.8337 60.7712 22.7471V15.3874C60.7712 14.5432 60.5896 13.9214 60.2265 13.5219C59.8634 13.1134 59.2598 12.9092 58.4155 12.9092C57.2627 12.9092 56.4275 13.354 55.9101 14.2436V22.7471C55.9101 23.8337 55.0292 24.7146 53.9425 24.7146C52.8559 24.7146 51.975 23.8337 51.975 22.7471V5.76738C51.975 4.68072 52.8559 3.7998 53.9425 3.7998C55.0292 3.7998 55.9101 4.68072 55.9101 5.76738V11.5884Z" fill="url(#paint1_linear_36_543)"/>
<path d="M66.7831 17.212C66.7831 15.7505 67.0645 14.4479 67.6273 13.3041C68.1901 12.1603 68.9981 11.2752 70.0511 10.6489C71.1131 10.0225 72.3432 9.70933 73.7411 9.70933C75.7291 9.70933 77.3495 10.3175 78.6022 11.5339C79.864 12.7503 80.5675 14.4025 80.7127 16.4903L80.74 17.4979C80.74 19.7583 80.1091 21.5738 78.8473 22.9445C77.5855 24.3061 75.8925 24.987 73.7683 24.987C71.6442 24.987 69.9467 24.3061 68.6758 22.9445C67.414 21.5829 66.7831 19.731 66.7831 17.389V17.212ZM70.7183 17.4979C70.7183 18.8959 70.9815 19.967 71.508 20.7114C72.0345 21.4467 72.788 21.8143 73.7683 21.8143C74.7215 21.8143 75.4659 21.4512 76.0014 20.725C76.537 19.9897 76.8048 18.8187 76.8048 17.212C76.8048 15.8413 76.537 14.7792 76.0014 14.0257C75.4659 13.2723 74.7124 12.8956 73.7411 12.8956C72.7789 12.8956 72.0345 13.2723 71.508 14.0257C70.9815 14.7701 70.7183 15.9275 70.7183 17.4979Z" fill="url(#paint2_linear_36_543)"/>
<path d="M95.6979 19.3634L97.3341 11.4241C97.5072 10.5843 98.2467 9.98166 99.1042 9.98166C100.284 9.98166 101.147 11.0929 100.855 12.2357L98.0885 23.0828C97.8436 24.0429 96.979 24.7146 95.9882 24.7146C95.0318 24.7146 94.1884 24.0877 93.9127 23.1719L91.5857 15.4419L89.2568 23.1783C88.9823 24.0903 88.1424 24.7146 87.1899 24.7146C86.2032 24.7146 85.3421 24.0456 85.0983 23.0896L82.3294 12.2347C82.038 11.0924 82.901 9.98166 84.0798 9.98166C84.9377 9.98166 85.6773 10.585 85.8495 11.4255L87.4736 19.3498L89.7764 11.3478C90.0093 10.5389 90.7494 9.98166 91.5912 9.98166C92.4343 9.98166 93.1752 10.5404 93.407 11.351L95.6979 19.3634Z" fill="url(#paint3_linear_36_543)"/>
<path d="M105.028 9.98166C105.989 9.98166 106.788 10.7245 106.857 11.6837C107.91 10.3675 109.321 9.70933 111.092 9.70933C112.653 9.70933 113.815 10.1678 114.577 11.0846C115.34 12.0014 115.73 13.3722 115.748 15.1968V22.7471C115.748 23.8337 114.867 24.7146 113.781 24.7146C112.694 24.7146 111.813 23.8337 111.813 22.7471V15.2921C111.813 14.4569 111.632 13.8533 111.269 13.4811C110.905 13.0998 110.302 12.9092 109.458 12.9092C108.35 12.9092 107.519 13.3812 106.966 14.3253V22.7471C106.966 23.8337 106.085 24.7146 104.998 24.7146C103.912 24.7146 103.031 23.8337 103.031 22.7471V11.9001C103.031 10.8406 103.889 9.98166 104.949 9.98166H105.028Z" fill="url(#paint4_linear_36_543)"/>
<g clip-path="url(#clip1_36_543)">
<g filter="url(#filter0_i_36_543)">
<path d="M28.9985 14.6059C29.0083 15.3597 28.9692 16.1135 28.8715 16.8672C28.7641 17.621 28.6077 18.3648 28.383 19.0888C28.3342 19.2673 28.2658 19.4459 28.2072 19.6343L28.1095 19.9021L28.002 20.1698C27.9336 20.3484 27.8652 20.5269 27.7871 20.6955L27.5526 21.2112C27.2204 21.8956 26.8394 22.5501 26.4193 23.165C25.9894 23.7899 25.5205 24.3651 25.0125 24.9106C24.4947 25.4561 23.9476 25.9619 23.3711 26.4181C22.785 26.8743 22.1695 27.2909 21.5247 27.6479C20.8798 28.0149 20.2155 28.3223 19.5218 28.5802C18.838 28.838 18.1248 29.0364 17.4116 29.1951C16.6984 29.3439 15.9754 29.443 15.2524 29.4827C14.5295 29.5224 13.8065 29.5025 13.0933 29.443C12.3801 29.3736 11.6669 29.2546 10.9733 29.0761C10.2796 28.8975 9.59574 28.6794 8.94117 28.4017C8.28659 28.124 7.65156 27.8066 7.04583 27.4396C6.4401 27.0727 5.86368 26.666 5.31658 26.2098C4.77924 25.7536 4.26144 25.2775 3.79249 24.7618C3.32354 24.2362 2.89367 23.6907 2.50288 23.1055C2.11209 22.5303 1.77014 21.9154 1.45751 21.2906C1.15465 20.6657 0.900633 20.0112 0.685698 19.3566C0.470763 18.6921 0.314446 18.0177 0.197209 17.3333C0.0799715 16.649 0.0213528 15.9647 0.00181319 15.2704C-0.0079566 14.5861 0.0213528 13.9018 0.099511 13.2174C0.187439 12.5331 0.304677 11.8587 0.480533 11.1942C0.656389 10.5297 0.871324 9.88505 1.14488 9.25031C2.20978 6.73118 3.97812 4.55917 6.20563 3.02191C6.76251 2.63511 7.34869 2.29791 7.94465 1.99045C8.55037 1.69292 9.17564 1.43506 9.82045 1.21686L10.3089 1.0681C10.475 1.01851 10.6411 0.978835 10.7974 0.939164L11.0417 0.879657L11.2859 0.830067C11.452 0.800314 11.6181 0.760643 11.7842 0.730889C12.4485 0.611875 13.1324 0.54245 13.8065 0.502779H13.8554C15.4674 0.433354 16.8254 1.67308 16.9133 3.28969C17.0012 4.9063 15.78 6.28488 14.1875 6.37414C14.0703 6.38406 13.9433 6.37414 13.8261 6.37414C12.2238 6.25512 10.5923 6.70143 9.22449 7.60395C7.85672 8.50647 6.77227 9.8553 6.18609 11.3926C6.02977 11.7694 5.9223 12.1761 5.83438 12.5728C5.74645 12.9695 5.6976 13.3761 5.66829 13.7828C5.64875 14.1894 5.64875 14.6059 5.67806 15.0126C5.71714 15.4192 5.77576 15.8258 5.87345 16.2126C6.25448 17.7797 7.12399 19.1979 8.29636 20.2194C8.58945 20.4674 8.90209 20.7054 9.22449 20.9137C9.54689 21.122 9.88884 21.2906 10.2308 21.4493C10.5727 21.598 10.9342 21.717 11.2859 21.8162C11.6474 21.9154 12.0089 21.9749 12.3704 22.0146C12.7318 22.0542 13.1031 22.0642 13.4646 22.0542C13.8261 22.0344 14.1875 21.9947 14.5393 21.9253C14.891 21.8559 15.2329 21.7765 15.5651 21.6575C15.8973 21.5385 16.2197 21.4096 16.5323 21.241C17.7731 20.6062 18.8087 19.6145 19.5023 18.4441C19.6782 18.1565 19.8247 17.8491 19.9615 17.5416C20.0983 17.2342 20.2057 16.9168 20.3034 16.5994L20.3718 16.3614C20.3914 16.2821 20.4109 16.1928 20.4304 16.1135C20.4402 16.0738 20.45 16.0341 20.4597 15.9944L20.4793 15.8655C20.4891 15.7862 20.5184 15.6969 20.5281 15.6176C20.577 15.2804 20.6063 14.9432 20.6356 14.6059L20.6551 14.358C20.831 12.0174 22.8338 10.2718 25.1395 10.4405C27.2986 10.5991 28.9595 12.4339 28.9985 14.6059Z" fill="#0A8CFF"/>
</g>
<g filter="url(#filter1_i_36_543)">
<path d="M22.1967 8.87867C24.1989 8.87867 25.8221 7.25554 25.8221 5.2533C25.8221 3.25106 24.1989 1.62793 22.1967 1.62793C20.1945 1.62793 18.5714 3.25106 18.5714 5.2533C18.5714 7.25554 20.1945 8.87867 22.1967 8.87867Z" fill="url(#paint5_linear_36_543)"/>
</g>
</g>
</g>
<defs>
<filter id="filter0_i_36_543" x="0" y="-2.08862" width="29" height="31.592" filterUnits="userSpaceOnUse" color-interpolation-filters="sRGB">
<feFlood flood-opacity="0" result="BackgroundImageFix"/>
<feBlend mode="normal" in="SourceGraphic" in2="BackgroundImageFix" result="shape"/>
<feColorMatrix in="SourceAlpha" type="matrix" values="0 0 0 0 0 0 0 0 0 0 0 0 0 0 0 0 0 0 127 0" result="hardAlpha"/>
<feOffset dy="-2.58862"/>
<feGaussianBlur stdDeviation="1.81204"/>
<feComposite in2="hardAlpha" operator="arithmetic" k2="-1" k3="1"/>
<feColorMatrix type="matrix" values="0 0 0 0 0 0 0 0 0 0.429333 0 0 0 0 0.933333 0 0 0 0.6 0"/>
<feBlend mode="normal" in2="shape" result="effect1_innerShadow_36_543"/>
</filter>
<filter id="filter1_i_36_543" x="18.5714" y="1.24617" width="7.25073" height="7.63274" filterUnits="userSpaceOnUse" color-interpolation-filters="sRGB">
<feFlood flood-opacity="0" result="BackgroundImageFix"/>
<feBlend mode="normal" in="SourceGraphic" in2="BackgroundImageFix" result="shape"/>
<feColorMatrix in="SourceAlpha" type="matrix" values="0 0 0 0 0 0 0 0 0 0 0 0 0 0 0 0 0 0 127 0" result="hardAlpha"/>
<feOffset dy="-0.381759"/>
<feGaussianBlur stdDeviation="1.09074"/>
<feComposite in2="hardAlpha" operator="arithmetic" k2="-1" k3="1"/>
<feColorMatrix type="matrix" values="0 0 0 0 0.905882 0 0 0 0 0 0 0 0 0 0.65098 0 0 0 0.3 0"/>
<feBlend mode="normal" in2="shape" result="effect1_innerShadow_36_543"/>
</filter>
<linearGradient id="paint0_linear_36_543" x1="76.5518" y1="9.62761" x2="76.5518" y2="25.2742" gradientUnits="userSpaceOnUse">
<stop stop-color="#0188FF"/>
<stop offset="1" stop-color="#006DEE"/>
</linearGradient>
<linearGradient id="paint1_linear_36_543" x1="76.5518" y1="9.62761" x2="76.5518" y2="25.2742" gradientUnits="userSpaceOnUse">
<stop stop-color="#0188FF"/>
<stop offset="1" stop-color="#006DEE"/>
</linearGradient>
<linearGradient id="paint2_linear_36_543" x1="76.5518" y1="9.62761" x2="76.5518" y2="25.2742" gradientUnits="userSpaceOnUse">
<stop stop-color="#0188FF"/>
<stop offset="1" stop-color="#006DEE"/>
</linearGradient>
<linearGradient id="paint3_linear_36_543" x1="76.5518" y1="9.62761" x2="76.5518" y2="25.2742" gradientUnits="userSpaceOnUse">
<stop stop-color="#0188FF"/>
<stop offset="1" stop-color="#006DEE"/>
</linearGradient>
<linearGradient id="paint4_linear_36_543" x1="76.5518" y1="9.62761" x2="76.5518" y2="25.2742" gradientUnits="userSpaceOnUse">
<stop stop-color="#0188FF"/>
<stop offset="1" stop-color="#006DEE"/>
</linearGradient>
<linearGradient id="paint5_linear_36_543" x1="22.1967" y1="1.62793" x2="22.1967" y2="8.87867" gradientUnits="userSpaceOnUse">
<stop stop-color="#FF6BC1"/>
<stop offset="1" stop-color="#E700A6"/>
</linearGradient>
<clipPath id="clip0_36_543">
<rect width="116" height="30" fill="white"/>
</clipPath>
<clipPath id="clip1_36_543">
<rect width="29" height="29.0033" fill="white" transform="translate(0 0.5)"/>
</clipPath>
</defs>
</svg>
