<svg width="121" height="121" viewBox="0 0 121 121" fill="none" xmlns="http://www.w3.org/2000/svg">
<g clip-path="url(#clip0_0_1854)">
<rect x="0.25" y="0.849854" width="120" height="120" rx="32.7273" fill="#0D004E"/>
<g filter="url(#filter0_f_0_1854)">
<ellipse cx="60.25" cy="79.3487" rx="48" ry="71.5" fill="#9123FF"/>
</g>
<g opacity="0.8" filter="url(#filter1_f_0_1854)">
<ellipse cx="59.983" cy="119.084" rx="26.6347" ry="85.6799" transform="rotate(-90.1415 59.983 119.084)" fill="url(#paint0_angular_0_1854)"/>
</g>
<circle cx="18.25" cy="21.8511" r="1" fill="white" fill-opacity="0.4"/>
<circle cx="108.25" cy="11.8506" r="1" fill="white" fill-opacity="0.4"/>
<circle cx="98.2502" cy="51.8511" r="1" fill="white" fill-opacity="0.4"/>
<circle cx="115.25" cy="82.8506" r="1" fill="white" fill-opacity="0.4"/>
<circle cx="8.25003" cy="91.8496" r="1" fill="white" fill-opacity="0.4"/>
<circle cx="18.2499" cy="71.8506" r="1" fill="white" fill-opacity="0.4"/>
<g filter="url(#filter2_f_0_1854)">
<path d="M92.9739 61.3576C92.9951 62.9878 92.9105 64.618 92.6992 66.2482C92.4668 67.8784 92.1286 69.4871 91.6426 71.053C91.5369 71.4391 91.389 71.8252 91.2622 72.2327L91.0509 72.8119L90.8185 73.391C90.6705 73.7771 90.5226 74.1632 90.3535 74.5278L89.8464 75.6432C89.1279 77.1233 88.3037 78.539 87.3951 79.8689C86.4652 81.2202 85.4509 82.4643 84.352 83.6441C83.232 84.8238 82.0486 85.9177 80.8018 86.9044C79.5339 87.8911 78.2026 88.792 76.8079 89.5642C75.4131 90.3579 73.9761 91.0228 72.4758 91.5805C70.9965 92.1382 69.4539 92.5672 67.9112 92.9104C66.3686 93.2322 64.8048 93.4467 63.241 93.5325C61.6772 93.6183 60.1135 93.5754 58.5708 93.4467C57.0282 93.2965 55.4855 93.0391 53.9852 92.653C52.4848 92.2669 51.0055 91.795 49.5897 91.1944C48.1738 90.5938 46.8002 89.9074 45.49 89.1138C44.1798 88.3201 42.933 87.4407 41.7496 86.454C40.5874 85.4673 39.4674 84.4377 38.453 83.3223C37.4387 82.1855 36.5089 81.0057 35.6636 79.7402C34.8183 78.4961 34.0787 77.1662 33.4025 75.8148C32.7474 74.4635 32.1979 73.0478 31.733 71.6321C31.2681 70.195 30.93 68.7364 30.6764 67.2563C30.4228 65.7763 30.296 64.2962 30.2538 62.7948C30.2326 61.3147 30.296 59.8347 30.4651 58.3546C30.6553 56.8746 30.9089 55.416 31.2892 53.9788C31.6696 52.5417 32.1345 51.1475 32.7262 49.7747C35.0296 44.3264 38.8545 39.6289 43.6727 36.3041C44.8772 35.4676 46.1451 34.7383 47.4342 34.0733C48.7444 33.4299 50.0968 32.8722 51.4916 32.4003L52.5482 32.0785C52.9074 31.9713 53.2667 31.8855 53.6048 31.7997L54.1331 31.671L54.6614 31.5637C55.0206 31.4994 55.3799 31.4136 55.7391 31.3492C57.1761 31.0918 58.6554 30.9417 60.1135 30.8559H60.2191C63.7059 30.7057 66.6433 33.387 66.8335 36.8833C67.0237 40.3796 64.3822 43.3612 60.9376 43.5542C60.684 43.5757 60.4093 43.5542 60.1557 43.5542C56.6901 43.2968 53.161 44.262 50.2025 46.214C47.244 48.1659 44.8983 51.0831 43.6304 54.4078C43.2923 55.2229 43.0598 56.1024 42.8697 56.9604C42.6795 57.8184 42.5738 58.6978 42.5104 59.5773C42.4681 60.4567 42.4681 61.3576 42.5315 62.2371C42.6161 63.1165 42.7429 63.9959 42.9542 64.8325C43.7783 68.2216 45.6591 71.2889 48.195 73.4983C48.8289 74.0345 49.5051 74.5493 50.2025 74.9997C50.8999 75.4502 51.6395 75.8148 52.3791 76.158C53.1187 76.4798 53.9006 76.7372 54.6614 76.9517C55.4433 77.1662 56.2252 77.2949 57.007 77.3807C57.7889 77.4665 58.592 77.4879 59.3738 77.4665C60.1557 77.4236 60.9376 77.3378 61.6984 77.1876C62.4591 77.0375 63.1988 76.8659 63.9173 76.6085C64.6357 76.3511 65.3331 76.0722 66.0093 75.7076C68.6931 74.3348 70.9331 72.1898 72.4335 69.6587C72.8139 69.0367 73.1309 68.3717 73.4267 67.7068C73.7226 67.0418 73.955 66.3554 74.1663 65.669L74.3143 65.1542C74.3565 64.9826 74.3988 64.7896 74.4411 64.618C74.4622 64.5322 74.4833 64.4464 74.5045 64.3606L74.5467 64.0817C74.5678 63.9102 74.6312 63.7171 74.6524 63.5455C74.758 62.8162 74.8214 62.0869 74.8848 61.3576L74.9271 60.8214C75.3075 55.7592 79.6396 51.984 84.6267 52.3487C89.2969 52.6919 92.8894 56.6601 92.9739 61.3576Z" fill="#0E011B"/>
</g>
<g filter="url(#filter3_di_0_1854)">
<path d="M74.4535 36.2121C70.6999 36.2121 67.657 39.255 67.657 43.0087C67.657 46.7623 70.6999 49.8052 74.4535 49.8052C78.2071 49.8052 81.25 46.7623 81.25 43.0087C81.25 39.255 78.2071 36.2121 74.4535 36.2121Z" fill="url(#paint1_linear_0_1854)"/>
</g>
<g filter="url(#filter4_i_0_1854)">
<path d="M87.3398 60.0209C87.3581 61.4339 87.2848 62.847 87.1017 64.26C86.9002 65.6731 86.6072 67.0675 86.1859 68.4248C86.0944 68.7595 85.9661 69.0942 85.8563 69.4474L85.6731 69.9494L85.4716 70.4514C85.3434 70.7861 85.2152 71.1208 85.0687 71.4368L84.6291 72.4037C84.0064 73.6866 83.2921 74.9137 82.5046 76.0665C81.6987 77.2378 80.8195 78.3162 79.8671 79.3388C78.8964 80.3614 77.8708 81.3096 76.7902 82.1649C75.6913 83.0202 74.5374 83.8011 73.3286 84.4704C72.1198 85.1583 70.8743 85.7347 69.5739 86.2181C68.2919 86.7015 66.9549 87.0734 65.6178 87.3709C64.2808 87.6498 62.9255 87.8357 61.5702 87.9101C60.2148 87.9845 58.8595 87.9473 57.5225 87.8357C56.1855 87.7056 54.8484 87.4824 53.5481 87.1478C52.2477 86.8131 50.9656 86.4041 49.7385 85.8835C48.5113 85.3629 47.3208 84.7679 46.1853 84.08C45.0497 83.392 43.9691 82.6297 42.9435 81.7745C41.9361 80.9192 40.9654 80.0267 40.0863 79.0599C39.2072 78.0745 38.4013 77.0519 37.6687 75.9549C36.9361 74.8765 36.295 73.7238 35.7089 72.5524C35.1412 71.3811 34.665 70.1539 34.262 68.9268C33.8591 67.6811 33.5661 66.4168 33.3463 65.1339C33.1265 63.851 33.0166 62.5681 32.98 61.2666C32.9616 59.9837 33.0166 58.7008 33.1631 57.4179C33.328 56.135 33.5477 54.8706 33.8774 53.6249C34.2071 52.3792 34.61 51.1707 35.1229 49.9807C37.1192 45.2582 40.4343 41.1863 44.6102 38.3044C45.6542 37.5793 46.7531 36.9472 47.8703 36.3708C49.0059 35.813 50.178 35.3296 51.3868 34.9206L52.3026 34.6417C52.614 34.5487 52.9253 34.4743 53.2184 34.4L53.6763 34.2884L54.1341 34.1954C54.4455 34.1397 54.7569 34.0653 55.0682 34.0095C56.3137 33.7864 57.5957 33.6562 58.8595 33.5819H58.9511C61.9731 33.4517 64.5189 35.7758 64.6838 38.8065C64.8486 41.8371 62.5592 44.4215 59.5738 44.5888C59.354 44.6074 59.1159 44.5888 58.8961 44.5888C55.8924 44.3657 52.8338 45.2024 50.2696 46.8943C47.7055 48.5863 45.6725 51.1149 44.5736 53.9968C44.2805 54.7033 44.079 55.4656 43.9142 56.2093C43.7494 56.953 43.6578 57.7153 43.6028 58.4777C43.5662 59.24 43.5662 60.0209 43.6212 60.7832C43.6944 61.5455 43.8043 62.3078 43.9875 63.0329C44.7018 65.9706 46.3318 68.6293 48.5297 70.5444C49.0791 71.0092 49.6652 71.4554 50.2696 71.8459C50.874 72.2363 51.5151 72.5524 52.1561 72.8499C52.7971 73.1288 53.4748 73.3519 54.1341 73.5378C54.8118 73.7238 55.4895 73.8353 56.1671 73.9097C56.8448 73.9841 57.5408 74.0027 58.2185 73.9841C58.8961 73.9469 59.5738 73.8725 60.2331 73.7424C60.8925 73.6122 61.5335 73.4635 62.1562 73.2403C62.779 73.0172 63.3834 72.7755 63.9695 72.4595C66.2955 71.2695 68.2369 69.4102 69.5373 67.2163C69.867 66.6771 70.1417 66.1007 70.3981 65.5243C70.6545 64.948 70.856 64.353 71.0392 63.758L71.1674 63.3118C71.204 63.163 71.2406 62.9957 71.2773 62.847C71.2956 62.7726 71.3139 62.6982 71.3322 62.6239L71.3688 62.3821C71.3872 62.2334 71.4421 62.0661 71.4604 61.9173C71.552 61.2852 71.6069 60.653 71.6619 60.0209L71.6985 59.556C72.0282 55.1681 75.7828 51.8958 80.1053 52.2119C84.1529 52.5094 87.2665 55.949 87.3398 60.0209Z" fill="url(#paint2_linear_0_1854)"/>
</g>
</g>
<defs>
<filter id="filter0_f_0_1854" x="-51.75" y="-56.1514" width="224" height="271" filterUnits="userSpaceOnUse" color-interpolation-filters="sRGB">
<feFlood flood-opacity="0" result="BackgroundImageFix"/>
<feBlend mode="normal" in="SourceGraphic" in2="BackgroundImageFix" result="shape"/>
<feGaussianBlur stdDeviation="32" result="effect1_foregroundBlur_0_1854"/>
</filter>
<filter id="filter1_f_0_1854" x="-88.2567" y="29.8885" width="296.479" height="178.391" filterUnits="userSpaceOnUse" color-interpolation-filters="sRGB">
<feFlood flood-opacity="0" result="BackgroundImageFix"/>
<feBlend mode="normal" in="SourceGraphic" in2="BackgroundImageFix" result="shape"/>
<feGaussianBlur stdDeviation="31.28" result="effect1_foregroundBlur_0_1854"/>
</filter>
<filter id="filter2_f_0_1854" x="-5.20472" y="-4.60472" width="133.636" height="133.636" filterUnits="userSpaceOnUse" color-interpolation-filters="sRGB">
<feFlood flood-opacity="0" result="BackgroundImageFix"/>
<feBlend mode="normal" in="SourceGraphic" in2="BackgroundImageFix" result="shape"/>
<feGaussianBlur stdDeviation="17.7273" result="effect1_foregroundBlur_0_1854"/>
</filter>
<filter id="filter3_di_0_1854" x="56.7479" y="28.0303" width="35.4112" height="35.4112" filterUnits="userSpaceOnUse" color-interpolation-filters="sRGB">
<feFlood flood-opacity="0" result="BackgroundImageFix"/>
<feColorMatrix in="SourceAlpha" type="matrix" values="0 0 0 0 0 0 0 0 0 0 0 0 0 0 0 0 0 0 127 0" result="hardAlpha"/>
<feOffset dy="2.72727"/>
<feGaussianBlur stdDeviation="5.45455"/>
<feComposite in2="hardAlpha" operator="out"/>
<feColorMatrix type="matrix" values="0 0 0 0 0.054902 0 0 0 0 0.00392157 0 0 0 0 0.105882 0 0 0 0.2 0"/>
<feBlend mode="normal" in2="BackgroundImageFix" result="effect1_dropShadow_0_1854"/>
<feBlend mode="normal" in="SourceGraphic" in2="effect1_dropShadow_0_1854" result="shape"/>
<feColorMatrix in="SourceAlpha" type="matrix" values="0 0 0 0 0 0 0 0 0 0 0 0 0 0 0 0 0 0 127 0" result="hardAlpha"/>
<feOffset dy="-0.954546"/>
<feGaussianBlur stdDeviation="2.72727"/>
<feComposite in2="hardAlpha" operator="arithmetic" k2="-1" k3="1"/>
<feColorMatrix type="matrix" values="0 0 0 0 1 0 0 0 0 0.5 0 0 0 0 0.809816 0 0 0 1 0"/>
<feBlend mode="normal" in2="shape" result="effect2_innerShadow_0_1854"/>
</filter>
<filter id="filter4_i_0_1854" x="32.9766" y="33.5767" width="54.366" height="65.2812" filterUnits="userSpaceOnUse" color-interpolation-filters="sRGB">
<feFlood flood-opacity="0" result="BackgroundImageFix"/>
<feBlend mode="normal" in="SourceGraphic" in2="BackgroundImageFix" result="shape"/>
<feColorMatrix in="SourceAlpha" type="matrix" values="0 0 0 0 0 0 0 0 0 0 0 0 0 0 0 0 0 0 127 0" result="hardAlpha"/>
<feOffset dy="10.9091"/>
<feGaussianBlur stdDeviation="5.45455"/>
<feComposite in2="hardAlpha" operator="arithmetic" k2="-1" k3="1"/>
<feColorMatrix type="matrix" values="0 0 0 0 1 0 0 0 0 1 0 0 0 0 1 0 0 0 0.6 0"/>
<feBlend mode="normal" in2="shape" result="effect1_innerShadow_0_1854"/>
</filter>
<radialGradient id="paint0_angular_0_1854" cx="0" cy="0" r="1" gradientUnits="userSpaceOnUse" gradientTransform="translate(59.983 119.084) rotate(87.1526) scale(85.7858 27.2828)">
<stop offset="0.288285" stop-color="#F8DC78"/>
<stop offset="0.77717" stop-color="#FF5BBA"/>
</radialGradient>
<linearGradient id="paint1_linear_0_1854" x1="74.4535" y1="49.8052" x2="74.4535" y2="36.2121" gradientUnits="userSpaceOnUse">
<stop stop-color="#FF6BC1"/>
<stop offset="1" stop-color="#FF10BC"/>
</linearGradient>
<linearGradient id="paint2_linear_0_1854" x1="60.1595" y1="33.5767" x2="60.1595" y2="87.9488" gradientUnits="userSpaceOnUse">
<stop stop-color="#9041F1"/>
<stop offset="0.446713" stop-color="#CCA8F9"/>
<stop offset="1" stop-color="white" stop-opacity="0.98"/>
</linearGradient>
<clipPath id="clip0_0_1854">
<rect x="0.25" y="0.849854" width="120" height="120" rx="32.7273" fill="white"/>
</clipPath>
</defs>
</svg>
