<svg width="33" height="32" viewBox="0 0 33 32" fill="none" xmlns="http://www.w3.org/2000/svg">
<path fill-rule="evenodd" clip-rule="evenodd" d="M17.1492 2.66663C10.1536 2.66663 4.48257 8.33769 4.48257 15.3333C4.48257 16.7466 4.71455 18.1085 5.14357 19.3813C5.21903 19.6052 5.26344 19.7377 5.29231 19.8354L5.30176 19.8683L5.29676 19.8787C5.26249 19.9494 5.21156 20.0443 5.11628 20.2206L2.91378 24.2973C2.77727 24.5499 2.63483 24.8134 2.53688 25.0425C2.43951 25.2702 2.2818 25.6881 2.3594 26.1834C2.45037 26.764 2.79208 27.2752 3.29379 27.5812C3.7218 27.8423 4.16818 27.8563 4.41584 27.8534C4.665 27.8505 4.9629 27.8197 5.24846 27.7901L12.1217 27.0796C12.2318 27.0682 12.2894 27.0624 12.3315 27.0591L12.337 27.0587L12.3535 27.0645C12.4053 27.0832 12.4755 27.1101 12.5968 27.1569C14.0114 27.7018 15.5471 28 17.1492 28C24.1448 28 29.8159 22.3289 29.8159 15.3333C29.8159 8.33769 24.1448 2.66663 17.1492 2.66663ZM19.1394 12C19.1394 10.8954 20.0348 9.99996 21.1394 9.99996C22.244 9.99996 23.1394 10.8954 23.1394 12C23.1394 13.1045 22.244 14 21.1394 14C20.0348 14 19.1394 13.1045 19.1394 12ZM11.0061 17.6C11.5933 17.1596 12.4257 17.2769 12.8686 17.8612C12.9508 17.966 13.0412 18.0647 13.1333 18.1608C13.3297 18.3658 13.6248 18.6438 14.007 18.9217C14.7764 19.4813 15.8401 20 17.1394 20C18.4387 20 19.5024 19.4813 20.2719 18.9217C20.654 18.6438 20.9491 18.3658 21.1455 18.1608C21.2376 18.0647 21.3281 17.966 21.4103 17.8611C21.8532 17.2769 22.6855 17.1596 23.2727 17.6C23.8619 18.0419 23.9812 18.8776 23.5394 19.4667C23.5428 19.4624 23.5349 19.4723 23.5212 19.4894C23.4887 19.5303 23.4237 19.6121 23.4016 19.6385C23.3234 19.7316 23.2127 19.8578 23.0708 20.0059C22.788 20.301 22.3748 20.6896 21.8403 21.0784C20.7764 21.8521 19.1735 22.6667 17.1394 22.6667C15.1054 22.6667 13.5024 21.8521 12.4385 21.0784C11.904 20.6896 11.4908 20.301 11.208 20.0059C11.0661 19.8578 10.9554 19.7316 10.8772 19.6385C10.8381 19.5918 10.8069 19.5533 10.784 19.5243C10.3234 18.9292 10.3853 18.0656 11.0061 17.6ZM13.1394 9.99996C12.0348 9.99996 11.1394 10.8954 11.1394 12C11.1394 13.1045 12.0348 14 13.1394 14C14.244 14 15.1394 13.1045 15.1394 12C15.1394 10.8954 14.244 9.99996 13.1394 9.99996Z" fill="#A5B7C7"/>
</svg>
