<svg width="60" height="60" viewBox="0 0 60 60" fill="none" xmlns="http://www.w3.org/2000/svg">
<ellipse cx="30.0001" cy="29.9993" rx="29.9993" ry="29.9993" fill="white"/>
<g clip-path="url(#clip0_322_14323)">
<path d="M28.166 26.335C28.166 27.3475 27.3452 28.1683 26.3327 28.1683H15.3327C14.3202 28.1683 13.4994 27.3475 13.4994 26.335L13.4994 15.335C13.4994 14.3225 14.3202 13.5017 15.3327 13.5017L26.3327 13.5017C27.3452 13.5017 28.166 14.3225 28.166 15.335V26.335Z" fill="#FF5722"/>
<path d="M46.4998 26.335C46.4998 27.3475 45.6789 28.1683 44.6664 28.1683H33.6664C32.6539 28.1683 31.8331 27.3475 31.8331 26.335V15.335C31.8331 14.3225 32.6539 13.5017 33.6664 13.5017L44.6664 13.5017C45.6789 13.5017 46.4998 14.3225 46.4998 15.335V26.335Z" fill="#4CAF50"/>
<path d="M46.4998 44.6674C46.4998 45.6799 45.6789 46.5007 44.6664 46.5007H33.6664C32.6539 46.5007 31.8331 45.6799 31.8331 44.6674V33.6674C31.8331 32.6549 32.6539 31.8341 33.6664 31.8341H44.6664C45.6789 31.8341 46.4998 32.6549 46.4998 33.6674V44.6674Z" fill="#FFC107"/>
<path d="M28.166 44.6674C28.166 45.6799 27.3452 46.5007 26.3327 46.5007H15.3327C14.3202 46.5007 13.4994 45.6799 13.4994 44.6674L13.4994 33.6674C13.4994 32.6549 14.3202 31.8341 15.3327 31.8341H26.3327C27.3452 31.8341 28.166 32.6549 28.166 33.6674V44.6674Z" fill="#03A9F4"/>
</g>
<defs>
<clipPath id="clip0_322_14323">
<rect width="44" height="44" fill="white" transform="translate(7.99976 8)"/>
</clipPath>
</defs>
</svg>
