<svg width="20" height="20" viewBox="0 0 20 20" fill="none" xmlns="http://www.w3.org/2000/svg">
<g clip-path="url(#clip0_184_15308)">
<circle cx="10" cy="10" r="10" fill="#EFF4F8"/>
<g clip-path="url(#clip1_184_15308)">
<path d="M9.74652 9.0797C9.74652 9.44788 9.44804 9.74636 9.07986 9.74636H5.07985C4.71167 9.74636 4.41319 9.44788 4.41319 9.0797L4.41319 5.07971C4.41319 4.71152 4.71166 4.41305 5.07985 4.41305L9.07986 4.41305C9.44804 4.41305 9.74652 4.71152 9.74652 5.07971V9.0797Z" fill="#FF5722"/>
<path d="M16.4131 9.07972C16.4131 9.44791 16.1146 9.74638 15.7464 9.74638H11.7464C11.3782 9.74638 11.0798 9.44791 11.0798 9.07972V5.07973C11.0798 4.71155 11.3782 4.41307 11.7464 4.41307L15.7464 4.41307C16.1146 4.41307 16.4131 4.71154 16.4131 5.07973V9.07972Z" fill="#4CAF50"/>
<path d="M16.4131 15.7463C16.4131 16.1145 16.1146 16.413 15.7464 16.413H11.7464C11.3782 16.413 11.0798 16.1145 11.0798 15.7463V11.7463C11.0798 11.3781 11.3782 11.0796 11.7464 11.0796H15.7464C16.1146 11.0796 16.4131 11.3781 16.4131 11.7463V15.7463Z" fill="#FFC107"/>
<path d="M9.74652 15.7463C9.74652 16.1145 9.44804 16.413 9.07986 16.413H5.07985C4.71167 16.413 4.41319 16.1145 4.41319 15.7463L4.41319 11.7463C4.41319 11.3781 4.71166 11.0796 5.07985 11.0796H9.07986C9.44804 11.0796 9.74652 11.3781 9.74652 11.7463V15.7463Z" fill="#03A9F4"/>
</g>
</g>
<defs>
<clipPath id="clip0_184_15308">
<rect width="20" height="20" fill="white"/>
</clipPath>
<clipPath id="clip1_184_15308">
<rect width="16" height="15.9999" fill="white" transform="translate(2.41309 2.41309)"/>
</clipPath>
</defs>
</svg>
