<svg width="20" height="20" viewBox="0 0 20 20" fill="none" xmlns="http://www.w3.org/2000/svg">
<path fill-rule="evenodd" clip-rule="evenodd" d="M8.33333 4.1665C8.33333 3.75229 7.99755 3.4165 7.58333 3.4165C7.16912 3.4165 6.83333 3.75229 6.83333 4.1665L6.83333 5.62947C6.83333 6.04369 7.16912 6.37947 7.58333 6.37947C7.99755 6.37947 8.33333 6.04369 8.33333 5.62948V4.1665ZM5 7.77741C5 7.45013 5.26531 7.18481 5.59259 7.18481H14.4815C14.8088 7.18481 15.0741 7.45013 15.0741 7.77741C15.0741 8.10469 14.8088 8.37 14.4815 8.37H13.8894V10.4439C13.8894 12.3131 12.558 13.8713 10.7918 14.222V15.9164C10.7918 16.3306 10.456 16.6664 10.0418 16.6664C9.62762 16.6664 9.29183 16.3306 9.29183 15.9164V14.2237C7.5214 13.8764 6.18571 12.3161 6.18571 10.4439V8.37H5.59259C5.26531 8.37 5 8.10469 5 7.77741ZM13.1665 4.1665C13.1665 3.75229 12.8307 3.4165 12.4165 3.4165C12.0023 3.4165 11.6665 3.75229 11.6665 4.1665V5.62947C11.6665 6.04369 12.0023 6.37947 12.4165 6.37947C12.8307 6.37947 13.1665 6.04369 13.1665 5.62948V4.1665Z" fill="#5D778D"/>
</svg>
