<svg width="602" height="81" viewBox="0 0 602 81" fill="none" xmlns="http://www.w3.org/2000/svg">
<path fill-rule="evenodd" clip-rule="evenodd" d="M14.4232 14.2384C13.6717 11.0928 15.1998 8.15754 16.7919 5.77816C18.5448 3.15861 21.4733 0.835974 24.7446 -0.000732422C24.152 2.96802 22.4224 5.52928 20.7567 7.9379C19.1026 10.3305 17.0166 12.754 14.4232 14.2384ZM17.2929 14.6138C15.0926 15.6246 13.0705 17.7919 12.1466 20.2775C12.7296 17.7848 12.7141 15.0562 12.1544 12.7186C11.6644 10.665 10.9477 7.76251 8.60028 6.78422C6.89779 9.52114 6.21601 13.2466 7.21349 16.0362C7.934 18.055 9.22974 20.7235 11.9103 21.1341C14.3701 21.6987 16.8551 20.3851 18.8172 19.3009C21 18.095 23.1363 16.1778 24.434 13.8993C22.0498 12.6981 19.3362 13.6764 17.2929 14.6138ZM14.0713 23.868C12.1809 25.216 10.7302 27.6806 10.4184 30.2109C10.3913 27.6756 9.70175 25.0582 8.59387 22.9498C7.58089 21.0209 6.16702 18.4139 3.65105 17.8943C2.66325 20.8975 2.98283 24.5707 4.58073 27.002C5.78932 28.8437 7.66031 31.1499 10.3835 31.0881C12.8685 31.215 15.0145 29.5175 16.7035 28.1013C18.5202 26.5776 20.1588 24.3505 20.8483 21.9436C18.3111 21.2068 15.8823 22.5765 14.0713 23.868ZM13.156 33.3526C11.6104 35.0087 10.7815 37.6893 11.0584 40.1686C10.4406 37.68 9.15258 35.2677 7.57986 33.4351C6.12141 31.7357 4.14968 29.4886 1.54655 29.4243C1.30057 32.5804 2.53242 35.7316 4.59904 38.0796C6.20662 39.9044 8.67997 41.4553 11.2134 41.0263C13.6499 40.7286 15.5113 38.6626 16.7198 36.9921C18.0175 35.1987 19.2746 32.8045 19.3269 30.2926C16.7295 30.0154 14.6435 31.7559 13.156 33.3526ZM14.748 42.4264C13.5162 44.8747 13.2818 47.7879 14.2328 50.3526C12.8305 47.7137 10.7794 45.5795 8.60822 43.6076C6.63456 41.8153 3.79126 39.9283 0.930527 40.2856C1.47672 43.823 3.64019 47.4915 6.54159 49.3772C8.87356 50.8918 11.6994 52.3917 14.6686 51.2589C17.111 50.3975 18.6624 47.9376 19.6153 45.6804C20.6244 43.2921 21.2965 40.5387 20.8259 37.9258C18.1472 38.1658 15.9256 40.0849 14.748 42.4264ZM18.4659 51.7072C17.8325 54.4792 18.3729 57.432 19.9224 59.7911C17.8596 57.4295 15.1171 55.4805 12.4907 54.1137C9.95148 52.7928 6.83701 51.1996 3.79035 52.1651C5.26235 55.7511 8.40975 59.0882 11.8961 60.467C14.598 61.5362 17.8887 62.5933 20.7068 60.806C22.9884 59.4289 23.9065 56.5477 24.2822 54.0786C24.6851 51.4101 24.6657 48.4679 23.5559 45.938C20.8927 46.6837 19.0663 49.0816 18.4659 51.7072ZM31.5732 61.7317C31.9122 64.3063 31.9063 67.5724 29.9075 69.5563C27.4129 72.1156 23.545 71.6248 20.5622 71.0641C16.5568 70.3112 12.0478 67.5834 9.62868 63.9496C12.5766 62.3232 16.1869 63.3592 19.1076 64.1981L19.2761 64.2461C22.5359 65.1812 26.0106 66.6888 28.9178 68.75C26.5974 66.6565 24.9066 63.5837 24.8213 60.4852C24.7439 57.713 25.9447 54.746 28.5324 53.4224C30.3433 55.7938 31.1917 58.8398 31.5732 61.7317ZM43.1939 76.8413C41.4042 80.1471 37.0134 80.5289 33.8137 80.5965C29.0374 80.6972 23.6181 78.8299 19.8006 75.5904C22.3204 73.272 26.442 73.5369 29.6088 73.7407L30.0097 73.7663C33.9512 74.0142 38.0941 74.86 41.8884 76.2715C38.6113 74.677 35.4464 71.8759 34.5303 68.5884C33.7614 65.8237 33.5115 62.6419 36.0914 60.4164C38.7798 62.5178 40.6605 65.4457 42.0376 68.319C43.1958 70.7359 44.6484 74.0018 43.219 76.796L43.1939 76.8413Z" fill="url(#paint0_linear_0_1403)"/>
<path d="M82.2715 27.26C82.2715 30.26 79.8715 32.54 75.6955 32.54C71.5435 32.54 69.0235 30.26 68.8075 26.828H71.4955C71.6155 29.012 73.0075 30.428 75.6475 30.428C77.8315 30.428 79.4635 29.396 79.4635 27.62C79.4635 26.18 78.5275 25.46 76.5355 25.028L74.0395 24.548C71.6155 24.068 69.4075 22.844 69.4075 19.916C69.4075 17.012 71.9515 14.828 75.5275 14.828C79.1035 14.828 81.8155 17.012 82.0315 20.444H79.3435C79.1995 18.38 77.7115 16.94 75.5515 16.94C73.3195 16.94 72.0955 18.26 72.0955 19.748C72.0955 21.38 73.5115 21.956 75.1195 22.292L77.6635 22.796C80.6155 23.396 82.2715 24.692 82.2715 27.26ZM87.5598 25.124V32.3H85.1358V15.068H87.5598V21.62C88.3998 20.252 89.6958 19.34 91.4478 19.34C94.0638 19.34 95.7918 21.02 95.7918 24.068V32.3H93.3678V24.884C93.3678 22.7 92.4078 21.476 90.6078 21.476C88.9518 21.476 87.5598 22.868 87.5598 25.124ZM104.339 32.54C100.739 32.54 98.0988 29.708 98.0988 25.94C98.0988 22.172 100.739 19.34 104.339 19.34C107.939 19.34 110.579 22.172 110.579 25.94C110.579 29.708 107.939 32.54 104.339 32.54ZM104.339 30.404C106.427 30.404 108.083 28.724 108.083 25.94C108.083 23.156 106.427 21.5 104.339 21.5C102.251 21.5 100.619 23.156 100.619 25.94C100.619 28.724 102.251 30.404 104.339 30.404ZM123.281 32.3L120.401 22.844L117.497 32.3H115.049L111.377 19.58H113.753L116.321 28.844L119.201 19.58H121.601L124.433 28.868L127.001 19.58H129.401L125.705 32.3H123.281ZM133.802 25.124V32.3H131.378V19.58H133.634V21.692C134.498 20.276 135.938 19.34 137.69 19.34C140.306 19.34 142.034 21.02 142.034 24.068V32.3H139.61V24.884C139.61 22.7 138.65 21.476 136.85 21.476C135.194 21.476 133.802 22.868 133.802 25.124ZM153.221 16.628C153.221 17.54 152.501 18.236 151.469 18.236C150.437 18.236 149.693 17.54 149.693 16.628C149.693 15.692 150.437 15.02 151.469 15.02C152.501 15.02 153.221 15.692 153.221 16.628ZM152.693 32.3H150.269V19.58H152.693V32.3ZM166.138 28.508C166.138 31.004 164.194 32.54 160.81 32.54C157.45 32.54 155.458 30.884 155.218 28.148H157.546C157.642 29.732 158.914 30.716 160.858 30.716C162.562 30.716 163.69 30.116 163.69 28.916C163.69 27.86 163.042 27.404 161.458 27.092L159.394 26.708C157.042 26.252 155.722 25.052 155.722 23.132C155.722 20.9 157.666 19.34 160.618 19.34C163.666 19.34 165.73 20.972 165.946 23.588H163.618C163.474 22.052 162.346 21.164 160.642 21.164C159.106 21.164 158.074 21.812 158.074 22.916C158.074 23.948 158.722 24.428 160.258 24.716L162.418 25.124C164.938 25.58 166.138 26.684 166.138 28.508ZM176.224 25.796V32.3H173.8V19.58H176.056V22.268C176.944 20.516 178.864 19.412 180.952 19.412V21.932C178.216 21.788 176.224 22.988 176.224 25.796ZM190.574 32.3V30.332C189.782 31.748 188.366 32.54 186.494 32.54C183.854 32.54 182.126 31.028 182.126 28.7C182.126 26.204 184.118 24.908 187.91 24.908C188.654 24.908 189.254 24.932 190.286 25.052V24.116C190.286 22.292 189.302 21.26 187.622 21.26C185.846 21.26 184.766 22.316 184.694 24.092H182.486C182.606 21.236 184.646 19.34 187.622 19.34C190.766 19.34 192.59 21.116 192.59 24.14V32.3H190.574ZM184.43 28.628C184.43 29.948 185.414 30.812 186.974 30.812C189.014 30.812 190.286 29.54 190.286 27.596V26.564C189.35 26.444 188.678 26.42 188.054 26.42C185.63 26.42 184.43 27.14 184.43 28.628ZM202.89 29.948V32.084C202.146 32.42 201.498 32.54 200.73 32.54C198.378 32.54 196.746 31.268 196.746 28.46V21.644H193.938V19.58H196.746V15.812H199.17V19.58H203.01V21.644H199.17V27.908C199.17 29.66 200.01 30.284 201.306 30.284C201.882 30.284 202.386 30.188 202.89 29.948ZM210.204 32.54C206.532 32.54 204.06 29.876 204.06 25.868C204.06 22.1 206.628 19.34 210.132 19.34C213.924 19.34 216.444 22.412 216.012 26.54H206.532C206.724 29.132 208.02 30.644 210.156 30.644C211.956 30.644 213.204 29.66 213.612 28.004H216.012C215.388 30.836 213.204 32.54 210.204 32.54ZM210.084 21.164C208.14 21.164 206.82 22.556 206.556 24.932H213.444C213.324 22.58 212.052 21.164 210.084 21.164ZM217.443 25.94C217.443 22.076 219.651 19.34 223.083 19.34C224.787 19.34 226.275 20.204 227.163 21.764V15.068H229.587V32.3H227.331V30.02C226.419 31.628 224.883 32.54 223.083 32.54C219.651 32.54 217.443 29.756 217.443 25.94ZM219.963 25.94C219.963 28.772 221.451 30.38 223.563 30.38C225.627 30.38 227.163 28.7 227.163 25.892C227.163 23.036 225.579 21.476 223.563 21.476C221.451 21.476 219.963 23.06 219.963 25.94Z" fill="#5D778D"/>
<path d="M80.5915 63.996V66.3H69.6715V49.068H80.4235V51.372H72.3115V56.268H79.7035V58.572H72.3115V63.996H80.5915ZM84.8151 66.3H82.0791L86.5911 59.796L82.3671 53.58H85.1751L88.3191 58.38L91.4631 53.58H94.0791L89.9031 59.868L94.3671 66.3H91.5831L88.1751 61.236L84.8151 66.3ZM100.792 66.564C97.3124 66.564 94.8644 63.828 94.8644 59.94C94.8644 56.1 97.3604 53.34 100.792 53.34C103.936 53.34 106.216 55.428 106.672 58.74H104.128C103.864 56.7 102.592 55.476 100.816 55.476C98.7284 55.476 97.3604 57.252 97.3604 59.94C97.3604 62.652 98.7284 64.404 100.816 64.404C102.616 64.404 103.864 63.204 104.152 61.14H106.672C106.24 64.5 103.984 66.564 100.792 66.564ZM114.227 66.54C110.555 66.54 108.083 63.876 108.083 59.868C108.083 56.1 110.651 53.34 114.155 53.34C117.947 53.34 120.467 56.412 120.035 60.54H110.555C110.747 63.132 112.043 64.644 114.179 64.644C115.979 64.644 117.227 63.66 117.635 62.004H120.035C119.411 64.836 117.227 66.54 114.227 66.54ZM114.107 55.164C112.163 55.164 110.843 56.556 110.579 58.932H117.467C117.347 56.58 116.075 55.164 114.107 55.164ZM125.06 66.3H122.612V49.068H125.06V66.3ZM130.873 66.3H128.425V49.068H130.873V66.3ZM139.469 66.54C135.797 66.54 133.325 63.876 133.325 59.868C133.325 56.1 135.893 53.34 139.397 53.34C143.189 53.34 145.709 56.412 145.277 60.54H135.797C135.989 63.132 137.285 64.644 139.421 64.644C141.221 64.644 142.469 63.66 142.877 62.004H145.277C144.653 64.836 142.469 66.54 139.469 66.54ZM139.349 55.164C137.405 55.164 136.085 56.556 135.821 58.932H142.709C142.589 56.58 141.317 55.164 139.349 55.164ZM150.279 59.124V66.3H147.855V53.58H150.111V55.692C150.975 54.276 152.415 53.34 154.167 53.34C156.783 53.34 158.511 55.02 158.511 58.068V66.3H156.087V58.884C156.087 56.7 155.127 55.476 153.327 55.476C151.671 55.476 150.279 56.868 150.279 59.124ZM168.859 63.948V66.084C168.115 66.42 167.467 66.54 166.699 66.54C164.347 66.54 162.715 65.268 162.715 62.46V55.644H159.907V53.58H162.715V49.812H165.139V53.58H168.979V55.644H165.139V61.908C165.139 63.66 165.979 64.284 167.275 64.284C167.851 64.284 168.355 64.188 168.859 63.948Z" fill="url(#paint1_linear_0_1403)"/>
<g clip-path="url(#clip0_0_1403)">
<path d="M252.798 10.6162C252.798 6.85795 255.844 3.81128 259.602 3.81128H275.977C279.735 3.81128 282.782 6.85795 282.782 10.6162V26.9903C282.782 30.7486 279.735 33.7953 275.977 33.7953H259.602C255.844 33.7953 252.798 30.7486 252.798 26.9903V10.6162ZM285.281 10.6162C285.281 6.85795 288.327 3.81128 292.086 3.81128H308.46C312.219 3.81128 315.265 6.85795 315.265 10.6162V26.9903C315.265 30.7486 312.219 33.7953 308.46 33.7953H292.086C288.327 33.7953 285.281 30.7486 285.281 26.9903V10.6162ZM317.764 10.6162C317.764 6.85795 320.811 3.81128 324.569 3.81128H340.944C344.702 3.81128 347.749 6.85795 347.749 10.6162V26.9903C347.749 30.7486 344.702 33.7953 340.944 33.7953H324.569C320.811 33.7953 317.764 30.7486 317.764 26.9903V10.6162ZM350.247 10.6162C350.247 6.85795 353.294 3.81128 357.052 3.81128H373.427C377.185 3.81128 380.232 6.85795 380.232 10.6162V26.9903C380.232 30.7486 377.185 33.7953 373.427 33.7953H357.052C353.294 33.7953 350.247 30.7486 350.247 26.9903V10.6162Z" fill="#00B67A"/>
<mask id="mask0_0_1403" style="mask-type:alpha" maskUnits="userSpaceOnUse" x="382" y="3" width="31" height="31">
<path d="M405.911 3.8064H389.536C385.778 3.8064 382.731 6.85307 382.731 10.6113V26.9855C382.731 30.7437 385.778 33.7904 389.536 33.7904H405.911C409.669 33.7904 412.716 30.7437 412.716 26.9855V10.6113C412.716 6.85307 409.669 3.8064 405.911 3.8064Z" fill="#00B67A"/>
</mask>
<g mask="url(#mask0_0_1403)">
<path d="M405.911 3.8064H389.536C385.778 3.8064 382.731 6.85307 382.731 10.6113V26.9855C382.731 30.7437 385.778 33.7904 389.536 33.7904H405.911C409.669 33.7904 412.716 30.7437 412.716 26.9855V10.6113C412.716 6.85307 409.669 3.8064 405.911 3.8064Z" fill="#00B67A"/>
<path d="M412.717 3.79932H398.257V34.4213H412.717V3.79932Z" fill="#394C5E"/>
</g>
<path d="M267.788 24.0173L272.348 22.8617L274.254 28.7335L267.788 24.0173ZM278.283 16.4276H270.256L267.788 8.86914L265.321 16.4276H257.294L263.79 21.1126L261.323 28.6711L267.819 23.9861L271.817 21.1126L278.283 16.4276ZM300.271 24.0173L304.832 22.8617L306.737 28.7335L300.271 24.0173ZM310.766 16.4276H302.739L300.271 8.86914L297.804 16.4276H289.777L296.274 21.1126L293.806 28.6711L300.303 23.9861L304.301 21.1126L310.766 16.4276ZM332.755 24.0173L337.315 22.8617L339.22 28.7335L332.755 24.0173ZM343.249 16.4276H335.222L332.755 8.86914L330.287 16.4276H322.26L328.757 21.1126L326.289 28.6711L332.786 23.9861L336.784 21.1126L343.249 16.4276ZM365.238 24.0173L369.798 22.8617L371.703 28.7335L365.238 24.0173ZM375.733 16.4276H367.705L365.238 8.86914L362.77 16.4276H354.743L361.24 21.1126L358.773 28.6711L365.269 23.9861L369.267 21.1126L375.733 16.4276ZM397.721 24.0173L402.281 22.8617L404.187 28.7335L397.721 24.0173ZM408.216 16.4276H400.189L397.721 8.86914L395.254 16.4276H387.227L393.723 21.1126L391.256 28.6711L397.752 23.9861L401.75 21.1126L408.216 16.4276Z" fill="white"/>
</g>
<path d="M256.087 68.8H254.587V54.44H259.707C262.747 54.44 264.647 56.02 264.647 58.78C264.647 60.94 263.227 62.56 260.967 62.94L265.027 68.8H263.227L259.367 63.12H256.087V68.8ZM256.087 55.7V61.86H259.587C261.787 61.86 263.147 60.78 263.147 58.78C263.147 56.78 261.787 55.7 259.587 55.7H256.087ZM273.428 68.8V66.88C272.808 68.2 271.528 69 269.888 69C267.708 69 266.288 67.78 266.288 65.88C266.288 63.82 267.928 62.74 271.128 62.74C271.768 62.74 272.248 62.78 273.288 62.86V61.98C273.288 60.22 272.348 59.18 270.748 59.18C269.028 59.18 267.948 60.24 267.928 61.96H266.648C266.708 59.62 268.328 58.06 270.728 58.06C273.188 58.06 274.628 59.5 274.628 61.94V68.8H273.428ZM267.628 65.84C267.628 67.12 268.608 67.98 270.088 67.98C272.048 67.98 273.288 66.7 273.288 64.72V63.78C272.388 63.7 271.768 63.68 271.188 63.68C268.788 63.68 267.628 64.38 267.628 65.84ZM282.935 67.46V68.7C282.395 68.92 281.935 69 281.415 69C279.675 69 278.335 68.1 278.335 65.82V59.44H275.855V58.26H278.335V55.14H279.735V58.26H283.035V59.44H279.735V65.52C279.735 67.16 280.535 67.72 281.695 67.72C282.135 67.72 282.495 67.64 282.935 67.46ZM288.959 69C285.999 69 284.039 66.78 284.039 63.44C284.039 60.36 286.079 58.06 288.879 58.06C291.879 58.06 293.839 60.48 293.6 63.86H285.439C285.559 66.36 286.879 67.9 288.939 67.9C290.699 67.9 291.919 66.92 292.259 65.24H293.639C293.16 67.58 291.379 69 288.959 69ZM288.86 59.14C286.959 59.14 285.619 60.6 285.439 62.9H292.14C292.019 60.54 290.8 59.14 288.86 59.14ZM294.938 63.52C294.938 60.28 296.738 58.06 299.578 58.06C301.158 58.06 302.498 58.96 303.198 60.46V54.44H304.598V68.8H303.298V66.58C302.558 68.12 301.198 69 299.578 69C296.738 69 294.938 66.76 294.938 63.52ZM296.358 63.52C296.358 66.2 297.718 67.78 299.778 67.78C301.818 67.78 303.218 66.12 303.218 63.48C303.218 60.82 301.778 59.28 299.778 59.28C297.718 59.28 296.358 60.84 296.358 63.52ZM320.652 65.58H318.832V68.8H317.452V65.58H310.872V64.64L317.852 55.28H318.832V64.36H320.652V65.58ZM312.492 64.36H317.452V57.56L312.492 64.36ZM325.108 67.64C325.108 68.36 324.588 68.9 323.848 68.9C323.128 68.9 322.588 68.36 322.588 67.64C322.588 66.88 323.128 66.36 323.848 66.36C324.588 66.36 325.108 66.88 325.108 67.64ZM336.589 65.58H334.769V68.8H333.389V65.58H326.809V64.64L333.789 55.28H334.769V64.36H336.589V65.58ZM328.429 64.36H333.389V57.56L328.429 64.36ZM347.18 72.66H345.86C344.22 70.16 343.32 66.86 343.32 63.54C343.32 60.24 344.22 56.94 345.86 54.44H347.18C345.52 56.94 344.72 60.24 344.72 63.54C344.72 66.86 345.52 70.16 347.18 72.66ZM358.237 65.1C358.237 67.44 356.277 68.98 353.497 68.98C350.697 68.98 348.757 67.44 348.757 65.1C348.757 63.34 349.957 62.22 351.497 61.76C350.277 61.3 349.317 60.16 349.317 58.7C349.317 56.54 351.137 55.08 353.497 55.08C355.857 55.08 357.657 56.54 357.657 58.7C357.657 60.16 356.697 61.3 355.497 61.76C357.017 62.22 358.237 63.34 358.237 65.1ZM350.757 58.74C350.757 60.3 351.877 61.24 353.497 61.24C355.097 61.24 356.237 60.3 356.237 58.74C356.237 57.18 355.097 56.22 353.497 56.22C351.877 56.22 350.757 57.18 350.757 58.74ZM350.197 65.06C350.197 66.8 351.577 67.84 353.497 67.84C355.397 67.84 356.797 66.8 356.797 65.06C356.797 63.34 355.397 62.38 353.497 62.38C351.577 62.38 350.197 63.34 350.197 65.06ZM369.675 65.58H367.855V68.8H366.475V65.58H359.895V64.64L366.875 55.28H367.855V64.36H369.675V65.58ZM361.515 64.36H366.475V57.56L361.515 64.36ZM372.366 72.66H371.046C372.686 70.16 373.506 66.86 373.506 63.54C373.506 60.24 372.686 56.94 371.046 54.44H372.366C374.006 56.94 374.906 60.24 374.906 63.54C374.906 66.86 374.006 70.16 372.366 72.66ZM386.52 69C383.62 69 381.52 66.7 381.52 63.52C381.52 60.36 383.62 58.08 386.52 58.08C389.44 58.08 391.54 60.36 391.54 63.52C391.54 66.7 389.44 69 386.52 69ZM386.52 67.78C388.58 67.78 390.12 66.14 390.12 63.52C390.12 60.94 388.58 59.3 386.52 59.3C384.48 59.3 382.94 60.94 382.94 63.52C382.94 66.14 384.48 67.78 386.52 67.78ZM395.204 62.66V68.8H393.804V58.26H395.104V60.24C395.784 58.94 397.064 58.06 398.584 58.06C400.784 58.06 402.204 59.46 402.204 61.96V68.8H400.804V62.44C400.804 60.42 399.884 59.28 398.164 59.28C396.524 59.28 395.204 60.7 395.204 62.66Z" fill="#5D778D"/>
<g clip-path="url(#clip1_0_1403)">
<path d="M444.263 54.1765H456.557V56.4651H451.716V69.3664H449.063V56.4651H444.243L444.263 54.1765ZM456.03 58.3689H458.299V60.4955H458.339C458.42 60.1917 458.562 59.9082 458.764 59.6246C458.967 59.3411 459.21 59.0778 459.514 58.855C459.797 58.612 460.121 58.4297 460.486 58.2879C460.83 58.1461 461.195 58.0651 461.559 58.0651C461.843 58.0651 462.046 58.0854 462.147 58.0854C462.248 58.1056 462.37 58.1259 462.471 58.1259V60.455C462.309 60.4145 462.127 60.3942 461.944 60.374C461.762 60.3537 461.6 60.3335 461.418 60.3335C461.013 60.3335 460.628 60.4145 460.263 60.5765C459.899 60.7385 459.595 60.9816 459.311 61.2854C459.048 61.6094 458.825 61.9942 458.663 62.4601C458.501 62.9259 458.42 63.4727 458.42 64.0803V69.3056H455.99L456.03 58.3689ZM473.61 69.3664H471.22V67.8271H471.18C470.876 68.3942 470.43 68.8195 469.843 69.1639C469.256 69.5082 468.648 69.6702 468.041 69.6702C466.603 69.6702 465.549 69.3259 464.901 68.5968C464.253 67.8879 463.929 66.7942 463.929 65.3563V58.3689H466.359V65.1132C466.359 66.0854 466.542 66.774 466.927 67.1588C467.291 67.5638 467.818 67.7664 468.486 67.7664C468.992 67.7664 469.418 67.6854 469.762 67.5233C470.106 67.3613 470.39 67.1588 470.592 66.8955C470.815 66.6322 470.957 66.3082 471.058 65.9436C471.16 65.579 471.2 65.174 471.2 64.7487V58.3689H473.63V69.3664H473.61ZM477.742 65.8423C477.823 66.5512 478.086 67.0373 478.552 67.3411C479.018 67.6246 479.585 67.7664 480.233 67.7664C480.456 67.7664 480.719 67.7461 481.003 67.7056C481.286 67.6651 481.57 67.6044 481.813 67.5031C482.076 67.4018 482.279 67.2601 482.441 67.0575C482.603 66.855 482.684 66.612 482.663 66.3082C482.643 66.0044 482.542 65.7411 482.319 65.5385C482.096 65.336 481.833 65.1942 481.509 65.0525C481.185 64.9309 480.8 64.8297 480.375 64.7487C479.949 64.6676 479.524 64.5664 479.079 64.4651C478.633 64.3639 478.187 64.2423 477.762 64.1006C477.337 63.9588 476.972 63.7765 476.628 63.5132C476.304 63.2702 476.02 62.9664 475.838 62.5816C475.635 62.1968 475.534 61.7512 475.534 61.1841C475.534 60.5765 475.676 60.0904 475.98 59.6854C476.263 59.2803 476.648 58.9563 477.094 58.7132C477.539 58.4702 478.046 58.2879 478.592 58.1866C479.139 58.0854 479.666 58.0449 480.152 58.0449C480.719 58.0449 481.266 58.1056 481.772 58.2271C482.279 58.3487 482.765 58.5309 483.17 58.8145C483.595 59.0778 483.939 59.4423 484.203 59.8676C484.486 60.293 484.648 60.8195 484.729 61.4271H482.198C482.076 60.8398 481.813 60.455 481.408 60.2525C480.982 60.0499 480.517 59.9487 479.97 59.9487C479.808 59.9487 479.585 59.9689 479.362 59.9892C479.119 60.0297 478.917 60.0702 478.694 60.1512C478.491 60.2322 478.309 60.3537 478.167 60.4955C478.025 60.6373 477.944 60.8398 477.944 61.0828C477.944 61.3866 478.046 61.6094 478.248 61.7917C478.451 61.974 478.714 62.1158 479.058 62.2575C479.382 62.379 479.767 62.4803 480.192 62.5613C480.618 62.6423 481.063 62.7436 481.509 62.8449C481.955 62.9461 482.38 63.0676 482.805 63.2094C483.23 63.3512 483.615 63.5335 483.939 63.7968C484.263 64.0398 484.547 64.3436 484.749 64.7082C484.952 65.0727 485.053 65.5385 485.053 66.0651C485.053 66.7132 484.912 67.2601 484.608 67.7259C484.304 68.1714 483.919 68.5563 483.453 68.8398C482.987 69.1233 482.441 69.3259 481.874 69.4677C481.286 69.5892 480.719 69.6702 480.152 69.6702C479.463 69.6702 478.815 69.5892 478.228 69.4271C477.641 69.2651 477.114 69.0221 476.689 68.7183C476.263 68.3942 475.919 68.0094 475.676 67.5233C475.433 67.0575 475.291 66.4904 475.271 65.8221H477.722V65.8423H477.742ZM485.742 58.3689H487.585V55.0474H490.015V58.3487H492.203V60.1512H490.015V66.0246C490.015 66.2879 490.036 66.4904 490.056 66.693C490.076 66.8752 490.137 67.0373 490.198 67.1588C490.279 67.2803 490.4 67.3816 490.542 67.4423C490.704 67.5031 490.906 67.5436 491.19 67.5436C491.352 67.5436 491.534 67.5436 491.696 67.5233C491.858 67.5031 492.041 67.4828 492.203 67.4423V69.3259C491.939 69.3664 491.676 69.3866 491.413 69.4069C491.15 69.4474 490.906 69.4474 490.623 69.4474C489.975 69.4474 489.469 69.3866 489.084 69.2651C488.699 69.1436 488.395 68.9613 488.172 68.7385C487.95 68.4955 487.808 68.212 487.727 67.8676C487.646 67.5233 487.605 67.098 487.585 66.6525V60.1714H485.742V58.3284V58.3689ZM493.904 58.3689H496.193V59.8676H496.233C496.577 59.2195 497.043 58.774 497.651 58.4904C498.258 58.2069 498.907 58.0651 499.636 58.0651C500.507 58.0651 501.256 58.2069 501.904 58.5309C502.552 58.8347 503.079 59.2398 503.504 59.7866C503.929 60.3132 504.253 60.9411 504.456 61.6499C504.658 62.3588 504.78 63.1284 504.78 63.9183C504.78 64.6676 504.679 65.3765 504.496 66.0651C504.294 66.7537 504.01 67.3816 503.626 67.9082C503.241 68.4347 502.755 68.8601 502.147 69.1841C501.539 69.5082 500.851 69.6702 500.041 69.6702C499.696 69.6702 499.332 69.6297 498.988 69.5689C498.643 69.5082 498.299 69.4069 497.975 69.2651C497.651 69.1233 497.347 68.9411 497.084 68.7183C496.8 68.4955 496.577 68.2322 496.395 67.9487H496.355V73.4373H493.924V58.3689H493.904ZM502.39 63.8778C502.39 63.3917 502.329 62.9056 502.188 62.4398C502.066 61.974 501.864 61.5689 501.6 61.2044C501.337 60.8398 501.013 60.5563 500.648 60.3335C500.264 60.1107 499.818 60.0094 499.332 60.0094C498.319 60.0094 497.55 60.3537 497.023 61.0626C496.517 61.7714 496.253 62.7233 496.253 63.898C496.253 64.4651 496.314 64.9714 496.456 65.4373C496.598 65.9031 496.78 66.3082 497.063 66.6525C497.327 66.9968 497.651 67.2601 498.036 67.4626C498.42 67.6651 498.846 67.7664 499.352 67.7664C499.919 67.7664 500.365 67.6449 500.75 67.4221C501.134 67.1993 501.438 66.8955 501.702 66.5512C501.945 66.1866 502.127 65.7816 502.228 65.3158C502.329 64.8297 502.39 64.3639 502.39 63.8778ZM506.664 54.1765H509.094V56.4651H506.664V54.1765ZM506.664 58.3689H509.094V69.3664H506.664V58.3689ZM511.261 54.1765H513.691V69.3664H511.261V54.1765ZM521.104 69.6702C520.233 69.6702 519.443 69.5284 518.755 69.2246C518.066 68.9208 517.499 68.536 517.013 68.0297C516.547 67.5233 516.183 66.8955 515.94 66.1866C515.697 65.4778 515.555 64.6879 515.555 63.8575C515.555 63.0271 515.676 62.2575 515.94 61.5487C516.183 60.8398 516.547 60.2322 517.013 59.7056C517.479 59.1993 518.066 58.7942 518.755 58.5107C519.443 58.2271 520.233 58.0651 521.104 58.0651C521.975 58.0651 522.765 58.2069 523.454 58.5107C524.142 58.7942 524.709 59.1993 525.195 59.7056C525.661 60.212 526.026 60.8398 526.269 61.5487C526.512 62.2575 526.654 63.0271 526.654 63.8575C526.654 64.7082 526.532 65.4778 526.269 66.1866C526.005 66.8955 525.661 67.5031 525.195 68.0297C524.73 68.536 524.142 68.9411 523.454 69.2246C522.765 69.5082 521.995 69.6702 521.104 69.6702ZM521.104 67.7461C521.631 67.7461 522.117 67.6246 522.502 67.4018C522.907 67.179 523.211 66.8752 523.474 66.5107C523.737 66.1461 523.919 65.7208 524.041 65.2752C524.162 64.8094 524.223 64.3436 524.223 63.8575C524.223 63.3917 524.162 62.9259 524.041 62.4601C523.919 61.9942 523.737 61.5892 523.474 61.2246C523.211 60.8601 522.886 60.5765 522.502 60.3537C522.097 60.1309 521.631 60.0094 521.104 60.0094C520.578 60.0094 520.092 60.1309 519.707 60.3537C519.302 60.5765 518.998 60.8803 518.735 61.2246C518.471 61.5892 518.289 61.9942 518.167 62.4601C518.046 62.9259 517.985 63.3917 517.985 63.8575C517.985 64.3436 518.046 64.8094 518.167 65.2752C518.289 65.7411 518.471 66.1461 518.735 66.5107C518.998 66.8752 519.322 67.179 519.707 67.4018C520.112 67.6449 520.578 67.7461 521.104 67.7461ZM527.383 58.3689H529.226V55.0474H531.656V58.3487H533.844V60.1512H531.656V66.0246C531.656 66.2879 531.676 66.4904 531.697 66.693C531.717 66.8752 531.778 67.0373 531.838 67.1588C531.919 67.2803 532.041 67.3816 532.183 67.4423C532.345 67.5031 532.547 67.5436 532.831 67.5436C532.993 67.5436 533.175 67.5436 533.337 67.5233C533.499 67.5031 533.681 67.4828 533.844 67.4423V69.3259C533.58 69.3664 533.317 69.3866 533.054 69.4069C532.79 69.4474 532.547 69.4474 532.264 69.4474C531.616 69.4474 531.109 69.3866 530.724 69.2651C530.34 69.1436 530.036 68.9613 529.813 68.7385C529.59 68.4955 529.449 68.212 529.368 67.8676C529.287 67.5233 529.246 67.098 529.226 66.6525V60.1714H527.383V58.3284V58.3689Z" fill="#394C5E"/>
<path d="M441.421 54.1779H430.302L426.879 43.6057L423.436 54.1779L412.317 54.1576L421.31 60.6994L417.866 71.2715L426.859 64.7298L435.851 71.2715L432.429 60.6994L441.421 54.1779Z" fill="#00B67A"/>
<path d="M433.206 63.0893L432.437 60.6995L426.887 64.7298L433.206 63.0893Z" fill="#005128"/>
</g>
<path fill-rule="evenodd" clip-rule="evenodd" d="M587.577 14.2384C588.328 11.0928 586.8 8.15754 585.208 5.77816C583.455 3.15861 580.527 0.835974 577.255 -0.000732422C577.848 2.96802 579.578 5.52928 581.243 7.9379C582.897 10.3305 584.983 12.754 587.577 14.2384ZM584.707 14.6138C586.907 15.6246 588.93 17.7919 589.853 20.2775C589.27 17.7848 589.286 15.0562 589.846 12.7186C590.336 10.665 591.052 7.76251 593.4 6.78422C595.102 9.52114 595.784 13.2466 594.787 16.0362C594.066 18.055 592.77 20.7235 590.09 21.1341C587.63 21.6987 585.145 20.3851 583.183 19.3009C581 18.095 578.864 16.1778 577.566 13.8993C579.95 12.6981 582.664 13.6764 584.707 14.6138ZM587.929 23.868C589.819 25.216 591.27 27.6806 591.582 30.2109C591.609 27.6756 592.298 25.0582 593.406 22.9498C594.419 21.0209 595.833 18.4139 598.349 17.8943C599.337 20.8975 599.017 24.5707 597.419 27.002C596.211 28.8437 594.34 31.1499 591.617 31.0881C589.132 31.215 586.986 29.5175 585.297 28.1013C583.48 26.5776 581.841 24.3505 581.152 21.9436C583.689 21.2068 586.118 22.5765 587.929 23.868ZM588.844 33.3526C590.39 35.0087 591.219 37.6893 590.942 40.1686C591.559 37.68 592.847 35.2677 594.42 33.4351C595.879 31.7357 597.85 29.4886 600.453 29.4243C600.699 32.5804 599.468 35.7316 597.401 38.0796C595.793 39.9044 593.32 41.4553 590.787 41.0263C588.35 40.7286 586.489 38.6626 585.28 36.9921C583.983 35.1987 582.725 32.8045 582.673 30.2926C585.271 30.0154 587.357 31.7559 588.844 33.3526ZM587.252 42.4264C588.484 44.8747 588.718 47.7879 587.767 50.3526C589.17 47.7137 591.221 45.5795 593.392 43.6076C595.365 41.8153 598.209 39.9283 601.07 40.2856C600.523 43.823 598.36 47.4915 595.458 49.3772C593.126 50.8918 590.301 52.3917 587.331 51.2589C584.889 50.3975 583.338 47.9376 582.385 45.6804C581.376 43.2921 580.704 40.5387 581.174 37.9258C583.853 38.1658 586.074 40.0849 587.252 42.4264ZM583.534 51.7072C584.168 54.4792 583.627 57.432 582.078 59.7911C584.14 57.4295 586.883 55.4805 589.509 54.1137C592.049 52.7928 595.163 51.1996 598.21 52.1651C596.738 55.7511 593.59 59.0882 590.104 60.467C587.402 61.5362 584.111 62.5933 581.293 60.806C579.012 59.4289 578.094 56.5477 577.718 54.0786C577.315 51.4101 577.334 48.4679 578.444 45.938C581.107 46.6837 582.934 49.0816 583.534 51.7072ZM570.427 61.7317C570.088 64.3063 570.094 67.5724 572.093 69.5563C574.587 72.1156 578.455 71.6248 581.438 71.0641C585.443 70.3112 589.952 67.5834 592.371 63.9496C589.423 62.3232 585.813 63.3592 582.892 64.1981L582.724 64.2461C579.464 65.1812 575.989 66.6888 573.082 68.75C575.403 66.6565 577.093 63.5837 577.179 60.4852C577.256 57.713 576.055 54.746 573.468 53.4224C571.657 55.7938 570.808 58.8398 570.427 61.7317ZM558.806 76.8413C560.596 80.1471 564.987 80.5289 568.186 80.5965C572.963 80.6972 578.382 78.8299 582.199 75.5904C579.68 73.272 575.558 73.5369 572.391 73.7407L571.99 73.7663C568.049 74.0142 563.906 74.86 560.112 76.2715C563.389 74.677 566.554 71.8759 567.47 68.5884C568.239 65.8237 568.489 62.6419 565.909 60.4164C563.22 62.5178 561.34 65.4457 559.962 68.319C558.804 70.7359 557.352 74.0018 558.781 76.796L558.806 76.8413Z" fill="url(#paint2_linear_0_1403)"/>
<defs>
<linearGradient id="paint0_linear_0_1403" x1="31.3833" y1="0.203644" x2="31.8077" y2="80.6003" gradientUnits="userSpaceOnUse">
<stop stop-color="#778EA1" stop-opacity="0.4"/>
<stop offset="1" stop-color="#778EA1" stop-opacity="0.1"/>
</linearGradient>
<linearGradient id="paint1_linear_0_1403" x1="70.2901" y1="40.3" x2="169.386" y2="40.3001" gradientUnits="userSpaceOnUse">
<stop stop-color="#9F9FE5"/>
<stop offset="0.362584" stop-color="#4F4FBE"/>
<stop offset="0.64589" stop-color="#0071D2"/>
<stop offset="1" stop-color="#37A2FF"/>
</linearGradient>
<linearGradient id="paint2_linear_0_1403" x1="570.617" y1="0.203644" x2="570.192" y2="80.6003" gradientUnits="userSpaceOnUse">
<stop stop-color="#778EA1" stop-opacity="0.4"/>
<stop offset="1" stop-color="#778EA1" stop-opacity="0.1"/>
</linearGradient>
<clipPath id="clip0_0_1403">
<rect width="159.918" height="30" fill="white" transform="translate(252.799 3.80005)"/>
</clipPath>
<clipPath id="clip1_0_1403">
<rect width="126.401" height="32" fill="white" transform="translate(407.799 41.8)"/>
</clipPath>
</defs>
</svg>
