<svg width="600" height="81" viewBox="0 0 600 81" fill="none" xmlns="http://www.w3.org/2000/svg">
<path fill-rule="evenodd" clip-rule="evenodd" d="M13.9225 14.2384C13.171 11.0928 14.6992 8.15754 16.2913 5.77816C18.0441 3.15861 20.9726 0.835974 24.244 -0.000732422C23.6513 2.96802 21.9217 5.52928 20.256 7.9379C18.6019 10.3305 16.5159 12.754 13.9225 14.2384ZM16.7922 14.6138C14.5919 15.6246 12.5698 17.7919 11.646 20.2775C12.229 17.7848 12.2135 15.0562 11.6537 12.7186C11.1637 10.665 10.4471 7.76251 8.0996 6.78422C6.39711 9.52114 5.71533 13.2466 6.71281 16.0362C7.43332 18.055 8.72906 20.7235 11.4097 21.1341C13.8695 21.6987 16.3545 20.3851 18.3165 19.3009C20.4993 18.095 22.6357 16.1778 23.9334 13.8993C21.5491 12.6981 18.8356 13.6764 16.7922 14.6138ZM13.5706 23.868C11.6803 25.216 10.2296 27.6806 9.91772 30.2109C9.8906 27.6756 9.20107 25.0582 8.09319 22.9498C7.08022 21.0209 5.66634 18.4139 3.15037 17.8943C2.16257 20.8975 2.48215 24.5707 4.08005 27.002C5.28864 28.8437 7.15963 31.1499 9.88285 31.0881C12.3678 31.215 14.5139 29.5175 16.2028 28.1013C18.0196 26.5776 19.6581 24.3505 20.3477 21.9436C17.8104 21.2068 15.3816 22.5765 13.5706 23.868ZM12.6554 33.3526C11.1097 35.0087 10.2808 37.6893 10.5577 40.1686C9.93989 37.68 8.6519 35.2677 7.07918 33.4351C5.62073 31.7357 3.649 29.4886 1.04587 29.4243C0.799892 32.5804 2.03174 35.7316 4.09836 38.0796C5.70594 39.9044 8.17929 41.4553 10.7127 41.0263C13.1493 40.7286 15.0106 38.6626 16.2192 36.9921C17.5169 35.1987 18.7739 32.8045 18.8262 30.2926C16.2289 30.0154 14.1429 31.7559 12.6554 33.3526ZM14.2474 42.4264C13.0155 44.8747 12.7811 47.7879 13.7321 50.3526C12.3299 47.7137 10.2787 45.5795 8.10754 43.6076C6.13388 41.8153 3.29058 39.9283 0.429848 40.2856C0.97604 43.823 3.13951 47.4915 6.04091 49.3772C8.37288 50.8918 11.1987 52.3917 14.1679 51.2589C16.6103 50.3975 18.1617 47.9376 19.1147 45.6804C20.1238 43.2921 20.7958 40.5387 20.3252 37.9258C17.6465 38.1658 15.425 40.0849 14.2474 42.4264ZM17.9652 51.7072C17.3318 54.4792 17.8722 57.432 19.4217 59.7911C17.359 57.4295 14.6164 55.4805 11.99 54.1137C9.4508 52.7928 6.33633 51.1996 3.28967 52.1651C4.76167 55.7511 7.90907 59.0882 11.3954 60.467C14.0973 61.5362 17.388 62.5933 20.2061 60.806C22.4877 59.4289 23.4058 56.5477 23.7816 54.0786C24.1844 51.4101 24.1651 48.4679 23.0552 45.938C20.3921 46.6837 18.5656 49.0816 17.9652 51.7072ZM31.0725 61.7317C31.4115 64.3063 31.4057 67.5724 29.4068 69.5563C26.9122 72.1156 23.0443 71.6248 20.0615 71.0641C16.0561 70.3112 11.5471 67.5834 9.128 63.9496C12.0759 62.3232 15.6862 63.3592 18.607 64.1981L18.7755 64.2461C22.0352 65.1812 25.5099 66.6888 28.4171 68.75C26.0968 66.6565 24.4059 63.5837 24.3207 60.4852C24.2432 57.713 25.444 54.746 28.0317 53.4224C29.8426 55.7938 30.691 58.8398 31.0725 61.7317ZM42.6932 76.8413C40.9035 80.1471 36.5127 80.5289 33.313 80.5965C28.5367 80.6972 23.1174 78.8299 19.2999 75.5904C21.8197 73.272 25.9413 73.5369 29.1081 73.7407L29.509 73.7663C33.4505 74.0142 37.5935 74.86 41.3877 76.2715C38.1106 74.677 34.9458 71.8759 34.0296 68.5884C33.2607 65.8237 33.0109 62.6419 35.5907 60.4164C38.2791 62.5178 40.1598 65.4457 41.5369 68.319C42.6951 70.7359 44.1478 74.0018 42.7184 76.796L42.6932 76.8413Z" fill="url(#paint0_linear_1375_43110)"/>
<path d="M81.7708 27.26C81.7708 30.26 79.3708 32.54 75.1948 32.54C71.0428 32.54 68.5228 30.26 68.3068 26.828H70.9948C71.1148 29.012 72.5068 30.428 75.1468 30.428C77.3308 30.428 78.9628 29.396 78.9628 27.62C78.9628 26.18 78.0268 25.46 76.0348 25.028L73.5388 24.548C71.1148 24.068 68.9068 22.844 68.9068 19.916C68.9068 17.012 71.4508 14.828 75.0268 14.828C78.6028 14.828 81.3148 17.012 81.5308 20.444H78.8428C78.6988 18.38 77.2108 16.94 75.0508 16.94C72.8188 16.94 71.5948 18.26 71.5948 19.748C71.5948 21.38 73.0108 21.956 74.6188 22.292L77.1628 22.796C80.1148 23.396 81.7708 24.692 81.7708 27.26ZM87.0591 25.124V32.3H84.6351V15.068H87.0591V21.62C87.8991 20.252 89.1951 19.34 90.9471 19.34C93.5631 19.34 95.2911 21.02 95.2911 24.068V32.3H92.8671V24.884C92.8671 22.7 91.9071 21.476 90.1071 21.476C88.4511 21.476 87.0591 22.868 87.0591 25.124ZM103.838 32.54C100.238 32.54 97.5981 29.708 97.5981 25.94C97.5981 22.172 100.238 19.34 103.838 19.34C107.438 19.34 110.078 22.172 110.078 25.94C110.078 29.708 107.438 32.54 103.838 32.54ZM103.838 30.404C105.926 30.404 107.582 28.724 107.582 25.94C107.582 23.156 105.926 21.5 103.838 21.5C101.75 21.5 100.118 23.156 100.118 25.94C100.118 28.724 101.75 30.404 103.838 30.404ZM122.78 32.3L119.9 22.844L116.996 32.3H114.548L110.876 19.58H113.252L115.82 28.844L118.7 19.58H121.1L123.932 28.868L126.5 19.58H128.9L125.204 32.3H122.78ZM133.301 25.124V32.3H130.877V19.58H133.133V21.692C133.997 20.276 135.437 19.34 137.189 19.34C139.805 19.34 141.533 21.02 141.533 24.068V32.3H139.109V24.884C139.109 22.7 138.149 21.476 136.349 21.476C134.693 21.476 133.301 22.868 133.301 25.124ZM152.72 16.628C152.72 17.54 152 18.236 150.968 18.236C149.936 18.236 149.192 17.54 149.192 16.628C149.192 15.692 149.936 15.02 150.968 15.02C152 15.02 152.72 15.692 152.72 16.628ZM152.192 32.3H149.768V19.58H152.192V32.3ZM165.637 28.508C165.637 31.004 163.693 32.54 160.309 32.54C156.949 32.54 154.957 30.884 154.717 28.148H157.045C157.141 29.732 158.413 30.716 160.357 30.716C162.061 30.716 163.189 30.116 163.189 28.916C163.189 27.86 162.541 27.404 160.957 27.092L158.893 26.708C156.541 26.252 155.221 25.052 155.221 23.132C155.221 20.9 157.165 19.34 160.117 19.34C163.165 19.34 165.229 20.972 165.445 23.588H163.117C162.973 22.052 161.845 21.164 160.141 21.164C158.605 21.164 157.573 21.812 157.573 22.916C157.573 23.948 158.221 24.428 159.757 24.716L161.917 25.124C164.437 25.58 165.637 26.684 165.637 28.508ZM175.723 25.796V32.3H173.299V19.58H175.555V22.268C176.443 20.516 178.363 19.412 180.451 19.412V21.932C177.715 21.788 175.723 22.988 175.723 25.796ZM190.073 32.3V30.332C189.281 31.748 187.865 32.54 185.993 32.54C183.353 32.54 181.625 31.028 181.625 28.7C181.625 26.204 183.617 24.908 187.409 24.908C188.153 24.908 188.753 24.932 189.785 25.052V24.116C189.785 22.292 188.801 21.26 187.121 21.26C185.345 21.26 184.265 22.316 184.193 24.092H181.985C182.105 21.236 184.145 19.34 187.121 19.34C190.265 19.34 192.089 21.116 192.089 24.14V32.3H190.073ZM183.929 28.628C183.929 29.948 184.913 30.812 186.473 30.812C188.513 30.812 189.785 29.54 189.785 27.596V26.564C188.849 26.444 188.177 26.42 187.553 26.42C185.129 26.42 183.929 27.14 183.929 28.628ZM202.389 29.948V32.084C201.645 32.42 200.997 32.54 200.229 32.54C197.877 32.54 196.245 31.268 196.245 28.46V21.644H193.437V19.58H196.245V15.812H198.669V19.58H202.509V21.644H198.669V27.908C198.669 29.66 199.509 30.284 200.805 30.284C201.381 30.284 201.885 30.188 202.389 29.948ZM209.703 32.54C206.031 32.54 203.559 29.876 203.559 25.868C203.559 22.1 206.127 19.34 209.631 19.34C213.423 19.34 215.943 22.412 215.511 26.54H206.031C206.223 29.132 207.519 30.644 209.655 30.644C211.455 30.644 212.703 29.66 213.111 28.004H215.511C214.887 30.836 212.703 32.54 209.703 32.54ZM209.583 21.164C207.639 21.164 206.319 22.556 206.055 24.932H212.943C212.823 22.58 211.551 21.164 209.583 21.164ZM216.942 25.94C216.942 22.076 219.15 19.34 222.582 19.34C224.286 19.34 225.774 20.204 226.662 21.764V15.068H229.086V32.3H226.83V30.02C225.918 31.628 224.382 32.54 222.582 32.54C219.15 32.54 216.942 29.756 216.942 25.94ZM219.462 25.94C219.462 28.772 220.95 30.38 223.062 30.38C225.126 30.38 226.662 28.7 226.662 25.892C226.662 23.036 225.078 21.476 223.062 21.476C220.95 21.476 219.462 23.06 219.462 25.94Z" fill="#5D778D"/>
<path d="M80.0908 63.996V66.3H69.1708V49.068H79.9228V51.372H71.8108V56.268H79.2028V58.572H71.8108V63.996H80.0908ZM84.3145 66.3H81.5785L86.0905 59.796L81.8665 53.58H84.6745L87.8185 58.38L90.9625 53.58H93.5785L89.4025 59.868L93.8665 66.3H91.0825L87.6745 61.236L84.3145 66.3ZM100.292 66.564C96.8117 66.564 94.3637 63.828 94.3637 59.94C94.3637 56.1 96.8597 53.34 100.292 53.34C103.436 53.34 105.716 55.428 106.172 58.74H103.628C103.364 56.7 102.092 55.476 100.316 55.476C98.2277 55.476 96.8597 57.252 96.8597 59.94C96.8597 62.652 98.2277 64.404 100.316 64.404C102.116 64.404 103.364 63.204 103.652 61.14H106.172C105.74 64.5 103.484 66.564 100.292 66.564ZM113.726 66.54C110.054 66.54 107.582 63.876 107.582 59.868C107.582 56.1 110.15 53.34 113.654 53.34C117.446 53.34 119.966 56.412 119.534 60.54H110.054C110.246 63.132 111.542 64.644 113.678 64.644C115.478 64.644 116.726 63.66 117.134 62.004H119.534C118.91 64.836 116.726 66.54 113.726 66.54ZM113.606 55.164C111.662 55.164 110.342 56.556 110.078 58.932H116.966C116.846 56.58 115.574 55.164 113.606 55.164ZM124.56 66.3H122.112V49.068H124.56V66.3ZM130.372 66.3H127.924V49.068H130.372V66.3ZM138.969 66.54C135.297 66.54 132.825 63.876 132.825 59.868C132.825 56.1 135.393 53.34 138.897 53.34C142.689 53.34 145.209 56.412 144.777 60.54H135.297C135.489 63.132 136.785 64.644 138.921 64.644C140.721 64.644 141.969 63.66 142.377 62.004H144.777C144.153 64.836 141.969 66.54 138.969 66.54ZM138.849 55.164C136.905 55.164 135.585 56.556 135.321 58.932H142.209C142.089 56.58 140.817 55.164 138.849 55.164ZM149.778 59.124V66.3H147.354V53.58H149.61V55.692C150.474 54.276 151.914 53.34 153.666 53.34C156.282 53.34 158.01 55.02 158.01 58.068V66.3H155.586V58.884C155.586 56.7 154.626 55.476 152.826 55.476C151.17 55.476 149.778 56.868 149.778 59.124ZM168.358 63.948V66.084C167.614 66.42 166.966 66.54 166.198 66.54C163.846 66.54 162.214 65.268 162.214 62.46V55.644H159.406V53.58H162.214V49.812H164.638V53.58H168.478V55.644H164.638V61.908C164.638 63.66 165.478 64.284 166.774 64.284C167.35 64.284 167.854 64.188 168.358 63.948Z" fill="url(#paint1_linear_1375_43110)"/>
<g clip-path="url(#clip0_1375_43110)">
<path d="M252.297 10.6162C252.297 6.85795 255.344 3.81128 259.102 3.81128H275.476C279.235 3.81128 282.281 6.85795 282.281 10.6162V26.9903C282.281 30.7486 279.235 33.7953 275.476 33.7953H259.102C255.344 33.7953 252.297 30.7486 252.297 26.9903V10.6162ZM284.78 10.6162C284.78 6.85795 287.827 3.81128 291.585 3.81128H307.96C311.718 3.81128 314.765 6.85795 314.765 10.6162V26.9903C314.765 30.7486 311.718 33.7953 307.96 33.7953H291.585C287.827 33.7953 284.78 30.7486 284.78 26.9903V10.6162ZM317.263 10.6162C317.263 6.85795 320.31 3.81128 324.068 3.81128H340.443C344.201 3.81128 347.248 6.85795 347.248 10.6162V26.9903C347.248 30.7486 344.201 33.7953 340.443 33.7953H324.068C320.31 33.7953 317.263 30.7486 317.263 26.9903V10.6162ZM349.747 10.6162C349.747 6.85795 352.793 3.81128 356.552 3.81128H372.926C376.684 3.81128 379.731 6.85795 379.731 10.6162V26.9903C379.731 30.7486 376.684 33.7953 372.926 33.7953H356.552C352.793 33.7953 349.747 30.7486 349.747 26.9903V10.6162Z" fill="#00B67A"/>
<mask id="mask0_1375_43110" style="mask-type:alpha" maskUnits="userSpaceOnUse" x="382" y="3" width="31" height="31">
<path d="M405.41 3.8064H389.035C385.277 3.8064 382.23 6.85307 382.23 10.6113V26.9855C382.23 30.7437 385.277 33.7904 389.035 33.7904H405.41C409.168 33.7904 412.215 30.7437 412.215 26.9855V10.6113C412.215 6.85307 409.168 3.8064 405.41 3.8064Z" fill="#00B67A"/>
</mask>
<g mask="url(#mask0_1375_43110)">
<path d="M405.41 3.8064H389.035C385.277 3.8064 382.23 6.85307 382.23 10.6113V26.9855C382.23 30.7437 385.277 33.7904 389.035 33.7904H405.41C409.168 33.7904 412.215 30.7437 412.215 26.9855V10.6113C412.215 6.85307 409.168 3.8064 405.41 3.8064Z" fill="#00B67A"/>
<path d="M412.216 3.79932H397.756V34.4213H412.216V3.79932Z" fill="#394C5E"/>
</g>
<path d="M267.288 24.0173L271.848 22.8617L273.753 28.7335L267.288 24.0173ZM277.782 16.4276H269.755L267.288 8.86914L264.82 16.4276H256.793L263.29 21.1126L260.822 28.6711L267.319 23.9861L271.317 21.1126L277.782 16.4276ZM299.771 24.0173L304.331 22.8617L306.236 28.7335L299.771 24.0173ZM310.265 16.4276H302.238L299.771 8.86914L297.303 16.4276H289.276L295.773 21.1126L293.305 28.6711L299.802 23.9861L303.8 21.1126L310.265 16.4276ZM332.254 24.0173L336.814 22.8617L338.719 28.7335L332.254 24.0173ZM342.749 16.4276H334.722L332.254 8.86914L329.787 16.4276H321.759L328.256 21.1126L325.789 28.6711L332.285 23.9861L336.283 21.1126L342.749 16.4276ZM364.737 24.0173L369.297 22.8617L371.203 28.7335L364.737 24.0173ZM375.232 16.4276H367.205L364.737 8.86914L362.27 16.4276H354.243L360.739 21.1126L358.272 28.6711L364.769 23.9861L368.766 21.1126L375.232 16.4276ZM397.221 24.0173L401.781 22.8617L403.686 28.7335L397.221 24.0173ZM407.715 16.4276H399.688L397.221 8.86914L394.753 16.4276H386.726L393.223 21.1126L390.755 28.6711L397.252 23.9861L401.25 21.1126L407.715 16.4276Z" fill="white"/>
</g>
<path d="M255.722 68.8H254.222V54.44H259.342C262.382 54.44 264.282 56.02 264.282 58.78C264.282 60.94 262.862 62.56 260.602 62.94L264.662 68.8H262.862L259.002 63.12H255.722V68.8ZM255.722 55.7V61.86H259.222C261.422 61.86 262.782 60.78 262.782 58.78C262.782 56.78 261.422 55.7 259.222 55.7H255.722ZM273.063 68.8V66.88C272.443 68.2 271.163 69 269.523 69C267.343 69 265.923 67.78 265.923 65.88C265.923 63.82 267.562 62.74 270.763 62.74C271.403 62.74 271.883 62.78 272.923 62.86V61.98C272.923 60.22 271.983 59.18 270.383 59.18C268.663 59.18 267.583 60.24 267.562 61.96H266.283C266.343 59.62 267.963 58.06 270.363 58.06C272.823 58.06 274.263 59.5 274.263 61.94V68.8H273.063ZM267.263 65.84C267.263 67.12 268.243 67.98 269.723 67.98C271.683 67.98 272.923 66.7 272.923 64.72V63.78C272.023 63.7 271.403 63.68 270.823 63.68C268.423 63.68 267.263 64.38 267.263 65.84ZM282.569 67.46V68.7C282.029 68.92 281.569 69 281.049 69C279.309 69 277.969 68.1 277.969 65.82V59.44H275.489V58.26H277.969V55.14H279.369V58.26H282.669V59.44H279.369V65.52C279.369 67.16 280.169 67.72 281.329 67.72C281.769 67.72 282.129 67.64 282.569 67.46ZM288.594 69C285.634 69 283.674 66.78 283.674 63.44C283.674 60.36 285.714 58.06 288.514 58.06C291.514 58.06 293.474 60.48 293.234 63.86H285.074C285.194 66.36 286.514 67.9 288.574 67.9C290.334 67.9 291.554 66.92 291.894 65.24H293.274C292.794 67.58 291.014 69 288.594 69ZM288.494 59.14C286.594 59.14 285.254 60.6 285.074 62.9H291.774C291.654 60.54 290.434 59.14 288.494 59.14ZM294.572 63.52C294.572 60.28 296.372 58.06 299.212 58.06C300.792 58.06 302.132 58.96 302.832 60.46V54.44H304.232V68.8H302.932V66.58C302.192 68.12 300.832 69 299.212 69C296.372 69 294.572 66.76 294.572 63.52ZM295.992 63.52C295.992 66.2 297.352 67.78 299.412 67.78C301.452 67.78 302.852 66.12 302.852 63.48C302.852 60.82 301.412 59.28 299.412 59.28C297.352 59.28 295.992 60.84 295.992 63.52ZM320.286 65.58H318.466V68.8H317.086V65.58H310.506V64.64L317.486 55.28H318.466V64.36H320.286V65.58ZM312.126 64.36H317.086V57.56L312.126 64.36ZM324.742 67.64C324.742 68.36 324.222 68.9 323.482 68.9C322.762 68.9 322.222 68.36 322.222 67.64C322.222 66.88 322.762 66.36 323.482 66.36C324.222 66.36 324.742 66.88 324.742 67.64ZM331.164 69C328.704 69 326.824 67.34 326.744 65.04H328.104C328.224 66.7 329.464 67.76 331.164 67.76C333.224 67.76 334.404 66.48 334.404 64.58C334.404 62.88 333.124 61.52 331.204 61.52C329.904 61.52 328.904 62.08 328.244 63.12L327.164 62.8L328.344 55.28H335.064V56.5H329.344L328.604 61.38C329.424 60.64 330.344 60.32 331.384 60.32C334.144 60.32 335.824 62.24 335.824 64.56C335.824 67.1 334.064 69 331.164 69ZM346.384 72.66H345.064C343.424 70.16 342.524 66.86 342.524 63.54C342.524 60.24 343.424 56.94 345.064 54.44H346.384C344.724 56.94 343.924 60.24 343.924 63.54C343.924 66.86 344.724 70.16 346.384 72.66ZM352.358 55.1C355.058 55.1 357.058 57.04 357.058 59.52C357.058 61.18 356.398 62.22 355.258 63.66L351.198 68.8H349.598L353.658 63.64C353.118 63.86 352.558 63.94 352.058 63.94C349.538 63.94 347.638 62.2 347.638 59.56C347.638 57.04 349.638 55.1 352.358 55.1ZM352.338 56.26C350.438 56.26 349.078 57.64 349.078 59.52C349.078 61.54 350.438 62.88 352.338 62.88C354.198 62.88 355.618 61.72 355.618 59.56C355.618 57.64 354.198 56.26 352.338 56.26ZM363.125 68.98C360.445 68.98 358.605 67.4 358.545 65.06H359.905C359.985 66.76 361.245 67.84 363.125 67.84C365.065 67.84 366.245 66.78 366.245 65.08C366.245 63.46 364.925 62.42 362.845 62.42H361.505V61.26H362.805C364.465 61.26 365.625 60.2 365.625 58.68C365.625 57.22 364.545 56.22 363.005 56.22C361.405 56.22 360.345 57.22 360.265 58.78H358.925C358.985 56.66 360.745 55.08 363.045 55.08C365.445 55.08 367.065 56.54 367.065 58.62C367.065 60.02 366.225 61.14 364.745 61.76C366.605 62.22 367.685 63.42 367.685 65.06C367.685 67.38 365.845 68.98 363.125 68.98ZM370.731 72.66H369.411C371.051 70.16 371.871 66.86 371.871 63.54C371.871 60.24 371.051 56.94 369.411 54.44H370.731C372.371 56.94 373.271 60.24 373.271 63.54C373.271 66.86 372.371 70.16 370.731 72.66ZM384.885 69C381.985 69 379.885 66.7 379.885 63.52C379.885 60.36 381.985 58.08 384.885 58.08C387.805 58.08 389.905 60.36 389.905 63.52C389.905 66.7 387.805 69 384.885 69ZM384.885 67.78C386.945 67.78 388.485 66.14 388.485 63.52C388.485 60.94 386.945 59.3 384.885 59.3C382.845 59.3 381.305 60.94 381.305 63.52C381.305 66.14 382.845 67.78 384.885 67.78ZM393.568 62.66V68.8H392.168V58.26H393.468V60.24C394.148 58.94 395.428 58.06 396.948 58.06C399.148 58.06 400.568 59.46 400.568 61.96V68.8H399.168V62.44C399.168 60.42 398.248 59.28 396.528 59.28C394.888 59.28 393.568 60.7 393.568 62.66Z" fill="#5D778D"/>
<g clip-path="url(#clip1_1375_43110)">
<path d="M442.762 54.1765H455.056V56.4651H450.216V69.3664H447.562V56.4651H442.742L442.762 54.1765ZM454.53 58.3689H456.798V60.4955H456.838C456.92 60.1917 457.061 59.9082 457.264 59.6246C457.466 59.3411 457.709 59.0778 458.013 58.855C458.297 58.612 458.621 58.4297 458.985 58.2879C459.33 58.1461 459.694 58.0651 460.059 58.0651C460.342 58.0651 460.545 58.0854 460.646 58.0854C460.747 58.1056 460.869 58.1259 460.97 58.1259V60.455C460.808 60.4145 460.626 60.3942 460.444 60.374C460.261 60.3537 460.099 60.3335 459.917 60.3335C459.512 60.3335 459.127 60.4145 458.763 60.5765C458.398 60.7385 458.094 60.9816 457.811 61.2854C457.547 61.6094 457.325 61.9942 457.163 62.4601C457.001 62.9259 456.92 63.4727 456.92 64.0803V69.3056H454.489L454.53 58.3689ZM472.109 69.3664H469.72V67.8271H469.679C469.375 68.3942 468.93 68.8195 468.342 69.1639C467.755 69.5082 467.147 69.6702 466.54 69.6702C465.102 69.6702 464.049 69.3259 463.401 68.5968C462.752 67.8879 462.428 66.7942 462.428 65.3563V58.3689H464.859V65.1132C464.859 66.0854 465.041 66.774 465.426 67.1588C465.79 67.5638 466.317 67.7664 466.985 67.7664C467.492 67.7664 467.917 67.6854 468.261 67.5233C468.606 67.3613 468.889 67.1588 469.092 66.8955C469.315 66.6322 469.456 66.3082 469.558 65.9436C469.659 65.579 469.699 65.174 469.699 64.7487V58.3689H472.13V69.3664H472.109ZM476.241 65.8423C476.322 66.5512 476.585 67.0373 477.051 67.3411C477.517 67.6246 478.084 67.7664 478.732 67.7664C478.955 67.7664 479.218 67.7461 479.502 67.7056C479.785 67.6651 480.069 67.6044 480.312 67.5031C480.575 67.4018 480.778 67.2601 480.94 67.0575C481.102 66.855 481.183 66.612 481.163 66.3082C481.142 66.0044 481.041 65.7411 480.818 65.5385C480.596 65.336 480.332 65.1942 480.008 65.0525C479.684 64.9309 479.299 64.8297 478.874 64.7487C478.449 64.6676 478.023 64.5664 477.578 64.4651C477.132 64.3639 476.687 64.2423 476.261 64.1006C475.836 63.9588 475.472 63.7765 475.127 63.5132C474.803 63.2702 474.52 62.9664 474.337 62.5816C474.135 62.1968 474.034 61.7512 474.034 61.1841C474.034 60.5765 474.175 60.0904 474.479 59.6854C474.763 59.2803 475.147 58.9563 475.593 58.7132C476.039 58.4702 476.545 58.2879 477.092 58.1866C477.639 58.0854 478.165 58.0449 478.651 58.0449C479.218 58.0449 479.765 58.1056 480.272 58.2271C480.778 58.3487 481.264 58.5309 481.669 58.8145C482.094 59.0778 482.439 59.4423 482.702 59.8676C482.986 60.293 483.148 60.8195 483.229 61.4271H480.697C480.575 60.8398 480.312 60.455 479.907 60.2525C479.482 60.0499 479.016 59.9487 478.469 59.9487C478.307 59.9487 478.084 59.9689 477.861 59.9892C477.618 60.0297 477.416 60.0702 477.193 60.1512C476.991 60.2322 476.808 60.3537 476.666 60.4955C476.525 60.6373 476.444 60.8398 476.444 61.0828C476.444 61.3866 476.545 61.6094 476.747 61.7917C476.95 61.974 477.213 62.1158 477.558 62.2575C477.882 62.379 478.266 62.4803 478.692 62.5613C479.117 62.6423 479.563 62.7436 480.008 62.8449C480.454 62.9461 480.879 63.0676 481.304 63.2094C481.73 63.3512 482.115 63.5335 482.439 63.7968C482.763 64.0398 483.046 64.3436 483.249 64.7082C483.451 65.0727 483.553 65.5385 483.553 66.0651C483.553 66.7132 483.411 67.2601 483.107 67.7259C482.803 68.1714 482.418 68.5563 481.953 68.8398C481.487 69.1233 480.94 69.3259 480.373 69.4677C479.785 69.5892 479.218 69.6702 478.651 69.6702C477.963 69.6702 477.315 69.5892 476.727 69.4271C476.14 69.2651 475.613 69.0221 475.188 68.7183C474.763 68.3942 474.418 68.0094 474.175 67.5233C473.932 67.0575 473.791 66.4904 473.77 65.8221H476.221V65.8423H476.241ZM484.241 58.3689H486.084V55.0474H488.515V58.3487H490.702V60.1512H488.515V66.0246C488.515 66.2879 488.535 66.4904 488.555 66.693C488.575 66.8752 488.636 67.0373 488.697 67.1588C488.778 67.2803 488.899 67.3816 489.041 67.4423C489.203 67.5031 489.406 67.5436 489.689 67.5436C489.851 67.5436 490.034 67.5436 490.196 67.5233C490.358 67.5031 490.54 67.4828 490.702 67.4423V69.3259C490.439 69.3664 490.175 69.3866 489.912 69.4069C489.649 69.4474 489.406 69.4474 489.122 69.4474C488.474 69.4474 487.968 69.3866 487.583 69.2651C487.198 69.1436 486.894 68.9613 486.672 68.7385C486.449 68.4955 486.307 68.212 486.226 67.8676C486.145 67.5233 486.105 67.098 486.084 66.6525V60.1714H484.241V58.3284V58.3689ZM492.403 58.3689H494.692V59.8676H494.732C495.077 59.2195 495.543 58.774 496.15 58.4904C496.758 58.2069 497.406 58.0651 498.135 58.0651C499.006 58.0651 499.755 58.2069 500.403 58.5309C501.051 58.8347 501.578 59.2398 502.003 59.7866C502.429 60.3132 502.753 60.9411 502.955 61.6499C503.158 62.3588 503.279 63.1284 503.279 63.9183C503.279 64.6676 503.178 65.3765 502.996 66.0651C502.793 66.7537 502.51 67.3816 502.125 67.9082C501.74 68.4347 501.254 68.8601 500.646 69.1841C500.039 69.5082 499.35 69.6702 498.54 69.6702C498.196 69.6702 497.831 69.6297 497.487 69.5689C497.143 69.5082 496.798 69.4069 496.474 69.2651C496.15 69.1233 495.846 68.9411 495.583 68.7183C495.3 68.4955 495.077 68.2322 494.894 67.9487H494.854V73.4373H492.424V58.3689H492.403ZM500.889 63.8778C500.889 63.3917 500.829 62.9056 500.687 62.4398C500.565 61.974 500.363 61.5689 500.1 61.2044C499.836 60.8398 499.512 60.5563 499.148 60.3335C498.763 60.1107 498.317 60.0094 497.831 60.0094C496.819 60.0094 496.049 60.3537 495.522 61.0626C495.016 61.7714 494.753 62.7233 494.753 63.898C494.753 64.4651 494.813 64.9714 494.955 65.4373C495.097 65.9031 495.279 66.3082 495.563 66.6525C495.826 66.9968 496.15 67.2601 496.535 67.4626C496.92 67.6651 497.345 67.7664 497.851 67.7664C498.419 67.7664 498.864 67.6449 499.249 67.4221C499.634 67.1993 499.938 66.8955 500.201 66.5512C500.444 66.1866 500.626 65.7816 500.727 65.3158C500.829 64.8297 500.889 64.3639 500.889 63.8778ZM505.163 54.1765H507.593V56.4651H505.163V54.1765ZM505.163 58.3689H507.593V69.3664H505.163V58.3689ZM509.76 54.1765H512.191V69.3664H509.76V54.1765ZM519.604 69.6702C518.733 69.6702 517.943 69.5284 517.254 69.2246C516.566 68.9208 515.998 68.536 515.512 68.0297C515.047 67.5233 514.682 66.8955 514.439 66.1866C514.196 65.4778 514.054 64.6879 514.054 63.8575C514.054 63.0271 514.176 62.2575 514.439 61.5487C514.682 60.8398 515.047 60.2322 515.512 59.7056C515.978 59.1993 516.566 58.7942 517.254 58.5107C517.943 58.2271 518.733 58.0651 519.604 58.0651C520.474 58.0651 521.264 58.2069 521.953 58.5107C522.642 58.7942 523.209 59.1993 523.695 59.7056C524.16 60.212 524.525 60.8398 524.768 61.5487C525.011 62.2575 525.153 63.0271 525.153 63.8575C525.153 64.7082 525.031 65.4778 524.768 66.1866C524.505 66.8955 524.16 67.5031 523.695 68.0297C523.229 68.536 522.642 68.9411 521.953 69.2246C521.264 69.5082 520.495 69.6702 519.604 69.6702ZM519.604 67.7461C520.13 67.7461 520.616 67.6246 521.001 67.4018C521.406 67.179 521.71 66.8752 521.973 66.5107C522.236 66.1461 522.419 65.7208 522.54 65.2752C522.662 64.8094 522.723 64.3436 522.723 63.8575C522.723 63.3917 522.662 62.9259 522.54 62.4601C522.419 61.9942 522.236 61.5892 521.973 61.2246C521.71 60.8601 521.386 60.5765 521.001 60.3537C520.596 60.1309 520.13 60.0094 519.604 60.0094C519.077 60.0094 518.591 60.1309 518.206 60.3537C517.801 60.5765 517.497 60.8803 517.234 61.2246C516.971 61.5892 516.788 61.9942 516.667 62.4601C516.545 62.9259 516.484 63.3917 516.484 63.8575C516.484 64.3436 516.545 64.8094 516.667 65.2752C516.788 65.7411 516.971 66.1461 517.234 66.5107C517.497 66.8752 517.821 67.179 518.206 67.4018C518.611 67.6449 519.077 67.7461 519.604 67.7461ZM525.882 58.3689H527.725V55.0474H530.155V58.3487H532.343V60.1512H530.155V66.0246C530.155 66.2879 530.176 66.4904 530.196 66.693C530.216 66.8752 530.277 67.0373 530.338 67.1588C530.419 67.2803 530.54 67.3816 530.682 67.4423C530.844 67.5031 531.047 67.5436 531.33 67.5436C531.492 67.5436 531.674 67.5436 531.837 67.5233C531.999 67.5031 532.181 67.4828 532.343 67.4423V69.3259C532.08 69.3664 531.816 69.3866 531.553 69.4069C531.29 69.4474 531.047 69.4474 530.763 69.4474C530.115 69.4474 529.609 69.3866 529.224 69.2651C528.839 69.1436 528.535 68.9613 528.312 68.7385C528.09 68.4955 527.948 68.212 527.867 67.8676C527.786 67.5233 527.745 67.098 527.725 66.6525V60.1714H525.882V58.3284V58.3689Z" fill="#394C5E"/>
<path d="M439.92 54.1779H428.801L425.379 43.6057L421.935 54.1779L410.816 54.1576L419.809 60.6994L416.366 71.2715L425.358 64.7298L434.351 71.2715L430.928 60.6994L439.92 54.1779Z" fill="#00B67A"/>
<path d="M431.706 63.0893L430.936 60.6995L425.387 64.7298L431.706 63.0893Z" fill="#005128"/>
</g>
<path fill-rule="evenodd" clip-rule="evenodd" d="M586.078 14.2384C586.829 11.0928 585.301 8.15754 583.709 5.77816C581.956 3.15861 579.027 0.835974 575.756 -0.000732422C576.349 2.96802 578.078 5.52928 579.744 7.9379C581.398 10.3305 583.484 12.754 586.078 14.2384ZM583.208 14.6138C585.408 15.6246 587.43 17.7919 588.354 20.2775C587.771 17.7848 587.787 15.0562 588.346 12.7186C588.836 10.665 589.553 7.76251 591.9 6.78422C593.603 9.52114 594.285 13.2466 593.287 16.0362C592.567 18.055 591.271 20.7235 588.59 21.1341C586.131 21.6987 583.646 20.3851 581.684 19.3009C579.501 18.095 577.364 16.1778 576.067 13.8993C578.451 12.6981 581.164 13.6764 583.208 14.6138ZM586.429 23.868C588.32 25.216 589.77 27.6806 590.082 30.2109C590.109 27.6756 590.799 25.0582 591.907 22.9498C592.92 21.0209 594.334 18.4139 596.85 17.8943C597.837 20.8975 597.518 24.5707 595.92 27.002C594.711 28.8437 592.84 31.1499 590.117 31.0881C587.632 31.215 585.486 29.5175 583.797 28.1013C581.98 26.5776 580.342 24.3505 579.652 21.9436C582.19 21.2068 584.618 22.5765 586.429 23.868ZM587.345 33.3526C588.89 35.0087 589.719 37.6893 589.442 40.1686C590.06 37.68 591.348 35.2677 592.921 33.4351C594.379 31.7357 596.351 29.4886 598.954 29.4243C599.2 32.5804 597.968 35.7316 595.902 38.0796C594.294 39.9044 591.821 41.4553 589.287 41.0263C586.851 40.7286 584.989 38.6626 583.781 36.9921C582.483 35.1987 581.226 32.8045 581.174 30.2926C583.771 30.0154 585.857 31.7559 587.345 33.3526ZM585.753 42.4264C586.984 44.8747 587.219 47.7879 586.268 50.3526C587.67 47.7137 589.721 45.5795 591.892 43.6076C593.866 41.8153 596.709 39.9283 599.57 40.2856C599.024 43.823 596.86 47.4915 593.959 49.3772C591.627 50.8918 588.801 52.3917 585.832 51.2589C583.39 50.3975 581.838 47.9376 580.885 45.6804C579.876 43.2921 579.204 40.5387 579.675 37.9258C582.353 38.1658 584.575 40.0849 585.753 42.4264ZM582.035 51.7072C582.668 54.4792 582.128 57.432 580.578 59.7911C582.641 57.4295 585.384 55.4805 588.01 54.1137C590.549 52.7928 593.664 51.1996 596.71 52.1651C595.238 55.7511 592.091 59.0882 588.605 60.467C585.903 61.5362 582.612 62.5933 579.794 60.806C577.512 59.4289 576.594 56.5477 576.218 54.0786C575.816 51.4101 575.835 48.4679 576.945 45.938C579.608 46.6837 581.434 49.0816 582.035 51.7072ZM568.927 61.7317C568.589 64.3063 568.594 67.5724 570.593 69.5563C573.088 72.1156 576.956 71.6248 579.938 71.0641C583.944 70.3112 588.453 67.5834 590.872 63.9496C587.924 62.3232 584.314 63.3592 581.393 64.1981L581.225 64.2461C577.965 65.1812 574.49 66.6888 571.583 68.75C573.903 66.6565 575.594 63.5837 575.679 60.4852C575.757 57.713 574.556 54.746 571.968 53.4224C570.157 55.7938 569.309 58.8398 568.927 61.7317ZM557.307 76.8413C559.096 80.1471 563.487 80.5289 566.687 80.5965C571.463 80.6972 576.883 78.8299 580.7 75.5904C578.18 73.272 574.059 73.5369 570.892 73.7407L570.491 73.7663C566.549 74.0142 562.407 74.86 558.612 76.2715C561.889 74.677 565.054 71.8759 565.97 68.5884C566.739 65.8237 566.989 62.6419 564.409 60.4164C561.721 62.5178 559.84 65.4457 558.463 68.319C557.305 70.7359 555.852 74.0018 557.282 76.796L557.307 76.8413Z" fill="url(#paint2_linear_1375_43110)"/>
<defs>
<linearGradient id="paint0_linear_1375_43110" x1="30.8826" y1="0.203644" x2="31.307" y2="80.6003" gradientUnits="userSpaceOnUse">
<stop stop-color="#778EA1" stop-opacity="0.4"/>
<stop offset="1" stop-color="#778EA1" stop-opacity="0.1"/>
</linearGradient>
<linearGradient id="paint1_linear_1375_43110" x1="69.7894" y1="40.3" x2="168.885" y2="40.3001" gradientUnits="userSpaceOnUse">
<stop stop-color="#9F9FE5"/>
<stop offset="0.362584" stop-color="#4F4FBE"/>
<stop offset="0.64589" stop-color="#0071D2"/>
<stop offset="1" stop-color="#37A2FF"/>
</linearGradient>
<linearGradient id="paint2_linear_1375_43110" x1="569.117" y1="0.203644" x2="568.693" y2="80.6003" gradientUnits="userSpaceOnUse">
<stop stop-color="#778EA1" stop-opacity="0.4"/>
<stop offset="1" stop-color="#778EA1" stop-opacity="0.1"/>
</linearGradient>
<clipPath id="clip0_1375_43110">
<rect width="159.918" height="30" fill="white" transform="translate(252.299 3.80005)"/>
</clipPath>
<clipPath id="clip1_1375_43110">
<rect width="126.401" height="32" fill="white" transform="translate(406.299 41.8)"/>
</clipPath>
</defs>
</svg>
