<svg width="33" height="32" viewBox="0 0 33 32" fill="none" xmlns="http://www.w3.org/2000/svg">
<path fill-rule="evenodd" clip-rule="evenodd" d="M16.4826 1.33337C8.38241 1.33337 1.81592 7.89986 1.81592 16C1.81592 24.1002 8.38241 30.6667 16.4826 30.6667C24.5828 30.6667 31.1493 24.1002 31.1493 16C31.1493 7.89986 24.5828 1.33337 16.4826 1.33337ZM8.48258 16C8.48258 11.5818 12.0643 8.00004 16.4826 8.00004C16.9666 8.00004 17.4395 8.04287 17.898 8.12463C18.6229 8.2539 19.3154 7.77102 19.4447 7.04607C19.5739 6.32113 19.0911 5.62865 18.3661 5.49938C17.7538 5.39019 17.1243 5.33337 16.4826 5.33337C10.5915 5.33337 5.81592 10.109 5.81592 16C5.81592 18.2646 6.52308 20.3679 7.72859 22.0962C8.14987 22.7001 8.981 22.8482 9.58497 22.427C10.1889 22.0057 10.337 21.1745 9.91575 20.5706C9.01227 19.2753 8.48258 17.7015 8.48258 16ZM26.9037 13.7156C26.7467 12.9962 26.0361 12.5403 25.3167 12.6973C24.5973 12.8544 24.1414 13.565 24.2985 14.2844C24.4189 14.8359 24.4826 15.4098 24.4826 16.0001C24.4826 17.7015 23.9529 19.2753 23.0494 20.5705C22.6282 21.1745 22.7763 22.0056 23.3802 22.4269C23.9842 22.8482 24.8153 22.7001 25.2366 22.0961C26.4421 20.3679 27.1492 18.2645 27.1492 16.0001C27.1492 15.2173 27.0647 14.4527 26.9037 13.7156ZM23.4252 10.9429C23.9459 10.4222 23.9459 9.57793 23.4252 9.05723C22.9045 8.53653 22.0603 8.53653 21.5396 9.05723L17.1732 13.4237C16.9529 13.3648 16.7214 13.3334 16.4826 13.3334C15.0098 13.3334 13.8159 14.5273 13.8159 16C13.8159 17.4728 15.0098 18.6667 16.4826 18.6667C17.9553 18.6667 19.1493 17.4728 19.1493 16C19.1493 15.7611 19.1178 15.5295 19.0589 15.3092L23.4252 10.9429Z" fill="#A5B7C7"/>
</svg>
