<svg width="525" height="500" viewBox="0 0 525 500" fill="none" xmlns="http://www.w3.org/2000/svg">
<g opacity="0.2" filter="url(#filter0_b_264_23094)">
<circle cx="242" cy="250" r="170" fill="white"/>
<circle cx="242" cy="250" r="169.115" stroke="url(#paint0_linear_264_23094)" stroke-opacity="0.3" stroke-width="1.76912"/>
</g>
<g filter="url(#filter1_d_264_23094)">
<g clip-path="url(#clip0_264_23094)">
<rect width="238" height="64" rx="14" transform="matrix(0.981627 0.190809 0 1 44 119)" fill="white"/>
<g clip-path="url(#clip1_264_23094)">
<g clip-path="url(#clip2_264_23094)">
<g filter="url(#filter2_i_264_23094)">
<path d="M98.4347 161.072C98.445 161.878 98.4041 162.673 98.3019 163.456C98.1895 164.238 98.0259 164.999 97.7909 165.724C97.7398 165.905 97.6682 166.081 97.6069 166.27L97.5047 166.535L97.3923 166.799C97.3208 166.975 97.2492 167.152 97.1674 167.315L96.9222 167.817C96.5747 168.479 96.1761 169.099 95.7366 169.669C95.287 170.247 94.7964 170.765 94.2649 171.243C93.7233 171.719 93.151 172.147 92.548 172.516C91.9348 172.883 91.2909 173.202 90.6164 173.451C89.9418 173.711 89.2469 173.904 88.5213 174.037C87.8058 174.173 87.0598 174.239 86.3137 174.263C85.5676 174.277 84.8114 174.236 84.0551 174.131C83.2988 174.026 82.5425 173.858 81.7964 173.65C81.0504 173.431 80.3043 173.159 79.5787 172.827C78.853 172.496 78.1376 172.125 77.4529 171.696C76.7681 171.267 76.1038 170.799 75.4702 170.285C74.8365 169.771 74.2336 169.22 73.6612 168.623C73.0991 168.027 72.5575 167.415 72.0669 166.77C71.5763 166.114 71.1267 165.446 70.7178 164.742C70.309 164.05 69.9513 163.325 69.6243 162.596C69.3075 161.868 69.0418 161.119 68.8169 160.378C68.5921 159.626 68.4285 158.875 68.3059 158.122C68.1833 157.369 68.1219 156.628 68.1015 155.884C68.0913 155.153 68.1219 154.43 68.2037 153.716C68.2957 153.005 68.4183 152.31 68.6023 151.638C68.7863 150.965 69.0111 150.322 69.2973 149.701C70.4112 147.233 72.2611 145.278 74.5913 144.093C75.1738 143.794 75.787 143.554 76.4104 143.347C77.0441 143.153 77.6982 143.006 78.3727 142.904L78.8837 142.845C79.0574 142.826 79.2312 142.818 79.3947 142.807L79.6502 142.793L79.9057 142.79C80.0795 142.792 80.2532 142.784 80.4269 142.786C81.1219 142.794 81.8373 142.859 82.5425 142.954L82.5936 142.964C84.2799 143.218 85.7005 144.815 85.7925 146.556C85.8845 148.296 84.607 149.517 82.9411 149.288C82.8184 149.275 82.6856 149.239 82.5629 149.215C80.8868 148.762 79.1801 148.906 77.7493 149.59C76.3185 150.273 75.184 151.49 74.5708 153.009C74.4073 153.379 74.2949 153.791 74.2029 154.195C74.1109 154.6 74.0598 155.024 74.0292 155.451C74.0087 155.88 74.0087 156.324 74.0394 156.764C74.0803 157.205 74.1416 157.65 74.2438 158.082C74.6424 159.83 75.552 161.518 76.7784 162.845C77.085 163.169 77.412 163.486 77.7493 163.773C78.0865 164.061 78.4442 164.31 78.8019 164.549C79.1596 164.777 79.5378 164.977 79.9057 165.154C80.2839 165.334 80.662 165.471 81.0401 165.586C81.4183 165.702 81.8067 165.788 82.1848 165.851C82.5629 165.903 82.9411 165.935 83.309 165.932C83.6769 165.93 84.0346 165.915 84.3821 165.855C84.7296 165.796 85.0669 165.724 85.3939 165.608C86.6919 165.184 87.7752 164.338 88.5008 163.232C88.6848 162.961 88.8381 162.663 88.9812 162.363C89.1242 162.063 89.2367 161.747 89.3389 161.429L89.4104 161.189C89.4308 161.108 89.4513 161.017 89.4717 160.937C89.4819 160.896 89.4922 160.856 89.5024 160.816L89.5228 160.682C89.533 160.6 89.5637 160.511 89.5739 160.428C89.625 160.079 89.6557 159.725 89.6863 159.372L89.7068 159.112C89.8907 156.653 91.9859 155.2 94.3978 155.849C96.6564 156.457 98.3939 158.75 98.4347 161.072Z" fill="#0A8CFF"/>
</g>
<g filter="url(#filter3_i_264_23094)">
<path d="M91.3218 153.586C93.4163 153.993 95.1142 152.594 95.1142 150.46C95.1142 148.326 93.4163 146.266 91.3218 145.859C89.2272 145.452 87.5293 146.852 87.5293 148.986C87.5293 151.119 89.2272 153.179 91.3218 153.586Z" fill="url(#paint1_linear_264_23094)"/>
</g>
</g>
</g>
<path d="M122.588 169.576C122.588 172.076 120.625 173.595 117.209 172.93C113.813 172.27 111.751 169.97 111.575 167.075L113.773 167.503C113.872 169.342 115.01 170.743 117.17 171.163C118.956 171.51 120.291 170.91 120.291 169.43C120.291 168.23 119.526 167.481 117.896 166.804L115.854 166.007C113.872 165.222 112.065 163.851 112.065 161.411C112.065 158.991 114.146 157.575 117.072 158.144C119.997 158.712 122.215 160.964 122.392 163.858L120.193 163.431C120.075 161.688 118.858 160.251 117.091 159.908C115.265 159.553 114.264 160.458 114.264 161.698C114.264 163.058 115.423 163.763 116.738 164.299L118.819 165.123C121.234 166.093 122.588 167.436 122.588 169.576ZM126.914 168.637V174.617L124.931 174.232V159.872L126.914 160.257V165.717C127.601 164.711 128.662 164.157 130.095 164.435C132.235 164.851 133.648 166.526 133.648 169.066V175.926L131.665 175.541V169.361C131.665 167.541 130.88 166.368 129.408 166.082C128.053 165.818 126.914 166.757 126.914 168.637ZM140.64 177.485C137.695 176.913 135.535 174.133 135.535 170.993C135.535 167.853 137.695 165.913 140.64 166.485C143.585 167.057 145.744 169.837 145.744 172.977C145.744 176.117 143.585 178.057 140.64 177.485ZM140.64 175.705C142.348 176.037 143.703 174.9 143.703 172.58C143.703 170.26 142.348 168.617 140.64 168.285C138.932 167.953 137.597 169.073 137.597 171.393C137.597 173.713 138.932 175.373 140.64 175.705ZM156.135 180.297L153.779 171.959L151.403 179.377L149.401 178.988L146.397 167.804L148.341 168.182L150.441 176.31L152.797 169.048L154.76 169.43L157.077 177.62L159.178 170.288L161.141 170.67L158.118 180.682L156.135 180.297ZM164.741 175.99V181.97L162.759 181.584V170.984L164.604 171.343V173.103C165.311 172.061 166.489 171.509 167.922 171.788C170.062 172.204 171.475 173.879 171.475 176.419V183.279L169.493 182.893V176.713C169.493 174.893 168.707 173.721 167.235 173.435C165.88 173.171 164.741 174.11 164.741 175.99ZM188.067 186.504L186.791 182.696L180.705 181.513L179.409 184.821L177.23 184.397L182.629 171.087L185.004 171.549L190.364 186.95L188.067 186.504ZM183.768 173.708L181.353 179.859L186.143 180.79L183.768 173.708ZM195.659 188.2C192.812 187.646 190.81 184.977 190.81 181.737C190.81 178.537 192.851 176.634 195.659 177.18C198.231 177.679 200.096 179.782 200.469 182.615L198.388 182.21C198.172 180.468 197.131 179.246 195.678 178.963C193.97 178.631 192.851 179.894 192.851 182.134C192.851 184.394 193.97 186.071 195.678 186.403C197.151 186.69 198.172 185.888 198.407 184.214L200.469 184.615C200.115 187.346 198.27 188.707 195.659 188.2ZM206.472 190.301C203.625 189.748 201.623 187.079 201.623 183.839C201.623 180.639 203.665 178.736 206.472 179.281C209.044 179.781 210.909 181.884 211.282 184.716L209.201 184.312C208.985 182.57 207.944 181.348 206.492 181.065C204.784 180.733 203.665 181.996 203.665 184.236C203.665 186.496 204.784 188.173 206.492 188.505C207.964 188.791 208.985 187.99 209.221 186.316L211.282 186.716C210.929 189.448 209.083 190.809 206.472 190.301ZM217.54 192.433C214.596 191.861 212.436 189.081 212.436 185.941C212.436 182.801 214.596 180.861 217.54 181.433C220.485 182.005 222.645 184.785 222.645 187.925C222.645 191.065 220.485 193.005 217.54 192.433ZM217.54 190.653C219.248 190.985 220.603 189.848 220.603 187.528C220.603 185.208 219.248 183.565 217.54 183.233C215.832 182.901 214.497 184.021 214.497 186.341C214.497 188.661 215.832 190.321 217.54 190.653ZM231.165 190.521V184.281L233.148 184.667V195.267L231.302 194.908V193.228C230.752 194.221 229.535 194.764 228.122 194.49C226.021 194.081 224.568 192.539 224.568 189.819V182.999L226.551 183.384V189.804C226.551 191.644 227.454 192.58 228.75 192.832C230.085 193.091 231.165 192.181 231.165 190.521ZM237.884 190.207V196.187L235.901 195.802V185.202L237.747 185.561V187.321C238.454 186.278 239.632 185.727 241.065 186.006C243.205 186.422 244.618 188.096 244.618 190.636V197.496L242.635 197.111V190.931C242.635 189.111 241.85 187.938 240.378 187.652C239.023 187.389 237.884 188.327 237.884 190.207ZM253.083 197.182V198.962C252.475 199.123 251.944 199.12 251.316 198.998C249.392 198.624 248.057 197.305 248.057 194.965V189.285L245.76 188.838V187.118L248.057 187.565V184.425L250.04 184.81V187.95L253.181 188.561V190.281L250.04 189.67V194.89C250.04 196.35 250.727 197.004 251.787 197.21C252.259 197.301 252.671 197.302 253.083 197.182Z" fill="#131D27"/>
</g>
<rect x="0.981627" y="1.19081" width="236" height="62" rx="13" transform="matrix(0.981627 0.190809 0 1 44.018 118.813)" stroke="url(#paint2_linear_264_23094)" stroke-width="2"/>
</g>
<g filter="url(#filter4_d_264_23094)">
<g clip-path="url(#clip3_264_23094)">
<rect width="242.002" height="64.002" rx="14" transform="matrix(0.981627 0.190809 0 1 203 269)" fill="white"/>
<path d="M257.666 308.491L256.4 308.245V308.179L242.265 305.431V311.831L251.141 313.557C249.846 317.031 246.367 319.029 242.265 318.231C237.061 317.22 232.841 312.101 232.841 306.8C232.841 301.498 237.061 298.02 242.265 299.031C244.667 299.498 246.853 300.846 248.517 302.678L252.959 299.016C250.154 295.807 246.402 293.435 242.265 292.631C233.591 290.945 226.559 296.742 226.559 305.578C226.559 314.414 233.591 322.946 242.265 324.632C250.939 326.318 257.971 320.52 257.971 311.684C257.971 310.612 257.863 309.543 257.666 308.491Z" fill="#FBC02D"/>
<path d="M228.365 298.482L233.526 303.341C234.922 300.09 238.303 298.261 242.261 299.031C244.663 299.497 246.848 300.846 248.512 302.677L252.955 299.015C250.15 295.806 246.398 293.435 242.261 292.63C236.228 291.458 230.996 293.91 228.365 298.482Z" fill="#E53935"/>
<path d="M242.26 324.631C246.317 325.42 250.003 324.554 252.79 322.524L247.929 317.389C246.352 318.299 244.392 318.645 242.26 318.231C238.175 317.437 234.706 314.109 233.399 310.152L228.277 313.176C230.877 318.863 236.156 323.444 242.26 324.631Z" fill="#4CAF50"/>
<path d="M257.662 308.491L257.649 308.422L256.396 308.178L242.261 305.431V311.831L251.137 313.556C250.515 315.225 249.385 316.548 247.928 317.389C247.928 317.388 247.929 317.389 247.93 317.388L252.791 322.523C252.447 322.775 257.967 319.684 257.967 311.684C257.967 310.611 257.859 309.543 257.662 308.491Z" fill="#1565C0"/>
<path d="M277.664 323.314C273.6 322.524 270.459 318.774 270.459 314.414C270.459 310.174 273.443 307.534 277.546 308.331C281.178 309.037 283.632 311.774 284.496 314.922L281.983 314.434C281.453 312.491 279.902 310.769 277.487 310.3C274.699 309.758 272.697 311.509 272.697 314.889C272.697 318.069 274.601 320.839 277.742 321.45C280.354 321.957 282.003 320.638 282.395 318.254L277.526 317.308V315.548L284.673 316.937C284.751 321.552 281.983 324.154 277.664 323.314ZM291.129 325.832C288.184 325.259 286.025 322.48 286.025 319.34C286.025 316.2 288.184 314.259 291.129 314.832C294.074 315.404 296.234 318.184 296.234 321.324C296.234 324.464 294.074 326.404 291.129 325.832ZM291.129 324.052C292.837 324.384 294.192 323.247 294.192 320.927C294.192 318.607 292.837 316.964 291.129 316.632C289.421 316.3 288.086 317.42 288.086 319.74C288.086 322.06 289.421 323.72 291.129 324.052ZM302.614 328.064C299.669 327.492 297.509 324.712 297.509 321.572C297.509 318.432 299.669 316.492 302.614 317.064C305.558 317.636 307.718 320.416 307.718 323.556C307.718 326.696 305.558 328.636 302.614 328.064ZM302.614 326.284C304.322 326.616 305.676 325.479 305.676 323.159C305.676 320.839 304.322 319.196 302.614 318.864C300.906 318.532 299.571 319.653 299.571 321.973C299.571 324.293 300.906 325.952 302.614 326.284ZM313.71 334.101C310.981 333.571 309.214 331.747 309.096 329.324L311.02 329.698C311.138 331.201 312.08 332.184 313.69 332.497C315.477 332.844 316.419 332.048 316.419 330.228V328.308C315.83 329.473 314.652 329.984 313.239 329.709C310.647 329.206 308.802 326.667 308.802 323.547C308.802 320.387 310.569 318.61 313.18 319.118C314.672 319.408 315.85 320.377 316.557 321.854V319.974L318.402 320.333V330.573C318.402 333.353 316.655 334.673 313.71 334.101ZM310.804 323.936C310.804 326.136 311.864 327.682 313.592 328.018C315.28 328.346 316.419 327.188 316.419 325.088C316.419 322.888 315.3 321.27 313.592 320.938C311.884 320.606 310.804 321.756 310.804 323.936ZM323.15 331.856L321.147 331.467V317.107L323.15 317.496V331.856ZM330.182 333.423C327.178 332.839 325.156 330.226 325.156 326.886C325.156 323.746 327.256 321.854 330.123 322.411C333.225 323.014 335.286 325.975 334.933 329.346L327.178 327.839C327.335 330.029 328.395 331.495 330.142 331.835C331.615 332.121 332.636 331.5 332.97 330.185L334.933 330.566C334.422 332.827 332.636 333.9 330.182 333.423ZM330.084 323.924C328.493 323.615 327.413 324.565 327.198 326.503L332.832 327.598C332.734 325.619 331.693 324.237 330.084 323.924ZM350.999 337.269L349.723 333.461L343.637 332.278L342.341 335.586L340.162 335.163L345.561 321.852L347.937 322.314L353.296 337.716L350.999 337.269ZM346.7 324.474L344.285 330.624L349.075 331.555L346.7 324.474ZM358.591 338.965C355.744 338.412 353.742 335.742 353.742 332.502C353.742 329.302 355.784 327.399 358.591 327.945C361.163 328.445 363.028 330.547 363.401 333.38L361.32 332.975C361.104 331.233 360.063 330.011 358.611 329.729C356.903 329.397 355.784 330.659 355.784 332.899C355.784 335.159 356.903 336.837 358.611 337.169C360.083 337.455 361.104 336.653 361.34 334.979L363.401 335.38C363.048 338.111 361.202 339.473 358.591 338.965ZM369.404 341.067C366.558 340.514 364.555 337.844 364.555 334.604C364.555 331.404 366.597 329.501 369.404 330.047C371.976 330.547 373.841 332.649 374.214 335.482L372.133 335.077C371.917 333.335 370.877 332.113 369.424 331.831C367.716 331.499 366.597 332.761 366.597 335.001C366.597 337.261 367.716 338.939 369.424 339.271C370.896 339.557 371.917 338.755 372.153 337.081L374.214 337.482C373.861 340.213 372.015 341.574 369.404 341.067ZM380.473 343.198C377.528 342.626 375.368 339.846 375.368 336.706C375.368 333.566 377.528 331.626 380.473 332.198C383.418 332.771 385.577 335.551 385.577 338.691C385.577 341.831 383.418 343.771 380.473 343.198ZM380.473 341.418C382.181 341.75 383.535 340.614 383.535 338.294C383.535 335.974 382.181 334.33 380.473 333.998C378.765 333.666 377.43 334.787 377.43 337.107C377.43 339.427 378.765 341.086 380.473 341.418ZM394.097 341.287V335.047L396.08 335.432V346.032L394.234 345.673V343.993C393.685 344.986 392.467 345.53 391.054 345.255C388.953 344.847 387.5 343.304 387.5 340.584V333.764L389.483 334.15V340.57C389.483 342.41 390.386 343.345 391.682 343.597C393.017 343.857 394.097 342.947 394.097 341.287ZM400.817 340.973V346.953L398.834 346.567V335.967L400.679 336.326V338.086C401.386 337.043 402.564 336.492 403.997 336.771C406.137 337.187 407.55 338.862 407.55 341.402V348.262L405.568 347.876V341.696C405.568 339.876 404.782 338.704 403.31 338.417C401.955 338.154 400.817 339.093 400.817 340.973ZM416.015 347.947V349.727C415.407 349.889 414.877 349.886 414.249 349.764C412.325 349.39 410.99 348.07 410.99 345.73V340.05L408.693 339.604V337.884L410.99 338.33V335.19L412.972 335.576V338.716L416.114 339.326V341.046L412.972 340.436V345.656C412.972 347.116 413.66 347.769 414.72 347.975C415.191 348.067 415.603 348.067 416.015 347.947Z" fill="#131D27"/>
</g>
</g>
<path d="M248.762 229.114C248.372 228.528 247.885 227.399 247.037 225.945C246.55 225.142 245.355 223.564 244.993 222.799C244.732 222.327 244.657 221.799 244.784 221.342C245.003 220.47 245.855 220.029 246.773 220.312C247.483 220.596 248.136 221.077 248.65 221.697C249.009 222.111 249.34 222.55 249.638 223.008C249.86 223.335 249.916 223.459 250.166 223.833C250.416 224.208 250.583 224.566 250.458 224.06C250.361 223.333 250.194 222.11 249.958 221.002C249.777 220.159 249.735 220.024 249.568 219.382C249.401 218.741 249.304 218.212 249.123 217.482C248.958 216.768 248.828 216.053 248.734 215.338C248.558 214.414 248.686 213.515 249.095 212.788C249.581 212.417 250.294 212.432 250.903 212.827C251.516 213.407 251.973 214.14 252.21 214.923C252.575 215.901 252.818 216.902 252.933 217.897C253.156 219.357 253.587 221.509 253.601 221.937C253.601 221.413 253.504 220.289 253.601 219.812C253.697 219.314 254.05 218.953 254.533 218.86C254.947 218.811 255.385 218.867 255.812 219.023C256.243 219.199 256.625 219.526 256.883 219.94C257.205 220.829 257.384 221.741 257.411 222.635C257.449 221.864 257.579 221.119 257.801 220.416C258.033 220.127 258.372 219.953 258.76 219.922C259.22 219.926 259.691 220.018 260.151 220.193C260.528 220.394 260.858 220.7 261.097 221.071C261.391 221.879 261.569 222.707 261.625 223.525C261.625 223.723 261.722 222.991 262.028 222.555C262.187 222.105 262.586 221.825 263.074 221.819C263.562 221.814 264.066 222.085 264.395 222.53C264.725 222.974 264.829 223.525 264.67 223.975C264.67 224.896 264.67 224.854 264.67 225.477C264.67 226.1 264.67 226.653 264.67 227.177C264.62 227.996 264.508 228.798 264.337 229.577C264.095 230.248 263.758 230.864 263.335 231.408C262.66 232.042 262.102 232.798 261.681 233.651C261.576 234.095 261.529 234.562 261.542 235.04C261.54 235.48 261.596 235.929 261.708 236.376C261.14 236.327 260.567 236.215 259.998 236.044C259.456 235.853 258.788 234.618 258.607 234.243C258.518 234.043 258.335 233.892 258.134 233.854C257.934 233.815 257.751 233.894 257.662 234.06C257.356 234.538 256.674 235.383 256.201 235.348C255.27 235.28 253.351 234.794 251.835 234.499C251.835 234.499 252.085 233.131 251.515 232.511C250.945 231.89 250.361 231.181 249.93 230.701L248.762 229.114Z" fill="white"/>
<path fill-rule="evenodd" clip-rule="evenodd" d="M248.762 229.114C248.372 228.528 247.885 227.399 247.037 225.945C246.55 225.142 245.355 223.564 244.993 222.799C244.732 222.327 244.657 221.799 244.784 221.342C245.003 220.47 245.855 220.029 246.773 220.312C247.483 220.596 248.136 221.077 248.65 221.697C249.009 222.111 249.34 222.55 249.638 223.008C249.86 223.335 249.916 223.459 250.166 223.833C250.416 224.208 250.583 224.566 250.458 224.06C250.361 223.333 250.194 222.11 249.958 221.002C249.777 220.159 249.735 220.024 249.568 219.382C249.401 218.741 249.304 218.212 249.123 217.482C248.958 216.768 248.828 216.053 248.734 215.338C248.558 214.414 248.686 213.515 249.095 212.788C249.581 212.417 250.294 212.432 250.903 212.827C251.516 213.407 251.973 214.14 252.21 214.923C252.575 215.901 252.818 216.902 252.933 217.897C253.156 219.357 253.587 221.509 253.601 221.937C253.601 221.413 253.504 220.289 253.601 219.812C253.697 219.314 254.05 218.953 254.533 218.86C254.947 218.811 255.385 218.867 255.812 219.023C256.243 219.199 256.625 219.526 256.883 219.94C257.205 220.829 257.384 221.741 257.411 222.635C257.449 221.864 257.579 221.119 257.801 220.416C258.033 220.127 258.372 219.953 258.76 219.922C259.22 219.926 259.691 220.018 260.151 220.193C260.528 220.394 260.858 220.7 261.097 221.071C261.391 221.879 261.569 222.707 261.625 223.525C261.625 223.723 261.722 222.991 262.028 222.555C262.187 222.105 262.586 221.825 263.074 221.819C263.562 221.814 264.066 222.085 264.395 222.53C264.725 222.974 264.829 223.525 264.67 223.975C264.67 224.896 264.67 224.854 264.67 225.477C264.67 226.1 264.67 226.653 264.67 227.177C264.62 227.996 264.508 228.798 264.337 229.577C264.095 230.248 263.758 230.864 263.335 231.408C262.66 232.042 262.102 232.798 261.681 233.651C261.576 234.095 261.529 234.562 261.542 235.04C261.54 235.48 261.596 235.929 261.708 236.376C261.14 236.327 260.567 236.215 259.998 236.044C259.456 235.853 258.788 234.618 258.607 234.243C258.518 234.043 258.335 233.892 258.134 233.854C257.934 233.815 257.751 233.894 257.662 234.06C257.356 234.538 256.674 235.383 256.201 235.348C255.27 235.28 253.351 234.794 251.835 234.499C251.835 234.499 252.085 233.131 251.515 232.511C250.945 231.89 250.361 231.181 249.93 230.701L248.762 229.114Z" stroke="#131D27" stroke-width="1.0625" stroke-linecap="round" stroke-linejoin="round"/>
<path d="M260.553 232.179V227.289C260.553 226.996 260.319 226.714 260.031 226.658C259.743 226.602 259.51 226.794 259.51 227.086V231.976C259.51 232.269 259.743 232.552 260.031 232.608C260.319 232.664 260.553 232.472 260.553 232.179Z" fill="#131D27"/>
<path d="M257.799 231.642L257.771 226.744C257.77 226.452 257.535 226.171 257.247 226.117C256.959 226.062 256.727 226.255 256.729 226.548L256.756 231.446C256.758 231.738 256.993 232.019 257.281 232.073C257.569 232.127 257.801 231.934 257.799 231.642Z" fill="#131D27"/>
<path d="M253.947 226.012L253.975 230.9C253.977 231.195 254.212 231.478 254.5 231.533C254.788 231.587 255.02 231.392 255.018 231.096L254.99 226.209C254.989 225.913 254.754 225.63 254.466 225.576C254.178 225.522 253.946 225.717 253.947 226.012Z" fill="#131D27"/>
<defs>
<filter id="filter0_b_264_23094" x="1.23529" y="9.23529" width="481.529" height="481.529" filterUnits="userSpaceOnUse" color-interpolation-filters="sRGB">
<feFlood flood-opacity="0" result="BackgroundImageFix"/>
<feGaussianBlur in="BackgroundImageFix" stdDeviation="35.3824"/>
<feComposite in2="SourceAlpha" operator="in" result="effect1_backgroundBlur_264_23094"/>
<feBlend mode="normal" in="SourceGraphic" in2="effect1_backgroundBlur_264_23094" result="shape"/>
</filter>
<filter id="filter1_d_264_23094" x="0" y="73" width="361.627" height="237.413" filterUnits="userSpaceOnUse" color-interpolation-filters="sRGB">
<feFlood flood-opacity="0" result="BackgroundImageFix"/>
<feColorMatrix in="SourceAlpha" type="matrix" values="0 0 0 0 0 0 0 0 0 0 0 0 0 0 0 0 0 0 127 0" result="hardAlpha"/>
<feOffset dx="20" dy="18"/>
<feGaussianBlur stdDeviation="32"/>
<feComposite in2="hardAlpha" operator="out"/>
<feColorMatrix type="matrix" values="0 0 0 0 0.0745098 0 0 0 0 0.113725 0 0 0 0 0.152941 0 0 0 0.06 0"/>
<feBlend mode="normal" in2="BackgroundImageFix" result="effect1_dropShadow_264_23094"/>
<feBlend mode="normal" in="SourceGraphic" in2="effect1_dropShadow_264_23094" result="shape"/>
</filter>
<filter id="filter2_i_264_23094" x="68.0996" y="140.027" width="30.3369" height="34.2392" filterUnits="userSpaceOnUse" color-interpolation-filters="sRGB">
<feFlood flood-opacity="0" result="BackgroundImageFix"/>
<feBlend mode="normal" in="SourceGraphic" in2="BackgroundImageFix" result="shape"/>
<feColorMatrix in="SourceAlpha" type="matrix" values="0 0 0 0 0 0 0 0 0 0 0 0 0 0 0 0 0 0 127 0" result="hardAlpha"/>
<feOffset dy="-2.75862"/>
<feGaussianBlur stdDeviation="1.93103"/>
<feComposite in2="hardAlpha" operator="arithmetic" k2="-1" k3="1"/>
<feColorMatrix type="matrix" values="0 0 0 0 0 0 0 0 0 0.429333 0 0 0 0 0.933333 0 0 0 0.6 0"/>
<feBlend mode="normal" in2="shape" result="effect1_innerShadow_264_23094"/>
</filter>
<filter id="filter3_i_264_23094" x="87.5293" y="145.382" width="7.58496" height="8.27457" filterUnits="userSpaceOnUse" color-interpolation-filters="sRGB">
<feFlood flood-opacity="0" result="BackgroundImageFix"/>
<feBlend mode="normal" in="SourceGraphic" in2="BackgroundImageFix" result="shape"/>
<feColorMatrix in="SourceAlpha" type="matrix" values="0 0 0 0 0 0 0 0 0 0 0 0 0 0 0 0 0 0 127 0" result="hardAlpha"/>
<feOffset dy="-0.406829"/>
<feGaussianBlur stdDeviation="1.16237"/>
<feComposite in2="hardAlpha" operator="arithmetic" k2="-1" k3="1"/>
<feColorMatrix type="matrix" values="0 0 0 0 0.905882 0 0 0 0 0 0 0 0 0 0.65098 0 0 0 0.3 0"/>
<feBlend mode="normal" in2="shape" result="effect1_innerShadow_264_23094"/>
</filter>
<filter id="filter4_d_264_23094" x="159" y="223" width="365.556" height="238.178" filterUnits="userSpaceOnUse" color-interpolation-filters="sRGB">
<feFlood flood-opacity="0" result="BackgroundImageFix"/>
<feColorMatrix in="SourceAlpha" type="matrix" values="0 0 0 0 0 0 0 0 0 0 0 0 0 0 0 0 0 0 127 0" result="hardAlpha"/>
<feOffset dx="20" dy="18"/>
<feGaussianBlur stdDeviation="32"/>
<feComposite in2="hardAlpha" operator="out"/>
<feColorMatrix type="matrix" values="0 0 0 0 0.0745098 0 0 0 0 0.113725 0 0 0 0 0.152941 0 0 0 0.06 0"/>
<feBlend mode="normal" in2="BackgroundImageFix" result="effect1_dropShadow_264_23094"/>
<feBlend mode="normal" in="SourceGraphic" in2="effect1_dropShadow_264_23094" result="shape"/>
</filter>
<linearGradient id="paint0_linear_264_23094" x1="242" y1="80" x2="242" y2="420" gradientUnits="userSpaceOnUse">
<stop stop-color="white" stop-opacity="0"/>
<stop offset="1" stop-color="white"/>
</linearGradient>
<linearGradient id="paint1_linear_264_23094" x1="91.3218" y1="145.859" x2="89.8745" y2="153.305" gradientUnits="userSpaceOnUse">
<stop stop-color="#FF6BC1"/>
<stop offset="1" stop-color="#E700A6"/>
</linearGradient>
<linearGradient id="paint2_linear_264_23094" x1="0" y1="31.9994" x2="238" y2="31.9994" gradientUnits="userSpaceOnUse">
<stop stop-color="#57E1FF" stop-opacity="0.6"/>
<stop offset="0.421002" stop-color="#0188FF"/>
<stop offset="1" stop-color="#FF6BC1"/>
</linearGradient>
<clipPath id="clip0_264_23094">
<rect width="238" height="64" rx="14" transform="matrix(0.981627 0.190809 0 1 44 119)" fill="white"/>
</clipPath>
<clipPath id="clip1_264_23094">
<rect width="32" height="32" fill="white" transform="matrix(0.981627 0.190809 0 1 67.5586 139.579)"/>
</clipPath>
<clipPath id="clip2_264_23094">
<rect width="30.9045" height="30.908" fill="white" transform="matrix(0.981627 0.190809 0 1 68.0996 140.143)"/>
</clipPath>
<clipPath id="clip3_264_23094">
<rect width="242.002" height="64.002" rx="14" transform="matrix(0.981627 0.190809 0 1 203 269)" fill="white"/>
</clipPath>
</defs>
</svg>
