<svg width="522" height="500" viewBox="0 0 522 500" fill="none" xmlns="http://www.w3.org/2000/svg">
<g opacity="0.2" filter="url(#filter0_b_322_12561)">
<circle cx="242" cy="250" r="170" fill="white"/>
<circle cx="242" cy="250" r="169.115" stroke="url(#paint0_linear_322_12561)" stroke-opacity="0.3" stroke-width="1.76912"/>
</g>
<g filter="url(#filter1_d_322_12561)">
<g clip-path="url(#clip0_322_12561)">
<rect width="238" height="64" rx="14" transform="matrix(0.981627 0.190809 0 1 44 129)" fill="white"/>
<g clip-path="url(#clip1_322_12561)">
<g clip-path="url(#clip2_322_12561)">
<g filter="url(#filter2_i_322_12561)">
<path d="M98.4347 171.072C98.445 171.878 98.4041 172.673 98.3019 173.456C98.1895 174.238 98.0259 174.999 97.7909 175.724C97.7398 175.905 97.6682 176.081 97.6069 176.27L97.5047 176.535L97.3923 176.799C97.3208 176.975 97.2492 177.152 97.1674 177.315L96.9222 177.817C96.5747 178.479 96.1761 179.099 95.7366 179.669C95.287 180.247 94.7964 180.765 94.2649 181.243C93.7233 181.719 93.151 182.147 92.548 182.516C91.9348 182.883 91.2909 183.202 90.6164 183.451C89.9418 183.711 89.2469 183.904 88.5213 184.037C87.8058 184.173 87.0598 184.239 86.3137 184.263C85.5676 184.277 84.8114 184.236 84.0551 184.131C83.2988 184.026 82.5425 183.858 81.7964 183.65C81.0504 183.431 80.3043 183.159 79.5787 182.827C78.853 182.496 78.1376 182.125 77.4529 181.696C76.7681 181.267 76.1038 180.799 75.4702 180.285C74.8365 179.771 74.2336 179.22 73.6612 178.623C73.0991 178.027 72.5575 177.415 72.0669 176.77C71.5763 176.114 71.1267 175.446 70.7178 174.742C70.309 174.05 69.9513 173.325 69.6243 172.596C69.3075 171.868 69.0418 171.119 68.8169 170.378C68.5921 169.626 68.4285 168.875 68.3059 168.122C68.1833 167.369 68.1219 166.628 68.1015 165.884C68.0913 165.153 68.1219 164.43 68.2037 163.716C68.2957 163.005 68.4183 162.31 68.6023 161.638C68.7863 160.965 69.0111 160.322 69.2973 159.701C70.4112 157.233 72.2611 155.278 74.5913 154.093C75.1738 153.794 75.787 153.554 76.4104 153.347C77.0441 153.153 77.6982 153.006 78.3727 152.904L78.8837 152.845C79.0574 152.826 79.2312 152.818 79.3947 152.807L79.6502 152.793L79.9057 152.79C80.0795 152.792 80.2532 152.784 80.4269 152.786C81.1219 152.794 81.8373 152.859 82.5425 152.954L82.5936 152.964C84.2799 153.218 85.7005 154.815 85.7925 156.556C85.8845 158.296 84.607 159.517 82.9411 159.288C82.8184 159.275 82.6856 159.239 82.5629 159.215C80.8868 158.762 79.1801 158.906 77.7493 159.59C76.3185 160.273 75.184 161.49 74.5708 163.009C74.4073 163.379 74.2949 163.791 74.2029 164.195C74.1109 164.6 74.0598 165.024 74.0292 165.451C74.0087 165.88 74.0087 166.324 74.0394 166.764C74.0803 167.205 74.1416 167.65 74.2438 168.082C74.6424 169.83 75.552 171.518 76.7784 172.845C77.085 173.169 77.412 173.486 77.7493 173.773C78.0865 174.061 78.4442 174.31 78.8019 174.549C79.1596 174.777 79.5378 174.977 79.9057 175.154C80.2839 175.334 80.662 175.471 81.0401 175.586C81.4183 175.702 81.8067 175.788 82.1848 175.851C82.5629 175.903 82.9411 175.935 83.309 175.932C83.6769 175.93 84.0346 175.915 84.3821 175.855C84.7296 175.796 85.0669 175.724 85.3939 175.608C86.6919 175.184 87.7752 174.338 88.5008 173.232C88.6848 172.961 88.8381 172.663 88.9812 172.363C89.1242 172.063 89.2367 171.747 89.3389 171.429L89.4104 171.189C89.4308 171.108 89.4513 171.017 89.4717 170.937C89.4819 170.896 89.4922 170.856 89.5024 170.816L89.5228 170.682C89.533 170.6 89.5637 170.511 89.5739 170.428C89.625 170.079 89.6557 169.725 89.6863 169.372L89.7068 169.112C89.8907 166.653 91.9859 165.2 94.3978 165.849C96.6564 166.457 98.3939 168.75 98.4347 171.072Z" fill="#0A8CFF"/>
</g>
<g filter="url(#filter3_i_322_12561)">
<path d="M91.3213 163.586C93.4158 163.993 95.1137 162.594 95.1137 160.46C95.1137 158.326 93.4158 156.266 91.3213 155.859C89.2268 155.452 87.5288 156.852 87.5288 158.986C87.5288 161.119 89.2268 163.179 91.3213 163.586Z" fill="url(#paint1_linear_322_12561)"/>
</g>
</g>
</g>
<path d="M122.589 179.576C122.589 182.076 120.626 183.595 117.21 182.93C113.813 182.27 111.752 179.97 111.575 177.075L113.774 177.503C113.872 179.342 115.011 180.743 117.17 181.163C118.957 181.51 120.292 180.91 120.292 179.43C120.292 178.23 119.526 177.481 117.897 176.804L115.855 176.007C113.872 175.222 112.066 173.851 112.066 171.411C112.066 168.991 114.147 167.575 117.072 168.144C119.997 168.712 122.216 170.964 122.393 173.858L120.194 173.431C120.076 171.688 118.859 170.251 117.092 169.908C115.266 169.553 114.265 170.458 114.265 171.698C114.265 173.058 115.423 173.763 116.738 174.299L118.819 175.123C121.234 176.093 122.589 177.436 122.589 179.576ZM126.915 178.637V184.617L124.932 184.232V169.872L126.915 170.257V175.717C127.602 174.711 128.662 174.157 130.095 174.435C132.235 174.851 133.649 176.526 133.649 179.066V185.926L131.666 185.541V179.361C131.666 177.541 130.881 176.368 129.408 176.082C128.054 175.818 126.915 176.757 126.915 178.637ZM140.64 187.485C137.696 186.913 135.536 184.133 135.536 180.993C135.536 177.853 137.696 175.913 140.64 176.485C143.585 177.057 145.745 179.837 145.745 182.977C145.745 186.117 143.585 188.057 140.64 187.485ZM140.64 185.705C142.348 186.037 143.703 184.9 143.703 182.58C143.703 180.26 142.348 178.617 140.64 178.285C138.932 177.953 137.597 179.073 137.597 181.393C137.597 183.713 138.932 185.373 140.64 185.705ZM156.135 190.297L153.779 181.959L151.404 189.377L149.401 188.988L146.398 177.804L148.341 178.182L150.442 186.31L152.798 179.048L154.761 179.43L157.078 187.62L159.178 180.288L161.142 180.67L158.118 190.682L156.135 190.297ZM164.742 185.99V191.97L162.759 191.584V180.984L164.605 181.343V183.103C165.311 182.061 166.489 181.509 167.922 181.788C170.062 182.204 171.476 183.879 171.476 186.419V193.279L169.493 192.893V186.713C169.493 184.893 168.708 183.721 167.235 183.435C165.881 183.171 164.742 184.11 164.742 185.99ZM188.068 196.504L186.791 192.696L180.705 191.513L179.41 194.821L177.23 194.397L182.629 181.087L185.005 181.549L190.365 196.95L188.068 196.504ZM183.768 183.708L181.353 189.859L186.144 190.79L183.768 183.708ZM195.659 198.2C192.813 197.646 190.81 194.977 190.81 191.737C190.81 188.537 192.852 186.634 195.659 187.18C198.231 187.679 200.096 189.782 200.469 192.615L198.388 192.21C198.172 190.468 197.132 189.246 195.679 188.963C193.971 188.631 192.852 189.894 192.852 192.134C192.852 194.394 193.971 196.071 195.679 196.403C197.151 196.69 198.172 195.888 198.408 194.214L200.469 194.615C200.116 197.346 198.27 198.707 195.659 198.2ZM206.472 200.301C203.626 199.748 201.623 197.079 201.623 193.839C201.623 190.639 203.665 188.736 206.472 189.281C209.044 189.781 210.909 191.884 211.282 194.716L209.201 194.312C208.985 192.57 207.945 191.348 206.492 191.065C204.784 190.733 203.665 191.996 203.665 194.236C203.665 196.496 204.784 198.173 206.492 198.505C207.965 198.791 208.985 197.99 209.221 196.316L211.282 196.716C210.929 199.448 209.084 200.809 206.472 200.301ZM217.541 202.433C214.596 201.861 212.436 199.081 212.436 195.941C212.436 192.801 214.596 190.861 217.541 191.433C220.486 192.005 222.645 194.785 222.645 197.925C222.645 201.065 220.486 203.005 217.541 202.433ZM217.541 200.653C219.249 200.985 220.604 199.848 220.604 197.528C220.604 195.208 219.249 193.565 217.541 193.233C215.833 192.901 214.498 194.021 214.498 196.341C214.498 198.661 215.833 200.321 217.541 200.653ZM231.165 200.521V194.281L233.148 194.667V205.267L231.303 204.908V203.228C230.753 204.221 229.536 204.764 228.122 204.49C226.021 204.081 224.569 202.539 224.569 199.819V192.999L226.552 193.384V199.804C226.552 201.644 227.455 202.58 228.75 202.832C230.085 203.091 231.165 202.181 231.165 200.521ZM237.885 200.207V206.187L235.902 205.802V195.202L237.747 195.561V197.321C238.454 196.278 239.632 195.727 241.065 196.006C243.205 196.422 244.619 198.096 244.619 200.636V207.496L242.636 207.111V200.931C242.636 199.111 241.85 197.938 240.378 197.652C239.023 197.389 237.885 198.327 237.885 200.207ZM253.084 207.182V208.962C252.475 209.123 251.945 209.12 251.317 208.998C249.393 208.624 248.058 207.305 248.058 204.965V199.285L245.761 198.838V197.118L248.058 197.565V194.425L250.041 194.81V197.95L253.182 198.561V200.281L250.041 199.67V204.89C250.041 206.35 250.728 207.004 251.788 207.21C252.259 207.301 252.671 207.302 253.084 207.182Z" fill="#131D27"/>
</g>
<rect x="0.981627" y="1.19081" width="236" height="62" rx="13" transform="matrix(0.981627 0.190809 0 1 44.018 128.813)" stroke="url(#paint2_linear_322_12561)" stroke-width="2"/>
</g>
<g filter="url(#filter4_d_322_12561)">
<g clip-path="url(#clip3_322_12561)">
<rect width="306" height="64" rx="14" transform="matrix(0.981627 0.190809 0 1 137 249)" fill="white"/>
<path d="M176.265 272.632C167.591 270.946 160.559 276.743 160.559 285.58C160.559 294.416 167.591 302.946 176.265 304.633C184.94 306.319 191.971 300.522 191.971 291.685C191.971 282.849 184.94 274.319 176.265 272.632Z" fill="url(#paint3_linear_322_12561)"/>
<path d="M178.39 293.287L182.455 294.077L183.094 289.995L178.39 289.08V286.781C178.39 285.034 178.951 283.593 180.556 283.905L183.134 284.406V280.736C182.681 280.585 181.723 280.263 179.912 279.911C176.132 279.176 173.916 280.779 173.916 285.413V288.211L170.029 287.456V291.662L173.915 292.418V303.979C174.685 304.246 175.464 304.477 176.265 304.633C176.988 304.773 177.694 304.843 178.39 304.883V293.287Z" fill="white"/>
<path d="M207.441 302.192L205.282 301.773V287.413L213.842 289.077V290.997L207.441 289.752V294.432L212.899 295.493V297.413L207.441 296.352V302.192ZM221.722 304.968V303.328C221.075 304.382 219.916 304.817 218.385 304.52C216.225 304.1 214.812 302.565 214.812 300.625C214.812 298.545 216.441 297.782 219.543 298.385C220.152 298.503 220.643 298.619 221.487 298.883V298.103C221.487 296.583 220.682 295.566 219.308 295.299C217.855 295.017 216.971 295.725 216.912 297.193L215.106 296.842C215.204 294.481 216.873 293.226 219.308 293.699C221.879 294.199 223.372 295.969 223.372 298.489V305.289L221.722 304.968ZM216.696 300.931C216.696 302.031 217.501 302.908 218.778 303.156C220.446 303.48 221.487 302.623 221.487 301.003V300.143C220.721 299.894 220.171 299.767 219.661 299.668C217.678 299.282 216.696 299.691 216.696 300.931ZM230.126 306.822C227.279 306.269 225.277 303.599 225.277 300.359C225.277 297.159 227.318 295.256 230.126 295.802C232.698 296.302 234.563 298.404 234.936 301.237L232.855 300.832C232.639 299.09 231.598 297.868 230.146 297.586C228.437 297.254 227.318 298.516 227.318 300.756C227.318 303.016 228.437 304.694 230.146 305.026C231.618 305.312 232.639 304.51 232.874 302.836L234.936 303.237C234.582 305.968 232.737 307.329 230.126 306.822ZM241.116 308.938C238.112 308.354 236.09 305.741 236.09 302.401C236.09 299.261 238.191 297.37 241.057 297.927C244.159 298.53 246.22 301.49 245.867 304.862L238.112 303.354C238.269 305.545 239.329 307.011 241.077 307.35C242.549 307.637 243.57 307.015 243.904 305.7L245.867 306.082C245.356 308.342 243.57 309.415 241.116 308.938ZM241.018 299.439C239.427 299.13 238.348 300.08 238.132 302.018L243.766 303.113C243.668 301.134 242.628 299.752 241.018 299.439ZM257.909 306.702C257.909 309.882 256.103 311.851 253.296 311.306C251.823 311.019 250.567 310.015 249.821 308.53V310.43L247.975 310.071V295.711L249.958 296.097V301.677C250.684 300.518 251.882 300.031 253.296 300.306C256.083 300.848 257.909 303.482 257.909 306.702ZM255.848 306.302C255.848 303.902 254.611 302.341 252.903 302.009C251.254 301.689 249.958 302.737 249.958 305.117C249.958 307.457 251.214 309.101 252.903 309.429C254.611 309.761 255.848 308.662 255.848 306.302ZM264.278 313.44C261.333 312.868 259.173 310.088 259.173 306.948C259.173 303.808 261.333 301.868 264.278 302.44C267.223 303.013 269.382 305.793 269.382 308.933C269.382 312.073 267.223 314.013 264.278 313.44ZM264.278 311.66C265.986 311.992 267.341 310.856 267.341 308.536C267.341 306.216 265.986 304.572 264.278 304.24C262.57 303.908 261.235 305.029 261.235 307.349C261.235 309.669 262.57 311.328 264.278 311.66ZM275.762 315.673C272.817 315.1 270.658 312.32 270.658 309.18C270.658 306.04 272.817 304.1 275.762 304.673C278.707 305.245 280.867 308.025 280.867 311.165C280.867 314.305 278.707 316.245 275.762 315.673ZM275.762 313.893C277.47 314.225 278.825 313.088 278.825 310.768C278.825 308.448 277.47 306.805 275.762 306.473C274.054 306.141 272.719 307.261 272.719 309.581C272.719 311.901 274.054 313.561 275.762 313.893ZM284.871 317.243L282.888 316.858V302.498L284.871 302.883V311.383L289.328 307.51L291.664 307.964L286.854 312.169L292.115 318.651L289.563 318.155L284.871 312.223V317.243ZM307.468 321.636L306.192 317.828L300.106 316.645L298.81 319.953L296.631 319.529L302.03 306.219L304.405 306.68L309.765 322.082L307.468 321.636ZM303.168 308.84L300.754 314.991L305.544 315.922L303.168 308.84ZM310.21 316.869C310.21 313.649 312.017 311.72 314.824 312.266C316.218 312.537 317.435 313.493 318.162 314.934V309.354L320.144 309.74V324.1L318.299 323.741V321.841C317.553 323.036 316.296 323.552 314.824 323.266C312.017 322.72 310.21 320.049 310.21 316.869ZM312.272 317.269C312.272 319.629 313.489 321.206 315.217 321.542C316.905 321.87 318.162 320.714 318.162 318.374C318.162 315.994 316.866 314.442 315.217 314.122C313.489 313.786 312.272 314.869 312.272 317.269ZM331.147 323.078C331.147 325.158 329.556 326.129 326.788 325.591C324.04 325.057 322.41 323.36 322.214 321.042L324.118 321.412C324.197 322.747 325.237 323.77 326.827 324.079C328.221 324.35 329.144 324.029 329.144 323.029C329.144 322.149 328.614 321.666 327.318 321.154L325.63 320.506C323.706 319.752 322.626 318.542 322.626 316.942C322.626 315.082 324.216 314.091 326.631 314.561C329.124 315.045 330.813 316.733 330.989 318.948L329.085 318.578C328.967 317.275 328.045 316.355 326.651 316.084C325.394 315.84 324.55 316.216 324.55 317.136C324.55 317.996 325.08 318.499 326.337 318.983L328.103 319.667C330.165 320.448 331.147 321.558 331.147 323.078ZM347.27 329.372L345.994 325.564L339.908 324.381L338.612 327.689L336.433 327.266L341.832 313.955L344.207 314.417L349.567 329.819L347.27 329.372ZM342.97 316.577L340.556 322.727L345.346 323.658L342.97 316.577ZM354.862 331.068C352.015 330.515 350.012 327.845 350.012 324.605C350.012 321.405 352.054 319.502 354.862 320.048C357.433 320.548 359.299 322.651 359.672 325.483L357.59 325.079C357.375 323.337 356.334 322.114 354.881 321.832C353.173 321.5 352.054 322.762 352.054 325.002C352.054 327.262 353.173 328.94 354.881 329.272C356.354 329.558 357.375 328.757 357.61 327.082L359.672 327.483C359.318 330.214 357.473 331.576 354.862 331.068ZM365.675 333.17C362.828 332.617 360.826 329.947 360.826 326.707C360.826 323.507 362.867 321.604 365.675 322.15C368.247 322.65 370.112 324.752 370.485 327.585L368.404 327.18C368.188 325.438 367.147 324.216 365.694 323.934C363.986 323.602 362.867 324.864 362.867 327.104C362.867 329.364 363.986 331.042 365.694 331.374C367.167 331.66 368.188 330.858 368.423 329.184L370.485 329.585C370.131 332.316 368.286 333.677 365.675 333.17ZM376.743 335.301C373.798 334.729 371.639 331.949 371.639 328.809C371.639 325.669 373.798 323.729 376.743 324.301C379.688 324.874 381.848 327.654 381.848 330.794C381.848 333.934 379.688 335.874 376.743 335.301ZM376.743 333.521C378.451 333.853 379.806 332.717 379.806 330.397C379.806 328.077 378.451 326.433 376.743 326.101C375.035 325.769 373.7 326.89 373.7 329.21C373.7 331.53 375.035 333.189 376.743 333.521ZM390.367 333.39V327.15L392.35 327.535V338.135L390.505 337.776V336.096C389.955 337.09 388.738 337.633 387.324 337.358C385.224 336.95 383.771 335.407 383.771 332.687V325.867L385.754 326.253V332.673C385.754 334.513 386.657 335.448 387.953 335.7C389.288 335.96 390.367 335.05 390.367 333.39ZM397.087 333.076V339.056L395.104 338.67V328.07L396.95 328.429V330.189C397.656 329.147 398.834 328.595 400.267 328.874C402.407 329.29 403.821 330.965 403.821 333.505V340.365L401.838 339.979V333.799C401.838 331.979 401.053 330.807 399.58 330.521C398.226 330.257 397.087 331.196 397.087 333.076ZM412.286 340.05V341.83C411.677 341.992 411.147 341.989 410.519 341.867C408.595 341.493 407.26 340.173 407.26 337.833V332.153L404.963 331.707V329.987L407.26 330.433V327.293L409.243 327.679V330.819L412.384 331.429V333.149L409.243 332.539V337.759C409.243 339.219 409.93 339.872 410.99 340.078C411.461 340.17 411.874 340.17 412.286 340.05Z" fill="#131D27"/>
</g>
</g>
<path d="M248.762 239.114C248.372 238.528 247.885 237.399 247.037 235.945C246.55 235.142 245.355 233.564 244.993 232.799C244.732 232.327 244.657 231.799 244.784 231.342C245.003 230.47 245.855 230.029 246.773 230.312C247.483 230.596 248.136 231.077 248.65 231.697C249.009 232.111 249.34 232.55 249.638 233.008C249.86 233.335 249.916 233.459 250.166 233.833C250.416 234.208 250.583 234.566 250.458 234.06C250.361 233.333 250.194 232.11 249.958 231.002C249.777 230.159 249.735 230.024 249.568 229.382C249.401 228.741 249.304 228.212 249.123 227.482C248.958 226.768 248.828 226.053 248.734 225.338C248.558 224.414 248.686 223.515 249.095 222.788C249.581 222.417 250.294 222.432 250.903 222.827C251.516 223.407 251.973 224.14 252.21 224.923C252.575 225.901 252.818 226.902 252.933 227.897C253.156 229.357 253.587 231.509 253.601 231.937C253.601 231.413 253.504 230.289 253.601 229.812C253.697 229.314 254.05 228.953 254.533 228.86C254.947 228.811 255.385 228.867 255.812 229.023C256.243 229.199 256.625 229.526 256.883 229.94C257.205 230.829 257.384 231.741 257.411 232.635C257.449 231.864 257.579 231.119 257.801 230.416C258.033 230.127 258.372 229.953 258.76 229.922C259.22 229.926 259.691 230.018 260.151 230.193C260.528 230.394 260.858 230.7 261.097 231.071C261.391 231.879 261.569 232.707 261.625 233.525C261.625 233.723 261.722 232.991 262.028 232.555C262.187 232.105 262.586 231.825 263.074 231.819C263.562 231.814 264.066 232.085 264.395 232.53C264.725 232.974 264.829 233.525 264.67 233.975C264.67 234.896 264.67 234.854 264.67 235.477C264.67 236.1 264.67 236.653 264.67 237.177C264.62 237.996 264.508 238.798 264.337 239.577C264.095 240.248 263.758 240.864 263.335 241.408C262.66 242.042 262.102 242.798 261.681 243.651C261.576 244.095 261.529 244.562 261.542 245.04C261.54 245.48 261.596 245.929 261.708 246.376C261.14 246.327 260.567 246.215 259.998 246.044C259.456 245.853 258.788 244.618 258.607 244.243C258.518 244.043 258.335 243.892 258.134 243.854C257.934 243.815 257.751 243.894 257.662 244.06C257.356 244.538 256.674 245.383 256.201 245.348C255.27 245.28 253.351 244.794 251.835 244.499C251.835 244.499 252.085 243.131 251.515 242.511C250.945 241.89 250.361 241.181 249.93 240.701L248.762 239.114Z" fill="white"/>
<path fill-rule="evenodd" clip-rule="evenodd" d="M248.762 239.114C248.372 238.528 247.885 237.399 247.037 235.945C246.55 235.142 245.355 233.564 244.993 232.799C244.732 232.327 244.657 231.799 244.784 231.342C245.003 230.47 245.855 230.029 246.773 230.312C247.483 230.596 248.136 231.077 248.65 231.697C249.009 232.111 249.34 232.55 249.638 233.008C249.86 233.335 249.916 233.459 250.166 233.833C250.416 234.208 250.583 234.566 250.458 234.06C250.361 233.333 250.194 232.11 249.958 231.002C249.777 230.159 249.735 230.024 249.568 229.382C249.401 228.741 249.304 228.212 249.123 227.482C248.958 226.768 248.828 226.053 248.734 225.338C248.558 224.414 248.686 223.515 249.095 222.788C249.581 222.417 250.294 222.432 250.903 222.827C251.516 223.407 251.973 224.14 252.21 224.923C252.575 225.901 252.818 226.902 252.933 227.897C253.156 229.357 253.587 231.509 253.601 231.937C253.601 231.413 253.504 230.289 253.601 229.812C253.697 229.314 254.05 228.953 254.533 228.86C254.947 228.811 255.385 228.867 255.812 229.023C256.243 229.199 256.625 229.526 256.883 229.94C257.205 230.829 257.384 231.741 257.411 232.635C257.449 231.864 257.579 231.119 257.801 230.416C258.033 230.127 258.372 229.953 258.76 229.922C259.22 229.926 259.691 230.018 260.151 230.193C260.528 230.394 260.858 230.7 261.097 231.071C261.391 231.879 261.569 232.707 261.625 233.525C261.625 233.723 261.722 232.991 262.028 232.555C262.187 232.105 262.586 231.825 263.074 231.819C263.562 231.814 264.066 232.085 264.395 232.53C264.725 232.974 264.829 233.525 264.67 233.975C264.67 234.896 264.67 234.854 264.67 235.477C264.67 236.1 264.67 236.653 264.67 237.177C264.62 237.996 264.508 238.798 264.337 239.577C264.095 240.248 263.758 240.864 263.335 241.408C262.66 242.042 262.102 242.798 261.681 243.651C261.576 244.095 261.529 244.562 261.542 245.04C261.54 245.48 261.596 245.929 261.708 246.376C261.14 246.327 260.567 246.215 259.998 246.044C259.456 245.853 258.788 244.618 258.607 244.243C258.518 244.043 258.335 243.892 258.134 243.854C257.934 243.815 257.751 243.894 257.662 244.06C257.356 244.538 256.674 245.383 256.201 245.348C255.27 245.28 253.351 244.794 251.835 244.499C251.835 244.499 252.085 243.131 251.515 242.511C250.945 241.89 250.361 241.181 249.93 240.701L248.762 239.114Z" stroke="#131D27" stroke-width="1.0625" stroke-linecap="round" stroke-linejoin="round"/>
<path d="M260.553 242.179V237.289C260.553 236.996 260.32 236.714 260.032 236.658C259.744 236.602 259.51 236.794 259.51 237.086V241.976C259.51 242.269 259.744 242.552 260.032 242.608C260.32 242.664 260.553 242.472 260.553 242.179Z" fill="#131D27"/>
<path d="M257.799 241.642L257.771 236.744C257.77 236.452 257.535 236.171 257.247 236.117C256.959 236.062 256.727 236.255 256.729 236.548L256.756 241.446C256.758 241.738 256.993 242.019 257.281 242.073C257.569 242.127 257.801 241.934 257.799 241.642Z" fill="#131D27"/>
<path d="M253.947 236.012L253.975 240.9C253.977 241.195 254.212 241.478 254.5 241.533C254.788 241.587 255.02 241.392 255.018 241.096L254.99 236.209C254.989 235.913 254.754 235.63 254.466 235.576C254.178 235.522 253.946 235.717 253.947 236.012Z" fill="#131D27"/>
<defs>
<filter id="filter0_b_322_12561" x="1.23529" y="9.23529" width="481.529" height="481.529" filterUnits="userSpaceOnUse" color-interpolation-filters="sRGB">
<feFlood flood-opacity="0" result="BackgroundImageFix"/>
<feGaussianBlur in="BackgroundImageFix" stdDeviation="35.3824"/>
<feComposite in2="SourceAlpha" operator="in" result="effect1_backgroundBlur_322_12561"/>
<feBlend mode="normal" in="SourceGraphic" in2="effect1_backgroundBlur_322_12561" result="shape"/>
</filter>
<filter id="filter1_d_322_12561" x="0" y="83" width="361.627" height="237.413" filterUnits="userSpaceOnUse" color-interpolation-filters="sRGB">
<feFlood flood-opacity="0" result="BackgroundImageFix"/>
<feColorMatrix in="SourceAlpha" type="matrix" values="0 0 0 0 0 0 0 0 0 0 0 0 0 0 0 0 0 0 127 0" result="hardAlpha"/>
<feOffset dx="20" dy="18"/>
<feGaussianBlur stdDeviation="32"/>
<feComposite in2="hardAlpha" operator="out"/>
<feColorMatrix type="matrix" values="0 0 0 0 0.0745098 0 0 0 0 0.113725 0 0 0 0 0.152941 0 0 0 0.06 0"/>
<feBlend mode="normal" in2="BackgroundImageFix" result="effect1_dropShadow_322_12561"/>
<feBlend mode="normal" in="SourceGraphic" in2="effect1_dropShadow_322_12561" result="shape"/>
</filter>
<filter id="filter2_i_322_12561" x="68.0996" y="150.027" width="30.3364" height="34.2392" filterUnits="userSpaceOnUse" color-interpolation-filters="sRGB">
<feFlood flood-opacity="0" result="BackgroundImageFix"/>
<feBlend mode="normal" in="SourceGraphic" in2="BackgroundImageFix" result="shape"/>
<feColorMatrix in="SourceAlpha" type="matrix" values="0 0 0 0 0 0 0 0 0 0 0 0 0 0 0 0 0 0 127 0" result="hardAlpha"/>
<feOffset dy="-2.75862"/>
<feGaussianBlur stdDeviation="1.93103"/>
<feComposite in2="hardAlpha" operator="arithmetic" k2="-1" k3="1"/>
<feColorMatrix type="matrix" values="0 0 0 0 0 0 0 0 0 0.429333 0 0 0 0 0.933333 0 0 0 0.6 0"/>
<feBlend mode="normal" in2="shape" result="effect1_innerShadow_322_12561"/>
</filter>
<filter id="filter3_i_322_12561" x="87.5288" y="155.382" width="7.58496" height="8.27457" filterUnits="userSpaceOnUse" color-interpolation-filters="sRGB">
<feFlood flood-opacity="0" result="BackgroundImageFix"/>
<feBlend mode="normal" in="SourceGraphic" in2="BackgroundImageFix" result="shape"/>
<feColorMatrix in="SourceAlpha" type="matrix" values="0 0 0 0 0 0 0 0 0 0 0 0 0 0 0 0 0 0 127 0" result="hardAlpha"/>
<feOffset dy="-0.406829"/>
<feGaussianBlur stdDeviation="1.16237"/>
<feComposite in2="hardAlpha" operator="arithmetic" k2="-1" k3="1"/>
<feColorMatrix type="matrix" values="0 0 0 0 0.905882 0 0 0 0 0 0 0 0 0 0.65098 0 0 0 0.3 0"/>
<feBlend mode="normal" in2="shape" result="effect1_innerShadow_322_12561"/>
</filter>
<filter id="filter4_d_322_12561" x="93" y="203" width="428.378" height="250.388" filterUnits="userSpaceOnUse" color-interpolation-filters="sRGB">
<feFlood flood-opacity="0" result="BackgroundImageFix"/>
<feColorMatrix in="SourceAlpha" type="matrix" values="0 0 0 0 0 0 0 0 0 0 0 0 0 0 0 0 0 0 127 0" result="hardAlpha"/>
<feOffset dx="20" dy="18"/>
<feGaussianBlur stdDeviation="32"/>
<feComposite in2="hardAlpha" operator="out"/>
<feColorMatrix type="matrix" values="0 0 0 0 0.0745098 0 0 0 0 0.113725 0 0 0 0 0.152941 0 0 0 0.06 0"/>
<feBlend mode="normal" in2="BackgroundImageFix" result="effect1_dropShadow_322_12561"/>
<feBlend mode="normal" in="SourceGraphic" in2="effect1_dropShadow_322_12561" result="shape"/>
</filter>
<linearGradient id="paint0_linear_322_12561" x1="242" y1="80" x2="242" y2="420" gradientUnits="userSpaceOnUse">
<stop stop-color="white" stop-opacity="0"/>
<stop offset="1" stop-color="white"/>
</linearGradient>
<linearGradient id="paint1_linear_322_12561" x1="91.3213" y1="155.859" x2="89.874" y2="163.305" gradientUnits="userSpaceOnUse">
<stop stop-color="#FF6BC1"/>
<stop offset="1" stop-color="#E700A6"/>
</linearGradient>
<linearGradient id="paint2_linear_322_12561" x1="0" y1="31.9994" x2="238" y2="31.9994" gradientUnits="userSpaceOnUse">
<stop stop-color="#57E1FF" stop-opacity="0.6"/>
<stop offset="0.421002" stop-color="#0188FF"/>
<stop offset="1" stop-color="#FF6BC1"/>
</linearGradient>
<linearGradient id="paint3_linear_322_12561" x1="165.265" y1="275.289" x2="189.313" y2="304.461" gradientUnits="userSpaceOnUse">
<stop stop-color="#2AA4F4"/>
<stop offset="1" stop-color="#007AD9"/>
</linearGradient>
<clipPath id="clip0_322_12561">
<rect width="238" height="64" rx="14" transform="matrix(0.981627 0.190809 0 1 44 129)" fill="white"/>
</clipPath>
<clipPath id="clip1_322_12561">
<rect width="32" height="32" fill="white" transform="matrix(0.981627 0.190809 0 1 67.5591 149.579)"/>
</clipPath>
<clipPath id="clip2_322_12561">
<rect width="30.9045" height="30.908" fill="white" transform="matrix(0.981627 0.190809 0 1 68.0996 150.143)"/>
</clipPath>
<clipPath id="clip3_322_12561">
<rect width="306" height="64" rx="14" transform="matrix(0.981627 0.190809 0 1 137 249)" fill="white"/>
</clipPath>
</defs>
</svg>
