<svg width="513" height="500" viewBox="0 0 513 500" fill="none" xmlns="http://www.w3.org/2000/svg">
<g opacity="0.2" filter="url(#filter0_b_322_12098)">
<circle cx="242" cy="250" r="170" fill="white"/>
<circle cx="242" cy="250" r="169.115" stroke="url(#paint0_linear_322_12098)" stroke-opacity="0.3" stroke-width="1.76912"/>
</g>
<g filter="url(#filter1_d_322_12098)">
<g clip-path="url(#clip0_322_12098)">
<rect width="238" height="64" rx="14" transform="matrix(0.981627 0.190809 0 1 44 129)" fill="white"/>
<g clip-path="url(#clip1_322_12098)">
<g clip-path="url(#clip2_322_12098)">
<g filter="url(#filter2_i_322_12098)">
<path d="M98.4347 171.072C98.445 171.878 98.4041 172.673 98.3019 173.456C98.1895 174.238 98.0259 174.999 97.7909 175.724C97.7398 175.905 97.6682 176.081 97.6069 176.27L97.5047 176.535L97.3923 176.799C97.3208 176.975 97.2492 177.152 97.1674 177.315L96.9222 177.817C96.5747 178.479 96.1761 179.099 95.7366 179.669C95.287 180.247 94.7964 180.765 94.2649 181.243C93.7233 181.719 93.151 182.147 92.548 182.516C91.9348 182.883 91.2909 183.202 90.6164 183.451C89.9418 183.711 89.2469 183.904 88.5213 184.037C87.8058 184.173 87.0598 184.239 86.3137 184.263C85.5676 184.277 84.8114 184.236 84.0551 184.131C83.2988 184.026 82.5425 183.858 81.7964 183.65C81.0504 183.431 80.3043 183.159 79.5787 182.827C78.853 182.496 78.1376 182.125 77.4529 181.696C76.7681 181.267 76.1038 180.799 75.4702 180.285C74.8365 179.771 74.2336 179.22 73.6612 178.623C73.0991 178.027 72.5575 177.415 72.0669 176.77C71.5763 176.114 71.1267 175.446 70.7178 174.742C70.309 174.05 69.9513 173.325 69.6243 172.596C69.3075 171.868 69.0418 171.119 68.8169 170.378C68.5921 169.626 68.4285 168.875 68.3059 168.122C68.1833 167.369 68.1219 166.628 68.1015 165.884C68.0913 165.153 68.1219 164.43 68.2037 163.716C68.2957 163.005 68.4183 162.31 68.6023 161.638C68.7863 160.965 69.0111 160.322 69.2973 159.701C70.4112 157.233 72.2611 155.278 74.5913 154.093C75.1738 153.794 75.787 153.554 76.4104 153.347C77.0441 153.153 77.6982 153.006 78.3727 152.904L78.8837 152.845C79.0574 152.826 79.2312 152.818 79.3947 152.807L79.6502 152.793L79.9057 152.79C80.0795 152.792 80.2532 152.784 80.4269 152.786C81.1219 152.794 81.8373 152.859 82.5425 152.954L82.5936 152.964C84.2799 153.218 85.7005 154.815 85.7925 156.556C85.8845 158.296 84.607 159.517 82.9411 159.288C82.8184 159.275 82.6856 159.239 82.5629 159.215C80.8868 158.762 79.1801 158.906 77.7493 159.59C76.3185 160.273 75.184 161.49 74.5708 163.009C74.4073 163.379 74.2949 163.791 74.2029 164.195C74.1109 164.6 74.0598 165.024 74.0292 165.451C74.0087 165.88 74.0087 166.324 74.0394 166.764C74.0803 167.205 74.1416 167.65 74.2438 168.082C74.6424 169.83 75.552 171.518 76.7784 172.845C77.085 173.169 77.412 173.486 77.7493 173.773C78.0865 174.061 78.4442 174.31 78.8019 174.549C79.1596 174.777 79.5378 174.977 79.9057 175.154C80.2839 175.334 80.662 175.471 81.0401 175.586C81.4183 175.702 81.8067 175.788 82.1848 175.851C82.5629 175.903 82.9411 175.935 83.309 175.932C83.6769 175.93 84.0346 175.915 84.3821 175.855C84.7296 175.796 85.0669 175.724 85.3939 175.608C86.6919 175.184 87.7752 174.338 88.5008 173.232C88.6848 172.961 88.8381 172.663 88.9812 172.363C89.1242 172.063 89.2367 171.747 89.3389 171.429L89.4104 171.189C89.4308 171.108 89.4513 171.017 89.4717 170.937C89.4819 170.896 89.4922 170.856 89.5024 170.816L89.5228 170.682C89.533 170.6 89.5637 170.511 89.5739 170.428C89.625 170.079 89.6557 169.725 89.6863 169.372L89.7068 169.112C89.8907 166.653 91.9859 165.2 94.3978 165.849C96.6564 166.457 98.3939 168.75 98.4347 171.072Z" fill="#0A8CFF"/>
</g>
<g filter="url(#filter3_i_322_12098)">
<path d="M91.3213 163.586C93.4158 163.993 95.1137 162.594 95.1137 160.46C95.1137 158.326 93.4158 156.266 91.3213 155.859C89.2268 155.452 87.5288 156.852 87.5288 158.986C87.5288 161.119 89.2268 163.179 91.3213 163.586Z" fill="url(#paint1_linear_322_12098)"/>
</g>
</g>
</g>
<path d="M122.589 179.576C122.589 182.076 120.626 183.595 117.21 182.93C113.813 182.27 111.752 179.97 111.575 177.075L113.774 177.503C113.872 179.342 115.011 180.743 117.17 181.163C118.957 181.51 120.292 180.91 120.292 179.43C120.292 178.23 119.526 177.481 117.897 176.804L115.855 176.007C113.872 175.222 112.066 173.851 112.066 171.411C112.066 168.991 114.147 167.575 117.072 168.144C119.997 168.712 122.216 170.964 122.393 173.858L120.194 173.431C120.076 171.688 118.859 170.251 117.092 169.908C115.266 169.553 114.265 170.458 114.265 171.698C114.265 173.058 115.423 173.763 116.738 174.299L118.819 175.123C121.234 176.093 122.589 177.436 122.589 179.576ZM126.915 178.637V184.617L124.932 184.232V169.872L126.915 170.257V175.717C127.602 174.711 128.662 174.157 130.095 174.435C132.235 174.851 133.649 176.526 133.649 179.066V185.926L131.666 185.541V179.361C131.666 177.541 130.881 176.368 129.408 176.082C128.054 175.818 126.915 176.757 126.915 178.637ZM140.64 187.485C137.696 186.913 135.536 184.133 135.536 180.993C135.536 177.853 137.696 175.913 140.64 176.485C143.585 177.057 145.745 179.837 145.745 182.977C145.745 186.117 143.585 188.057 140.64 187.485ZM140.64 185.705C142.348 186.037 143.703 184.9 143.703 182.58C143.703 180.26 142.348 178.617 140.64 178.285C138.932 177.953 137.597 179.073 137.597 181.393C137.597 183.713 138.932 185.373 140.64 185.705ZM156.135 190.297L153.779 181.959L151.404 189.377L149.401 188.988L146.398 177.804L148.341 178.182L150.442 186.31L152.798 179.048L154.761 179.43L157.078 187.62L159.178 180.288L161.142 180.67L158.118 190.682L156.135 190.297ZM164.742 185.99V191.97L162.759 191.584V180.984L164.605 181.343V183.103C165.311 182.061 166.489 181.509 167.922 181.788C170.062 182.204 171.476 183.879 171.476 186.419V193.279L169.493 192.893V186.713C169.493 184.893 168.708 183.721 167.235 183.435C165.881 183.171 164.742 184.11 164.742 185.99ZM188.068 196.504L186.791 192.696L180.705 191.513L179.41 194.821L177.23 194.397L182.629 181.087L185.005 181.549L190.365 196.95L188.068 196.504ZM183.768 183.708L181.353 189.859L186.144 190.79L183.768 183.708ZM195.659 198.2C192.813 197.646 190.81 194.977 190.81 191.737C190.81 188.537 192.852 186.634 195.659 187.18C198.231 187.679 200.096 189.782 200.469 192.615L198.388 192.21C198.172 190.468 197.132 189.246 195.679 188.963C193.971 188.631 192.852 189.894 192.852 192.134C192.852 194.394 193.971 196.071 195.679 196.403C197.151 196.69 198.172 195.888 198.408 194.214L200.469 194.615C200.116 197.346 198.27 198.707 195.659 198.2ZM206.472 200.301C203.626 199.748 201.623 197.079 201.623 193.839C201.623 190.639 203.665 188.736 206.472 189.281C209.044 189.781 210.909 191.884 211.282 194.716L209.201 194.312C208.985 192.57 207.945 191.348 206.492 191.065C204.784 190.733 203.665 191.996 203.665 194.236C203.665 196.496 204.784 198.173 206.492 198.505C207.965 198.791 208.985 197.99 209.221 196.316L211.282 196.716C210.929 199.448 209.084 200.809 206.472 200.301ZM217.541 202.433C214.596 201.861 212.436 199.081 212.436 195.941C212.436 192.801 214.596 190.861 217.541 191.433C220.486 192.005 222.645 194.785 222.645 197.925C222.645 201.065 220.486 203.005 217.541 202.433ZM217.541 200.653C219.249 200.985 220.604 199.848 220.604 197.528C220.604 195.208 219.249 193.565 217.541 193.233C215.833 192.901 214.498 194.021 214.498 196.341C214.498 198.661 215.833 200.321 217.541 200.653ZM231.165 200.521V194.281L233.148 194.667V205.267L231.303 204.908V203.228C230.753 204.221 229.536 204.764 228.122 204.49C226.021 204.081 224.569 202.539 224.569 199.819V192.999L226.552 193.384V199.804C226.552 201.644 227.455 202.58 228.75 202.832C230.085 203.091 231.165 202.181 231.165 200.521ZM237.885 200.207V206.187L235.902 205.802V195.202L237.747 195.561V197.321C238.454 196.278 239.632 195.727 241.065 196.006C243.205 196.422 244.619 198.096 244.619 200.636V207.496L242.636 207.111V200.931C242.636 199.111 241.85 197.938 240.378 197.652C239.023 197.389 237.885 198.327 237.885 200.207ZM253.084 207.182V208.962C252.475 209.123 251.945 209.12 251.317 208.998C249.393 208.624 248.058 207.305 248.058 204.965V199.285L245.761 198.838V197.118L248.058 197.565V194.425L250.041 194.81V197.95L253.182 198.561V200.281L250.041 199.67V204.89C250.041 206.35 250.728 207.004 251.788 207.21C252.259 207.301 252.671 207.302 253.084 207.182Z" fill="#131D27"/>
</g>
<rect x="0.981627" y="1.19081" width="236" height="62" rx="13" transform="matrix(0.981627 0.190809 0 1 44.018 128.813)" stroke="url(#paint2_linear_322_12098)" stroke-width="2"/>
</g>
<g filter="url(#filter4_d_322_12098)">
<g clip-path="url(#clip3_322_12098)">
<rect width="283" height="64" rx="14" transform="matrix(0.981627 0.190809 0 1 151 254)" fill="white"/>
<g clip-path="url(#clip4_322_12098)">
<path d="M194.696 287.717C196.11 285.476 195.271 282.097 192.822 280.168C190.373 278.24 187.241 278.493 185.828 280.734L175.254 297.489C173.84 299.729 174.679 303.109 177.128 305.037C179.577 306.966 182.709 306.712 184.123 304.472L194.696 287.717Z" fill="#F8BB2D"/>
<path d="M184.802 301.977C184.802 304.882 182.509 306.792 179.681 306.242C176.852 305.692 174.559 302.891 174.559 299.986C174.559 297.08 176.852 295.171 179.681 295.721C182.509 296.271 184.802 299.071 184.802 301.977Z" fill="#3BA757"/>
<path d="M185.843 285.996C184.429 283.206 185.268 280.152 187.717 279.176C190.166 278.2 193.297 279.67 194.711 282.461L205.284 303.326C206.698 306.116 205.859 309.17 203.41 310.146C200.961 311.122 197.83 309.652 196.416 306.861L185.843 285.996Z" fill="#4689F2"/>
</g>
<path d="M225.662 308.313C221.598 307.523 218.457 303.772 218.457 299.412C218.457 295.172 221.441 292.532 225.545 293.33C229.177 294.036 231.631 296.773 232.495 299.921L229.982 299.432C229.451 297.489 227.901 295.768 225.486 295.299C222.698 294.757 220.695 296.507 220.695 299.887C220.695 303.067 222.6 305.838 225.741 306.448C228.352 306.956 230.001 305.636 230.394 303.253L225.525 302.306V300.546L232.671 301.935C232.75 306.551 229.982 309.152 225.662 308.313ZM239.128 310.83C236.183 310.258 234.023 307.478 234.023 304.338C234.023 301.198 236.183 299.258 239.128 299.83C242.073 300.403 244.232 303.183 244.232 306.323C244.232 309.463 242.073 311.403 239.128 310.83ZM239.128 309.05C240.836 309.382 242.191 308.246 242.191 305.926C242.191 303.606 240.836 301.962 239.128 301.63C237.42 301.298 236.085 302.419 236.085 304.739C236.085 307.059 237.42 308.718 239.128 309.05ZM250.612 313.063C247.667 312.49 245.508 309.71 245.508 306.57C245.508 303.43 247.667 301.49 250.612 302.063C253.557 302.635 255.717 305.415 255.717 308.555C255.717 311.695 253.557 313.635 250.612 313.063ZM250.612 311.283C252.32 311.615 253.675 310.478 253.675 308.158C253.675 305.838 252.32 304.195 250.612 303.863C248.904 303.531 247.569 304.651 247.569 306.971C247.569 309.291 248.904 310.951 250.612 311.283ZM261.708 319.1C258.979 318.569 257.213 316.746 257.095 314.323L259.019 314.697C259.137 316.2 260.079 317.183 261.689 317.496C263.475 317.843 264.418 317.046 264.418 315.226V313.306C263.829 314.472 262.651 314.983 261.237 314.708C258.646 314.204 256.8 311.665 256.8 308.545C256.8 305.385 258.567 303.609 261.178 304.116C262.67 304.407 263.848 305.375 264.555 306.853V304.973L266.401 305.332V315.572C266.401 318.352 264.653 319.672 261.708 319.1ZM258.803 308.935C258.803 311.135 259.863 312.681 261.591 313.017C263.279 313.345 264.418 312.186 264.418 310.086C264.418 307.886 263.299 306.269 261.591 305.937C259.883 305.605 258.803 306.755 258.803 308.935ZM271.148 316.854L269.146 316.465V302.105L271.148 302.494V316.854ZM278.18 318.421C275.176 317.837 273.154 315.224 273.154 311.884C273.154 308.744 275.255 306.853 278.121 307.41C281.223 308.013 283.285 310.974 282.931 314.345L275.176 312.837C275.334 315.028 276.394 316.494 278.141 316.834C279.613 317.12 280.634 316.498 280.968 315.183L282.931 315.565C282.421 317.826 280.634 318.898 278.18 318.421ZM278.082 308.922C276.492 308.613 275.412 309.563 275.196 311.501L280.831 312.597C280.732 310.617 279.692 309.235 278.082 308.922ZM298.998 322.268L297.722 318.46L291.636 317.277L290.34 320.585L288.161 320.161L293.56 306.851L295.935 307.313L301.295 322.714L298.998 322.268ZM294.698 309.472L292.284 315.623L297.074 316.554L294.698 309.472ZM301.74 317.501C301.74 314.281 303.547 312.352 306.354 312.898C307.748 313.169 308.965 314.125 309.692 315.567V309.987L311.674 310.372V324.732L309.829 324.373V322.473C309.083 323.668 307.826 324.184 306.354 323.898C303.547 323.352 301.74 320.681 301.74 317.501ZM303.802 317.902C303.802 320.262 305.019 321.838 306.747 322.174C308.435 322.502 309.692 321.347 309.692 319.007C309.692 316.627 308.396 315.075 306.747 314.754C305.019 314.418 303.802 315.502 303.802 317.902ZM322.676 323.711C322.676 325.791 321.086 326.761 318.318 326.223C315.569 325.689 313.94 323.992 313.744 321.674L315.648 322.044C315.727 323.38 316.767 324.402 318.357 324.711C319.751 324.982 320.674 324.661 320.674 323.661C320.674 322.781 320.144 322.298 318.848 321.786L317.16 321.138C315.236 320.384 314.156 319.174 314.156 317.574C314.156 315.714 315.746 314.723 318.161 315.193C320.654 315.677 322.343 317.366 322.519 319.58L320.615 319.21C320.497 317.907 319.575 316.988 318.181 316.717C316.924 316.472 316.08 316.848 316.08 317.768C316.08 318.628 316.61 319.131 317.866 319.616L319.633 320.299C321.695 321.08 322.676 322.191 322.676 323.711ZM338.8 330.005L337.524 326.197L331.438 325.014L330.142 328.322L327.963 327.898L333.362 314.588L335.737 315.049L341.097 330.451L338.8 330.005ZM334.5 317.209L332.086 323.359L336.876 324.291L334.5 317.209ZM346.392 331.7C343.545 331.147 341.542 328.478 341.542 325.238C341.542 322.038 343.584 320.135 346.392 320.68C348.963 321.18 350.828 323.283 351.201 326.115L349.12 325.711C348.904 323.969 347.864 322.746 346.411 322.464C344.703 322.132 343.584 323.395 343.584 325.635C343.584 327.895 344.703 329.572 346.411 329.904C347.884 330.19 348.904 329.389 349.14 327.715L351.201 328.115C350.848 330.847 349.003 332.208 346.392 331.7ZM357.205 333.802C354.358 333.249 352.355 330.58 352.355 327.34C352.355 324.14 354.397 322.236 357.205 322.782C359.777 323.282 361.642 325.385 362.015 328.217L359.934 327.813C359.718 326.071 358.677 324.848 357.224 324.566C355.516 324.234 354.397 325.496 354.397 327.736C354.397 329.996 355.516 331.674 357.224 332.006C358.697 332.292 359.718 331.491 359.953 329.816L362.015 330.217C361.661 332.948 359.816 334.31 357.205 333.802ZM368.273 335.934C365.328 335.361 363.169 332.581 363.169 329.441C363.169 326.301 365.328 324.361 368.273 324.934C371.218 325.506 373.378 328.286 373.378 331.426C373.378 334.566 371.218 336.506 368.273 335.934ZM368.273 334.154C369.981 334.486 371.336 333.349 371.336 331.029C371.336 328.709 369.981 327.066 368.273 326.734C366.565 326.402 365.23 327.522 365.23 329.842C365.23 332.162 366.565 333.822 368.273 334.154ZM381.897 334.022V327.782L383.88 328.167V338.767L382.035 338.409V336.729C381.485 337.722 380.268 338.265 378.854 337.99C376.754 337.582 375.301 336.04 375.301 333.32V326.5L377.284 326.885V333.305C377.284 335.145 378.187 336.081 379.483 336.333C380.818 336.592 381.897 335.682 381.897 334.022ZM388.617 333.708V339.688L386.634 339.303V328.703L388.48 329.061V330.821C389.186 329.779 390.364 329.228 391.797 329.506C393.937 329.922 395.351 331.597 395.351 334.137V340.997L393.368 340.612V334.432C393.368 332.612 392.583 331.439 391.11 331.153C389.756 330.889 388.617 331.828 388.617 333.708ZM403.816 340.682V342.462C403.207 342.624 402.677 342.621 402.049 342.499C400.125 342.125 398.79 340.805 398.79 338.465V332.785L396.493 332.339V330.619L398.79 331.065V327.925L400.773 328.311V331.451L403.914 332.062V333.782L400.773 333.171V338.391C400.773 339.851 401.46 340.504 402.52 340.711C402.991 340.802 403.404 340.802 403.816 340.682Z" fill="#131D27"/>
</g>
</g>
<path d="M248.762 239.114C248.372 238.528 247.885 237.399 247.037 235.945C246.55 235.142 245.355 233.564 244.993 232.799C244.732 232.327 244.657 231.799 244.784 231.342C245.003 230.47 245.855 230.029 246.773 230.312C247.483 230.596 248.136 231.077 248.65 231.697C249.009 232.111 249.34 232.55 249.638 233.008C249.86 233.335 249.916 233.459 250.166 233.833C250.416 234.208 250.583 234.566 250.458 234.06C250.361 233.333 250.194 232.11 249.958 231.002C249.777 230.159 249.735 230.024 249.568 229.382C249.401 228.741 249.304 228.212 249.123 227.482C248.958 226.768 248.828 226.053 248.734 225.338C248.558 224.414 248.686 223.515 249.095 222.788C249.581 222.417 250.294 222.432 250.903 222.827C251.516 223.407 251.973 224.14 252.21 224.923C252.575 225.901 252.818 226.902 252.933 227.897C253.156 229.357 253.587 231.509 253.601 231.937C253.601 231.413 253.504 230.289 253.601 229.812C253.697 229.314 254.05 228.953 254.533 228.86C254.947 228.811 255.385 228.867 255.812 229.023C256.243 229.199 256.625 229.526 256.883 229.94C257.205 230.829 257.384 231.741 257.411 232.635C257.449 231.864 257.579 231.119 257.801 230.416C258.033 230.127 258.372 229.953 258.76 229.922C259.22 229.926 259.691 230.018 260.151 230.193C260.528 230.394 260.858 230.7 261.097 231.071C261.391 231.879 261.569 232.707 261.625 233.525C261.625 233.723 261.722 232.991 262.028 232.555C262.187 232.105 262.586 231.825 263.074 231.819C263.562 231.814 264.066 232.085 264.395 232.53C264.725 232.974 264.829 233.525 264.67 233.975C264.67 234.896 264.67 234.854 264.67 235.477C264.67 236.1 264.67 236.653 264.67 237.177C264.62 237.996 264.508 238.798 264.337 239.577C264.095 240.248 263.758 240.864 263.335 241.408C262.66 242.042 262.102 242.798 261.681 243.651C261.576 244.095 261.529 244.562 261.542 245.04C261.54 245.48 261.596 245.929 261.708 246.376C261.14 246.327 260.567 246.215 259.998 246.044C259.456 245.853 258.788 244.618 258.607 244.243C258.518 244.043 258.335 243.892 258.134 243.854C257.934 243.815 257.751 243.894 257.662 244.06C257.356 244.538 256.674 245.383 256.201 245.348C255.27 245.28 253.351 244.794 251.835 244.499C251.835 244.499 252.085 243.131 251.515 242.511C250.945 241.89 250.361 241.181 249.93 240.701L248.762 239.114Z" fill="white"/>
<path fill-rule="evenodd" clip-rule="evenodd" d="M248.762 239.114C248.372 238.528 247.885 237.399 247.037 235.945C246.55 235.142 245.355 233.564 244.993 232.799C244.732 232.327 244.657 231.799 244.784 231.342C245.003 230.47 245.855 230.029 246.773 230.312C247.483 230.596 248.136 231.077 248.65 231.697C249.009 232.111 249.34 232.55 249.638 233.008C249.86 233.335 249.916 233.459 250.166 233.833C250.416 234.208 250.583 234.566 250.458 234.06C250.361 233.333 250.194 232.11 249.958 231.002C249.777 230.159 249.735 230.024 249.568 229.382C249.401 228.741 249.304 228.212 249.123 227.482C248.958 226.768 248.828 226.053 248.734 225.338C248.558 224.414 248.686 223.515 249.095 222.788C249.581 222.417 250.294 222.432 250.903 222.827C251.516 223.407 251.973 224.14 252.21 224.923C252.575 225.901 252.818 226.902 252.933 227.897C253.156 229.357 253.587 231.509 253.601 231.937C253.601 231.413 253.504 230.289 253.601 229.812C253.697 229.314 254.05 228.953 254.533 228.86C254.947 228.811 255.385 228.867 255.812 229.023C256.243 229.199 256.625 229.526 256.883 229.94C257.205 230.829 257.384 231.741 257.411 232.635C257.449 231.864 257.579 231.119 257.801 230.416C258.033 230.127 258.372 229.953 258.76 229.922C259.22 229.926 259.691 230.018 260.151 230.193C260.528 230.394 260.858 230.7 261.097 231.071C261.391 231.879 261.569 232.707 261.625 233.525C261.625 233.723 261.722 232.991 262.028 232.555C262.187 232.105 262.586 231.825 263.074 231.819C263.562 231.814 264.066 232.085 264.395 232.53C264.725 232.974 264.829 233.525 264.67 233.975C264.67 234.896 264.67 234.854 264.67 235.477C264.67 236.1 264.67 236.653 264.67 237.177C264.62 237.996 264.508 238.798 264.337 239.577C264.095 240.248 263.758 240.864 263.335 241.408C262.66 242.042 262.102 242.798 261.681 243.651C261.576 244.095 261.529 244.562 261.542 245.04C261.54 245.48 261.596 245.929 261.708 246.376C261.14 246.327 260.567 246.215 259.998 246.044C259.456 245.853 258.788 244.618 258.607 244.243C258.518 244.043 258.335 243.892 258.134 243.854C257.934 243.815 257.751 243.894 257.662 244.06C257.356 244.538 256.674 245.383 256.201 245.348C255.27 245.28 253.351 244.794 251.835 244.499C251.835 244.499 252.085 243.131 251.515 242.511C250.945 241.89 250.361 241.181 249.93 240.701L248.762 239.114Z" stroke="#131D27" stroke-width="1.0625" stroke-linecap="round" stroke-linejoin="round"/>
<path d="M260.553 242.179V237.289C260.553 236.996 260.32 236.714 260.032 236.658C259.744 236.602 259.51 236.794 259.51 237.086V241.976C259.51 242.269 259.744 242.552 260.032 242.608C260.32 242.664 260.553 242.472 260.553 242.179Z" fill="#131D27"/>
<path d="M257.799 241.642L257.771 236.744C257.77 236.452 257.535 236.171 257.247 236.117C256.959 236.062 256.727 236.255 256.729 236.548L256.756 241.446C256.758 241.738 256.993 242.019 257.281 242.073C257.569 242.127 257.801 241.934 257.799 241.642Z" fill="#131D27"/>
<path d="M253.947 236.012L253.975 240.9C253.977 241.195 254.212 241.478 254.5 241.533C254.788 241.587 255.02 241.392 255.018 241.096L254.99 236.209C254.989 235.913 254.754 235.63 254.466 235.576C254.178 235.522 253.946 235.717 253.947 236.012Z" fill="#131D27"/>
<defs>
<filter id="filter0_b_322_12098" x="1.23529" y="9.23529" width="481.529" height="481.529" filterUnits="userSpaceOnUse" color-interpolation-filters="sRGB">
<feFlood flood-opacity="0" result="BackgroundImageFix"/>
<feGaussianBlur in="BackgroundImageFix" stdDeviation="35.3824"/>
<feComposite in2="SourceAlpha" operator="in" result="effect1_backgroundBlur_322_12098"/>
<feBlend mode="normal" in="SourceGraphic" in2="effect1_backgroundBlur_322_12098" result="shape"/>
</filter>
<filter id="filter1_d_322_12098" x="0" y="83" width="361.627" height="237.413" filterUnits="userSpaceOnUse" color-interpolation-filters="sRGB">
<feFlood flood-opacity="0" result="BackgroundImageFix"/>
<feColorMatrix in="SourceAlpha" type="matrix" values="0 0 0 0 0 0 0 0 0 0 0 0 0 0 0 0 0 0 127 0" result="hardAlpha"/>
<feOffset dx="20" dy="18"/>
<feGaussianBlur stdDeviation="32"/>
<feComposite in2="hardAlpha" operator="out"/>
<feColorMatrix type="matrix" values="0 0 0 0 0.0745098 0 0 0 0 0.113725 0 0 0 0 0.152941 0 0 0 0.06 0"/>
<feBlend mode="normal" in2="BackgroundImageFix" result="effect1_dropShadow_322_12098"/>
<feBlend mode="normal" in="SourceGraphic" in2="effect1_dropShadow_322_12098" result="shape"/>
</filter>
<filter id="filter2_i_322_12098" x="68.0996" y="150.027" width="30.3364" height="34.2392" filterUnits="userSpaceOnUse" color-interpolation-filters="sRGB">
<feFlood flood-opacity="0" result="BackgroundImageFix"/>
<feBlend mode="normal" in="SourceGraphic" in2="BackgroundImageFix" result="shape"/>
<feColorMatrix in="SourceAlpha" type="matrix" values="0 0 0 0 0 0 0 0 0 0 0 0 0 0 0 0 0 0 127 0" result="hardAlpha"/>
<feOffset dy="-2.75862"/>
<feGaussianBlur stdDeviation="1.93103"/>
<feComposite in2="hardAlpha" operator="arithmetic" k2="-1" k3="1"/>
<feColorMatrix type="matrix" values="0 0 0 0 0 0 0 0 0 0.429333 0 0 0 0 0.933333 0 0 0 0.6 0"/>
<feBlend mode="normal" in2="shape" result="effect1_innerShadow_322_12098"/>
</filter>
<filter id="filter3_i_322_12098" x="87.5288" y="155.382" width="7.58496" height="8.27457" filterUnits="userSpaceOnUse" color-interpolation-filters="sRGB">
<feFlood flood-opacity="0" result="BackgroundImageFix"/>
<feBlend mode="normal" in="SourceGraphic" in2="BackgroundImageFix" result="shape"/>
<feColorMatrix in="SourceAlpha" type="matrix" values="0 0 0 0 0 0 0 0 0 0 0 0 0 0 0 0 0 0 127 0" result="hardAlpha"/>
<feOffset dy="-0.406829"/>
<feGaussianBlur stdDeviation="1.16237"/>
<feComposite in2="hardAlpha" operator="arithmetic" k2="-1" k3="1"/>
<feColorMatrix type="matrix" values="0 0 0 0 0.905882 0 0 0 0 0 0 0 0 0 0.65098 0 0 0 0.3 0"/>
<feBlend mode="normal" in2="shape" result="effect1_innerShadow_322_12098"/>
</filter>
<filter id="filter4_d_322_12098" x="107" y="208" width="405.8" height="245.999" filterUnits="userSpaceOnUse" color-interpolation-filters="sRGB">
<feFlood flood-opacity="0" result="BackgroundImageFix"/>
<feColorMatrix in="SourceAlpha" type="matrix" values="0 0 0 0 0 0 0 0 0 0 0 0 0 0 0 0 0 0 127 0" result="hardAlpha"/>
<feOffset dx="20" dy="18"/>
<feGaussianBlur stdDeviation="32"/>
<feComposite in2="hardAlpha" operator="out"/>
<feColorMatrix type="matrix" values="0 0 0 0 0.0745098 0 0 0 0 0.113725 0 0 0 0 0.152941 0 0 0 0.06 0"/>
<feBlend mode="normal" in2="BackgroundImageFix" result="effect1_dropShadow_322_12098"/>
<feBlend mode="normal" in="SourceGraphic" in2="effect1_dropShadow_322_12098" result="shape"/>
</filter>
<linearGradient id="paint0_linear_322_12098" x1="242" y1="80" x2="242" y2="420" gradientUnits="userSpaceOnUse">
<stop stop-color="white" stop-opacity="0"/>
<stop offset="1" stop-color="white"/>
</linearGradient>
<linearGradient id="paint1_linear_322_12098" x1="91.3213" y1="155.859" x2="89.874" y2="163.305" gradientUnits="userSpaceOnUse">
<stop stop-color="#FF6BC1"/>
<stop offset="1" stop-color="#E700A6"/>
</linearGradient>
<linearGradient id="paint2_linear_322_12098" x1="0" y1="31.9994" x2="238" y2="31.9994" gradientUnits="userSpaceOnUse">
<stop stop-color="#57E1FF" stop-opacity="0.6"/>
<stop offset="0.421002" stop-color="#0188FF"/>
<stop offset="1" stop-color="#FF6BC1"/>
</linearGradient>
<clipPath id="clip0_322_12098">
<rect width="238" height="64" rx="14" transform="matrix(0.981627 0.190809 0 1 44 129)" fill="white"/>
</clipPath>
<clipPath id="clip1_322_12098">
<rect width="32" height="32" fill="white" transform="matrix(0.981627 0.190809 0 1 67.5591 149.579)"/>
</clipPath>
<clipPath id="clip2_322_12098">
<rect width="30.9045" height="30.908" fill="white" transform="matrix(0.981627 0.190809 0 1 68.0996 150.143)"/>
</clipPath>
<clipPath id="clip3_322_12098">
<rect width="283" height="64" rx="14" transform="matrix(0.981627 0.190809 0 1 151 254)" fill="white"/>
</clipPath>
<clipPath id="clip4_322_12098">
<rect width="32" height="32" fill="white" transform="matrix(0.981627 0.190809 0 1 174.559 274.579)"/>
</clipPath>
</defs>
</svg>
