<svg width="463" height="500" viewBox="0 0 463 500" fill="none" xmlns="http://www.w3.org/2000/svg">
<g opacity="0.2" filter="url(#filter0_b_322_13012)">
<circle cx="231" cy="250" r="170" fill="white"/>
<circle cx="231" cy="250" r="169.115" stroke="url(#paint0_linear_322_13012)" stroke-opacity="0.3" stroke-width="1.76912"/>
</g>
<g filter="url(#filter1_d_322_13012)">
<g clip-path="url(#clip0_322_13012)">
<rect width="293" height="64" rx="14" transform="matrix(0.981627 0.190809 0 1 82 199)" fill="white"/>
<g clip-path="url(#clip1_322_13012)">
<g filter="url(#filter2_d_322_13012)">
<circle cx="16" cy="16" r="16" transform="matrix(0.981627 0.190809 0 1 105.559 219.579)" fill="white"/>
</g>
<rect width="32" height="32" rx="16" transform="matrix(0.981627 0.190809 0 1 105.559 219.579)" fill="#1275B1"/>
<path d="M116.703 231.424C116.703 232.504 115.784 233.201 114.651 232.98C113.518 232.76 112.6 231.706 112.6 230.627C112.6 229.547 113.518 228.851 114.651 229.071C115.784 229.291 116.703 230.345 116.703 231.424Z" fill="white"/>
<path d="M112.88 234.073L116.387 234.755V245.581L112.88 244.899V234.073Z" fill="white"/>
<path d="M122.034 235.852L118.527 235.17V245.997L122.034 246.678C122.034 246.678 122.034 243.27 122.034 241.139C122.034 239.86 122.462 238.659 124.173 238.991C126.106 239.367 126.094 241.039 126.085 242.334C126.074 244.026 126.102 245.762 126.102 247.469L129.609 248.151V242.437C129.579 238.783 128.646 236.92 125.576 236.323C123.752 235.969 122.622 236.593 122.034 237.241V235.852Z" fill="white"/>
</g>
<path d="M158.822 253.433L150.282 251.773V237.413L152.442 237.832V250.212L158.822 251.453V253.433ZM163.2 241.224C163.2 241.984 162.611 242.449 161.766 242.285C160.922 242.121 160.314 241.423 160.314 240.663C160.314 239.883 160.922 239.441 161.766 239.605C162.611 239.769 163.2 240.444 163.2 241.224ZM162.768 254.2L160.785 253.814V243.214L162.768 243.6V254.2ZM167.503 249.14V255.12L165.52 254.735V244.135L167.366 244.493V246.253C168.073 245.211 169.251 244.66 170.684 244.938C172.824 245.354 174.237 247.029 174.237 249.569V256.429L172.254 256.044V249.864C172.254 248.044 171.469 246.871 169.997 246.585C168.642 246.321 167.503 247.26 167.503 249.14ZM178.853 257.326L176.871 256.941V242.581L178.853 242.966V251.466L183.31 247.593L185.646 248.047L180.836 252.252L186.098 258.735L183.546 258.238L178.853 252.306V257.326ZM191.273 259.941C188.27 259.357 186.248 256.744 186.248 253.404C186.248 250.264 188.348 248.372 191.215 248.929C194.316 249.532 196.378 252.493 196.025 255.864L188.27 254.357C188.427 256.547 189.487 258.013 191.234 258.353C192.707 258.639 193.728 258.018 194.061 256.702L196.025 257.084C195.514 259.345 193.728 260.418 191.273 259.941ZM191.175 250.441C189.585 250.132 188.505 251.082 188.289 253.02L193.924 254.116C193.826 252.137 192.785 250.754 191.175 250.441ZM197.195 255.592C197.195 252.372 199.001 250.443 201.809 250.988C203.203 251.259 204.42 252.216 205.146 253.657V248.077L207.129 248.463V262.823L205.284 262.464V260.564C204.538 261.759 203.281 262.275 201.809 261.988C199.001 261.443 197.195 258.772 197.195 255.592ZM199.256 255.992C199.256 258.352 200.474 259.929 202.201 260.265C203.89 260.593 205.146 259.437 205.146 257.097C205.146 254.717 203.85 253.165 202.201 252.845C200.474 252.509 199.256 253.592 199.256 255.992ZM212.3 250.768C212.3 251.528 211.711 251.993 210.867 251.829C210.023 251.665 209.414 250.967 209.414 250.207C209.414 249.427 210.023 248.985 210.867 249.149C211.711 249.313 212.3 249.988 212.3 250.768ZM211.868 263.744L209.885 263.358V252.758L211.868 253.144V263.744ZM216.604 258.684V264.664L214.621 264.279V253.679L216.466 254.038V255.798C217.173 254.755 218.351 254.204 219.784 254.483C221.924 254.898 223.338 256.573 223.338 259.113V265.973L221.355 265.588V259.408C221.355 257.588 220.57 256.415 219.097 256.129C217.743 255.866 216.604 256.804 216.604 258.684ZM239.929 269.198L238.653 265.39L232.567 264.207L231.272 267.515L229.092 267.092L234.491 253.781L236.867 254.243L242.226 269.645L239.929 269.198ZM235.63 256.403L233.215 262.553L238.005 263.484L235.63 256.403ZM242.672 264.431C242.672 261.211 244.478 259.282 247.286 259.828C248.679 260.099 249.897 261.056 250.623 262.497V256.917L252.606 257.302V271.662L250.761 271.304V269.404C250.014 270.599 248.758 271.114 247.286 270.828C244.478 270.282 242.672 267.611 242.672 264.431ZM244.733 264.832C244.733 267.192 245.951 268.769 247.678 269.105C249.367 269.433 250.623 268.277 250.623 265.937C250.623 263.557 249.327 262.005 247.678 261.685C245.951 261.349 244.733 262.432 244.733 264.832ZM263.608 270.641C263.608 272.721 262.018 273.692 259.25 273.154C256.501 272.62 254.872 270.923 254.675 268.605L256.58 268.975C256.658 270.31 257.699 271.332 259.289 271.641C260.683 271.912 261.605 271.592 261.605 270.592C261.605 269.712 261.075 269.229 259.78 268.717L258.091 268.069C256.167 267.315 255.087 266.105 255.087 264.505C255.087 262.645 256.678 261.654 259.093 262.123C261.586 262.608 263.274 264.296 263.451 266.51L261.547 266.14C261.429 264.837 260.506 263.918 259.112 263.647C257.856 263.403 257.011 263.779 257.011 264.699C257.011 265.559 257.542 266.062 258.798 266.546L260.565 267.229C262.626 268.01 263.608 269.121 263.608 270.641ZM279.731 276.935L278.455 273.127L272.369 271.944L271.073 275.252L268.894 274.829L274.293 261.518L276.669 261.98L282.028 277.382L279.731 276.935ZM275.432 264.139L273.017 270.29L277.807 271.221L275.432 264.139ZM287.323 278.631C284.476 278.077 282.474 275.408 282.474 272.168C282.474 268.968 284.516 267.065 287.323 267.611C289.895 268.111 291.76 270.213 292.133 273.046L290.052 272.641C289.836 270.899 288.795 269.677 287.343 269.395C285.635 269.063 284.516 270.325 284.516 272.565C284.516 274.825 285.635 276.503 287.343 276.835C288.815 277.121 289.836 276.319 290.072 274.645L292.133 275.046C291.78 277.777 289.934 279.138 287.323 278.631ZM298.136 280.733C295.29 280.179 293.287 277.51 293.287 274.27C293.287 271.07 295.329 269.167 298.136 269.713C300.708 270.213 302.573 272.315 302.946 275.148L300.865 274.743C300.649 273.001 299.609 271.779 298.156 271.496C296.448 271.164 295.329 272.427 295.329 274.667C295.329 276.927 296.448 278.604 298.156 278.936C299.628 279.223 300.649 278.421 300.885 276.747L302.946 277.148C302.593 279.879 300.747 281.24 298.136 280.733ZM309.205 282.864C306.26 282.292 304.1 279.512 304.1 276.372C304.1 273.232 306.26 271.292 309.205 271.864C312.15 272.437 314.309 275.216 314.309 278.356C314.309 281.496 312.15 283.437 309.205 282.864ZM309.205 281.084C310.913 281.416 312.267 280.279 312.267 277.959C312.267 275.639 310.913 273.996 309.205 273.664C307.497 273.332 306.162 274.453 306.162 276.773C306.162 279.093 307.497 280.752 309.205 281.084ZM322.829 280.952V274.712L324.812 275.098V285.698L322.966 285.339V283.659C322.417 284.652 321.199 285.196 319.786 284.921C317.685 284.513 316.232 282.97 316.232 280.25V273.43L318.215 273.816V280.236C318.215 282.076 319.118 283.011 320.414 283.263C321.749 283.522 322.829 282.612 322.829 280.952ZM329.549 280.639V286.619L327.566 286.233V275.633L329.411 275.992V277.752C330.118 276.709 331.296 276.158 332.729 276.437C334.869 276.853 336.282 278.527 336.282 281.067V287.927L334.3 287.542V281.362C334.3 279.542 333.514 278.369 332.042 278.083C330.687 277.82 329.549 278.759 329.549 280.639ZM344.747 287.613V289.393C344.139 289.555 343.609 289.552 342.981 289.429C341.057 289.055 339.722 287.736 339.722 285.396V279.716L337.425 279.269V277.549L339.722 277.996V274.856L341.704 275.241V278.381L344.846 278.992V280.712L341.704 280.101V285.321C341.704 286.781 342.392 287.435 343.452 287.641C343.923 287.733 344.335 287.733 344.747 287.613Z" fill="#131D27"/>
</g>
</g>
<path d="M220.504 293.299C220.114 292.714 219.628 291.585 218.779 290.131C218.293 289.328 217.097 287.749 216.735 286.985C216.474 286.513 216.399 285.984 216.527 285.528C216.745 284.655 217.597 284.214 218.515 284.498C219.225 284.781 219.878 285.263 220.393 285.883C220.752 286.297 221.082 286.735 221.38 287.194C221.602 287.52 221.658 287.644 221.908 288.019C222.159 288.393 222.325 288.752 222.2 288.246C222.103 287.518 221.936 286.296 221.7 285.188C221.519 284.345 221.477 284.209 221.31 283.568C221.143 282.926 221.046 282.397 220.865 281.668C220.7 280.954 220.57 280.238 220.476 279.524C220.301 278.6 220.428 277.7 220.838 276.973C221.323 276.602 222.036 276.618 222.645 277.013C223.258 277.593 223.715 278.325 223.953 279.109C224.317 280.087 224.56 281.087 224.676 282.083C224.898 283.543 225.329 285.695 225.343 286.122C225.343 285.598 225.246 284.474 225.343 283.997C225.44 283.499 225.792 283.139 226.275 283.045C226.689 282.996 227.127 283.052 227.554 283.209C227.985 283.385 228.367 283.711 228.625 284.125C228.947 285.014 229.126 285.926 229.154 286.821C229.191 286.05 229.322 285.304 229.543 284.601C229.775 284.313 230.115 284.138 230.502 284.108C230.962 284.112 231.433 284.203 231.893 284.378C232.27 284.58 232.6 284.886 232.839 285.256C233.133 286.065 233.311 286.893 233.367 287.71C233.367 287.909 233.465 287.177 233.77 286.741C233.929 286.291 234.328 286.01 234.816 286.005C235.305 286 235.808 286.27 236.137 286.715C236.467 287.16 236.572 287.711 236.413 288.161C236.413 289.082 236.413 289.039 236.413 289.662C236.413 290.286 236.413 290.838 236.413 291.362C236.362 292.182 236.25 292.984 236.079 293.763C235.837 294.434 235.5 295.05 235.078 295.594C234.402 296.227 233.845 296.984 233.423 297.836C233.318 298.28 233.271 298.747 233.284 299.226C233.282 299.666 233.338 300.115 233.451 300.562C232.882 300.512 232.309 300.401 231.74 300.229C231.198 300.039 230.53 298.804 230.349 298.429C230.26 298.229 230.077 298.078 229.877 298.039C229.676 298 229.493 298.08 229.404 298.245C229.098 298.724 228.416 299.569 227.944 299.534C227.012 299.466 225.093 298.98 223.577 298.685C223.577 298.685 223.827 297.317 223.257 296.696C222.687 296.075 222.103 295.367 221.672 294.886L220.504 293.299Z" fill="white"/>
<path fill-rule="evenodd" clip-rule="evenodd" d="M220.504 293.299C220.114 292.714 219.628 291.585 218.779 290.131C218.293 289.328 217.097 287.749 216.735 286.985C216.474 286.513 216.399 285.984 216.527 285.528C216.745 284.655 217.597 284.214 218.515 284.498C219.225 284.781 219.878 285.263 220.393 285.883C220.752 286.297 221.082 286.735 221.38 287.194C221.602 287.52 221.658 287.644 221.908 288.019C222.159 288.393 222.325 288.752 222.2 288.246C222.103 287.518 221.936 286.296 221.7 285.188C221.519 284.345 221.477 284.209 221.31 283.568C221.143 282.926 221.046 282.397 220.865 281.668C220.7 280.954 220.57 280.238 220.476 279.524C220.301 278.6 220.428 277.7 220.838 276.973C221.323 276.602 222.036 276.618 222.645 277.013C223.258 277.593 223.715 278.325 223.953 279.109C224.317 280.087 224.56 281.087 224.676 282.083C224.898 283.543 225.329 285.695 225.343 286.122C225.343 285.598 225.246 284.474 225.343 283.997C225.44 283.499 225.792 283.139 226.275 283.045C226.689 282.996 227.127 283.052 227.554 283.209C227.985 283.385 228.367 283.711 228.625 284.125C228.947 285.014 229.126 285.926 229.154 286.821C229.191 286.05 229.322 285.304 229.543 284.601C229.775 284.313 230.115 284.138 230.502 284.108C230.962 284.112 231.433 284.203 231.893 284.378C232.27 284.58 232.6 284.886 232.839 285.256C233.133 286.065 233.311 286.893 233.367 287.71C233.367 287.909 233.465 287.177 233.77 286.741C233.929 286.291 234.328 286.01 234.816 286.005C235.305 286 235.808 286.27 236.137 286.715C236.467 287.16 236.572 287.711 236.413 288.161C236.413 289.082 236.413 289.039 236.413 289.662C236.413 290.286 236.413 290.838 236.413 291.362C236.362 292.182 236.25 292.984 236.079 293.763C235.837 294.434 235.5 295.05 235.078 295.594C234.402 296.227 233.845 296.984 233.423 297.836C233.318 298.28 233.271 298.747 233.284 299.226C233.282 299.666 233.338 300.115 233.451 300.562C232.882 300.512 232.309 300.401 231.74 300.229C231.198 300.039 230.53 298.804 230.349 298.429C230.26 298.229 230.077 298.078 229.877 298.039C229.676 298 229.493 298.08 229.404 298.245C229.098 298.724 228.416 299.569 227.944 299.534C227.012 299.466 225.093 298.98 223.577 298.685C223.577 298.685 223.827 297.317 223.257 296.696C222.687 296.075 222.103 295.367 221.672 294.886L220.504 293.299Z" stroke="#131D27" stroke-width="1.0625" stroke-linecap="round" stroke-linejoin="round"/>
<path d="M232.295 296.365V291.475C232.295 291.182 232.062 290.899 231.774 290.843C231.486 290.787 231.252 290.979 231.252 291.272V296.162C231.252 296.455 231.486 296.737 231.774 296.793C232.062 296.849 232.295 296.657 232.295 296.365Z" fill="#131D27"/>
<path d="M229.542 295.828L229.514 290.93C229.512 290.637 229.277 290.356 228.989 290.302C228.701 290.248 228.469 290.441 228.471 290.733L228.499 295.631C228.5 295.923 228.735 296.204 229.023 296.259C229.311 296.313 229.543 296.12 229.542 295.828Z" fill="#131D27"/>
<path d="M225.69 290.198L225.718 295.085C225.719 295.381 225.954 295.664 226.242 295.718C226.53 295.772 226.762 295.577 226.76 295.282L226.733 290.394C226.731 290.099 226.496 289.816 226.208 289.761C225.92 289.707 225.688 289.902 225.69 290.198Z" fill="#131D27"/>
<defs>
<filter id="filter0_b_322_13012" x="-9.76471" y="9.23529" width="481.529" height="481.529" filterUnits="userSpaceOnUse" color-interpolation-filters="sRGB">
<feFlood flood-opacity="0" result="BackgroundImageFix"/>
<feGaussianBlur in="BackgroundImageFix" stdDeviation="35.3824"/>
<feComposite in2="SourceAlpha" operator="in" result="effect1_backgroundBlur_322_13012"/>
<feBlend mode="normal" in="SourceGraphic" in2="effect1_backgroundBlur_322_13012" result="shape"/>
</filter>
<filter id="filter1_d_322_13012" x="38" y="153" width="415.617" height="247.907" filterUnits="userSpaceOnUse" color-interpolation-filters="sRGB">
<feFlood flood-opacity="0" result="BackgroundImageFix"/>
<feColorMatrix in="SourceAlpha" type="matrix" values="0 0 0 0 0 0 0 0 0 0 0 0 0 0 0 0 0 0 127 0" result="hardAlpha"/>
<feOffset dx="20" dy="18"/>
<feGaussianBlur stdDeviation="32"/>
<feComposite in2="hardAlpha" operator="out"/>
<feColorMatrix type="matrix" values="0 0 0 0 0.0745098 0 0 0 0 0.113725 0 0 0 0 0.152941 0 0 0 0.06 0"/>
<feBlend mode="normal" in2="BackgroundImageFix" result="effect1_dropShadow_322_13012"/>
<feBlend mode="normal" in="SourceGraphic" in2="effect1_dropShadow_322_13012" result="shape"/>
</filter>
<filter id="filter2_d_322_13012" x="94.5246" y="212.41" width="53.4811" height="54.6523" filterUnits="userSpaceOnUse" color-interpolation-filters="sRGB">
<feFlood flood-opacity="0" result="BackgroundImageFix"/>
<feColorMatrix in="SourceAlpha" type="matrix" values="0 0 0 0 0 0 0 0 0 0 0 0 0 0 0 0 0 0 127 0" result="hardAlpha"/>
<feOffset dy="1.10345"/>
<feGaussianBlur stdDeviation="5.51724"/>
<feComposite in2="hardAlpha" operator="out"/>
<feColorMatrix type="matrix" values="0 0 0 0 0.636597 0 0 0 0 0.639987 0 0 0 0 0.741667 0 0 0 0.24 0"/>
<feBlend mode="normal" in2="BackgroundImageFix" result="effect1_dropShadow_322_13012"/>
<feBlend mode="normal" in="SourceGraphic" in2="effect1_dropShadow_322_13012" result="shape"/>
</filter>
<linearGradient id="paint0_linear_322_13012" x1="231" y1="80" x2="231" y2="420" gradientUnits="userSpaceOnUse">
<stop stop-color="white" stop-opacity="0"/>
<stop offset="1" stop-color="white"/>
</linearGradient>
<clipPath id="clip0_322_13012">
<rect width="293" height="64" rx="14" transform="matrix(0.981627 0.190809 0 1 82 199)" fill="white"/>
</clipPath>
<clipPath id="clip1_322_13012">
<rect width="32" height="32" fill="white" transform="matrix(0.981627 0.190809 0 1 105.559 219.579)"/>
</clipPath>
</defs>
</svg>
