<svg width="523" height="500" viewBox="0 0 523 500" fill="none" xmlns="http://www.w3.org/2000/svg">
<g opacity="0.2" filter="url(#filter0_b_322_14423)">
<circle cx="242" cy="250" r="170" fill="white"/>
<circle cx="242" cy="250" r="169.115" stroke="url(#paint0_linear_322_14423)" stroke-opacity="0.3" stroke-width="1.76912"/>
</g>
<g filter="url(#filter1_d_322_14423)">
<g clip-path="url(#clip0_322_14423)">
<rect width="238" height="64" rx="14" transform="matrix(0.981627 0.190809 0 1 44 129)" fill="white"/>
<g clip-path="url(#clip1_322_14423)">
<g clip-path="url(#clip2_322_14423)">
<g filter="url(#filter2_i_322_14423)">
<path d="M98.435 171.072C98.4452 171.878 98.4043 172.673 98.3021 173.456C98.1897 174.238 98.0262 174.999 97.7911 175.724C97.74 175.905 97.6685 176.081 97.6072 176.27L97.505 176.535L97.3925 176.799C97.321 176.975 97.2495 177.152 97.1677 177.315L96.9224 177.817C96.5749 178.479 96.1763 179.099 95.7369 179.669C95.2872 180.247 94.7966 180.765 94.2652 181.243C93.7235 181.719 93.1512 182.147 92.5482 182.516C91.935 182.883 91.2911 183.202 90.6166 183.451C89.9421 183.711 89.2471 183.904 88.5215 184.037C87.8061 184.173 87.06 184.239 86.314 184.263C85.5679 184.277 84.8116 184.236 84.0553 184.131C83.299 184.026 82.5427 183.858 81.7967 183.65C81.0506 183.431 80.3045 183.159 79.5789 182.827C78.8533 182.496 78.1379 182.125 77.4531 181.696C76.7684 181.267 76.1041 180.799 75.4704 180.285C74.8368 179.771 74.2338 179.22 73.6615 178.623C73.0994 178.027 72.5577 177.415 72.0671 176.77C71.5766 176.114 71.1269 175.446 70.7181 174.742C70.3093 174.05 69.9516 173.325 69.6245 172.596C69.3077 171.868 69.042 171.119 68.8172 170.378C68.5923 169.626 68.4288 168.875 68.3062 168.122C68.1835 167.369 68.1222 166.628 68.1018 165.884C68.0915 165.153 68.1222 164.43 68.204 163.716C68.2959 163.005 68.4186 162.31 68.6025 161.638C68.7865 160.965 69.0113 160.322 69.2975 159.701C70.4115 157.233 72.2613 155.278 74.5915 154.093C75.1741 153.794 75.7873 153.554 76.4107 153.347C77.0443 153.153 77.6984 153.006 78.3729 152.904L78.8839 152.845C79.0577 152.826 79.2314 152.818 79.395 152.807L79.6505 152.793L79.906 152.79C80.0797 152.792 80.2534 152.784 80.4272 152.786C81.1221 152.794 81.8376 152.859 82.5427 152.954L82.5938 152.964C84.2802 153.218 85.7008 154.815 85.7927 156.556C85.8847 158.296 84.6072 159.517 82.9413 159.288C82.8187 159.275 82.6858 159.239 82.5632 159.215C80.8871 158.762 79.1803 158.906 77.7495 159.59C76.3187 160.273 75.1843 161.49 74.5711 163.009C74.4075 163.379 74.2951 163.791 74.2031 164.195C74.1112 164.6 74.0601 165.024 74.0294 165.451C74.009 165.88 74.009 166.324 74.0396 166.764C74.0805 167.205 74.1418 167.65 74.244 168.082C74.6426 169.83 75.5522 171.518 76.7786 172.845C77.0852 173.169 77.4123 173.486 77.7495 173.773C78.0868 174.061 78.4445 174.31 78.8022 174.549C79.1599 174.777 79.538 174.977 79.906 175.154C80.2841 175.334 80.6622 175.471 81.0404 175.586C81.4185 175.702 81.8069 175.788 82.185 175.851C82.5632 175.903 82.9413 175.935 83.3092 175.932C83.6772 175.93 84.0349 175.915 84.3824 175.855C84.7298 175.796 85.0671 175.724 85.3941 175.608C86.6921 175.184 87.7754 174.338 88.5011 173.232C88.685 172.961 88.8383 172.663 88.9814 172.363C89.1245 172.063 89.2369 171.747 89.3391 171.429L89.4106 171.189C89.4311 171.108 89.4515 171.017 89.472 170.937C89.4822 170.896 89.4924 170.856 89.5026 170.816L89.5231 170.682C89.5333 170.6 89.5639 170.511 89.5742 170.428C89.6253 170.079 89.6559 169.725 89.6866 169.372L89.707 169.112C89.891 166.653 91.9861 165.2 94.3981 165.849C96.6567 166.457 98.3941 168.75 98.435 171.072Z" fill="#0A8CFF"/>
</g>
<g filter="url(#filter3_i_322_14423)">
<path d="M91.3215 163.586C93.416 163.993 95.114 162.594 95.114 160.46C95.114 158.326 93.416 156.266 91.3215 155.859C89.227 155.452 87.5291 156.852 87.5291 158.986C87.5291 161.119 89.227 163.179 91.3215 163.586Z" fill="url(#paint1_linear_322_14423)"/>
</g>
</g>
</g>
<path d="M122.589 179.576C122.589 182.076 120.626 183.595 117.21 182.931C113.813 182.27 111.752 179.97 111.575 177.075L113.774 177.503C113.872 179.342 115.011 180.743 117.171 181.163C118.957 181.51 120.292 180.91 120.292 179.43C120.292 178.23 119.526 177.481 117.897 176.804L115.855 176.007C113.872 175.222 112.066 173.851 112.066 171.411C112.066 168.991 114.147 167.575 117.072 168.144C119.998 168.712 122.216 170.964 122.393 173.858L120.194 173.431C120.076 171.688 118.859 170.251 117.092 169.908C115.266 169.553 114.265 170.458 114.265 171.698C114.265 173.058 115.423 173.763 116.739 174.299L118.82 175.123C121.235 176.093 122.589 177.436 122.589 179.576ZM126.915 178.637V184.617L124.932 184.232V169.872L126.915 170.257V175.717C127.602 174.711 128.662 174.157 130.096 174.435C132.235 174.851 133.649 176.526 133.649 179.066V185.926L131.666 185.541V179.361C131.666 177.541 130.881 176.368 129.408 176.082C128.054 175.818 126.915 176.757 126.915 178.637ZM140.641 187.485C137.696 186.913 135.536 184.133 135.536 180.993C135.536 177.853 137.696 175.913 140.641 176.485C143.586 177.057 145.745 179.837 145.745 182.977C145.745 186.117 143.586 188.057 140.641 187.485ZM140.641 185.705C142.349 186.037 143.703 184.9 143.703 182.58C143.703 180.26 142.349 178.617 140.641 178.285C138.933 177.953 137.598 179.074 137.598 181.394C137.598 183.714 138.933 185.373 140.641 185.705ZM156.135 190.297L153.78 181.959L151.404 189.377L149.402 188.988L146.398 177.804L148.341 178.182L150.442 186.31L152.798 179.048L154.761 179.43L157.078 187.62L159.179 180.288L161.142 180.67L158.118 190.682L156.135 190.297ZM164.742 185.99V191.97L162.759 191.584V180.984L164.605 181.343V183.103C165.312 182.061 166.49 181.51 167.923 181.788C170.063 182.204 171.476 183.879 171.476 186.419V193.279L169.493 192.893V186.713C169.493 184.893 168.708 183.721 167.236 183.435C165.881 183.171 164.742 184.11 164.742 185.99ZM188.068 196.504L186.792 192.696L180.706 191.513L179.41 194.821L177.231 194.397L182.63 181.087L185.005 181.549L190.365 196.95L188.068 196.504ZM183.768 183.708L181.353 189.859L186.144 190.79L183.768 183.708ZM195.659 198.2C192.813 197.646 190.81 194.977 190.81 191.737C190.81 188.537 192.852 186.634 195.659 187.18C198.231 187.68 200.096 189.782 200.469 192.615L198.388 192.21C198.172 190.468 197.132 189.246 195.679 188.963C193.971 188.631 192.852 189.894 192.852 192.134C192.852 194.394 193.971 196.071 195.679 196.403C197.152 196.69 198.172 195.888 198.408 194.214L200.469 194.615C200.116 197.346 198.271 198.707 195.659 198.2ZM206.473 200.301C203.626 199.748 201.623 197.079 201.623 193.839C201.623 190.639 203.665 188.736 206.473 189.281C209.045 189.781 210.91 191.884 211.283 194.716L209.202 194.312C208.986 192.57 207.945 191.348 206.492 191.065C204.784 190.733 203.665 191.996 203.665 194.236C203.665 196.496 204.784 198.173 206.492 198.505C207.965 198.792 208.986 197.99 209.221 196.316L211.283 196.716C210.929 199.448 209.084 200.809 206.473 200.301ZM217.541 202.433C214.596 201.861 212.437 199.081 212.437 195.941C212.437 192.801 214.596 190.861 217.541 191.433C220.486 192.005 222.646 194.785 222.646 197.925C222.646 201.065 220.486 203.005 217.541 202.433ZM217.541 200.653C219.249 200.985 220.604 199.848 220.604 197.528C220.604 195.208 219.249 193.565 217.541 193.233C215.833 192.901 214.498 194.021 214.498 196.341C214.498 198.661 215.833 200.321 217.541 200.653ZM231.165 200.521V194.281L233.148 194.667V205.267L231.303 204.908V203.228C230.753 204.221 229.536 204.765 228.122 204.49C226.022 204.081 224.569 202.539 224.569 199.819V192.999L226.552 193.384V199.804C226.552 201.644 227.455 202.58 228.751 202.832C230.086 203.091 231.165 202.181 231.165 200.521ZM237.885 200.207V206.187L235.902 205.802V195.202L237.748 195.561V197.321C238.454 196.278 239.632 195.727 241.065 196.006C243.205 196.422 244.619 198.096 244.619 200.636V207.496L242.636 207.111V200.931C242.636 199.111 241.851 197.938 240.378 197.652C239.024 197.389 237.885 198.327 237.885 200.207ZM253.084 207.182V208.962C252.475 209.123 251.945 209.12 251.317 208.998C249.393 208.624 248.058 207.305 248.058 204.965V199.285L245.761 198.838V197.118L248.058 197.565V194.425L250.041 194.81V197.95L253.182 198.561V200.281L250.041 199.67V204.89C250.041 206.35 250.728 207.004 251.788 207.21C252.259 207.301 252.672 207.302 253.084 207.182Z" fill="#131D27"/>
</g>
<rect x="0.981627" y="1.19081" width="236" height="62" rx="13" transform="matrix(0.981627 0.190809 0 1 44.018 128.813)" stroke="url(#paint2_linear_322_14423)" stroke-width="2"/>
</g>
<g filter="url(#filter4_d_322_14423)">
<g clip-path="url(#clip3_322_14423)">
<rect width="307" height="63.9999" rx="14" transform="matrix(0.981627 0.190809 0 1 137 249)" fill="white"/>
<g clip-path="url(#clip4_322_14423)">
<g clip-path="url(#clip5_322_14423)">
<path d="M174.335 286.292L160.375 283.578V269.356L174.335 272.07V286.292Z" fill="#FF5722"/>
<path d="M191.787 289.684L177.826 286.97V272.748L191.787 275.462V289.684Z" fill="#4CAF50"/>
<path d="M191.787 307.462L177.826 304.748V290.526L191.787 293.24V307.462Z" fill="#FFC107"/>
<path d="M174.335 304.07L160.375 301.356V287.134L174.335 289.847V304.07Z" fill="#03A9F4"/>
</g>
</g>
<path d="M211.721 303.024L207.265 291.178V302.158L205.282 301.773V287.413L207.932 287.928L212.664 300.507L217.375 289.763L220.046 290.282V304.642L218.043 304.253V293.253L213.567 303.383L211.721 303.024ZM225.351 292.614C225.351 293.374 224.762 293.839 223.918 293.675C223.073 293.511 222.465 292.813 222.465 292.053C222.465 291.273 223.073 290.831 223.918 290.995C224.762 291.159 225.351 291.834 225.351 292.614ZM224.919 305.59L222.936 305.204V294.604L224.919 294.99V305.59ZM231.775 307.142C228.928 306.589 226.925 303.92 226.925 300.68C226.925 297.48 228.967 295.577 231.775 296.122C234.347 296.622 236.212 298.725 236.585 301.557L234.504 301.153C234.288 299.411 233.247 298.188 231.794 297.906C230.086 297.574 228.967 298.837 228.967 301.077C228.967 303.337 230.086 305.014 231.794 305.346C233.267 305.632 234.288 304.831 234.523 303.157L236.585 303.557C236.231 306.289 234.386 307.65 231.775 307.142ZM240.564 303.211V308.631L238.581 308.245V297.645L240.426 298.004V300.244C241.152 298.925 242.723 298.31 244.431 298.642V300.742C242.193 300.187 240.564 300.871 240.564 303.211ZM250.32 310.727C247.376 310.155 245.216 307.375 245.216 304.235C245.216 301.095 247.376 299.155 250.32 299.727C253.265 300.3 255.425 303.079 255.425 306.219C255.425 309.359 253.265 311.3 250.32 310.727ZM250.32 308.947C252.028 309.279 253.383 308.143 253.383 305.823C253.383 303.503 252.028 301.859 250.32 301.527C248.612 301.195 247.277 302.316 247.277 304.636C247.277 306.956 248.612 308.615 250.32 308.947ZM265.692 310.355C265.692 312.435 264.102 313.406 261.334 312.868C258.585 312.334 256.955 310.637 256.759 308.319L258.663 308.689C258.742 310.024 259.783 311.046 261.373 311.356C262.767 311.627 263.689 311.306 263.689 310.306C263.689 309.426 263.159 308.943 261.864 308.431L260.175 307.783C258.251 307.029 257.171 305.819 257.171 304.219C257.171 302.359 258.762 301.368 261.176 301.837C263.67 302.322 265.358 304.01 265.535 306.225L263.631 305.854C263.513 304.552 262.59 303.632 261.196 303.361C259.94 303.117 259.095 303.493 259.095 304.413C259.095 305.273 259.625 305.776 260.882 306.26L262.649 306.944C264.71 307.724 265.692 308.835 265.692 310.355ZM272.215 314.983C269.27 314.411 267.111 311.631 267.111 308.491C267.111 305.351 269.27 303.411 272.215 303.983C275.16 304.556 277.32 307.335 277.32 310.475C277.32 313.615 275.16 315.556 272.215 314.983ZM272.215 313.203C273.923 313.535 275.278 312.398 275.278 310.078C275.278 307.758 273.923 306.115 272.215 305.783C270.507 305.451 269.172 306.572 269.172 308.892C269.172 311.212 270.507 312.871 272.215 313.203ZM281.979 316.681L279.996 316.296V307.416L277.699 306.969V305.249L279.996 305.696V304.916C279.996 302.876 281.076 301.965 283.039 302.347C283.628 302.462 284.099 302.653 284.492 302.889V304.529C284.178 304.328 283.824 304.22 283.471 304.151C282.529 303.968 281.979 304.301 281.979 305.321V306.081L284.884 306.646V308.366L281.979 307.801V316.681ZM292.938 316.851V318.631C292.329 318.793 291.799 318.79 291.171 318.668C289.247 318.294 287.912 316.974 287.912 314.634V308.954L285.615 308.508V306.788L287.912 307.234V304.094L289.895 304.48V307.62L293.036 308.23V309.95L289.895 309.34V314.56C289.895 316.02 290.582 316.673 291.642 316.879C292.113 316.971 292.525 316.971 292.938 316.851ZM308.887 321.911L307.611 318.103L301.525 316.92L300.229 320.228L298.05 319.805L303.449 306.494L305.824 306.956L311.184 322.358L308.887 321.911ZM304.587 309.116L302.172 315.266L306.963 316.197L304.587 309.116ZM311.629 317.144C311.629 313.924 313.435 311.995 316.243 312.541C317.637 312.812 318.854 313.769 319.58 315.21V309.63L321.563 310.015V324.375L319.718 324.017V322.117C318.972 323.312 317.715 323.827 316.243 323.541C313.435 322.995 311.629 320.324 311.629 317.144ZM313.691 317.545C313.691 319.905 314.908 321.482 316.635 321.818C318.324 322.146 319.58 320.99 319.58 318.65C319.58 316.27 318.285 314.718 316.635 314.398C314.908 314.062 313.691 315.145 313.691 317.545ZM332.565 323.354C332.565 325.434 330.975 326.405 328.207 325.867C325.458 325.333 323.829 323.636 323.632 321.318L325.537 321.688C325.615 323.023 326.656 324.045 328.246 324.354C329.64 324.625 330.563 324.305 330.563 323.305C330.563 322.425 330.033 321.942 328.737 321.43L327.049 320.782C325.125 320.028 324.045 318.818 324.045 317.218C324.045 315.358 325.635 314.367 328.05 314.836C330.543 315.321 332.232 317.009 332.408 319.223L330.504 318.853C330.386 317.55 329.463 316.631 328.069 316.36C326.813 316.116 325.969 316.492 325.969 317.412C325.969 318.272 326.499 318.775 327.755 319.259L329.522 319.942C331.584 320.723 332.565 321.834 332.565 323.354ZM348.689 329.648L347.413 325.84L341.326 324.657L340.031 327.965L337.851 327.542L343.25 314.231L345.626 314.693L350.986 330.095L348.689 329.648ZM344.389 316.852L341.974 323.003L346.765 323.934L344.389 316.852ZM356.28 331.344C353.434 330.79 351.431 328.121 351.431 324.881C351.431 321.681 353.473 319.778 356.28 320.324C358.852 320.824 360.717 322.926 361.09 325.759L359.009 325.354C358.793 323.612 357.753 322.39 356.3 322.108C354.592 321.776 353.473 323.038 353.473 325.278C353.473 327.538 354.592 329.216 356.3 329.548C357.772 329.834 358.793 329.032 359.029 327.358L361.09 327.759C360.737 330.49 358.891 331.851 356.28 331.344ZM367.094 333.446C364.247 332.892 362.244 330.223 362.244 326.983C362.244 323.783 364.286 321.88 367.094 322.426C369.665 322.926 371.531 325.028 371.904 327.861L369.822 327.456C369.607 325.714 368.566 324.492 367.113 324.209C365.405 323.877 364.286 325.14 364.286 327.38C364.286 329.64 365.405 331.317 367.113 331.649C368.586 331.936 369.607 331.134 369.842 329.46L371.904 329.861C371.55 332.592 369.705 333.953 367.094 333.446ZM378.162 335.577C375.217 335.005 373.058 332.225 373.058 329.085C373.058 325.945 375.217 324.005 378.162 324.577C381.107 325.15 383.266 327.929 383.266 331.069C383.266 334.209 381.107 336.15 378.162 335.577ZM378.162 333.797C379.87 334.129 381.225 332.992 381.225 330.672C381.225 328.352 379.87 326.709 378.162 326.377C376.454 326.045 375.119 327.166 375.119 329.486C375.119 331.806 376.454 333.465 378.162 333.797ZM391.786 333.665V327.425L393.769 327.811V338.411L391.924 338.052V336.372C391.374 337.365 390.157 337.909 388.743 337.634C386.643 337.226 385.19 335.683 385.19 332.963V326.143L387.173 326.529V332.949C387.173 334.789 388.076 335.724 389.371 335.976C390.706 336.235 391.786 335.325 391.786 333.665ZM398.506 333.352V339.332L396.523 338.946V328.346L398.368 328.705V330.465C399.075 329.422 400.253 328.871 401.686 329.15C403.826 329.566 405.24 331.24 405.24 333.78V340.64L403.257 340.255V334.075C403.257 332.255 402.472 331.082 400.999 330.796C399.644 330.533 398.506 331.472 398.506 333.352ZM413.705 340.326V342.106C413.096 342.268 412.566 342.265 411.938 342.142C410.014 341.768 408.679 340.449 408.679 338.109V332.429L406.382 331.982V330.262L408.679 330.709V327.569L410.662 327.954V331.094L413.803 331.705V333.425L410.662 332.814V338.034C410.662 339.494 411.349 340.148 412.409 340.354C412.88 340.446 413.292 340.446 413.705 340.326Z" fill="#131D27"/>
</g>
</g>
<path d="M248.762 239.114C248.372 238.528 247.885 237.399 247.037 235.945C246.55 235.142 245.355 233.564 244.993 232.799C244.732 232.327 244.657 231.799 244.784 231.342C245.003 230.47 245.855 230.029 246.773 230.312C247.483 230.596 248.136 231.077 248.65 231.697C249.009 232.111 249.34 232.55 249.638 233.008C249.86 233.335 249.916 233.459 250.166 233.833C250.416 234.208 250.583 234.566 250.458 234.06C250.361 233.333 250.194 232.11 249.958 231.002C249.777 230.159 249.735 230.024 249.568 229.382C249.401 228.741 249.304 228.212 249.123 227.482C248.958 226.768 248.828 226.053 248.734 225.338C248.558 224.414 248.686 223.515 249.095 222.788C249.581 222.417 250.294 222.432 250.903 222.827C251.516 223.407 251.973 224.14 252.21 224.923C252.575 225.901 252.818 226.902 252.933 227.897C253.156 229.357 253.587 231.509 253.601 231.937C253.601 231.413 253.504 230.289 253.601 229.812C253.697 229.314 254.05 228.953 254.533 228.86C254.947 228.811 255.385 228.867 255.812 229.023C256.243 229.199 256.625 229.526 256.883 229.94C257.205 230.829 257.384 231.741 257.411 232.635C257.449 231.864 257.579 231.119 257.801 230.416C258.033 230.127 258.372 229.953 258.76 229.922C259.22 229.926 259.691 230.018 260.151 230.193C260.528 230.394 260.858 230.7 261.097 231.071C261.391 231.879 261.569 232.707 261.625 233.525C261.625 233.723 261.722 232.991 262.028 232.555C262.187 232.105 262.586 231.825 263.074 231.819C263.562 231.814 264.066 232.085 264.395 232.53C264.725 232.974 264.829 233.525 264.67 233.975C264.67 234.896 264.67 234.854 264.67 235.477C264.67 236.1 264.67 236.653 264.67 237.177C264.62 237.996 264.508 238.798 264.337 239.577C264.095 240.248 263.758 240.864 263.335 241.408C262.66 242.042 262.102 242.798 261.681 243.651C261.576 244.095 261.529 244.562 261.542 245.04C261.54 245.48 261.596 245.929 261.708 246.376C261.14 246.327 260.567 246.215 259.998 246.044C259.456 245.853 258.788 244.618 258.607 244.243C258.518 244.043 258.335 243.892 258.134 243.854C257.934 243.815 257.751 243.894 257.662 244.06C257.356 244.538 256.674 245.383 256.201 245.348C255.27 245.28 253.351 244.794 251.835 244.499C251.835 244.499 252.085 243.131 251.515 242.511C250.945 241.89 250.361 241.181 249.93 240.701L248.762 239.114Z" fill="white"/>
<path fill-rule="evenodd" clip-rule="evenodd" d="M248.762 239.114C248.372 238.528 247.885 237.399 247.037 235.945C246.55 235.142 245.355 233.564 244.993 232.799C244.732 232.327 244.657 231.799 244.784 231.342C245.003 230.47 245.855 230.029 246.773 230.312C247.483 230.596 248.136 231.077 248.65 231.697C249.009 232.111 249.34 232.55 249.638 233.008C249.86 233.335 249.916 233.459 250.166 233.833C250.416 234.208 250.583 234.566 250.458 234.06C250.361 233.333 250.194 232.11 249.958 231.002C249.777 230.159 249.735 230.024 249.568 229.382C249.401 228.741 249.304 228.212 249.123 227.482C248.958 226.768 248.828 226.053 248.734 225.338C248.558 224.414 248.686 223.515 249.095 222.788C249.581 222.417 250.294 222.432 250.903 222.827C251.516 223.407 251.973 224.14 252.21 224.923C252.575 225.901 252.818 226.902 252.933 227.897C253.156 229.357 253.587 231.509 253.601 231.937C253.601 231.413 253.504 230.289 253.601 229.812C253.697 229.314 254.05 228.953 254.533 228.86C254.947 228.811 255.385 228.867 255.812 229.023C256.243 229.199 256.625 229.526 256.883 229.94C257.205 230.829 257.384 231.741 257.411 232.635C257.449 231.864 257.579 231.119 257.801 230.416C258.033 230.127 258.372 229.953 258.76 229.922C259.22 229.926 259.691 230.018 260.151 230.193C260.528 230.394 260.858 230.7 261.097 231.071C261.391 231.879 261.569 232.707 261.625 233.525C261.625 233.723 261.722 232.991 262.028 232.555C262.187 232.105 262.586 231.825 263.074 231.819C263.562 231.814 264.066 232.085 264.395 232.53C264.725 232.974 264.829 233.525 264.67 233.975C264.67 234.896 264.67 234.854 264.67 235.477C264.67 236.1 264.67 236.653 264.67 237.177C264.62 237.996 264.508 238.798 264.337 239.577C264.095 240.248 263.758 240.864 263.335 241.408C262.66 242.042 262.102 242.798 261.681 243.651C261.576 244.095 261.529 244.562 261.542 245.04C261.54 245.48 261.596 245.929 261.708 246.376C261.14 246.327 260.567 246.215 259.998 246.044C259.456 245.853 258.788 244.618 258.607 244.243C258.518 244.043 258.335 243.892 258.134 243.854C257.934 243.815 257.751 243.894 257.662 244.06C257.356 244.538 256.674 245.383 256.201 245.348C255.27 245.28 253.351 244.794 251.835 244.499C251.835 244.499 252.085 243.131 251.515 242.511C250.945 241.89 250.361 241.181 249.93 240.701L248.762 239.114Z" stroke="#131D27" stroke-width="1.0625" stroke-linecap="round" stroke-linejoin="round"/>
<path d="M260.553 242.179V237.289C260.553 236.996 260.32 236.714 260.031 236.658C259.743 236.602 259.51 236.794 259.51 237.086V241.976C259.51 242.269 259.743 242.552 260.031 242.608C260.32 242.664 260.553 242.472 260.553 242.179Z" fill="#131D27"/>
<path d="M257.8 241.642L257.772 236.744C257.77 236.452 257.535 236.171 257.247 236.117C256.959 236.062 256.727 236.255 256.729 236.548L256.757 241.446C256.758 241.738 256.993 242.019 257.281 242.073C257.569 242.127 257.801 241.934 257.8 241.642Z" fill="#131D27"/>
<path d="M253.948 236.012L253.975 240.9C253.977 241.195 254.212 241.478 254.5 241.533C254.788 241.587 255.02 241.392 255.018 241.096L254.99 236.209C254.989 235.913 254.754 235.63 254.466 235.576C254.178 235.522 253.946 235.717 253.948 236.012Z" fill="#131D27"/>
<defs>
<filter id="filter0_b_322_14423" x="1.23529" y="9.23529" width="481.529" height="481.529" filterUnits="userSpaceOnUse" color-interpolation-filters="sRGB">
<feFlood flood-opacity="0" result="BackgroundImageFix"/>
<feGaussianBlur in="BackgroundImageFix" stdDeviation="35.3824"/>
<feComposite in2="SourceAlpha" operator="in" result="effect1_backgroundBlur_322_14423"/>
<feBlend mode="normal" in="SourceGraphic" in2="effect1_backgroundBlur_322_14423" result="shape"/>
</filter>
<filter id="filter1_d_322_14423" x="0" y="83" width="361.627" height="237.413" filterUnits="userSpaceOnUse" color-interpolation-filters="sRGB">
<feFlood flood-opacity="0" result="BackgroundImageFix"/>
<feColorMatrix in="SourceAlpha" type="matrix" values="0 0 0 0 0 0 0 0 0 0 0 0 0 0 0 0 0 0 127 0" result="hardAlpha"/>
<feOffset dx="20" dy="18"/>
<feGaussianBlur stdDeviation="32"/>
<feComposite in2="hardAlpha" operator="out"/>
<feColorMatrix type="matrix" values="0 0 0 0 0.0745098 0 0 0 0 0.113725 0 0 0 0 0.152941 0 0 0 0.06 0"/>
<feBlend mode="normal" in2="BackgroundImageFix" result="effect1_dropShadow_322_14423"/>
<feBlend mode="normal" in="SourceGraphic" in2="effect1_dropShadow_322_14423" result="shape"/>
</filter>
<filter id="filter2_i_322_14423" x="68.0999" y="150.027" width="30.3367" height="34.2392" filterUnits="userSpaceOnUse" color-interpolation-filters="sRGB">
<feFlood flood-opacity="0" result="BackgroundImageFix"/>
<feBlend mode="normal" in="SourceGraphic" in2="BackgroundImageFix" result="shape"/>
<feColorMatrix in="SourceAlpha" type="matrix" values="0 0 0 0 0 0 0 0 0 0 0 0 0 0 0 0 0 0 127 0" result="hardAlpha"/>
<feOffset dy="-2.75862"/>
<feGaussianBlur stdDeviation="1.93103"/>
<feComposite in2="hardAlpha" operator="arithmetic" k2="-1" k3="1"/>
<feColorMatrix type="matrix" values="0 0 0 0 0 0 0 0 0 0.429333 0 0 0 0 0.933333 0 0 0 0.6 0"/>
<feBlend mode="normal" in2="shape" result="effect1_innerShadow_322_14423"/>
</filter>
<filter id="filter3_i_322_14423" x="87.5291" y="155.382" width="7.58496" height="8.27457" filterUnits="userSpaceOnUse" color-interpolation-filters="sRGB">
<feFlood flood-opacity="0" result="BackgroundImageFix"/>
<feBlend mode="normal" in="SourceGraphic" in2="BackgroundImageFix" result="shape"/>
<feColorMatrix in="SourceAlpha" type="matrix" values="0 0 0 0 0 0 0 0 0 0 0 0 0 0 0 0 0 0 127 0" result="hardAlpha"/>
<feOffset dy="-0.406829"/>
<feGaussianBlur stdDeviation="1.16237"/>
<feComposite in2="hardAlpha" operator="arithmetic" k2="-1" k3="1"/>
<feColorMatrix type="matrix" values="0 0 0 0 0.905882 0 0 0 0 0 0 0 0 0 0.65098 0 0 0 0.3 0"/>
<feBlend mode="normal" in2="shape" result="effect1_innerShadow_322_14423"/>
</filter>
<filter id="filter4_d_322_14423" x="93" y="203" width="429.359" height="250.578" filterUnits="userSpaceOnUse" color-interpolation-filters="sRGB">
<feFlood flood-opacity="0" result="BackgroundImageFix"/>
<feColorMatrix in="SourceAlpha" type="matrix" values="0 0 0 0 0 0 0 0 0 0 0 0 0 0 0 0 0 0 127 0" result="hardAlpha"/>
<feOffset dx="20" dy="18"/>
<feGaussianBlur stdDeviation="32"/>
<feComposite in2="hardAlpha" operator="out"/>
<feColorMatrix type="matrix" values="0 0 0 0 0.0745098 0 0 0 0 0.113725 0 0 0 0 0.152941 0 0 0 0.06 0"/>
<feBlend mode="normal" in2="BackgroundImageFix" result="effect1_dropShadow_322_14423"/>
<feBlend mode="normal" in="SourceGraphic" in2="effect1_dropShadow_322_14423" result="shape"/>
</filter>
<linearGradient id="paint0_linear_322_14423" x1="242" y1="80" x2="242" y2="420" gradientUnits="userSpaceOnUse">
<stop stop-color="white" stop-opacity="0"/>
<stop offset="1" stop-color="white"/>
</linearGradient>
<linearGradient id="paint1_linear_322_14423" x1="91.3215" y1="155.859" x2="89.8742" y2="163.305" gradientUnits="userSpaceOnUse">
<stop stop-color="#FF6BC1"/>
<stop offset="1" stop-color="#E700A6"/>
</linearGradient>
<linearGradient id="paint2_linear_322_14423" x1="0" y1="31.9994" x2="238" y2="31.9994" gradientUnits="userSpaceOnUse">
<stop stop-color="#57E1FF" stop-opacity="0.6"/>
<stop offset="0.421002" stop-color="#0188FF"/>
<stop offset="1" stop-color="#FF6BC1"/>
</linearGradient>
<clipPath id="clip0_322_14423">
<rect width="238" height="64" rx="14" transform="matrix(0.981627 0.190809 0 1 44 129)" fill="white"/>
</clipPath>
<clipPath id="clip1_322_14423">
<rect width="32" height="32" fill="white" transform="matrix(0.981627 0.190809 0 1 67.5591 149.579)"/>
</clipPath>
<clipPath id="clip2_322_14423">
<rect width="30.9045" height="30.908" fill="white" transform="matrix(0.981627 0.190809 0 1 68.0999 150.143)"/>
</clipPath>
<clipPath id="clip3_322_14423">
<rect width="307" height="63.9999" rx="14" transform="matrix(0.981627 0.190809 0 1 137 249)" fill="white"/>
</clipPath>
<clipPath id="clip4_322_14423">
<rect width="31.9999" height="31.9999" fill="white" transform="matrix(0.981627 0.190809 0 1 160.559 269.579)"/>
</clipPath>
<clipPath id="clip5_322_14423">
<rect width="31.9999" height="31.9999" fill="white" transform="matrix(0.981627 0.190809 0 1 160.559 269.579)"/>
</clipPath>
</defs>
</svg>
