<svg width="295" height="108" viewBox="0 0 295 108" fill="none" xmlns="http://www.w3.org/2000/svg">
<path fill-rule="evenodd" clip-rule="evenodd" d="M14.1649 27.9383C13.4134 24.7927 14.9416 21.8575 16.5337 19.4781C18.2865 16.8586 21.215 14.5359 24.4864 13.6992C23.8937 16.668 22.1641 19.2292 20.4984 21.6379C18.8443 24.0304 16.7584 26.4539 14.1649 27.9383ZM17.0346 28.3138C14.8343 29.3246 12.8123 31.4919 11.8884 33.9774C12.4714 31.4847 12.4559 28.7561 11.8961 26.4186C11.4061 24.365 10.6895 21.4625 8.34203 20.4842C6.63954 23.2211 5.95776 26.9466 6.95524 29.7362C7.67575 31.7549 8.97149 34.4235 11.6521 34.8341C14.1119 35.3987 16.5969 34.0851 18.5589 33.0009C20.7417 31.795 22.8781 29.8777 24.1758 27.5993C21.7915 26.3981 19.078 27.3763 17.0346 28.3138ZM13.8131 37.568C11.9227 38.916 10.472 41.3806 10.1602 43.9109C10.133 41.3756 9.4435 38.7581 8.33562 36.6497C7.32265 34.7208 5.90877 32.1139 3.3928 31.5942C2.40501 34.5975 2.72458 38.2706 4.32248 40.7019C5.53107 42.5437 7.40207 44.8498 10.1253 44.788C12.6103 44.9149 14.7563 43.2175 16.4452 41.8013C18.262 40.2776 19.9006 38.0504 20.5901 35.6435C18.0528 34.9068 15.624 36.2765 13.8131 37.568ZM12.8978 47.0525C11.3522 48.7087 10.5232 51.3893 10.8002 53.8686C10.1823 51.38 8.89433 48.9676 7.32161 47.135C5.86316 45.4357 3.89143 43.1886 1.2883 43.1243C1.04232 46.2803 2.27417 49.4315 4.34079 51.7795C5.94838 53.6044 8.42172 55.1552 10.9551 54.7262C13.3917 54.4285 15.253 52.3625 16.4616 50.692C17.7593 48.8987 19.0163 46.5044 19.0686 43.9925C16.4713 43.7154 14.3853 45.4558 12.8978 47.0525ZM14.4898 56.1263C13.2579 58.5747 13.0236 61.4878 13.9746 64.0526C12.5723 61.4136 10.5212 59.2795 8.34997 57.3076C6.37632 55.5153 3.53301 53.6282 0.672279 53.9856C1.21847 57.523 3.38194 61.1915 6.28334 63.0772C8.61531 64.5918 11.4412 66.0916 14.4104 64.9588C16.8527 64.0975 18.4042 61.6375 19.3571 59.3804C20.3662 56.9921 21.0383 54.2387 20.5676 51.6257C17.889 51.8657 15.6674 53.7849 14.4898 56.1263ZM18.2076 65.4071C17.5743 68.1791 18.1147 71.132 19.6641 73.491C17.6014 71.1295 14.8588 69.1805 12.2324 67.8136C9.69323 66.4927 6.57877 64.8995 3.5321 65.865C5.0041 69.451 8.1515 72.7882 11.6378 74.167C14.3397 75.2361 17.6304 76.2932 20.4486 74.5059C22.7302 73.1289 23.6482 70.2476 24.024 67.7786C24.4269 65.11 24.4075 62.1678 23.2977 59.6379C20.6345 60.3836 18.8081 62.7816 18.2076 65.4071ZM31.315 75.4317C31.6539 78.0063 31.6481 81.2723 29.6493 83.2562C27.1546 85.8155 23.2867 85.3247 20.304 84.764C16.2986 84.0112 11.7896 81.2834 9.37043 77.6495C12.3183 76.0232 15.9286 77.0592 18.8494 77.898L19.0179 77.946C22.2776 78.8811 25.7523 80.3888 28.6595 82.4499C26.3392 80.3564 24.6483 77.2836 24.5631 74.1851C24.4856 71.413 25.6865 68.4459 28.2741 67.1223C30.0851 69.4938 30.9334 72.5398 31.315 75.4317ZM42.9356 90.5413C41.146 93.8471 36.7551 94.2288 33.5554 94.2964C28.7792 94.3971 23.3598 92.5298 19.5423 89.2903C22.0622 86.9719 26.1838 87.2369 29.3505 87.4407L29.7515 87.4662C33.693 87.7141 37.8359 88.5599 41.6302 89.9715C38.353 88.3769 35.1882 85.5759 34.2721 82.2883C33.5031 79.5237 33.2533 76.3419 35.8332 74.1163C38.5215 76.2178 40.4022 79.1456 41.7793 82.0189C42.9375 84.4359 44.3902 87.7017 42.9608 90.496L42.9356 90.5413Z" fill="url(#paint0_linear_430_13310)"/>
<g clip-path="url(#clip0_430_13310)">
<path d="M67.5393 6.81666C67.5393 3.05839 70.586 0.0117188 74.3442 0.0117188H90.7189C94.4772 0.0117188 97.5238 3.05839 97.5238 6.81666V23.1908C97.5238 26.9491 94.4772 29.9957 90.7189 29.9957H74.3442C70.586 29.9957 67.5393 26.9491 67.5393 23.1908V6.81666ZM100.023 6.81666C100.023 3.05839 103.069 0.0117188 106.827 0.0117188H123.202C126.96 0.0117188 130.007 3.05839 130.007 6.81666V23.1908C130.007 26.9491 126.96 29.9957 123.202 29.9957H106.827C103.069 29.9957 100.023 26.9491 100.023 23.1908V6.81666ZM132.506 6.81666C132.506 3.05839 135.552 0.0117188 139.311 0.0117188H155.685C159.444 0.0117188 162.49 3.05839 162.49 6.81666V23.1908C162.49 26.9491 159.444 29.9957 155.685 29.9957H139.311C135.552 29.9957 132.506 26.9491 132.506 23.1908V6.81666ZM164.989 6.81666C164.989 3.05839 168.036 0.0117188 171.794 0.0117188H188.169C191.927 0.0117188 194.974 3.05839 194.974 6.81666V23.1908C194.974 26.9491 191.927 29.9957 188.169 29.9957H171.794C168.036 29.9957 164.989 26.9491 164.989 23.1908V6.81666Z" fill="#00B67A"/>
<mask id="mask0_430_13310" style="mask-type:alpha" maskUnits="userSpaceOnUse" x="197" y="0" width="31" height="30">
<path d="M220.652 0.00585938H204.278C200.52 0.00585938 197.473 3.05254 197.473 6.8108V23.1849C197.473 26.9432 200.52 29.9899 204.278 29.9899H220.652C224.411 29.9899 227.457 26.9432 227.457 23.1849V6.8108C227.457 3.05253 224.411 0.00585938 220.652 0.00585938Z" fill="#00B67A"/>
</mask>
<g mask="url(#mask0_430_13310)">
<path d="M220.652 0.00585938H204.278C200.52 0.00585938 197.473 3.05254 197.473 6.8108V23.1849C197.473 26.9432 200.52 29.9899 204.278 29.9899H220.652C224.411 29.9899 227.457 26.9432 227.457 23.1849V6.8108C227.457 3.05253 224.411 0.00585938 220.652 0.00585938Z" fill="#00B67A"/>
<path d="M227.459 -0.000976562H212.998V30.621H227.459V-0.000976562Z" fill="#394C5E"/>
</g>
<path d="M82.53 20.2175L87.0901 19.0619L88.9954 24.9337L82.53 20.2175ZM93.0246 12.6278H84.9975L82.53 5.06934L80.0625 12.6278H72.0354L78.532 17.3128L76.0646 24.8713L82.5612 20.1863L86.5592 17.3128L93.0246 12.6278ZM115.013 20.2175L119.573 19.0619L121.479 24.9337L115.013 20.2175ZM125.508 12.6278H117.481L115.013 5.06934L112.546 12.6278H104.519L111.015 17.3128L108.548 24.8713L115.044 20.1863L119.042 17.3128L125.508 12.6278ZM147.496 20.2175L152.057 19.0619L153.962 24.9337L147.496 20.2175ZM157.991 12.6278H149.964L147.496 5.06934L145.029 12.6278H137.002L143.499 17.3128L141.031 24.8713L147.528 20.1863L151.526 17.3128L157.991 12.6278ZM179.98 20.2175L184.54 19.0619L186.445 24.9337L179.98 20.2175ZM190.474 12.6278H182.447L179.98 5.06934L177.512 12.6278H169.485L175.982 17.3128L173.514 24.8713L180.011 20.1863L184.009 17.3128L190.474 12.6278ZM212.463 20.2175L217.023 19.0619L218.928 24.9337L212.463 20.2175ZM222.958 12.6278H214.93L212.463 5.06934L209.995 12.6278H201.968L208.465 17.3128L205.998 24.8713L212.494 20.1863L216.492 17.3128L222.958 12.6278Z" fill="white"/>
</g>
<path d="M70.964 61H69.464V46.64H74.584C77.624 46.64 79.524 48.22 79.524 50.98C79.524 53.14 78.104 54.76 75.844 55.14L79.904 61H78.104L74.244 55.32H70.964V61ZM70.964 47.9V54.06H74.464C76.664 54.06 78.024 52.98 78.024 50.98C78.024 48.98 76.664 47.9 74.464 47.9H70.964ZM88.3049 61V59.08C87.6849 60.4 86.4049 61.2 84.7649 61.2C82.5849 61.2 81.1649 59.98 81.1649 58.08C81.1649 56.02 82.8049 54.94 86.0049 54.94C86.6449 54.94 87.1249 54.98 88.1649 55.06V54.18C88.1649 52.42 87.2249 51.38 85.6249 51.38C83.9049 51.38 82.8249 52.44 82.8049 54.16H81.5249C81.5849 51.82 83.2049 50.26 85.6049 50.26C88.0649 50.26 89.5049 51.7 89.5049 54.14V61H88.3049ZM82.5049 58.04C82.5049 59.32 83.4849 60.18 84.9649 60.18C86.9249 60.18 88.1649 58.9 88.1649 56.92V55.98C87.2649 55.9 86.6449 55.88 86.0649 55.88C83.6649 55.88 82.5049 56.58 82.5049 58.04ZM97.8113 59.66V60.9C97.2713 61.12 96.8113 61.2 96.2913 61.2C94.5513 61.2 93.2113 60.3 93.2113 58.02V51.64H90.7313V50.46H93.2113V47.34H94.6113V50.46H97.9113V51.64H94.6113V57.72C94.6113 59.36 95.4113 59.92 96.5713 59.92C97.0113 59.92 97.3713 59.84 97.8113 59.66ZM103.836 61.2C100.876 61.2 98.916 58.98 98.916 55.64C98.916 52.56 100.956 50.26 103.756 50.26C106.756 50.26 108.716 52.68 108.476 56.06H100.316C100.436 58.56 101.756 60.1 103.816 60.1C105.576 60.1 106.796 59.12 107.136 57.44H108.516C108.036 59.78 106.256 61.2 103.836 61.2ZM103.736 51.34C101.836 51.34 100.496 52.8 100.316 55.1H107.016C106.896 52.74 105.676 51.34 103.736 51.34ZM109.814 55.72C109.814 52.48 111.614 50.26 114.454 50.26C116.034 50.26 117.374 51.16 118.074 52.66V46.64H119.474V61H118.174V58.78C117.434 60.32 116.074 61.2 114.454 61.2C111.614 61.2 109.814 58.96 109.814 55.72ZM111.234 55.72C111.234 58.4 112.594 59.98 114.654 59.98C116.694 59.98 118.094 58.32 118.094 55.68C118.094 53.02 116.654 51.48 114.654 51.48C112.594 51.48 111.234 53.04 111.234 55.72ZM135.528 57.78H133.708V61H132.328V57.78H125.748V56.84L132.728 47.48H133.708V56.56H135.528V57.78ZM127.368 56.56H132.328V49.76L127.368 56.56ZM139.985 59.84C139.985 60.56 139.465 61.1 138.725 61.1C138.005 61.1 137.465 60.56 137.465 59.84C137.465 59.08 138.005 58.56 138.725 58.56C139.465 58.56 139.985 59.08 139.985 59.84ZM146.407 61.2C143.947 61.2 142.067 59.54 141.987 57.24H143.347C143.467 58.9 144.707 59.96 146.407 59.96C148.467 59.96 149.647 58.68 149.647 56.78C149.647 55.08 148.367 53.72 146.447 53.72C145.147 53.72 144.147 54.28 143.487 55.32L142.407 55L143.587 47.48H150.307V48.7H144.587L143.847 53.58C144.667 52.84 145.587 52.52 146.627 52.52C149.387 52.52 151.067 54.44 151.067 56.76C151.067 59.3 149.307 61.2 146.407 61.2ZM161.627 64.86H160.307C158.667 62.36 157.767 59.06 157.767 55.74C157.767 52.44 158.667 49.14 160.307 46.64H161.627C159.967 49.14 159.167 52.44 159.167 55.74C159.167 59.06 159.967 62.36 161.627 64.86ZM167.601 47.3C170.301 47.3 172.301 49.24 172.301 51.72C172.301 53.38 171.641 54.42 170.501 55.86L166.441 61H164.841L168.901 55.84C168.361 56.06 167.801 56.14 167.301 56.14C164.781 56.14 162.881 54.4 162.881 51.76C162.881 49.24 164.881 47.3 167.601 47.3ZM167.581 48.46C165.681 48.46 164.321 49.84 164.321 51.72C164.321 53.74 165.681 55.08 167.581 55.08C169.441 55.08 170.861 53.92 170.861 51.76C170.861 49.84 169.441 48.46 167.581 48.46ZM178.368 61.18C175.688 61.18 173.848 59.6 173.788 57.26H175.148C175.228 58.96 176.488 60.04 178.368 60.04C180.308 60.04 181.488 58.98 181.488 57.28C181.488 55.66 180.168 54.62 178.088 54.62H176.748V53.46H178.048C179.708 53.46 180.868 52.4 180.868 50.88C180.868 49.42 179.788 48.42 178.248 48.42C176.648 48.42 175.588 49.42 175.508 50.98H174.168C174.228 48.86 175.988 47.28 178.288 47.28C180.688 47.28 182.308 48.74 182.308 50.82C182.308 52.22 181.468 53.34 179.988 53.96C181.848 54.42 182.928 55.62 182.928 57.26C182.928 59.58 181.088 61.18 178.368 61.18ZM185.973 64.86H184.653C186.293 62.36 187.113 59.06 187.113 55.74C187.113 52.44 186.293 49.14 184.653 46.64H185.973C187.613 49.14 188.513 52.44 188.513 55.74C188.513 59.06 187.613 62.36 185.973 64.86ZM200.127 61.2C197.227 61.2 195.127 58.9 195.127 55.72C195.127 52.56 197.227 50.28 200.127 50.28C203.047 50.28 205.147 52.56 205.147 55.72C205.147 58.9 203.047 61.2 200.127 61.2ZM200.127 59.98C202.187 59.98 203.727 58.34 203.727 55.72C203.727 53.14 202.187 51.5 200.127 51.5C198.087 51.5 196.547 53.14 196.547 55.72C196.547 58.34 198.087 59.98 200.127 59.98ZM208.811 54.86V61H207.411V50.46H208.711V52.44C209.391 51.14 210.671 50.26 212.191 50.26C214.391 50.26 215.811 51.66 215.811 54.16V61H214.411V54.64C214.411 52.62 213.491 51.48 211.771 51.48C210.131 51.48 208.811 52.9 208.811 54.86Z" fill="#5D778D"/>
<g clip-path="url(#clip1_430_13310)">
<path d="M104.005 85.377H116.299V87.6656H111.458V100.567H108.805V87.6656H103.985L104.005 85.377ZM115.772 89.5694H118.04V91.6959H118.081C118.162 91.3921 118.304 91.1086 118.506 90.8251C118.709 90.5415 118.952 90.2782 119.256 90.0554C119.539 89.8124 119.863 89.6301 120.228 89.4883C120.572 89.3466 120.937 89.2656 121.301 89.2656C121.585 89.2656 121.787 89.2858 121.889 89.2858C121.99 89.3061 122.111 89.3263 122.213 89.3263V91.6554C122.051 91.6149 121.868 91.5947 121.686 91.5744C121.504 91.5542 121.342 91.5339 121.159 91.5339C120.754 91.5339 120.37 91.6149 120.005 91.7769C119.64 91.939 119.337 92.182 119.053 92.4858C118.79 92.8099 118.567 93.1947 118.405 93.6605C118.243 94.1263 118.162 94.6732 118.162 95.2807V100.506H115.732L115.772 89.5694ZM133.352 100.567H130.962V99.0276H130.922C130.618 99.5947 130.172 100.02 129.585 100.364C128.997 100.709 128.39 100.871 127.782 100.871C126.344 100.871 125.291 100.526 124.643 99.7972C123.995 99.0883 123.671 97.9947 123.671 96.5567V89.5694H126.101V96.3137C126.101 97.2858 126.284 97.9744 126.668 98.3592C127.033 98.7643 127.559 98.9668 128.228 98.9668C128.734 98.9668 129.159 98.8858 129.504 98.7238C129.848 98.5618 130.132 98.3592 130.334 98.0959C130.557 97.8326 130.699 97.5086 130.8 97.144C130.901 96.7795 130.942 96.3744 130.942 95.9491V89.5694H133.372V100.567H133.352ZM137.484 97.0428C137.565 97.7516 137.828 98.2377 138.294 98.5415C138.76 98.8251 139.327 98.9668 139.975 98.9668C140.198 98.9668 140.461 98.9466 140.744 98.9061C141.028 98.8656 141.311 98.8048 141.555 98.7035C141.818 98.6023 142.02 98.4605 142.182 98.258C142.344 98.0554 142.425 97.8124 142.405 97.5086C142.385 97.2048 142.284 96.9415 142.061 96.739C141.838 96.5364 141.575 96.3947 141.251 96.2529C140.927 96.1314 140.542 96.0301 140.117 95.9491C139.691 95.8681 139.266 95.7668 138.82 95.6656C138.375 95.5643 137.929 95.4428 137.504 95.301C137.079 95.1592 136.714 94.9769 136.37 94.7137C136.046 94.4706 135.762 94.1668 135.58 93.782C135.377 93.3972 135.276 92.9516 135.276 92.3845C135.276 91.7769 135.418 91.2909 135.722 90.8858C136.005 90.4807 136.39 90.1567 136.835 89.9137C137.281 89.6706 137.787 89.4883 138.334 89.3871C138.881 89.2858 139.408 89.2453 139.894 89.2453C140.461 89.2453 141.008 89.3061 141.514 89.4276C142.02 89.5491 142.506 89.7314 142.911 90.0149C143.337 90.2782 143.681 90.6428 143.944 91.0681C144.228 91.4934 144.39 92.02 144.471 92.6276H141.939C141.818 92.0402 141.555 91.6554 141.149 91.4529C140.724 91.2504 140.258 91.1491 139.711 91.1491C139.549 91.1491 139.327 91.1694 139.104 91.1896C138.861 91.2301 138.658 91.2706 138.436 91.3516C138.233 91.4326 138.051 91.5542 137.909 91.6959C137.767 91.8377 137.686 92.0402 137.686 92.2833C137.686 92.5871 137.787 92.8099 137.99 92.9921C138.192 93.1744 138.456 93.3162 138.8 93.458C139.124 93.5795 139.509 93.6807 139.934 93.7618C140.36 93.8428 140.805 93.944 141.251 94.0453C141.696 94.1466 142.122 94.2681 142.547 94.4099C142.972 94.5516 143.357 94.7339 143.681 94.9972C144.005 95.2402 144.289 95.544 144.491 95.9086C144.694 96.2732 144.795 96.739 144.795 97.2656C144.795 97.9137 144.653 98.4605 144.349 98.9263C144.046 99.3719 143.661 99.7567 143.195 100.04C142.729 100.324 142.182 100.526 141.615 100.668C141.028 100.79 140.461 100.871 139.894 100.871C139.205 100.871 138.557 100.79 137.97 100.628C137.382 100.466 136.856 100.223 136.43 99.9187C136.005 99.5947 135.661 99.2099 135.418 98.7238C135.175 98.258 135.033 97.6909 135.013 97.0225H137.463V97.0428H137.484ZM145.484 89.5694H147.327V86.2478H149.757V89.5491H151.944V91.3516H149.757V97.2251C149.757 97.4883 149.777 97.6909 149.798 97.8934C149.818 98.0757 149.879 98.2377 149.939 98.3592C150.02 98.4807 150.142 98.582 150.284 98.6428C150.446 98.7035 150.648 98.744 150.932 98.744C151.094 98.744 151.276 98.744 151.438 98.7238C151.6 98.7035 151.782 98.6833 151.944 98.6428V100.526C151.681 100.567 151.418 100.587 151.155 100.607C150.891 100.648 150.648 100.648 150.365 100.648C149.717 100.648 149.21 100.587 148.825 100.466C148.441 100.344 148.137 100.162 147.914 99.939C147.691 99.6959 147.549 99.4124 147.468 99.0681C147.387 98.7238 147.347 98.2985 147.327 97.8529V91.3719H145.484V89.5289V89.5694ZM153.646 89.5694H155.934V91.0681H155.975C156.319 90.42 156.785 89.9744 157.393 89.6909C158 89.4073 158.648 89.2656 159.377 89.2656C160.248 89.2656 160.998 89.4073 161.646 89.7314C162.294 90.0352 162.82 90.4402 163.246 90.9871C163.671 91.5137 163.995 92.1415 164.198 92.8504C164.4 93.5592 164.522 94.3288 164.522 95.1187C164.522 95.8681 164.421 96.5769 164.238 97.2656C164.036 97.9542 163.752 98.582 163.367 99.1086C162.983 99.6352 162.496 100.06 161.889 100.385C161.281 100.709 160.593 100.871 159.782 100.871C159.438 100.871 159.074 100.83 158.729 100.769C158.385 100.709 158.041 100.607 157.717 100.466C157.393 100.324 157.089 100.142 156.826 99.9187C156.542 99.6959 156.319 99.4326 156.137 99.1491H156.096V104.638H153.666V89.5694H153.646ZM162.132 95.0782C162.132 94.5921 162.071 94.1061 161.929 93.6402C161.808 93.1744 161.605 92.7694 161.342 92.4048C161.079 92.0402 160.755 91.7567 160.39 91.5339C160.005 91.3111 159.56 91.2099 159.074 91.2099C158.061 91.2099 157.291 91.5542 156.765 92.263C156.258 92.9719 155.995 93.9238 155.995 95.0985C155.995 95.6656 156.056 96.1719 156.198 96.6377C156.339 97.1035 156.522 97.5086 156.805 97.8529C157.069 98.1972 157.393 98.4605 157.777 98.663C158.162 98.8656 158.588 98.9668 159.094 98.9668C159.661 98.9668 160.107 98.8453 160.491 98.6225C160.876 98.3997 161.18 98.0959 161.443 97.7516C161.686 97.3871 161.869 96.982 161.97 96.5162C162.071 96.0301 162.132 95.5643 162.132 95.0782ZM166.405 85.377H168.836V87.6656H166.405V85.377ZM166.405 89.5694H168.836V100.567H166.405V89.5694ZM171.003 85.377H173.433V100.567H171.003V85.377ZM180.846 100.871C179.975 100.871 179.185 100.729 178.497 100.425C177.808 100.121 177.241 99.7364 176.755 99.2301C176.289 98.7238 175.924 98.0959 175.681 97.3871C175.438 96.6782 175.297 95.8883 175.297 95.058C175.297 94.2276 175.418 93.458 175.681 92.7491C175.924 92.0402 176.289 91.4326 176.755 90.9061C177.221 90.3997 177.808 89.9947 178.497 89.7111C179.185 89.4276 179.975 89.2656 180.846 89.2656C181.717 89.2656 182.507 89.4073 183.195 89.7111C183.884 89.9947 184.451 90.3997 184.937 90.9061C185.403 91.4124 185.767 92.0402 186.011 92.7491C186.254 93.458 186.395 94.2276 186.395 95.058C186.395 95.9086 186.274 96.6782 186.011 97.3871C185.747 98.0959 185.403 98.7035 184.937 99.2301C184.471 99.7364 183.884 100.142 183.195 100.425C182.507 100.709 181.737 100.871 180.846 100.871ZM180.846 98.9466C181.373 98.9466 181.859 98.8251 182.243 98.6023C182.648 98.3795 182.952 98.0757 183.216 97.7111C183.479 97.3466 183.661 96.9213 183.783 96.4757C183.904 96.0099 183.965 95.544 183.965 95.058C183.965 94.5921 183.904 94.1263 183.783 93.6605C183.661 93.1947 183.479 92.7896 183.216 92.4251C182.952 92.0605 182.628 91.777 182.243 91.5542C181.838 91.3314 181.373 91.2099 180.846 91.2099C180.319 91.2099 179.833 91.3314 179.448 91.5542C179.043 91.777 178.74 92.0807 178.476 92.4251C178.213 92.7896 178.031 93.1947 177.909 93.6605C177.788 94.1263 177.727 94.5921 177.727 95.058C177.727 95.544 177.788 96.0099 177.909 96.4757C178.031 96.9415 178.213 97.3466 178.476 97.7111C178.74 98.0757 179.064 98.3795 179.448 98.6023C179.854 98.8453 180.319 98.9466 180.846 98.9466ZM187.124 89.5694H188.968V86.2478H191.398V89.5491H193.585V91.3516H191.398V97.2251C191.398 97.4883 191.418 97.6909 191.438 97.8934C191.459 98.0757 191.519 98.2377 191.58 98.3592C191.661 98.4807 191.783 98.582 191.924 98.6428C192.087 98.7035 192.289 98.744 192.573 98.744C192.735 98.744 192.917 98.744 193.079 98.7238C193.241 98.7035 193.423 98.6833 193.585 98.6428V100.526C193.322 100.567 193.059 100.587 192.795 100.607C192.532 100.648 192.289 100.648 192.006 100.648C191.357 100.648 190.851 100.587 190.466 100.466C190.081 100.344 189.778 100.162 189.555 99.939C189.332 99.6959 189.19 99.4124 189.109 99.0681C189.028 98.7238 188.988 98.2985 188.968 97.8529V91.3719H187.124V89.5289V89.5694Z" fill="#394C5E"/>
<path d="M101.163 85.3778H90.0438L86.621 74.8057L83.1779 85.3778L72.0588 85.3576L81.0513 91.8993L77.6082 102.471L86.6007 95.9297L95.5932 102.471L92.1704 91.8993L101.163 85.3778Z" fill="#00B67A"/>
<path d="M92.9482 94.2893L92.1786 91.8994L86.6292 95.9298L92.9482 94.2893Z" fill="#005128"/>
</g>
<path fill-rule="evenodd" clip-rule="evenodd" d="M280.835 27.9383C281.587 24.7927 280.058 21.8575 278.466 19.4781C276.713 16.8586 273.785 14.5359 270.514 13.6992C271.106 16.668 272.836 19.2292 274.502 21.6379C276.156 24.0304 278.242 26.4539 280.835 27.9383ZM277.965 28.3138C280.166 29.3246 282.188 31.4919 283.112 33.9774C282.529 31.4847 282.544 28.7561 283.104 26.4186C283.594 24.365 284.311 21.4625 286.658 20.4842C288.36 23.2211 289.042 26.9466 288.045 29.7362C287.324 31.7549 286.029 34.4235 283.348 34.8341C280.888 35.3987 278.403 34.0851 276.441 33.0009C274.258 31.795 272.122 29.8777 270.824 27.5993C273.208 26.3981 275.922 27.3763 277.965 28.3138ZM281.187 37.568C283.077 38.916 284.528 41.3806 284.84 43.9109C284.867 41.3756 285.556 38.7581 286.664 36.6497C287.677 34.7208 289.091 32.1139 291.607 31.5942C292.595 34.5975 292.275 38.2706 290.678 40.7019C289.469 42.5437 287.598 44.8498 284.875 44.788C282.39 44.9149 280.244 43.2175 278.555 41.8013C276.738 40.2776 275.099 38.0504 274.41 35.6435C276.947 34.9068 279.376 36.2765 281.187 37.568ZM282.102 47.0525C283.648 48.7087 284.477 51.3893 284.2 53.8686C284.818 51.38 286.106 48.9676 287.678 47.135C289.137 45.4357 291.109 43.1886 293.712 43.1243C293.958 46.2803 292.726 49.4315 290.659 51.7795C289.052 53.6044 286.578 55.1552 284.045 54.7262C281.608 54.4285 279.747 52.3625 278.538 50.692C277.241 48.8987 275.984 46.5044 275.931 43.9925C278.529 43.7154 280.615 45.4558 282.102 47.0525ZM280.51 56.1263C281.742 58.5747 281.976 61.4878 281.025 64.0526C282.428 61.4136 284.479 59.2795 286.65 57.3076C288.624 55.5153 291.467 53.6282 294.328 53.9856C293.782 57.523 291.618 61.1915 288.717 63.0772C286.385 64.5918 283.559 66.0916 280.59 64.9588C278.147 64.0975 276.596 61.6375 275.643 59.3804C274.634 56.9921 273.962 54.2387 274.432 51.6257C277.111 51.8657 279.333 53.7849 280.51 56.1263ZM276.792 65.4071C277.426 68.1791 276.885 71.132 275.336 73.491C277.399 71.1295 280.141 69.1805 282.768 67.8136C285.307 66.4927 288.421 64.8995 291.468 65.865C289.996 69.451 286.848 72.7882 283.362 74.167C280.66 75.2361 277.37 76.2932 274.551 74.5059C272.27 73.1289 271.352 70.2476 270.976 67.7786C270.573 65.11 270.593 62.1678 271.702 59.6379C274.365 60.3836 276.192 62.7816 276.792 65.4071ZM263.685 75.4317C263.346 78.0063 263.352 81.2723 265.351 83.2562C267.845 85.8155 271.713 85.3247 274.696 84.764C278.701 84.0112 283.21 81.2834 285.63 77.6495C282.682 76.0232 279.071 77.0592 276.151 77.898L275.982 77.946C272.722 78.8811 269.248 80.3888 266.34 82.4499C268.661 80.3564 270.352 77.2836 270.437 74.1851C270.514 71.413 269.314 68.4459 266.726 67.1223C264.915 69.4938 264.067 72.5398 263.685 75.4317ZM252.064 90.5413C253.854 93.8471 258.245 94.2288 261.445 94.2964C266.221 94.3971 271.64 92.5298 275.458 89.2903C272.938 86.9719 268.816 87.2369 265.649 87.4407L265.249 87.4662C261.307 87.7141 257.164 88.5599 253.37 89.9715C256.647 88.3769 259.812 85.5759 260.728 82.2883C261.497 79.5237 261.747 76.3419 259.167 74.1163C256.478 76.2178 254.598 79.1456 253.221 82.0189C252.062 84.4359 250.61 87.7017 252.039 90.496L252.064 90.5413Z" fill="url(#paint1_linear_430_13310)"/>
<defs>
<linearGradient id="paint0_linear_430_13310" x1="31.125" y1="13.9036" x2="31.5495" y2="94.3003" gradientUnits="userSpaceOnUse">
<stop stop-color="#778EA1" stop-opacity="0.4"/>
<stop offset="1" stop-color="#778EA1" stop-opacity="0.1"/>
</linearGradient>
<linearGradient id="paint1_linear_430_13310" x1="263.875" y1="13.9036" x2="263.451" y2="94.3003" gradientUnits="userSpaceOnUse">
<stop stop-color="#778EA1" stop-opacity="0.4"/>
<stop offset="1" stop-color="#778EA1" stop-opacity="0.1"/>
</linearGradient>
<clipPath id="clip0_430_13310">
<rect width="159.918" height="30" fill="white" transform="translate(67.5413)"/>
</clipPath>
<clipPath id="clip1_430_13310">
<rect width="126.401" height="32" fill="white" transform="translate(67.5413 73)"/>
</clipPath>
</defs>
</svg>
