<svg width="295" height="108" viewBox="0 0 295 108" fill="none" xmlns="http://www.w3.org/2000/svg">
<path fill-rule="evenodd" clip-rule="evenodd" d="M14.1649 27.9383C13.4134 24.7927 14.9416 21.8575 16.5337 19.4781C18.2865 16.8586 21.215 14.5359 24.4864 13.6992C23.8937 16.668 22.1641 19.2292 20.4984 21.6379C18.8443 24.0304 16.7584 26.4539 14.1649 27.9383ZM17.0346 28.3138C14.8343 29.3246 12.8123 31.4919 11.8884 33.9774C12.4714 31.4847 12.4559 28.7561 11.8961 26.4186C11.4061 24.365 10.6895 21.4625 8.34203 20.4842C6.63954 23.2211 5.95776 26.9466 6.95524 29.7362C7.67575 31.7549 8.97149 34.4235 11.6521 34.8341C14.1119 35.3987 16.5969 34.0851 18.5589 33.0009C20.7417 31.795 22.8781 29.8777 24.1758 27.5993C21.7915 26.3981 19.078 27.3763 17.0346 28.3138ZM13.8131 37.568C11.9227 38.916 10.472 41.3806 10.1602 43.9109C10.133 41.3756 9.4435 38.7581 8.33562 36.6497C7.32265 34.7208 5.90877 32.1139 3.3928 31.5942C2.40501 34.5975 2.72458 38.2706 4.32248 40.7019C5.53107 42.5437 7.40207 44.8498 10.1253 44.788C12.6103 44.9149 14.7563 43.2175 16.4452 41.8013C18.262 40.2776 19.9006 38.0504 20.5901 35.6435C18.0528 34.9068 15.624 36.2765 13.8131 37.568ZM12.8978 47.0525C11.3522 48.7087 10.5232 51.3893 10.8002 53.8686C10.1823 51.38 8.89433 48.9676 7.32161 47.135C5.86316 45.4357 3.89143 43.1886 1.2883 43.1243C1.04232 46.2803 2.27417 49.4315 4.34079 51.7795C5.94838 53.6044 8.42172 55.1552 10.9551 54.7262C13.3917 54.4285 15.253 52.3625 16.4616 50.692C17.7593 48.8987 19.0163 46.5044 19.0686 43.9925C16.4713 43.7154 14.3853 45.4558 12.8978 47.0525ZM14.4898 56.1263C13.2579 58.5747 13.0236 61.4878 13.9746 64.0526C12.5723 61.4136 10.5212 59.2795 8.34997 57.3076C6.37632 55.5153 3.53301 53.6282 0.672279 53.9856C1.21847 57.523 3.38194 61.1915 6.28334 63.0772C8.61531 64.5918 11.4412 66.0916 14.4104 64.9588C16.8527 64.0975 18.4042 61.6375 19.3571 59.3804C20.3662 56.9921 21.0383 54.2387 20.5676 51.6257C17.889 51.8657 15.6674 53.7849 14.4898 56.1263ZM18.2076 65.4071C17.5743 68.1791 18.1147 71.132 19.6641 73.491C17.6014 71.1295 14.8588 69.1805 12.2324 67.8136C9.69323 66.4927 6.57877 64.8995 3.5321 65.865C5.0041 69.451 8.1515 72.7882 11.6378 74.167C14.3397 75.2361 17.6304 76.2932 20.4486 74.5059C22.7302 73.1289 23.6482 70.2476 24.024 67.7786C24.4269 65.11 24.4075 62.1678 23.2977 59.6379C20.6345 60.3836 18.8081 62.7816 18.2076 65.4071ZM31.315 75.4317C31.6539 78.0063 31.6481 81.2723 29.6493 83.2562C27.1546 85.8155 23.2867 85.3247 20.304 84.764C16.2986 84.0112 11.7896 81.2834 9.37043 77.6495C12.3183 76.0232 15.9286 77.0592 18.8494 77.898L19.0179 77.946C22.2776 78.8811 25.7523 80.3888 28.6595 82.4499C26.3392 80.3564 24.6483 77.2836 24.5631 74.1851C24.4856 71.413 25.6865 68.4459 28.2741 67.1223C30.0851 69.4938 30.9334 72.5398 31.315 75.4317ZM42.9356 90.5413C41.146 93.8471 36.7551 94.2288 33.5554 94.2964C28.7792 94.3971 23.3598 92.5298 19.5423 89.2903C22.0622 86.9719 26.1838 87.2369 29.3505 87.4407L29.7515 87.4662C33.693 87.7141 37.8359 88.5599 41.6302 89.9715C38.353 88.3769 35.1882 85.5759 34.2721 82.2883C33.5031 79.5237 33.2533 76.3419 35.8332 74.1163C38.5215 76.2178 40.4022 79.1456 41.7793 82.0189C42.9375 84.4359 44.3902 87.7017 42.9608 90.496L42.9356 90.5413Z" fill="url(#paint0_linear_0_3636)"/>
<g clip-path="url(#clip0_0_3636)">
<path d="M67.5393 6.81617C67.5393 3.05791 70.586 0.0112305 74.3442 0.0112305H90.7189C94.4772 0.0112305 97.5238 3.05791 97.5238 6.81617V23.1903C97.5238 26.9486 94.4772 29.9952 90.7189 29.9952H74.3442C70.586 29.9952 67.5393 26.9486 67.5393 23.1903V6.81617ZM100.023 6.81617C100.023 3.05791 103.069 0.0112305 106.827 0.0112305H123.202C126.96 0.0112305 130.007 3.05791 130.007 6.81617V23.1903C130.007 26.9486 126.96 29.9952 123.202 29.9952H106.827C103.069 29.9952 100.023 26.9486 100.023 23.1903V6.81617ZM132.506 6.81617C132.506 3.05791 135.552 0.0112305 139.311 0.0112305H155.685C159.444 0.0112305 162.49 3.05791 162.49 6.81617V23.1903C162.49 26.9486 159.444 29.9952 155.685 29.9952H139.311C135.552 29.9952 132.506 26.9486 132.506 23.1903V6.81617ZM164.989 6.81617C164.989 3.05791 168.036 0.0112305 171.794 0.0112305H188.169C191.927 0.0112305 194.974 3.05791 194.974 6.81617V23.1903C194.974 26.9486 191.927 29.9952 188.169 29.9952H171.794C168.036 29.9952 164.989 26.9486 164.989 23.1903V6.81617Z" fill="#00B67A"/>
<mask id="mask0_0_3636" style="mask-type:alpha" maskUnits="userSpaceOnUse" x="197" y="0" width="31" height="30">
<path d="M220.652 0.00634766H204.278C200.52 0.00634766 197.473 3.05302 197.473 6.81129V23.1854C197.473 26.9437 200.52 29.9904 204.278 29.9904H220.652C224.411 29.9904 227.457 26.9437 227.457 23.1854V6.81129C227.457 3.05302 224.411 0.00634766 220.652 0.00634766Z" fill="#00B67A"/>
</mask>
<g mask="url(#mask0_0_3636)">
<path d="M220.652 0.00634766H204.278C200.52 0.00634766 197.473 3.05302 197.473 6.81129V23.1854C197.473 26.9437 200.52 29.9904 204.278 29.9904H220.652C224.411 29.9904 227.457 26.9437 227.457 23.1854V6.81129C227.457 3.05302 224.411 0.00634766 220.652 0.00634766Z" fill="#00B67A"/>
<path d="M227.459 -0.000732422H212.998V30.6212H227.459V-0.000732422Z" fill="#394C5E"/>
</g>
<path d="M82.53 20.2173L87.0901 19.0616L88.9954 24.9335L82.53 20.2173ZM93.0246 12.6276H84.9975L82.53 5.06909L80.0625 12.6276H72.0354L78.532 17.3126L76.0646 24.871L82.5612 20.186L86.5592 17.3126L93.0246 12.6276ZM115.013 20.2173L119.573 19.0616L121.479 24.9335L115.013 20.2173ZM125.508 12.6276H117.481L115.013 5.06909L112.546 12.6276H104.519L111.015 17.3126L108.548 24.871L115.044 20.186L119.042 17.3126L125.508 12.6276ZM147.496 20.2173L152.057 19.0616L153.962 24.9335L147.496 20.2173ZM157.991 12.6276H149.964L147.496 5.06909L145.029 12.6276H137.002L143.499 17.3126L141.031 24.871L147.528 20.186L151.526 17.3126L157.991 12.6276ZM179.98 20.2173L184.54 19.0616L186.445 24.9335L179.98 20.2173ZM190.474 12.6276H182.447L179.98 5.06909L177.512 12.6276H169.485L175.982 17.3126L173.514 24.871L180.011 20.186L184.009 17.3126L190.474 12.6276ZM212.463 20.2173L217.023 19.0616L218.928 24.9335L212.463 20.2173ZM222.958 12.6276H214.93L212.463 5.06909L209.995 12.6276H201.968L208.465 17.3126L205.998 24.871L212.494 20.186L216.492 17.3126L222.958 12.6276Z" fill="white"/>
</g>
<path d="M70.8292 61H69.3292V46.64H74.4492C77.4892 46.64 79.3892 48.22 79.3892 50.98C79.3892 53.14 77.9692 54.76 75.7092 55.14L79.7692 61H77.9692L74.1092 55.32H70.8292V61ZM70.8292 47.9V54.06H74.3292C76.5292 54.06 77.8892 52.98 77.8892 50.98C77.8892 48.98 76.5292 47.9 74.3292 47.9H70.8292ZM88.1702 61V59.08C87.5502 60.4 86.2702 61.2 84.6302 61.2C82.4502 61.2 81.0302 59.98 81.0302 58.08C81.0302 56.02 82.6702 54.94 85.8702 54.94C86.5102 54.94 86.9902 54.98 88.0302 55.06V54.18C88.0302 52.42 87.0902 51.38 85.4902 51.38C83.7702 51.38 82.6902 52.44 82.6702 54.16H81.3902C81.4502 51.82 83.0702 50.26 85.4702 50.26C87.9302 50.26 89.3702 51.7 89.3702 54.14V61H88.1702ZM82.3702 58.04C82.3702 59.32 83.3502 60.18 84.8302 60.18C86.7902 60.18 88.0302 58.9 88.0302 56.92V55.98C87.1302 55.9 86.5102 55.88 85.9302 55.88C83.5302 55.88 82.3702 56.58 82.3702 58.04ZM97.6766 59.66V60.9C97.1366 61.12 96.6766 61.2 96.1566 61.2C94.4166 61.2 93.0766 60.3 93.0766 58.02V51.64H90.5966V50.46H93.0766V47.34H94.4766V50.46H97.7766V51.64H94.4766V57.72C94.4766 59.36 95.2766 59.92 96.4366 59.92C96.8766 59.92 97.2366 59.84 97.6766 59.66ZM103.701 61.2C100.741 61.2 98.7813 58.98 98.7813 55.64C98.7813 52.56 100.821 50.26 103.621 50.26C106.621 50.26 108.581 52.68 108.341 56.06H100.181C100.301 58.56 101.621 60.1 103.681 60.1C105.441 60.1 106.661 59.12 107.001 57.44H108.381C107.901 59.78 106.121 61.2 103.701 61.2ZM103.601 51.34C101.701 51.34 100.361 52.8 100.181 55.1H106.881C106.761 52.74 105.541 51.34 103.601 51.34ZM109.68 55.72C109.68 52.48 111.48 50.26 114.32 50.26C115.9 50.26 117.24 51.16 117.94 52.66V46.64H119.34V61H118.04V58.78C117.3 60.32 115.94 61.2 114.32 61.2C111.48 61.2 109.68 58.96 109.68 55.72ZM111.1 55.72C111.1 58.4 112.46 59.98 114.52 59.98C116.56 59.98 117.96 58.32 117.96 55.68C117.96 53.02 116.52 51.48 114.52 51.48C112.46 51.48 111.1 53.04 111.1 55.72ZM135.393 57.78H133.573V61H132.193V57.78H125.613V56.84L132.593 47.48H133.573V56.56H135.393V57.78ZM127.233 56.56H132.193V49.76L127.233 56.56ZM139.85 59.84C139.85 60.56 139.33 61.1 138.59 61.1C137.87 61.1 137.33 60.56 137.33 59.84C137.33 59.08 137.87 58.56 138.59 58.56C139.33 58.56 139.85 59.08 139.85 59.84ZM151.331 57.78H149.511V61H148.131V57.78H141.551V56.84L148.531 47.48H149.511V56.56H151.331V57.78ZM143.171 56.56H148.131V49.76L143.171 56.56ZM161.922 64.86H160.602C158.962 62.36 158.062 59.06 158.062 55.74C158.062 52.44 158.962 49.14 160.602 46.64H161.922C160.262 49.14 159.462 52.44 159.462 55.74C159.462 59.06 160.262 62.36 161.922 64.86ZM172.979 57.3C172.979 59.64 171.019 61.18 168.239 61.18C165.439 61.18 163.499 59.64 163.499 57.3C163.499 55.54 164.699 54.42 166.239 53.96C165.019 53.5 164.059 52.36 164.059 50.9C164.059 48.74 165.879 47.28 168.239 47.28C170.599 47.28 172.399 48.74 172.399 50.9C172.399 52.36 171.439 53.5 170.239 53.96C171.759 54.42 172.979 55.54 172.979 57.3ZM165.499 50.94C165.499 52.5 166.619 53.44 168.239 53.44C169.839 53.44 170.979 52.5 170.979 50.94C170.979 49.38 169.839 48.42 168.239 48.42C166.619 48.42 165.499 49.38 165.499 50.94ZM164.939 57.26C164.939 59 166.319 60.04 168.239 60.04C170.139 60.04 171.539 59 171.539 57.26C171.539 55.54 170.139 54.58 168.239 54.58C166.319 54.58 164.939 55.54 164.939 57.26ZM184.417 57.78H182.597V61H181.217V57.78H174.637V56.84L181.617 47.48H182.597V56.56H184.417V57.78ZM176.257 56.56H181.217V49.76L176.257 56.56ZM187.108 64.86H185.788C187.428 62.36 188.248 59.06 188.248 55.74C188.248 52.44 187.428 49.14 185.788 46.64H187.108C188.748 49.14 189.648 52.44 189.648 55.74C189.648 59.06 188.748 62.36 187.108 64.86ZM201.262 61.2C198.362 61.2 196.262 58.9 196.262 55.72C196.262 52.56 198.362 50.28 201.262 50.28C204.182 50.28 206.282 52.56 206.282 55.72C206.282 58.9 204.182 61.2 201.262 61.2ZM201.262 59.98C203.322 59.98 204.862 58.34 204.862 55.72C204.862 53.14 203.322 51.5 201.262 51.5C199.222 51.5 197.682 53.14 197.682 55.72C197.682 58.34 199.222 59.98 201.262 59.98ZM209.946 54.86V61H208.546V50.46H209.846V52.44C210.526 51.14 211.806 50.26 213.326 50.26C215.526 50.26 216.946 51.66 216.946 54.16V61H215.546V54.64C215.546 52.62 214.626 51.48 212.906 51.48C211.266 51.48 209.946 52.9 209.946 54.86Z" fill="#5D778D"/>
<g clip-path="url(#clip1_0_3636)">
<path d="M104.005 85.3765H116.299V87.6651H111.458V100.566H108.805V87.6651H103.985L104.005 85.3765ZM115.772 89.5689H118.04V91.6954H118.081C118.162 91.3917 118.304 91.1081 118.506 90.8246C118.709 90.541 118.952 90.2777 119.256 90.0549C119.539 89.8119 119.863 89.6296 120.228 89.4879C120.572 89.3461 120.937 89.2651 121.301 89.2651C121.585 89.2651 121.787 89.2853 121.889 89.2853C121.99 89.3056 122.111 89.3258 122.213 89.3258V91.6549C122.051 91.6144 121.868 91.5942 121.686 91.5739C121.504 91.5537 121.342 91.5334 121.159 91.5334C120.754 91.5334 120.37 91.6144 120.005 91.7765C119.64 91.9385 119.337 92.1815 119.053 92.4853C118.79 92.8094 118.567 93.1942 118.405 93.66C118.243 94.1258 118.162 94.6727 118.162 95.2803V100.506H115.732L115.772 89.5689ZM133.352 100.566H130.962V99.0271H130.922C130.618 99.5942 130.172 100.02 129.585 100.364C128.997 100.708 128.39 100.87 127.782 100.87C126.344 100.87 125.291 100.526 124.643 99.7967C123.995 99.0879 123.671 97.9942 123.671 96.5562V89.5689H126.101V96.3132C126.101 97.2853 126.284 97.9739 126.668 98.3587C127.033 98.7638 127.559 98.9663 128.228 98.9663C128.734 98.9663 129.159 98.8853 129.504 98.7233C129.848 98.5613 130.132 98.3587 130.334 98.0954C130.557 97.8322 130.699 97.5081 130.8 97.1435C130.901 96.779 130.942 96.3739 130.942 95.9486V89.5689H133.372V100.566H133.352ZM137.484 97.0423C137.565 97.7511 137.828 98.2372 138.294 98.541C138.76 98.8246 139.327 98.9663 139.975 98.9663C140.198 98.9663 140.461 98.9461 140.744 98.9056C141.028 98.8651 141.311 98.8043 141.555 98.703C141.818 98.6018 142.02 98.46 142.182 98.2575C142.344 98.0549 142.425 97.8119 142.405 97.5081C142.385 97.2043 142.284 96.941 142.061 96.7385C141.838 96.536 141.575 96.3942 141.251 96.2524C140.927 96.1309 140.542 96.0296 140.117 95.9486C139.691 95.8676 139.266 95.7663 138.82 95.6651C138.375 95.5638 137.929 95.4423 137.504 95.3005C137.079 95.1587 136.714 94.9765 136.37 94.7132C136.046 94.4701 135.762 94.1663 135.58 93.7815C135.377 93.3967 135.276 92.9511 135.276 92.3841C135.276 91.7765 135.418 91.2904 135.722 90.8853C136.005 90.4803 136.39 90.1562 136.835 89.9132C137.281 89.6701 137.787 89.4879 138.334 89.3866C138.881 89.2853 139.408 89.2448 139.894 89.2448C140.461 89.2448 141.008 89.3056 141.514 89.4271C142.02 89.5486 142.506 89.7309 142.911 90.0144C143.337 90.2777 143.681 90.6423 143.944 91.0676C144.228 91.4929 144.39 92.0195 144.471 92.6271H141.939C141.818 92.0398 141.555 91.6549 141.149 91.4524C140.724 91.2499 140.258 91.1486 139.711 91.1486C139.549 91.1486 139.327 91.1689 139.104 91.1891C138.861 91.2296 138.658 91.2701 138.436 91.3511C138.233 91.4322 138.051 91.5537 137.909 91.6954C137.767 91.8372 137.686 92.0398 137.686 92.2828C137.686 92.5866 137.787 92.8094 137.99 92.9916C138.192 93.1739 138.456 93.3157 138.8 93.4575C139.124 93.579 139.509 93.6803 139.934 93.7613C140.36 93.8423 140.805 93.9436 141.251 94.0448C141.696 94.1461 142.122 94.2676 142.547 94.4094C142.972 94.5511 143.357 94.7334 143.681 94.9967C144.005 95.2398 144.289 95.5436 144.491 95.9081C144.694 96.2727 144.795 96.7385 144.795 97.2651C144.795 97.9132 144.653 98.46 144.349 98.9258C144.046 99.3714 143.661 99.7562 143.195 100.04C142.729 100.323 142.182 100.526 141.615 100.668C141.028 100.789 140.461 100.87 139.894 100.87C139.205 100.87 138.557 100.789 137.97 100.627C137.382 100.465 136.856 100.222 136.43 99.9182C136.005 99.5942 135.661 99.2094 135.418 98.7233C135.175 98.2575 135.033 97.6904 135.013 97.022H137.463V97.0423H137.484ZM145.484 89.5689H147.327V86.2473H149.757V89.5486H151.944V91.3511H149.757V97.2246C149.757 97.4879 149.777 97.6904 149.798 97.8929C149.818 98.0752 149.879 98.2372 149.939 98.3587C150.02 98.4803 150.142 98.5815 150.284 98.6423C150.446 98.703 150.648 98.7436 150.932 98.7436C151.094 98.7436 151.276 98.7436 151.438 98.7233C151.6 98.703 151.782 98.6828 151.944 98.6423V100.526C151.681 100.566 151.418 100.587 151.155 100.607C150.891 100.647 150.648 100.647 150.365 100.647C149.717 100.647 149.21 100.587 148.825 100.465C148.441 100.344 148.137 100.161 147.914 99.9385C147.691 99.6954 147.549 99.4119 147.468 99.0676C147.387 98.7233 147.347 98.298 147.327 97.8524V91.3714H145.484V89.5284V89.5689ZM153.646 89.5689H155.934V91.0676H155.975C156.319 90.4195 156.785 89.9739 157.393 89.6904C158 89.4068 158.648 89.2651 159.377 89.2651C160.248 89.2651 160.998 89.4068 161.646 89.7309C162.294 90.0347 162.82 90.4398 163.246 90.9866C163.671 91.5132 163.995 92.141 164.198 92.8499C164.4 93.5587 164.522 94.3284 164.522 95.1182C164.522 95.8676 164.421 96.5765 164.238 97.2651C164.036 97.9537 163.752 98.5815 163.367 99.1081C162.983 99.6347 162.496 100.06 161.889 100.384C161.281 100.708 160.593 100.87 159.782 100.87C159.438 100.87 159.074 100.83 158.729 100.769C158.385 100.708 158.041 100.607 157.717 100.465C157.393 100.323 157.089 100.141 156.826 99.9182C156.542 99.6954 156.319 99.4322 156.137 99.1486H156.096V104.637H153.666V89.5689H153.646ZM162.132 95.0777C162.132 94.5917 162.071 94.1056 161.929 93.6398C161.808 93.1739 161.605 92.7689 161.342 92.4043C161.079 92.0398 160.755 91.7562 160.39 91.5334C160.005 91.3106 159.56 91.2094 159.074 91.2094C158.061 91.2094 157.291 91.5537 156.765 92.2625C156.258 92.9714 155.995 93.9233 155.995 95.098C155.995 95.6651 156.056 96.1714 156.198 96.6372C156.339 97.103 156.522 97.5081 156.805 97.8524C157.069 98.1967 157.393 98.46 157.777 98.6625C158.162 98.8651 158.588 98.9663 159.094 98.9663C159.661 98.9663 160.107 98.8448 160.491 98.622C160.876 98.3992 161.18 98.0954 161.443 97.7511C161.686 97.3866 161.869 96.9815 161.97 96.5157C162.071 96.0296 162.132 95.5638 162.132 95.0777ZM166.405 85.3765H168.836V87.6651H166.405V85.3765ZM166.405 89.5689H168.836V100.566H166.405V89.5689ZM171.003 85.3765H173.433V100.566H171.003V85.3765ZM180.846 100.87C179.975 100.87 179.185 100.728 178.497 100.425C177.808 100.121 177.241 99.736 176.755 99.2296C176.289 98.7233 175.924 98.0954 175.681 97.3866C175.438 96.6777 175.297 95.8879 175.297 95.0575C175.297 94.2271 175.418 93.4575 175.681 92.7486C175.924 92.0398 176.289 91.4322 176.755 90.9056C177.221 90.3992 177.808 89.9942 178.497 89.7106C179.185 89.4271 179.975 89.2651 180.846 89.2651C181.717 89.2651 182.507 89.4068 183.195 89.7106C183.884 89.9942 184.451 90.3992 184.937 90.9056C185.403 91.4119 185.767 92.0398 186.011 92.7486C186.254 93.4575 186.395 94.2271 186.395 95.0575C186.395 95.9081 186.274 96.6777 186.011 97.3866C185.747 98.0954 185.403 98.703 184.937 99.2296C184.471 99.736 183.884 100.141 183.195 100.425C182.507 100.708 181.737 100.87 180.846 100.87ZM180.846 98.9461C181.373 98.9461 181.859 98.8246 182.243 98.6018C182.648 98.379 182.952 98.0752 183.216 97.7106C183.479 97.3461 183.661 96.9208 183.783 96.4752C183.904 96.0094 183.965 95.5435 183.965 95.0575C183.965 94.5917 183.904 94.1258 183.783 93.66C183.661 93.1942 183.479 92.7891 183.216 92.4246C182.952 92.06 182.628 91.7765 182.243 91.5537C181.838 91.3309 181.373 91.2094 180.846 91.2094C180.319 91.2094 179.833 91.3309 179.448 91.5537C179.043 91.7765 178.74 92.0803 178.476 92.4246C178.213 92.7891 178.031 93.1942 177.909 93.66C177.788 94.1258 177.727 94.5917 177.727 95.0575C177.727 95.5435 177.788 96.0094 177.909 96.4752C178.031 96.941 178.213 97.3461 178.476 97.7106C178.74 98.0752 179.064 98.379 179.448 98.6018C179.854 98.8448 180.319 98.9461 180.846 98.9461ZM187.124 89.5689H188.968V86.2473H191.398V89.5486H193.585V91.3511H191.398V97.2246C191.398 97.4879 191.418 97.6904 191.438 97.8929C191.459 98.0752 191.519 98.2372 191.58 98.3587C191.661 98.4803 191.783 98.5815 191.924 98.6423C192.087 98.703 192.289 98.7436 192.573 98.7436C192.735 98.7436 192.917 98.7436 193.079 98.7233C193.241 98.703 193.423 98.6828 193.585 98.6423V100.526C193.322 100.566 193.059 100.587 192.795 100.607C192.532 100.647 192.289 100.647 192.006 100.647C191.357 100.647 190.851 100.587 190.466 100.465C190.081 100.344 189.778 100.161 189.555 99.9385C189.332 99.6954 189.19 99.4119 189.109 99.0676C189.028 98.7233 188.988 98.298 188.968 97.8524V91.3714H187.124V89.5284V89.5689Z" fill="#394C5E"/>
<path d="M101.163 85.3778H90.0438L86.621 74.8057L83.1779 85.3778L72.0588 85.3576L81.0513 91.8993L77.6082 102.471L86.6007 95.9297L95.5932 102.471L92.1704 91.8993L101.163 85.3778Z" fill="#00B67A"/>
<path d="M92.9482 94.2893L92.1786 91.8994L86.6292 95.9298L92.9482 94.2893Z" fill="#005128"/>
</g>
<path fill-rule="evenodd" clip-rule="evenodd" d="M280.835 27.9383C281.587 24.7927 280.058 21.8575 278.466 19.4781C276.713 16.8586 273.785 14.5359 270.514 13.6992C271.106 16.668 272.836 19.2292 274.502 21.6379C276.156 24.0304 278.242 26.4539 280.835 27.9383ZM277.965 28.3138C280.166 29.3246 282.188 31.4919 283.112 33.9774C282.529 31.4847 282.544 28.7561 283.104 26.4186C283.594 24.365 284.311 21.4625 286.658 20.4842C288.36 23.2211 289.042 26.9466 288.045 29.7362C287.324 31.7549 286.029 34.4235 283.348 34.8341C280.888 35.3987 278.403 34.0851 276.441 33.0009C274.258 31.795 272.122 29.8777 270.824 27.5993C273.208 26.3981 275.922 27.3763 277.965 28.3138ZM281.187 37.568C283.077 38.916 284.528 41.3806 284.84 43.9109C284.867 41.3756 285.556 38.7581 286.664 36.6497C287.677 34.7208 289.091 32.1139 291.607 31.5942C292.595 34.5975 292.275 38.2706 290.678 40.7019C289.469 42.5437 287.598 44.8498 284.875 44.788C282.39 44.9149 280.244 43.2175 278.555 41.8013C276.738 40.2776 275.099 38.0504 274.41 35.6435C276.947 34.9068 279.376 36.2765 281.187 37.568ZM282.102 47.0525C283.648 48.7087 284.477 51.3893 284.2 53.8686C284.818 51.38 286.106 48.9676 287.678 47.135C289.137 45.4357 291.109 43.1886 293.712 43.1243C293.958 46.2803 292.726 49.4315 290.659 51.7795C289.052 53.6044 286.578 55.1552 284.045 54.7262C281.608 54.4285 279.747 52.3625 278.538 50.692C277.241 48.8987 275.984 46.5044 275.931 43.9925C278.529 43.7154 280.615 45.4558 282.102 47.0525ZM280.51 56.1263C281.742 58.5747 281.976 61.4878 281.025 64.0526C282.428 61.4136 284.479 59.2795 286.65 57.3076C288.624 55.5153 291.467 53.6282 294.328 53.9856C293.782 57.523 291.618 61.1915 288.717 63.0772C286.385 64.5918 283.559 66.0916 280.59 64.9588C278.147 64.0975 276.596 61.6375 275.643 59.3804C274.634 56.9921 273.962 54.2387 274.432 51.6257C277.111 51.8657 279.333 53.7849 280.51 56.1263ZM276.792 65.4071C277.426 68.1791 276.885 71.132 275.336 73.491C277.399 71.1295 280.141 69.1805 282.768 67.8136C285.307 66.4927 288.421 64.8995 291.468 65.865C289.996 69.451 286.848 72.7882 283.362 74.167C280.66 75.2361 277.37 76.2932 274.551 74.5059C272.27 73.1289 271.352 70.2476 270.976 67.7786C270.573 65.11 270.593 62.1678 271.702 59.6379C274.365 60.3836 276.192 62.7816 276.792 65.4071ZM263.685 75.4317C263.346 78.0063 263.352 81.2723 265.351 83.2562C267.845 85.8155 271.713 85.3247 274.696 84.764C278.701 84.0112 283.21 81.2834 285.63 77.6495C282.682 76.0232 279.071 77.0592 276.151 77.898L275.982 77.946C272.722 78.8811 269.248 80.3888 266.34 82.4499C268.661 80.3564 270.352 77.2836 270.437 74.1851C270.514 71.413 269.314 68.4459 266.726 67.1223C264.915 69.4938 264.067 72.5398 263.685 75.4317ZM252.064 90.5413C253.854 93.8471 258.245 94.2288 261.445 94.2964C266.221 94.3971 271.64 92.5298 275.458 89.2903C272.938 86.9719 268.816 87.2369 265.649 87.4407L265.249 87.4662C261.307 87.7141 257.164 88.5599 253.37 89.9715C256.647 88.3769 259.812 85.5759 260.728 82.2883C261.497 79.5237 261.747 76.3419 259.167 74.1163C256.478 76.2178 254.598 79.1456 253.221 82.0189C252.062 84.4359 250.61 87.7017 252.039 90.496L252.064 90.5413Z" fill="url(#paint1_linear_0_3636)"/>
<defs>
<linearGradient id="paint0_linear_0_3636" x1="31.125" y1="13.9036" x2="31.5495" y2="94.3003" gradientUnits="userSpaceOnUse">
<stop stop-color="#778EA1" stop-opacity="0.4"/>
<stop offset="1" stop-color="#778EA1" stop-opacity="0.1"/>
</linearGradient>
<linearGradient id="paint1_linear_0_3636" x1="263.875" y1="13.9036" x2="263.451" y2="94.3003" gradientUnits="userSpaceOnUse">
<stop stop-color="#778EA1" stop-opacity="0.4"/>
<stop offset="1" stop-color="#778EA1" stop-opacity="0.1"/>
</linearGradient>
<clipPath id="clip0_0_3636">
<rect width="159.918" height="30" fill="white" transform="translate(67.5413)"/>
</clipPath>
<clipPath id="clip1_0_3636">
<rect width="126.401" height="32" fill="white" transform="translate(67.5413 73)"/>
</clipPath>
</defs>
</svg>
