<svg width="25" height="25" viewBox="0 0 25 25" fill="none" xmlns="http://www.w3.org/2000/svg">
<path fill-rule="evenodd" clip-rule="evenodd" d="M21.6311 6.40597C20.9429 6.71148 20.2033 6.91723 19.4271 7.00997C20.2197 6.53534 20.8284 5.78327 21.1144 4.88701C20.3732 5.32657 19.5518 5.6461 18.6773 5.81834C17.9783 5.0725 16.9799 4.60645 15.8764 4.60645C13.3988 4.60645 11.5782 6.91801 12.1378 9.31764C8.94946 9.15787 6.12197 7.63034 4.22892 5.30864C3.22355 7.03335 3.70753 9.28958 5.41587 10.4321C4.78772 10.4118 4.19541 10.2396 3.6787 9.95203C3.63661 11.7297 4.91085 13.3929 6.75636 13.7631C6.21627 13.9096 5.62474 13.9439 5.02308 13.8285C5.51096 15.3529 6.92782 16.462 8.6081 16.4931C6.99484 17.758 4.96229 18.3231 2.92662 18.083C4.62483 19.1718 6.64258 19.8069 8.80918 19.8069C15.934 19.8069 19.9594 13.7896 19.7162 8.39254C20.466 7.85089 21.1167 7.17519 21.6311 6.40597Z" fill="#0188FF"/>
</svg>
