<svg width="17" height="16" viewBox="0 0 17 16" fill="none" xmlns="http://www.w3.org/2000/svg">
<path fill-rule="evenodd" clip-rule="evenodd" d="M8.33594 0.666626C4.28585 0.666626 1.00261 3.94987 1.00261 7.99996C1.00261 12.05 4.28585 15.3333 8.33594 15.3333C12.386 15.3333 15.6693 12.05 15.6693 7.99996C15.6693 3.94987 12.386 0.666626 8.33594 0.666626ZM11.8073 6.47136C12.0677 6.21101 12.0677 5.7889 11.8073 5.52855C11.547 5.26821 11.1249 5.26821 10.8645 5.52855L7.33594 9.05715L5.80734 7.52855C5.54699 7.26821 5.12488 7.26821 4.86453 7.52855C4.60418 7.7889 4.60418 8.21101 4.86453 8.47136L6.86453 10.4714C7.12488 10.7317 7.54699 10.7317 7.80734 10.4714L11.8073 6.47136Z" fill="url(#paint0_linear_371_2148)"/>
<defs>
<linearGradient id="paint0_linear_371_2148" x1="1.33601" y1="16" x2="15.3358" y2="0.999808" gradientUnits="userSpaceOnUse">
<stop stop-color="#0188FF"/>
<stop offset="0.695207" stop-color="#D670CB"/>
<stop offset="1" stop-color="#FF6BC1"/>
</linearGradient>
</defs>
</svg>
