<svg width="88" height="17" viewBox="0 0 88 17" fill="none" xmlns="http://www.w3.org/2000/svg">
<path d="M7.52163 1.56892C7.71726 1.17252 8.28251 1.17252 8.47814 1.56892L10.2269 5.11235C10.3046 5.26976 10.4548 5.37886 10.6285 5.40411L14.5388 5.97232C14.9763 6.03589 15.1509 6.57347 14.8344 6.88202L12.0048 9.64021C11.8791 9.76273 11.8218 9.93926 11.8515 10.1123L12.5194 14.0069C12.5941 14.4426 12.1368 14.7748 11.7456 14.5691L8.24807 12.7303C8.09269 12.6486 7.90707 12.6486 7.7517 12.7303L4.25418 14.5691C3.86292 14.7748 3.40562 14.4426 3.48035 14.0069L4.14832 10.1123C4.17799 9.93926 4.12063 9.76273 3.99493 9.64021L1.16536 6.88202C0.848825 6.57346 1.0235 6.03589 1.46094 5.97232L5.3713 5.40411C5.54501 5.37886 5.69518 5.26976 5.77287 5.11235L7.52163 1.56892Z" fill="#0188FF"/>
<path d="M25.5214 1.56892C25.717 1.17252 26.2823 1.17252 26.4779 1.56892L28.2267 5.11235C28.3043 5.26976 28.4545 5.37886 28.6282 5.40411L32.5386 5.97232C32.976 6.03589 33.1507 6.57347 32.8342 6.88202L30.0046 9.64021C29.8789 9.76273 29.8215 9.93926 29.8512 10.1123L30.5192 14.0069C30.5939 14.4426 30.1366 14.7748 29.7453 14.5691L26.2478 12.7303C26.0924 12.6486 25.9068 12.6486 25.7515 12.7303L22.2539 14.5691C21.8627 14.7748 21.4054 14.4426 21.4801 14.0069L22.1481 10.1123C22.1777 9.93926 22.1204 9.76273 21.9947 9.64021L19.1651 6.88202C18.8486 6.57346 19.0233 6.03589 19.4607 5.97232L23.3711 5.40411C23.5448 5.37886 23.6949 5.26976 23.7726 5.11235L25.5214 1.56892Z" fill="#0188FF"/>
<path d="M43.5211 1.56892C43.7168 1.17252 44.282 1.17252 44.4777 1.56892L46.2264 5.11235C46.3041 5.26976 46.4543 5.37886 46.628 5.40411L50.5383 5.97232C50.9758 6.03589 51.1505 6.57347 50.8339 6.88202L48.0043 9.64021C47.8786 9.76273 47.8213 9.93926 47.851 10.1123L48.5189 14.0069C48.5937 14.4426 48.1364 14.7748 47.7451 14.5691L44.2476 12.7303C44.0922 12.6486 43.9066 12.6486 43.7512 12.7303L40.2537 14.5691C39.8624 14.7748 39.4051 14.4426 39.4799 14.0069L40.1478 10.1123C40.1775 9.93926 40.1201 9.76273 39.9944 9.64021L37.1649 6.88202C36.8483 6.57346 37.023 6.03589 37.4605 5.97232L41.3708 5.40411C41.5445 5.37886 41.6947 5.26976 41.7724 5.11235L43.5211 1.56892Z" fill="#0188FF"/>
<path d="M61.521 1.56892C61.7166 1.17252 62.2818 1.17252 62.4775 1.56892L64.2262 5.11235C64.3039 5.26976 64.4541 5.37886 64.6278 5.40411L68.5382 5.97232C68.9756 6.03589 69.1503 6.57347 68.8337 6.88202L66.0042 9.64021C65.8785 9.76273 65.8211 9.93926 65.8508 10.1123L66.5187 14.0069C66.5935 14.4426 66.1362 14.7748 65.7449 14.5691L62.2474 12.7303C62.092 12.6486 61.9064 12.6486 61.751 12.7303L58.2535 14.5691C57.8622 14.7748 57.405 14.4426 57.4797 14.0069L58.1476 10.1123C58.1773 9.93926 58.12 9.76273 57.9943 9.64021L55.1647 6.88202C54.8482 6.57346 55.0228 6.03589 55.4603 5.97232L59.3706 5.40411C59.5443 5.37886 59.6945 5.26976 59.7722 5.11235L61.521 1.56892Z" fill="#0188FF"/>
<path d="M79.5207 1.56892C79.7163 1.17252 80.2816 1.17252 80.4772 1.56892L82.226 5.11235C82.3037 5.26976 82.4538 5.37886 82.6276 5.40411L86.5379 5.97232C86.9754 6.03589 87.15 6.57347 86.8335 6.88202L84.0039 9.64021C83.8782 9.76273 83.8209 9.93926 83.8505 10.1123L84.5185 14.0069C84.5932 14.4426 84.1359 14.7748 83.7447 14.5691L80.2472 12.7303C80.0918 12.6486 79.9062 12.6486 79.7508 12.7303L76.2533 14.5691C75.862 14.7748 75.4047 14.4426 75.4794 14.0069L76.1474 10.1123C76.1771 9.93926 76.1197 9.76273 75.994 9.64021L73.1644 6.88202C72.8479 6.57346 73.0226 6.03589 73.46 5.97232L77.3704 5.40411C77.5441 5.37886 77.6943 5.26976 77.772 5.11235L79.5207 1.56892Z" fill="#0188FF"/>
</svg>
