<svg width="16" height="16" viewBox="0 0 16 16" fill="none" xmlns="http://www.w3.org/2000/svg">
<path fill-rule="evenodd" clip-rule="evenodd" d="M8.00002 0.666626C3.94993 0.666626 0.666687 3.94987 0.666687 7.99996C0.666687 12.05 3.94993 15.3333 8.00002 15.3333C12.0501 15.3333 15.3334 12.05 15.3334 7.99996C15.3334 3.94987 12.0501 0.666626 8.00002 0.666626ZM10.4714 5.52855C10.7318 5.7889 10.7318 6.21101 10.4714 6.47136L8.94283 7.99996L10.4714 9.52855C10.7318 9.7889 10.7318 10.211 10.4714 10.4714C10.2111 10.7317 9.78897 10.7317 9.52862 10.4714L8.00002 8.94277L6.47143 10.4714C6.21108 10.7317 5.78897 10.7317 5.52862 10.4714C5.26827 10.211 5.26827 9.7889 5.52862 9.52855L7.05721 7.99996L5.52862 6.47136C5.26827 6.21101 5.26827 5.7889 5.52862 5.52855C5.78897 5.26821 6.21108 5.26821 6.47143 5.52855L8.00002 7.05715L9.52862 5.52855C9.78897 5.26821 10.2111 5.26821 10.4714 5.52855Z" fill="#E2EAF1"/>
</svg>
